<svg width="100" height="100" viewBox="0 0 100 100" fill="none" xmlns="http://www.w3.org/2000/svg">
<circle cx="50" cy="50" r="50" fill="#388CFF"/>
<path d="M37.2729 37.7301C36.9726 38.3908 37.2729 39.1517 37.9337 39.452C38.1139 39.5321 38.2941 39.5722 38.4543 39.5722C38.9549 39.5722 39.4354 39.2919 39.6357 38.7913L39.896 38.2306H44.3811L44.6214 38.7913C44.8417 39.2718 45.3222 39.5722 45.8028 39.5722C45.983 39.5722 46.1632 39.5321 46.3234 39.452C46.9841 39.1517 47.2845 38.3908 46.9841 37.7301L43.5001 29.861C43.2598 29.3404 42.7392 29 42.1386 29C41.5379 29 41.0173 29.3204 40.757 29.841L37.2529 37.71L37.2729 37.7301ZM41.0573 35.6276L42.1586 33.1648L43.2398 35.6276H41.0573Z" fill="white"/>
<path d="M31.2859 31.5874H32.3671V38.2551C32.3671 38.9759 32.9478 39.5566 33.6686 39.5566C34.3895 39.5566 34.9701 38.9759 34.9701 38.2551V31.5874H36.0714C36.7922 31.5874 37.3729 31.0067 37.3729 30.2859C37.3729 29.565 36.7922 28.9844 36.0714 28.9844H31.2859C30.565 28.9844 29.9844 29.565 29.9844 30.2859C29.9844 31.0067 30.565 31.5874 31.2859 31.5874Z" fill="white"/>
<path d="M56.9802 37.3748L54.6175 33.9909L56.6999 31.0275C57.1204 30.4468 56.9602 29.6258 56.3795 29.2054C55.7988 28.7849 54.9779 28.9451 54.5574 29.5257L53.0357 31.7082L51.5139 29.5257C51.1134 28.9451 50.2925 28.7849 49.6918 29.2054C49.0911 29.6258 48.951 30.4268 49.3714 31.0275L51.4338 33.9909L48.971 37.5149C48.5505 38.0956 48.7107 38.9165 49.2913 39.337C49.5116 39.4972 49.7719 39.5773 50.0322 39.5773C50.4527 39.5773 50.8531 39.3771 51.0934 39.0167L53.0156 36.2735L54.6976 38.6763C55.2382 38.0355 55.9991 37.575 56.9802 37.3948V37.3748Z" fill="white"/>
<path d="M61.9838 23H25.3015C24.5807 23 24 23.5807 24 24.3015V72.3569C24 73.0777 24.5807 73.6584 25.3015 73.6584H43.5225C43.2222 72.8374 43.1421 71.9164 43.3022 71.0554H26.603V25.603H60.6823V36.7559C60.8224 36.7559 60.9426 36.7158 61.1028 36.7158C61.9838 36.7158 62.7046 36.9561 63.2853 37.3165V24.3015C63.2853 23.5807 62.7046 23 61.9838 23Z" fill="white"/>
<path d="M40.2963 59.6002H53.4714C53.8719 58.6792 54.5727 57.9183 55.5739 57.5178C55.5739 57.3376 55.5739 57.1774 55.5739 56.9972H40.2762V53.6133H53.2111C52.7907 52.8324 52.6105 51.9114 52.6705 51.0103H40.2762V47.6264H51.4892C51.2689 46.7654 51.2889 45.8644 51.5492 45.0234H31.5462C30.6852 45.0234 29.9844 45.6041 29.9844 46.3249V64.2656C29.9844 64.9864 30.6852 65.5671 31.5462 65.5671H44.2809C44.421 64.566 44.8615 63.6449 45.6024 62.9641H40.2963V59.5802V59.6002ZM37.1727 62.9841H33.108V59.6002H37.1727V62.9841ZM37.1727 56.9972H33.108V53.6133H37.1727V56.9972ZM37.1727 51.0103H33.108V47.6264H37.1727V51.0103Z" fill="white"/>
<path d="M70.612 59.8222L66.1468 57.5997C69.2905 54.9967 71.5331 50.2712 71.5331 46.1465C71.5331 40.0395 66.5673 35.0938 60.4803 35.0938C54.3933 35.0938 49.4276 40.0595 49.4276 46.1465C49.4276 50.2712 51.6702 54.9967 54.8138 57.5997L50.3486 59.8222C45.7433 59.9824 42.0391 63.7868 42.0391 68.4121V75.7806C42.0391 76.4614 42.5797 77.002 43.2605 77.002H77.6801C78.3609 77.002 78.9015 76.4614 78.9015 75.7806V68.4121C78.9015 63.7668 75.1973 59.9824 70.592 59.8222H70.612ZM68.5096 61.5242L64.9655 66.8303L62.2624 65.4888L65.8065 60.1827L68.5096 61.5242ZM60.4803 37.5366C64.8053 37.5366 68.3894 40.7403 68.9901 44.9051H67.8488C65.8065 44.9051 64.1646 43.2431 64.1646 41.2208C64.1646 40.54 63.6239 39.9994 62.9432 39.9994C62.2624 39.9994 61.7217 40.54 61.7217 41.2208C61.7217 43.2632 60.0598 44.9051 58.0375 44.9051H51.9705C52.5712 40.7403 56.1553 37.5366 60.4803 37.5366ZM55.1342 60.1827L58.6782 65.4888L55.9751 66.8303L52.431 61.5242L55.1342 60.1827ZM59.2389 74.5793H44.4819V68.4322C44.4819 65.2485 46.9047 62.6455 49.9882 62.3251L54.5134 69.113C54.8538 69.6336 55.5346 69.8138 56.0953 69.5334L59.2389 67.9716V74.5793ZM57.3567 59.0814C57.9774 58.3005 57.9174 57.1592 57.2166 56.4384C57.0964 56.3182 56.8561 56.0779 56.696 55.9578C54.2531 54.1357 52.3509 50.6116 51.9505 47.3679H58.0175C60.0198 47.3679 61.8018 46.4068 62.9432 44.9051C64.0644 46.4068 65.8465 47.3679 67.8688 47.3679H69.0101C68.6097 50.6116 66.7075 54.1557 64.2647 55.9778C64.1045 56.098 63.8842 56.3182 63.7441 56.4584C63.0232 57.1792 62.9832 58.3205 63.6039 59.1014L60.4803 63.7868L57.3567 59.1014V59.0814ZM76.4587 74.5793H61.7017V67.9716L64.8453 69.5334C65.406 69.8138 66.0668 69.6336 66.4272 69.113L70.9524 62.3251C74.0359 62.6455 76.4587 65.2685 76.4587 68.4322V74.5793Z" fill="white"/>
<path d="M72.7721 69.6562H67.8464C67.1656 69.6562 66.625 70.1969 66.625 70.8777C66.625 71.5584 67.1656 72.0991 67.8464 72.0991H72.7721C73.4529 72.0991 73.9935 71.5584 73.9935 70.8777C73.9935 70.1969 73.4529 69.6562 72.7721 69.6562Z" fill="white"/>
</svg>
