<svg width="100" height="100" viewBox="0 0 100 100" fill="none" xmlns="http://www.w3.org/2000/svg">
<circle cx="50" cy="50" r="50" fill="#388CFF"/>
<g clip-path="url(#clip0_5473_19167)">
<path d="M68.6531 34.025C69.523 34.025 70.2281 33.3198 70.2281 32.45C70.2281 31.5802 69.523 30.875 68.6531 30.875C67.7833 30.875 67.0781 31.5802 67.0781 32.45C67.0781 33.3198 67.7833 34.025 68.6531 34.025Z" fill="white"/>
<path d="M62.3719 34.025C63.2417 34.025 63.9469 33.3198 63.9469 32.45C63.9469 31.5802 63.2417 30.875 62.3719 30.875C61.502 30.875 60.7969 31.5802 60.7969 32.45C60.7969 33.3198 61.502 34.025 62.3719 34.025Z" fill="white"/>
<path d="M56.1219 34.025C56.9917 34.025 57.6969 33.3198 57.6969 32.45C57.6969 31.5802 56.9917 30.875 56.1219 30.875C55.252 30.875 54.5469 31.5802 54.5469 32.45C54.5469 33.3198 55.252 34.025 56.1219 34.025Z" fill="white"/>
<path d="M24.575 70.1125H34.8575C34.655 70.675 34.79 71.305 35.2175 71.755L39.47 75.985C40.0325 76.5475 40.9325 76.5925 41.5625 76.0975L44.7575 73.5325L45.2075 77.605C45.2975 78.3925 45.9725 79 46.76 79H52.745C53.5325 79 54.2075 78.3925 54.2975 77.605L54.7475 73.465L57.9875 76.0525C58.6175 76.5475 59.5175 76.5025 60.08 75.94L64.31 71.6875C64.7375 71.26 64.8725 70.6525 64.6925 70.1125H74.9075C75.7625 70.1125 76.4825 69.415 76.4825 68.5375V26.575C76.4825 25.72 75.785 25 74.9075 25H24.575C23.72 25 23 25.6975 23 26.575V68.56C23 69.415 23.6975 70.135 24.575 70.135V70.1125ZM58.865 72.7225L55.76 70.2475C55.2875 69.865 54.635 69.7975 54.0725 70.0675C53.6675 70.27 53.2625 70.45 52.835 70.585C52.25 70.7875 51.845 71.2825 51.7775 71.89L51.35 75.85H48.155L47.7275 71.89C47.66 71.2825 47.255 70.765 46.67 70.585C46.265 70.45 45.86 70.27 45.4775 70.09C44.9375 69.82 44.285 69.8875 43.79 70.27L40.685 72.7675L38.435 70.5175L40.91 67.4125C41.2925 66.94 41.36 66.2875 41.09 65.725C40.8875 65.32 40.7075 64.915 40.5725 64.4875C40.37 63.9025 39.875 63.4975 39.2675 63.43L35.3075 63.0025V59.8075L39.2675 59.38C39.875 59.3125 40.3925 58.9075 40.5725 58.3225C40.7075 57.9175 40.8875 57.5125 41.0675 57.13C41.3375 56.59 41.27 55.9375 40.8875 55.4425L38.39 52.3375L40.64 50.0875L43.745 52.5625C44.2175 52.945 44.87 53.0125 45.4325 52.7425C45.8375 52.54 46.2425 52.36 46.67 52.225C47.255 52.0225 47.66 51.5275 47.7275 50.92L48.155 46.96H51.35L51.7775 50.92C51.845 51.5275 52.25 52.045 52.835 52.225C53.24 52.36 53.645 52.54 54.0275 52.72C54.5675 52.99 55.22 52.9225 55.715 52.54L58.82 50.0425L61.07 52.2925L58.595 55.3975C58.2125 55.87 58.145 56.5225 58.415 57.085C58.6175 57.49 58.7975 57.895 58.9325 58.3225C59.135 58.9075 59.63 59.3125 60.2375 59.38L64.1975 59.8075V63.0025L60.2375 63.43C59.63 63.4975 59.1125 63.9025 58.9325 64.4875C58.7975 64.8925 58.6175 65.2975 58.4375 65.68C58.1675 66.22 58.235 66.8725 58.6175 67.3675L60.35 69.5275L61.0925 70.45L58.8425 72.7L58.865 72.7225ZM26.1275 28.1275H73.3325V37.5325H26.1275V28.1275ZM26.1275 40.66H73.3325V66.985H62.3075L61.8575 66.4225L65.93 65.9725C66.7175 65.8825 67.325 65.2075 67.325 64.42V58.435C67.325 57.6475 66.7175 56.9725 65.93 56.8825L61.79 56.4325L64.3775 53.1925C64.8725 52.5625 64.8275 51.6625 64.265 51.1L60.0125 46.87C59.45 46.3075 58.55 46.2625 57.92 46.7575L54.725 49.3225L54.275 45.25C54.185 44.4625 53.51 43.855 52.7225 43.855H46.7375C45.95 43.855 45.275 44.4625 45.185 45.25L44.735 49.39L41.495 46.8025C40.865 46.3075 39.965 46.3525 39.4025 46.915L35.1725 51.1675C34.61 51.73 34.565 52.63 35.06 53.26L37.625 56.455L33.5525 56.905C32.765 56.995 32.1575 57.67 32.1575 58.4575V64.4425C32.1575 65.23 32.765 65.905 33.5525 65.995L37.6925 66.445L37.2425 67.0075H26.1275V40.66Z" fill="white"/>
<path d="M42.6678 32.45C42.6678 31.595 41.9703 30.875 41.0928 30.875H30.8328C29.9778 30.875 29.2578 31.5725 29.2578 32.45C29.2578 33.3275 29.9553 34.025 30.8328 34.025H41.1153C41.9703 34.025 42.6903 33.3275 42.6903 32.45H42.6678Z" fill="white"/>
<path d="M49.7281 54.9062C46.1281 54.9062 43.2031 57.8313 43.2031 61.4313C43.2031 65.0313 46.1281 67.9563 49.7281 67.9563C53.3281 67.9563 56.2531 65.0313 56.2531 61.4313C56.2531 57.8313 53.3281 54.9062 49.7281 54.9062ZM49.7281 64.8063C47.8606 64.8063 46.3531 63.2988 46.3531 61.4313C46.3531 59.5638 47.8606 58.0562 49.7281 58.0562C51.5956 58.0562 53.1031 59.5638 53.1031 61.4313C53.1031 63.2988 51.5956 64.8063 49.7281 64.8063Z" fill="white"/>
</g>
<defs>
<clipPath id="clip0_5473_19167">
<rect width="53.4825" height="54" fill="white" transform="translate(23 25)"/>
</clipPath>
</defs>
</svg>
