<svg width="100" height="100" viewBox="0 0 100 100" fill="none" xmlns="http://www.w3.org/2000/svg">
<circle cx="50" cy="50" r="50" fill="#FF483E"/>
<path d="M77.4141 63.2962H22.5882C21.72 63.2962 21 62.5762 21 61.708V30.8539C21 29.9856 21.72 29.2656 22.5882 29.2656H43.8282C44.4 29.2656 44.9294 29.5833 45.2047 30.0703C45.48 30.5786 45.48 31.1715 45.2047 31.6797L34.68 49.235C34.1718 50.0609 34.1718 51.0774 34.6376 51.9244C35.1247 52.7715 35.9929 53.2797 36.9459 53.2797H63.0565C64.0306 53.2797 64.8988 52.7715 65.3647 51.9244C65.8518 51.0774 65.8306 50.0821 65.3223 49.235L54.7976 31.6797C54.5012 31.1927 54.5012 30.5786 54.7976 30.0703C55.0729 29.5833 55.6024 29.2656 56.1741 29.2656H77.4141C78.2823 29.2656 79.0023 29.9856 79.0023 30.8539V61.6868C79.0023 62.555 78.2823 63.275 77.4141 63.275V63.2962ZM24.1765 60.1197H75.8259V32.4421H58.9694L68.0541 47.5833C69.1553 49.4044 69.1765 51.6068 68.1176 53.4703C67.0588 55.3339 65.1741 56.435 63.0353 56.435H36.9459C34.8071 56.435 32.9224 55.3339 31.8635 53.4703C30.8047 51.6068 30.8471 49.4256 31.9271 47.5833L41.0118 32.4421H24.1765V60.0986V60.1197Z" fill="white"/>
<path d="M77.4141 70.1392H22.5882C21.72 70.1392 21 69.4192 21 68.551V61.6898C21 60.8216 21.72 60.1016 22.5882 60.1016H77.4141C78.2823 60.1016 79.0023 60.8216 79.0023 61.6898V68.551C79.0023 69.4192 78.2823 70.1392 77.4141 70.1392ZM24.1765 66.9627H75.8259V63.278H24.1765V66.9627Z" fill="white"/>
<path d="M55.028 68.5469H51.8516V75.4081H55.028V68.5469Z" fill="white"/>
<path d="M48.1687 68.5469H44.9922V75.4081H48.1687V68.5469Z" fill="white"/>
<path d="M63.7149 76.9968H36.2914C35.4231 76.9968 34.7031 76.2768 34.7031 75.4085C34.7031 74.5403 35.4231 73.8203 36.2914 73.8203H63.7149C64.5831 73.8203 65.3031 74.5403 65.3031 75.4085C65.3031 76.2768 64.5831 76.9968 63.7149 76.9968Z" fill="white"/>
<path d="M63.0575 56.4376H36.9469C34.8081 56.4376 32.9234 55.3365 31.8645 53.4729C30.8057 51.6094 30.8481 49.4282 31.9281 47.5859L44.9939 25.8376C46.0528 24.0588 47.9375 23 50.0128 23C52.0881 23 53.9516 24.0588 55.0104 25.8376L68.0763 47.6071C69.1775 49.4282 69.1987 51.6306 68.1398 53.4941C67.081 55.3576 65.1963 56.4588 63.0575 56.4588V56.4376ZM50.0128 26.1765C49.0598 26.1765 48.2128 26.6635 47.7257 27.4682L34.681 49.2165C34.1728 50.0424 34.1728 51.0588 34.6387 51.9059C35.1257 52.7529 35.9939 53.2612 36.9469 53.2612H63.0575C64.0316 53.2612 64.8998 52.7529 65.3657 51.9059C65.8528 51.0588 65.8316 50.0635 65.3234 49.2165L52.2998 27.4682C51.8128 26.6635 50.9657 26.1765 50.0128 26.1765Z" fill="white"/>
<path d="M50.0101 42.733C49.1419 42.733 48.4219 42.013 48.4219 41.1447V34.2835C48.4219 33.4153 49.1419 32.6953 50.0101 32.6953C50.8783 32.6953 51.5983 33.4153 51.5983 34.2835V41.1447C51.5983 42.013 50.8783 42.733 50.0101 42.733Z" fill="white"/>
<path d="M50.0137 49.704C50.9031 49.704 51.7713 48.9205 51.729 47.9887C51.6866 47.057 50.9878 46.2734 50.0137 46.2734C49.1242 46.2734 48.256 47.057 48.2984 47.9887C48.3407 48.9205 49.0395 49.704 50.0137 49.704Z" fill="white"/>
</svg>
