<svg width="44" height="44" viewBox="0 0 44 44" fill="none" xmlns="http://www.w3.org/2000/svg">
<path d="M41.3772 35.7765H2.6219C1.17388 35.7765 0 34.6026 0 33.1546V12.3719C0 10.9239 1.17388 9.75 2.6219 9.75H41.3781C42.8261 9.75 44 10.9239 44 12.3719V33.1546C44 34.6026 42.8261 35.7765 41.3781 35.7765H41.3772Z" fill="#DDE2F6"/>
<path d="M43.9991 12.3719C43.9991 10.9239 42.8253 9.75 41.3772 9.75H2.6219C1.17388 9.75 0 10.9239 0 12.3719V29.9793H4.51507L21.9068 25.8655L39.4841 29.9793H43.9991V12.3719Z" fill="#7F95E0"/>
<path d="M27.3893 41.2446H16.6104L18.3806 35.7773H25.619L27.3893 41.2446Z" fill="#B1BEEB"/>
<path d="M29.8494 44.001H14.1498C13.6608 44.001 13.2646 43.6049 13.2646 43.1159C13.2646 42.0512 14.1283 41.1875 15.193 41.1875H28.8053C29.87 41.1875 30.7337 42.0512 30.7337 43.1159C30.7337 43.6049 30.3375 44.001 29.8485 44.001H29.8494Z" fill="#DDE2F6"/>
<path d="M39.4837 1.77028C39.4837 0.792328 38.6905 0 37.7134 0H6.28493C5.30698 0 4.51465 0.793188 4.51465 1.77028V4.55889H39.4837V1.77028Z" fill="#FE93D3"/>
<path d="M37.7143 0H34.1729C35.1508 0 35.9431 0.793188 35.9431 1.77028V4.55889H39.4845V1.77028C39.4845 0.792328 38.6914 0 37.7143 0Z" fill="#FE73C5"/>
<path d="M4.51465 4.55859H39.4837V29.9784H4.51465V4.55859Z" fill="#FFF4CA"/>
<path d="M35.9424 4.55859H39.4838V29.9784H35.9424V4.55859Z" fill="#FFE177"/>
<path d="M7.09788 2.94576C6.73609 2.94576 6.43359 2.64326 6.43359 2.28147C6.43359 1.91882 6.73609 1.61805 7.09702 1.61719C7.45795 1.61633 7.7613 1.92054 7.7613 2.28147C7.7613 2.6424 7.45795 2.94576 7.09702 2.94576H7.09788Z" fill="#F7F9FA"/>
<path d="M9.39866 2.94576C9.03601 2.94576 8.7361 2.64326 8.73438 2.28147C8.73352 1.9214 9.03773 1.61633 9.3978 1.61719C9.75873 1.61805 10.0621 1.91968 10.0621 2.28147C10.0621 2.64326 9.75959 2.94576 9.3978 2.94576H9.39866Z" fill="#F7F9FA"/>
<path d="M11.7014 2.94576C11.3396 2.94576 11.0371 2.64326 11.0371 2.28147C11.0371 1.91968 11.3387 1.61805 11.7005 1.61719C12.0615 1.61633 12.3648 1.92054 12.3648 2.28147C12.3648 2.6424 12.0615 2.94576 11.7005 2.94576H11.7014Z" fill="#F7F9FA"/>
<path d="M4.51465 4.55859H39.4837V18.2654H4.51465V4.55859Z" fill="#F7F9FA"/>
<path d="M35.9424 4.55859H39.4838V18.2654H35.9424V4.55859Z" fill="#ECF1F5"/>
<path d="M32.8686 10.8288C32.4871 10.6939 31.5306 10.498 31.3828 10.0279C31.241 9.57675 31.7291 9.32238 32.0771 9.29918C32.2971 9.29144 32.5524 9.38683 32.738 9.49253C33.7091 10.0451 34.351 8.99582 33.5819 8.47591C33.3928 8.31865 33.0843 8.13904 32.6933 8.0428V7.87522C32.6933 7.50828 32.396 7.21094 32.029 7.21094C31.6621 7.21094 31.3647 7.50828 31.3647 7.87522V8.0849C30.4263 8.37365 29.8188 9.48222 30.1144 10.4258C30.4315 11.4364 31.5349 11.7673 32.4243 12.0818C32.9331 12.2614 32.946 12.6533 32.909 12.8707C32.8471 13.2299 32.5455 13.6157 32.0282 13.6157C31.6612 13.6157 31.2255 13.5178 30.9411 13.3485C30.8337 13.2746 30.7039 13.2316 30.5647 13.2316C30.1977 13.2316 29.9004 13.5289 29.9004 13.8959C29.9004 14.121 30.0302 14.3496 30.2218 14.4648C30.3842 14.5696 30.7752 14.7853 31.3639 14.8876V15.1007C31.3639 15.4677 31.6612 15.765 32.0282 15.765C32.3951 15.765 32.6924 15.4677 32.6924 15.1007V14.8463C33.5441 14.5842 34.0906 13.8366 34.2178 13.095C34.3905 12.0869 33.8474 11.176 32.8669 10.8297L32.8686 10.8288Z" fill="#FFCD55"/>
<path d="M11.6104 27.551C9.71212 27.551 8.16699 26.0067 8.16699 24.1075C8.16699 22.2083 9.71126 20.6641 11.6104 20.6641C11.9774 20.6641 12.2747 20.9614 12.2747 21.3283C12.2747 21.6953 11.9774 21.9926 11.6104 21.9926C10.4443 21.9926 9.49556 22.9414 9.49556 24.1075C9.49556 25.2737 10.4443 26.2224 11.6104 26.2224C12.7766 26.2224 13.7253 25.2737 13.7253 24.1075C13.7253 23.6838 13.6007 23.2748 13.3644 22.925C13.159 22.6208 13.2389 22.2083 13.5431 22.0029C13.8474 21.7976 14.2598 21.8775 14.4652 22.1817C14.8502 22.7514 15.0539 23.4174 15.0539 24.1075C15.0539 26.0058 13.5096 27.551 11.6113 27.551H11.6104Z" fill="#BAE4A5"/>
<path d="M11.6096 24.77C11.2487 24.77 10.9453 24.4666 10.9453 24.1057C10.9453 23.7448 11.2478 23.4431 11.6096 23.4414C11.9714 23.4405 12.2739 23.7439 12.2739 24.1057C12.2739 24.4675 11.9714 24.77 11.6096 24.77Z" fill="#DDE2F6"/>
<path d="M32.3897 27.551C30.4914 27.551 28.9463 26.0067 28.9463 24.1075C28.9463 22.2083 30.4906 20.6641 32.3897 20.6641C32.7567 20.6641 33.054 20.9614 33.054 21.3283C33.054 21.6953 32.7567 21.9926 32.3897 21.9926C31.2236 21.9926 30.2749 22.9414 30.2749 24.1075C30.2749 25.2737 31.2236 26.2224 32.3897 26.2224C33.5559 26.2224 34.5046 25.2737 34.5046 24.1075C34.5046 23.7406 34.802 23.4432 35.1689 23.4432C35.5358 23.4432 35.8332 23.7406 35.8332 24.1075C35.8332 26.0058 34.2889 27.551 32.3897 27.551Z" fill="#FE93D3"/>
<path d="M32.3889 24.77C32.0271 24.77 31.7246 24.4675 31.7246 24.1057C31.7246 23.7439 32.0271 23.4423 32.3889 23.4414C32.7498 23.4405 33.0532 23.7448 33.0532 24.1057C33.0532 24.4666 32.7498 24.77 32.3889 24.77Z" fill="#DDE2F6"/>
<path d="M18.1526 27.5491C17.7856 27.5491 17.4883 27.2518 17.4883 26.8849V24.1057C17.4883 23.7387 17.7856 23.4414 18.1526 23.4414C18.5195 23.4414 18.8168 23.7387 18.8168 24.1057V26.8849C18.8168 27.2518 18.5195 27.5491 18.1526 27.5491Z" fill="#FFCD55"/>
<path d="M20.716 27.551C20.3491 27.551 20.0518 27.2536 20.0518 26.8867V21.3283C20.0518 20.9614 20.3491 20.6641 20.716 20.6641C21.083 20.6641 21.3803 20.9614 21.3803 21.3283V26.8867C21.3803 27.2536 21.083 27.551 20.716 27.551Z" fill="#BAE4A5"/>
<path d="M25.8459 27.549C25.479 27.549 25.1816 27.2517 25.1816 26.8847V22.6799C25.1816 22.313 25.479 22.0156 25.8459 22.0156C26.2129 22.0156 26.5102 22.313 26.5102 22.6799V26.8847C26.5102 27.2517 26.2129 27.549 25.8459 27.549Z" fill="#7F95E0"/>
<path d="M23.2815 27.5541C22.9145 27.5541 22.6172 27.2568 22.6172 26.8898V25.5002C22.6172 25.1333 22.9145 24.8359 23.2815 24.8359C23.6484 24.8359 23.9458 25.1333 23.9458 25.5002V26.8898C23.9458 27.2568 23.6484 27.5541 23.2815 27.5541Z" fill="#FE93D3"/>
<path d="M27.8438 9.30513H16.38C16.0483 9.30513 15.7793 9.00779 15.7793 8.64085C15.7793 8.2739 16.0483 7.97656 16.38 7.97656H27.8438C28.1755 7.97656 28.4445 8.2739 28.4445 8.64085C28.4445 9.00779 28.1755 9.30513 27.8438 9.30513Z" fill="#DDE2F6"/>
<path d="M24.4244 11.8989H16.38C16.0483 11.8989 15.7793 11.6015 15.7793 11.2346C15.7793 10.8677 16.0483 10.5703 16.38 10.5703H24.4244C24.7562 10.5703 25.0251 10.8677 25.0251 11.2346C25.0251 11.6015 24.7562 11.8989 24.4244 11.8989Z" fill="#DDE2F6"/>
<path d="M26.6141 14.5004H16.38C16.0483 14.5004 15.7793 14.2031 15.7793 13.8362C15.7793 13.4692 16.0483 13.1719 16.38 13.1719H26.6141C26.9458 13.1719 27.2148 13.4692 27.2148 13.8362C27.2148 14.2031 26.9458 14.5004 26.6141 14.5004Z" fill="#DDE2F6"/>
<path d="M11.9839 16.659H7.95355C7.72238 16.659 7.53418 16.4716 7.53418 16.2396V14.9463C7.53418 13.6022 8.62385 12.5117 9.96874 12.5117C11.3136 12.5117 12.4033 13.6014 12.4033 14.9463V16.2396C12.4033 16.4708 12.216 16.659 11.9839 16.659Z" fill="#DDE2F6"/>
<path d="M9.62375 14.1445H10.3121L10.5218 16.6607H9.41406L9.62375 14.1445Z" fill="#7F95E0"/>
<path d="M9.9687 14.4394C9.79683 14.4394 9.65074 14.3139 9.6241 14.1446L9.45996 13.293H10.4766L10.3124 14.1446C10.2858 14.3147 10.1397 14.4394 9.96784 14.4394H9.9687Z" fill="#7F95E0"/>
<path d="M11.2983 13.0433L10.3246 12.5234H9.61135L8.6377 13.0433L9.13956 14.0986C9.21862 14.2164 9.38792 14.2275 9.48159 14.1218L9.96712 13.577L10.4527 14.1218C10.5472 14.2275 10.7156 14.2164 10.7947 14.0986L11.2966 13.0433H11.2983Z" fill="#F7F9FA"/>
<path d="M12.643 10.0396H12.4583V9.71222C12.4583 8.33724 11.3437 7.22266 9.96869 7.22266C8.59372 7.22266 7.47913 8.33724 7.47913 9.71222V10.0396H7.29437C7.0632 10.0396 6.875 10.227 6.875 10.459C6.875 10.691 7.06234 10.8784 7.29437 10.8784H7.47913V10.9815C7.47913 12.3565 8.59372 13.471 9.96869 13.471C11.3437 13.471 12.4583 12.3565 12.4583 10.9815V10.8784H12.643C12.8742 10.8784 13.0624 10.691 13.0624 10.459C13.0624 10.2278 12.875 10.0396 12.643 10.0396Z" fill="#FFE5D8"/>
<path d="M12.6425 10.0396H12.4578V9.71222C12.4578 8.33724 11.3432 7.22266 9.96819 7.22266C9.82554 7.22266 9.68547 7.23469 9.54883 7.25789C10.7244 7.45726 11.6199 8.14303 11.6199 8.14303V10.9806C11.6199 12.2129 10.7244 13.2364 9.54883 13.435C9.68547 13.4582 9.82468 13.4702 9.96819 13.4702C11.3432 13.4702 12.4578 12.3556 12.4578 10.9806V10.8775H12.6425C12.8737 10.8775 13.0619 10.6902 13.0619 10.4581C13.0619 10.227 12.8745 10.0388 12.6425 10.0388V10.0396Z" fill="#FFD8CA"/>
<path d="M7.47949 10.0384H7.73988C7.91862 10.0384 8.063 9.89321 8.063 9.71532V9.41798C8.063 9.19283 8.25206 9.01495 8.47721 9.02698C9.05641 9.05877 10.1186 9.00979 10.8396 8.34894C11.2151 8.00434 11.8914 8.24496 11.8914 8.77948V9.73079C11.8914 9.90094 12.0298 10.0393 12.1999 10.0393H12.4603V8.00262C12.4603 7.41826 11.9868 6.94475 11.4025 6.94475C11.4025 6.5589 11.0897 6.24609 10.7038 6.24609H9.40789C8.34315 6.24609 7.48035 7.10889 7.48035 8.17363V10.0384H7.47949Z" fill="#E49A6B"/>
<path d="M9.96821 12.3128C9.7104 12.3128 9.46806 12.2122 9.28502 12.0301C9.224 11.969 9.224 11.8694 9.28502 11.8075C9.34603 11.7465 9.44572 11.7465 9.50759 11.8075C9.63048 11.9304 9.79462 11.9983 9.96821 11.9983C10.1418 11.9983 10.3059 11.9304 10.4288 11.8075C10.4898 11.7465 10.5895 11.7465 10.6514 11.8075C10.7124 11.8685 10.7124 11.9682 10.6514 12.0301C10.4692 12.2122 10.226 12.3128 9.96821 12.3128Z" fill="#FFB7A0"/>
<path d="M8.77819 14.9648H8.24711C8.16031 14.9648 8.08984 15.0353 8.08984 15.1221C8.08984 15.2089 8.16031 15.2794 8.24711 15.2794H8.77819C8.86499 15.2794 8.93545 15.2089 8.93545 15.1221C8.93545 15.0353 8.86499 14.9648 8.77819 14.9648Z" fill="#F7F9FA"/>
</svg>
