<svg width="44" height="44" viewBox="0 0 44 44" fill="none" xmlns="http://www.w3.org/2000/svg">
<rect x="0.5" y="0.5" width="43" height="43" rx="21.5" fill="white" stroke="#DEE2E5"/>
<path d="M30.3779 22.2141C30.3779 21.6063 30.32 20.9788 30.2234 20.3906H21.8613V23.8612H26.6518C26.4586 24.9788 25.8212 25.9592 24.8747 26.5866L27.7335 28.8415C29.4141 27.2532 30.3799 24.9396 30.3799 22.2141H30.3779Z" fill="#4280EF"/>
<path d="M21.8611 31.0009C24.2564 31.0009 26.2653 30.197 27.7333 28.8244L24.8745 26.5892C24.0825 27.1382 23.0588 27.4519 21.8611 27.4519C19.5432 27.4519 17.5922 25.8637 16.8775 23.7461L13.9414 26.0402C15.4481 29.0793 18.5001 31.0009 21.8611 31.0009Z" fill="#34A353"/>
<path d="M16.8758 23.7255C16.5088 22.6079 16.5088 21.3922 16.8758 20.2746L13.9417 17.9609C12.6861 20.5099 12.6861 23.5099 13.9417 26.0392L16.8778 23.7255H16.8758Z" fill="#F6B704"/>
<path d="M21.8611 16.5689C23.1167 16.5493 24.353 17.0395 25.2608 17.9218L27.7913 15.3336C26.188 13.8042 24.0632 12.9807 21.8611 13.0003C18.4982 13.0003 15.4462 14.9219 13.9414 17.961L16.8775 20.2747C17.5922 18.1375 19.5432 16.5689 21.8611 16.5689Z" fill="#E54335"/>
</svg>
