<svg width="99" height="89" viewBox="0 0 99 89" fill="none" xmlns="http://www.w3.org/2000/svg">
<g filter="url(#filter0_d_3434_129947)">
<g filter="url(#filter1_d_3434_129947)">
<path d="M83.0827 57.8148C82.0737 57.2521 80.937 56.9452 79.8258 56.6383C82.6484 56.6511 85.4711 57.3032 88.0128 58.5309C86.5951 56.1268 83.9384 54.4899 81.1541 54.3109C82.7378 54.2598 84.3216 54.5283 85.8032 55.091C84.4365 52.8659 81.8821 51.4209 79.2766 51.4081C81.103 51.1523 82.9422 51.0628 84.7814 51.114C81.8055 49.5539 78.2803 49.1447 74.9979 49.8608C75.0745 49.7329 75.2022 49.6434 75.3683 49.5922C75.8025 49.4772 76.2623 49.3876 76.7094 49.2598C76.671 49.2598 76.6455 49.2598 76.6072 49.2598C75.8025 49.4132 74.9723 49.5155 74.1549 49.669C74.1294 49.669 74.1038 49.669 74.0783 49.6818C74.04 49.6818 73.8228 49.7201 73.759 49.7329C73.1331 49.8096 21.7121 50.871 20.767 50.1549C19.8218 49.4516 18.5829 49.2981 17.4079 49.3493C16.2328 49.4004 15.0706 49.6434 13.8955 49.605C14.9045 49.6818 15.9008 49.9759 16.7821 50.4746C15.0833 50.3851 13.3591 50.935 12.018 51.9836C13.2569 51.894 14.4958 51.8173 15.722 51.7278C13.3974 52.4695 11.3411 54.0424 10 56.0756C10.7919 55.2828 11.8647 54.7968 12.9759 54.6945C11.9542 55.6536 11.2645 56.9708 11.0601 58.3646C11.1112 58.3135 11.1495 58.2751 11.2006 58.224C10.7408 59.2214 10.4853 60.2956 10.4598 61.3825C11.0984 60.7048 11.737 60.0398 12.3756 59.3621C11.4433 60.6536 11.0601 62.3288 11.3283 63.9017C11.9925 62.7636 12.6566 61.6127 13.3208 60.4746C13.0398 62.3288 13.0781 64.2214 13.423 66.0628C13.9338 64.8224 14.4447 63.5692 14.9556 62.3288C14.5341 63.761 14.6108 65.3339 15.1728 66.715C15.2494 65.2188 15.7475 63.761 16.5777 62.5206C15.8625 63.7994 15.9391 65.4746 16.7821 66.6766C17.5867 65.6025 18.4041 64.5155 19.2088 63.4414C18.6468 65.0015 19.0555 66.8685 20.205 68.0577C20.2433 67.1626 20.5882 66.2802 21.1757 65.6025C20.2944 67.0603 20.6137 69.1319 21.8909 70.2572C21.6866 69.1958 21.9548 68.0449 22.619 67.1882C22.3124 68.2623 22.4274 69.4644 22.9383 70.4618C23.4108 69.7968 23.8962 69.1191 24.3688 68.4541C23.9217 69.5795 24.5731 71.0245 25.7226 71.4209L26.3485 69.0552C26.2207 70.3851 27.1148 71.7406 28.3792 72.1626L28.3409 70.0015C28.7369 71.715 29.9247 73.2367 31.4829 74.0296C31.6106 72.7508 31.3296 71.4337 30.7038 70.3084C31.8661 72.0475 33.6669 73.3518 35.6722 73.8889C35.3529 72.9171 35.0208 71.9324 34.7015 70.9605C35.6977 72.7125 37.2559 74.1447 39.0951 74.9759C38.4693 73.582 37.8307 72.1882 37.2048 70.7943C38.3288 72.5334 40.002 73.9017 41.9306 74.6434L40.3724 70.6153C41.2536 72.1114 42.7225 73.2623 44.3828 73.7483C44.1785 72.6613 43.9741 71.5616 43.757 70.4746C44.7788 71.9196 46.0432 73.1856 47.4865 74.2086C47.2694 73.224 47.0522 72.2521 46.8351 71.2674C47.512 72.6229 48.7765 73.6587 50.2325 74.0552L49.2618 70.1805C49.811 71.2547 50.7306 72.1498 51.829 72.6485C51.9823 71.6639 52.1356 70.6792 52.3016 69.6945C52.9785 70.8327 53.6427 71.9708 54.3196 73.1217C54.6645 72.0347 55.3159 71.05 56.1844 70.3211V72.9682C57.385 72.316 58.4067 71.3314 59.1092 70.1549C58.9432 70.9861 58.7771 71.8045 58.6111 72.6357C60.297 72.137 61.8042 71.0884 62.877 69.6945C62.7365 70.5002 62.596 71.293 62.4555 72.0986L67.7688 68.5181C67.5517 69.6306 67.3218 70.7431 67.1046 71.8557C68.4968 71.2035 69.5314 69.8224 69.7485 68.2879C69.7485 69.2726 70.2849 70.2316 71.1151 70.7687C71.8942 69.7585 72.3285 68.4925 72.3668 67.2265C73.3119 67.6357 74.04 68.5181 74.2443 69.5283L75.0106 66.4209C75.3938 67.1754 75.7642 67.9298 76.1474 68.6843C77.4501 68.0066 77.961 66.1779 77.2458 64.9119C78.5613 65.6664 79.6981 66.715 80.5282 67.9938C80.8475 66.2291 79.4937 64.6562 78.242 63.3774C79.8641 64.247 81.3712 65.3595 82.6868 66.6511C82.5463 64.2598 81.0775 61.9835 78.9573 60.871C80.8986 61.4848 82.7251 62.4439 84.3344 63.6971C83.9895 61.8045 82.7762 60.0782 81.103 59.1191C82.5718 59.2598 84.0278 59.6434 85.3817 60.2572C84.973 59.1702 84.0661 58.339 83.0571 57.7764L83.0827 57.8148Z" fill="#E39424"/>
<path d="M79.8012 56.7656C81.1678 55.6531 82.9304 55.0393 84.6802 55.0393C83.0198 53.7477 80.823 53.1723 78.7411 53.492C79.8906 53.3769 80.9507 52.648 81.4744 51.6249C79.814 51.5994 78.1536 51.5866 76.4932 51.561C77.3617 50.9728 77.8343 49.3104 77.9876 48.6966C77.681 48.5815 77.0041 48.3129 75.8418 48.1339C75.0883 48.0188 73.7472 48.8116 73.2107 49.4766C73.6194 48.7861 72.8148 47.4306 72.6104 46.5738L72.4955 46.5354C71.4993 47.0469 70.8862 48.07 70.3114 49.0418L70.3498 46.5866C68.4467 45.8577 66.1477 46.2669 64.6023 47.6096C65.1642 47.1365 65.7262 46.6761 66.2882 46.203C64.0147 45.5891 61.4731 46.1262 59.6466 47.6096C60.4768 46.561 61.307 45.5252 62.1372 44.4766C59.4423 45.1671 56.9389 46.5738 54.9592 48.5303C55.8277 47.0981 56.4025 45.4996 56.6579 43.85C54.3206 44.9242 52.3026 46.6633 50.8977 48.8244C51.4596 46.8423 52.0344 44.8475 52.5964 42.8654C50.5911 43.8244 49.2373 45.9983 49.2628 48.2106C49.2373 46.9702 49.2117 45.7426 49.1862 44.5022C49.1862 44.1186 49.0968 43.6326 48.7264 43.5303C48.2921 43.4152 47.9856 43.9395 47.8451 44.3615C47.4108 45.6403 46.9766 46.9319 46.5423 48.2106C46.4401 45.9472 45.2651 43.7733 43.4387 42.4434L44.1667 46.983C43.4898 45.1416 41.9571 43.6326 40.1051 42.9804C40.7182 44.3359 41.344 45.7042 41.9571 47.0597C40.2584 45.8705 38.5469 44.6684 36.8482 43.4792C37.7423 45.0393 38.6235 46.5994 39.5176 48.1723C37.4357 46.2157 34.8813 44.7579 32.1353 43.9907C33.7062 44.6173 35.0601 45.8193 35.8647 47.3155C33.5785 46.0367 31.1135 45.0521 28.5718 44.4127C30.3216 45.3973 31.7393 46.9319 32.5823 48.7477C30.8197 47.162 28.8272 45.8193 26.6943 44.7835C27.7544 46.2285 28.4952 47.8909 28.8911 49.6428C27.4095 47.7503 25.6725 46.0623 23.7439 44.6428C24.8806 46.1774 25.6853 47.9421 26.1068 49.7963C25.0467 48.492 23.6162 47.4817 22.0324 46.9191C22.224 47.3666 22.4156 47.827 22.6072 48.2746C20.5253 47.3666 17.907 47.827 16.2721 49.3999C17.9198 49.7579 19.5801 50.116 21.2278 50.4741C19.363 49.9753 17.2811 50.3973 15.7613 51.5994C17.345 51.4843 18.9543 51.7273 20.4359 52.3027C17.4472 51.8679 14.318 54.093 13.7305 57.0597C14.8672 56.4331 16.0167 55.7937 17.1534 55.1671C15.4419 56.2669 14.3691 58.2746 14.3819 60.3078C15.1482 59.5789 15.9145 58.85 16.6681 58.1211C15.4164 59.6301 14.8672 61.6889 15.1865 63.6198C15.8762 62.1876 17.3067 61.1262 18.8904 60.9088C17.4344 61.2797 16.2721 62.5968 16.1061 64.0802C17.907 62.7247 20.3082 62.2132 22.4922 62.7375C21.2278 63.1339 20.2571 64.3232 20.1166 65.6403C21.5726 64.9625 23.0287 64.2848 24.4847 63.607C23.0159 64.3871 22.1091 66.1262 22.3134 67.7758C23.2969 66.9063 24.2803 66.0367 25.2638 65.1544C24.4847 66.1134 24.4464 67.6096 25.1872 68.607C26.2856 67.5968 27.384 66.5866 28.4824 65.5764C28.0226 66.8679 27.9076 68.2873 28.1759 69.6428C29.1082 68.3513 30.0534 67.0597 30.9858 65.7682C30.4876 67.0086 30.411 68.428 30.7686 69.7196C31.3817 68.5687 31.9948 67.4306 32.6078 66.2797C32.3779 67.4434 32.5823 68.6966 33.1953 69.7196C33.7573 69.0802 34.1788 68.3001 34.4087 67.4817C34.3448 68.492 34.6769 69.5405 35.3666 70.295C35.4688 68.9779 35.8903 67.6735 36.6055 66.561C36.4523 67.7375 36.861 68.9779 37.6912 69.8219C38.4958 69.1569 39.0578 68.2106 39.2494 67.1748C39.1855 68.3129 39.4665 69.4638 40.0285 70.4485C40.4372 69.4127 40.8587 68.3769 41.2674 67.3411C41.4845 68.7733 42.2125 70.116 43.2854 71.0751C43.2854 69.9881 43.2854 68.9012 43.2854 67.8142C43.5281 69.2848 44.6265 70.5891 46.0187 71.0879C46.0953 69.7452 46.1719 68.4024 46.2486 67.0725C47.0532 68.3129 47.8579 69.5405 48.6625 70.781C49.1095 70.2694 49.365 69.6045 49.4161 68.9395C49.531 69.2848 49.7098 69.5917 49.9653 69.8475C50.936 69.3743 51.7023 68.5303 52.0982 67.5201C52.3665 68.5047 52.6219 69.4894 52.8901 70.4741C53.8991 69.6045 54.6782 68.4536 55.0997 67.2004C55.5212 68.3513 55.9427 69.5022 56.3642 70.6531C57.3221 69.8347 57.9352 68.6198 57.999 67.3538C58.0756 68.4664 58.6759 69.5405 59.5828 70.1927C60.2086 69.1697 60.5151 67.9677 60.4768 66.7784C61.307 67.9804 62.15 69.1697 62.9802 70.3717C63.7721 69.5533 64.0914 68.3001 63.7976 67.2004L64.615 69.4894C65.8539 69.1186 66.6969 67.8526 66.7352 66.5866C66.8502 67.2643 66.9523 67.9293 67.0673 68.607C67.4249 67.6224 67.7953 66.6377 68.1529 65.6531C68.3956 66.8423 68.3445 68.0955 68.0124 69.2592C69.5451 68.6198 70.6307 67.0086 70.618 65.3462C70.6307 66.4459 70.6435 67.5457 70.6563 68.6326C71.8824 67.7886 72.6998 66.3692 72.802 64.873C72.8787 65.9344 72.9425 66.9958 73.0192 68.0572C74.2453 67.0469 74.8839 65.3717 74.654 63.7989C75.2415 64.6812 75.829 65.5764 76.4166 66.4587C77.234 65.4613 77.4639 64.0163 77.0169 62.8014L79.9928 64.0418C80.0694 63.0188 79.6352 61.9702 78.8688 61.3053C80.0311 61.3436 81.1806 61.382 82.3429 61.4076C81.6149 60.5636 80.8868 59.7196 80.1588 58.8756C81.5765 58.7861 82.9815 58.7093 84.3992 58.6198C83.1731 57.4434 81.4744 56.7528 79.7757 56.7528L79.8012 56.7656Z" fill="#E89F34"/>
<path d="M48.4177 64.0295C48.175 65.027 47.9451 66.0116 47.7025 67.0091C46.8978 66.229 46.3614 65.206 46.1953 64.1318C45.6845 65.0781 45.1736 66.0372 44.6627 66.9835C44.1262 66.1906 43.8453 65.2444 43.858 64.2981C43.577 65.385 43.2833 66.4592 43.0023 67.5461C42.0571 66.7149 41.3802 65.6152 41.0737 64.4387C40.8566 65.2955 40.6267 66.1523 40.4095 67.0091C39.8476 66.229 39.6049 65.2444 39.7198 64.3109C39.0429 65.1421 38.7364 66.229 38.8641 67.2648C37.7529 66.4848 37.3187 64.963 37.8423 63.761C37.1782 64.7712 36.8205 65.9605 36.8589 67.1497C35.8115 66.0628 35.2751 64.5538 35.4156 63.096C34.7003 64.0423 33.9979 64.9886 33.2826 65.9477C32.9505 64.9502 32.8995 63.8505 33.1421 62.8275C32.6185 64.1958 32.082 65.5641 31.5584 66.9195C30.179 66.229 29.502 64.4899 30.0768 63.1088C29.5404 63.5052 29.2211 64.1574 29.2338 64.8096C28.4547 64.1958 28.5058 62.8914 29.3232 62.3288C28.0716 63.0449 27.0242 64.0679 26.3218 65.2827C25.4916 64.183 25.7981 62.4566 26.9604 61.6894C25.581 62.4055 24.5464 63.6843 24.176 65.1293C23.5119 63.8761 23.6907 62.252 24.6358 61.1523C23.3458 61.7533 22.3113 62.7891 21.7493 64.0423C21.2384 62.6101 21.7238 60.8965 22.9371 59.9119C22.1963 60.5896 21.4555 61.2674 20.7148 61.9579C20.3444 60.8965 20.9191 59.6178 21.9792 59.1318C20.4721 59.5282 19.1565 60.5385 18.4413 61.8556C17.8921 60.4873 18.5052 58.7866 19.8335 58.0321L16.6915 60.0781C16.5893 58.4285 17.5345 56.7661 19.0288 55.9349C18.0326 56.1651 17.0236 56.3825 16.0273 56.6126C16.6915 55.206 18.2497 54.2086 19.8846 54.1702C19.0416 54.1446 18.2114 54.1318 17.3684 54.1063C18.5052 52.8275 20.1528 51.9835 21.8898 51.7789C20.5487 51.6638 19.2076 51.5615 17.8665 51.4464C19.131 50.3722 20.9191 49.8735 22.5923 50.1293C21.877 49.6305 21.1618 49.1318 20.4593 48.6331C22.3879 48.275 24.4826 48.9528 25.7726 50.3594C25.8747 49.1702 25.6321 47.9554 24.8913 46.9963C26.4623 47.1625 27.9438 48.0321 28.7868 49.2981C28.6974 48.2878 28.608 47.2904 28.5186 46.2802C29.7192 46.651 30.6899 47.6101 31.0603 48.7482C30.8942 47.6229 31.3157 46.4208 32.1587 45.6152C33.0272 46.5487 33.5508 47.7763 33.6402 49.0167C33.4103 47.4055 33.9851 45.7175 35.1474 44.5155C35.1601 45.7431 35.1729 46.9707 35.1857 48.1983C35.3134 46.9195 36.2202 45.7303 37.4591 45.2188C37.6507 46.3057 37.8423 47.3927 38.0339 48.4669C38.2382 46.9579 38.9535 45.5129 40.0391 44.4004C40.0902 45.6152 40.1285 46.8428 40.1796 48.0577C40.4223 46.6254 41.4058 45.3339 42.7596 44.6689C42.6191 45.7942 42.4786 46.9323 42.3381 48.0577C42.4403 46.5231 43.4621 45.0781 44.9054 44.4004C44.9054 45.3083 44.9054 46.2034 44.9054 47.1114C44.7904 45.7175 45.7866 44.2981 47.1916 43.8633C47.2427 44.8991 47.2938 45.9349 47.3321 46.9707C47.5747 45.7814 48.5454 44.7456 49.7588 44.3876C49.7588 45.6024 49.7588 46.83 49.7588 48.0449C50.0781 46.6254 51.3809 45.4362 52.9008 45.1932C52.722 46.0116 52.5431 46.83 52.3516 47.6357C52.5815 46.2802 53.7054 45.1037 55.1104 44.7456C54.8805 45.7047 54.6378 46.6638 54.4079 47.6229C54.9316 46.2802 56.4004 45.3211 57.9075 45.3467C57.2561 46.1267 56.8091 47.0602 56.6175 48.0449C57.9203 46.7789 59.7595 46.0372 61.6242 46.0244C61.1005 46.8428 60.5896 47.6612 60.066 48.4669C61.0878 47.252 62.7098 46.5103 64.3447 46.4848C64.3958 46.7405 64.4469 46.9963 64.498 47.252C63.6678 47.4438 63.0419 48.2367 63.0802 49.0423C64.4213 47.9426 66.401 47.5717 68.087 48.1216C67.2184 48.3518 66.4649 48.9272 66.0434 49.6817C67.5888 48.697 69.4919 48.2495 71.3439 48.4413C70.6797 49.0807 70.0156 49.7328 69.3514 50.3722C70.9352 49.5282 72.9787 49.5538 74.5369 50.4234C73.3747 50.4362 72.2379 51.05 71.6249 51.9835C73.3491 51.1906 75.4054 51.0756 77.2063 51.6766C75.9546 51.8045 74.7285 52.2904 73.7706 53.0577C75.8908 51.9579 78.6624 52.1242 80.6293 53.4541C78.5729 53.3262 76.4911 53.7354 74.6519 54.605C76.5549 54.0423 78.7901 55.6408 78.739 57.5206C77.6917 56.8428 76.4655 56.4464 75.2011 56.3697C77.1169 56.4336 78.9178 57.6868 79.582 59.3876C77.7683 58.7866 75.8397 58.5308 73.9239 58.6459C75.3927 58.697 76.7337 59.7968 77.0147 61.1651C75.8269 60.4234 74.4731 59.9247 73.0681 59.7201C74.6774 60.0781 75.9802 61.4464 76.1973 63.0065C74.7413 61.9451 73.017 61.2162 71.2161 60.871C73.0426 61.3952 74.2048 63.4413 73.6684 65.1804C72.2762 63.6075 70.437 62.4055 68.3935 61.7277C69.824 62.5078 70.5648 64.2725 70.0794 65.7687C69.1215 64.2597 67.8187 62.9681 66.2733 61.9963C66.5287 63.1472 66.797 64.2853 67.0524 65.4362C66.235 64.5155 65.4176 63.6075 64.6001 62.6868C65.1621 63.9144 65.2004 65.3594 64.6768 66.5999C64.4596 65.3339 63.821 64.1446 62.8759 63.2367C63.6805 64.3748 63.2335 66.1267 61.9563 66.7789C61.6753 65.3594 61.1005 63.9912 60.2831 62.7635C60.3981 64.0167 60.5258 65.2699 60.6407 66.5103C59.5551 65.9733 58.7505 64.9758 58.4567 63.8505C58.5078 65.1548 58.5461 66.472 58.5972 67.7763C58.0224 66.4592 57.4349 65.1548 56.8602 63.8377C56.5919 65.0781 56.311 66.3057 56.0427 67.5461L54.2802 63.4924C54.8677 65.1293 54.7272 66.9835 53.897 68.518C53.9481 66.9707 53.616 65.4106 52.9519 64.0039C53.169 65.385 52.607 66.8556 51.5214 67.8019C51.1382 66.8045 50.755 65.8198 50.3846 64.8224L50.5251 68.0704C49.7588 66.3953 49.0052 64.7328 48.2389 63.0577L48.5199 64.0039L48.4177 64.0295Z" fill="#E8BF34"/>
<path d="M71.997 55.6854C71.6774 61.2183 61.6423 62.09 48.9472 61.9931C36.2406 61.8842 25.9772 58.8938 26 55.3101C26.0229 51.7265 36.3548 48.9056 49.0499 49.0024C61.7564 49.1114 72.2025 52.1139 71.997 55.6854Z" fill="#E8AE2D"/>
</g>
<g filter="url(#filter2_d_3434_129947)">
<path d="M29 39.6552C29 50.4324 37.7258 59.1788 48.5 59.1788C59.2742 59.1788 68 50.4424 68 39.6552C68 28.8679 59.2642 8.78125 48.5 8.78125C37.7358 8.78125 29 28.8779 29 39.6552Z" fill="white"/>
<path d="M48.5 58.6788C38.0027 58.6788 29.5 50.157 29.5 39.6552C29.5 34.3706 31.6519 26.7351 35.1508 20.419C36.8978 17.2654 38.9659 14.4681 41.2423 12.4651C43.5194 10.4616 45.9709 9.28125 48.5 9.28125C51.0292 9.28125 53.4807 10.461 55.7578 12.4638C58.0342 14.4659 60.1022 17.2623 61.8492 20.4153C65.348 26.7301 67.5 34.3655 67.5 39.6552C67.5 50.1669 58.9975 58.6788 48.5 58.6788Z" stroke="#F8F9FA"/>
</g>
<path d="M65.9005 28.4863L64.5349 29.552L64.545 29.5419L64.8161 32.1156L64.8261 32.1256L64.8161 32.1357L63.4003 33.3823L63.4103 33.3622L63.3701 41.8774V41.9478L63.2998 41.9579L61.2615 42.2293L61.3217 42.1991L59.6448 44.0791L59.5545 44.1796L59.4842 44.059L56.0802 38.218L56.1806 38.2884L51.9232 37.6852L51.8629 37.6751L51.8228 37.6248L49.3225 34.1765L49.443 34.2469L46.752 33.9654L46.8022 33.5834L49.4832 33.895L49.5635 33.9051L49.6137 33.9654L52.0738 37.4338L51.9734 37.3735L56.2208 38.0169L56.2911 38.027L56.3212 38.0873L59.6549 43.9585L59.4942 43.9384L61.1912 42.0885L61.2113 42.0584H61.2414L63.2798 41.807L63.2195 41.8774L63.35 33.3622V33.3421L63.3601 33.3321L64.7859 32.1055L64.7759 32.1156L64.5249 29.5419L65.9005 28.4863Z" fill="#70624D"/>
<path d="M41.6313 14.4408C39.3519 16.0393 37.7152 18.3817 36.3797 20.8247C33.3774 26.3138 31.7206 33.0094 33.9799 38.8504C32.2729 31.0791 35.6367 22.4332 42.1333 17.859C42.8362 17.3663 43.5993 16.8838 43.9809 16.1197C44.3625 15.3557 44.1516 14.2196 43.3383 13.9582C42.7559 13.7672 42.1333 14.099 41.6313 14.4509V14.4408Z" fill="white"/>
<path d="M29.4434 43.7973C30.7588 43.2343 32.0842 42.6814 33.3996 42.1284H33.3795C34.2531 41.3543 35.1367 40.5802 36.0103 39.8061L38.6411 37.4737L38.6712 37.4436H38.7214C39.5046 37.3129 40.2878 37.2023 41.0711 37.0816L43.4207 36.7298L43.3203 36.78L46.6439 33.6333L46.7544 33.9651L45.0173 33.7841H44.957L44.9068 33.7339L43.6717 32.6079L43.8424 32.6481L40.2075 33.7037L40.1473 33.7238L40.087 33.6936L37.7876 32.5275L37.6972 32.4872V32.3867L37.6671 26.2642L37.7073 26.3446L35.5384 24.5551C34.8154 23.962 34.0924 23.3688 33.3795 22.7656C34.1226 23.3286 34.8656 23.9017 35.6087 24.4747L37.8278 26.1938L37.8679 26.224V26.2743L38.0185 32.3968L37.9282 32.256L40.2376 33.4021H40.1171L43.7521 32.3163L43.8525 32.2862L43.9328 32.3565L45.1779 33.4725L45.0675 33.4222L46.8146 33.5931L47.2364 33.6333L46.9251 33.9249L43.5814 37.0515L43.5412 37.0917H43.491L41.1413 37.4335C40.3581 37.5441 39.5749 37.6547 38.7917 37.7653L38.872 37.725L36.191 40.0072C35.2974 40.7712 34.4037 41.5252 33.5 42.2792H33.49L33.4799 42.2893C32.1444 42.802 30.809 43.3147 29.4634 43.8073L29.4434 43.7973Z" fill="#70624D"/>
</g>
<defs>
<filter id="filter0_d_3434_129947" x="0" y="2.78125" width="98.0127" height="86.1953" filterUnits="userSpaceOnUse" color-interpolation-filters="sRGB">
<feFlood flood-opacity="0" result="BackgroundImageFix"/>
<feColorMatrix in="SourceAlpha" type="matrix" values="0 0 0 0 0 0 0 0 0 0 0 0 0 0 0 0 0 0 127 0" result="hardAlpha"/>
<feOffset dy="4"/>
<feGaussianBlur stdDeviation="5"/>
<feComposite in2="hardAlpha" operator="out"/>
<feColorMatrix type="matrix" values="0 0 0 0 0 0 0 0 0 0 0 0 0 0 0 0 0 0 0.05 0"/>
<feBlend mode="normal" in2="BackgroundImageFix" result="effect1_dropShadow_3434_129947"/>
<feBlend mode="normal" in="SourceGraphic" in2="effect1_dropShadow_3434_129947" result="shape"/>
</filter>
<filter id="filter1_d_3434_129947" x="0" y="34.4434" width="98.0127" height="52.5332" filterUnits="userSpaceOnUse" color-interpolation-filters="sRGB">
<feFlood flood-opacity="0" result="BackgroundImageFix"/>
<feColorMatrix in="SourceAlpha" type="matrix" values="0 0 0 0 0 0 0 0 0 0 0 0 0 0 0 0 0 0 127 0" result="hardAlpha"/>
<feOffset dy="2"/>
<feGaussianBlur stdDeviation="5"/>
<feComposite in2="hardAlpha" operator="out"/>
<feColorMatrix type="matrix" values="0 0 0 0 0 0 0 0 0 0 0 0 0 0 0 0 0 0 0.1 0"/>
<feBlend mode="normal" in2="BackgroundImageFix" result="effect1_dropShadow_3434_129947"/>
<feBlend mode="normal" in="SourceGraphic" in2="effect1_dropShadow_3434_129947" result="shape"/>
</filter>
<filter id="filter2_d_3434_129947" x="19" y="0.78125" width="59" height="70.3984" filterUnits="userSpaceOnUse" color-interpolation-filters="sRGB">
<feFlood flood-opacity="0" result="BackgroundImageFix"/>
<feColorMatrix in="SourceAlpha" type="matrix" values="0 0 0 0 0 0 0 0 0 0 0 0 0 0 0 0 0 0 127 0" result="hardAlpha"/>
<feOffset dy="2"/>
<feGaussianBlur stdDeviation="5"/>
<feComposite in2="hardAlpha" operator="out"/>
<feColorMatrix type="matrix" values="0 0 0 0 0 0 0 0 0 0 0 0 0 0 0 0 0 0 0.15 0"/>
<feBlend mode="normal" in2="BackgroundImageFix" result="effect1_dropShadow_3434_129947"/>
<feBlend mode="normal" in="SourceGraphic" in2="effect1_dropShadow_3434_129947" result="shape"/>
</filter>
</defs>
</svg>
