<svg width="30" height="25" viewBox="0 0 30 25" fill="none" xmlns="http://www.w3.org/2000/svg">
<g clip-path="url(#clip0_1384_18880)">
<path d="M23.972 14.8521C25.6817 15.0016 26.1183 16.078 25.9294 17.614C25.9711 17.6115 26.0141 17.609 26.0558 17.6066C26.0975 17.5028 26.1527 17.4027 26.1796 17.2952C26.3415 16.6649 26.5427 16.0594 26.913 15.5108C27.5606 14.5494 29.1758 14.6433 29.6799 15.6949C30 16.3634 30.0478 17.069 29.9632 17.7759C29.8884 18.4012 29.713 19.0128 29.5891 19.5973C28.9649 19.517 28.4326 19.412 27.8967 19.3873C26.891 19.3428 26.3943 19.8321 26.3845 20.8479C26.3759 21.6969 26.5071 22.531 26.7745 23.3367C26.848 23.5579 26.7892 23.6432 26.5954 23.7309C25.8362 24.0732 25.0317 24.1189 24.2235 24.093C23.7488 24.0781 23.2668 24.0151 22.8045 23.9039C21.9962 23.7087 21.5461 23.1291 21.4775 22.3197C21.4198 21.6376 21.4811 20.9455 21.4922 20.2585C21.4934 20.1497 21.5118 20.0422 21.5277 19.8704C21.4456 19.9446 21.4088 19.973 21.3769 20.0076C19.5691 22.0058 17.2806 23.1279 14.7026 23.7198C13.3707 24.025 12.0191 24.1399 10.6578 24.1424C7.90933 24.1473 5.15964 24.1461 2.41119 24.1424C1.26078 24.1424 0.402273 23.5443 0.105474 22.5248C0.0318875 22.2727 0.00367933 21.9984 0.00367933 21.7352C0 15.2994 0 8.86496 0 2.42923C0 0.995769 0.913699 0.00841343 2.33147 0.00594195C5.58031 -0.000236742 8.83161 -0.0261873 12.078 0.0689646C14.5517 0.141873 16.8942 0.822765 19.0111 2.16107C21.8294 3.94177 23.495 6.50593 24.0395 9.80906C24.3044 11.418 24.2897 13.0269 23.9892 14.6309C23.9782 14.6902 23.9794 14.752 23.972 14.8521ZM7.41139 12.0692C7.41139 13.6436 7.41139 15.2179 7.41139 16.7935C7.41139 17.1382 7.523 17.2927 7.81244 17.289C9.26209 17.2742 10.7142 17.2939 12.1602 17.2111C13.2345 17.1493 14.2329 16.7589 15.1085 16.1113C16.3031 15.2302 16.8648 14.0007 16.9543 12.5413C17.0574 10.836 16.6563 9.31106 15.279 8.17789C14.331 7.39813 13.2186 6.98787 12.0142 6.9199C10.67 6.84329 9.31973 6.86553 7.9731 6.84946C7.51441 6.84452 7.41139 6.95203 7.41139 7.40802C7.41139 8.96258 7.41139 10.5159 7.41139 12.0705V12.0692Z" fill="#02CA66"/>
<g filter="url(#filter0_d_1384_18880)">
<path d="M21.3781 20.01C21.41 19.9754 21.4468 19.947 21.529 19.8728C23.5109 17.4075 23.972 14.8545 23.972 14.8545C23.9794 14.7544 23.9782 14.6926 23.9904 14.6333C24.2909 13.0293 24.3056 11.4204 24.0407 9.81145C23.4962 6.50832 21.8319 3.94416 19.0123 2.16346C16.8955 0.826394 14.553 0.144266 12.078 0.0713577C8.83161 -0.0237942 5.58031 0.00339204 2.33147 0.008335C0.913699 0.0108065 0 0.998162 0 2.43162C0 8.86735 0 15.3018 0.00490577 21.7376C0.00490577 22.002 0.0331139 22.2751 0.1067 22.5272C0.403499 23.5467 1.26201 24.1436 2.41241 24.1448C5.16087 24.1473 7.91055 24.1485 10.659 24.1448C12.0204 24.1423 13.3719 24.0286 14.7038 23.7222C17.2818 23.1302 19.5703 22.0094 21.3781 20.01ZM16.9543 12.5424C16.866 14.0006 16.3031 15.2314 15.1085 16.1125C14.2316 16.7588 13.2333 17.1505 12.1602 17.2123C10.7142 17.2951 9.26209 17.2753 7.81244 17.2901C7.523 17.2926 7.41139 17.1394 7.41139 16.7946C7.41016 15.2203 7.41139 13.646 7.41139 12.0704C7.41139 10.5158 7.41139 8.9625 7.41139 7.40794C7.41139 6.95319 7.51564 6.84444 7.9731 6.84939C9.32096 6.86545 10.67 6.84321 12.0142 6.91982C13.2186 6.98902 14.3298 7.39805 15.279 8.1778C16.6551 9.30974 17.0574 10.8346 16.9543 12.5412V12.5424Z" fill="#00E9F8"/>
</g>
</g>
<defs>
<filter id="filter0_d_1384_18880" x="-10" y="-5.99902" width="44.2285" height="44.146" filterUnits="userSpaceOnUse" color-interpolation-filters="sRGB">
<feFlood flood-opacity="0" result="BackgroundImageFix"/>
<feColorMatrix in="SourceAlpha" type="matrix" values="0 0 0 0 0 0 0 0 0 0 0 0 0 0 0 0 0 0 127 0" result="hardAlpha"/>
<feOffset dy="4"/>
<feGaussianBlur stdDeviation="5"/>
<feComposite in2="hardAlpha" operator="out"/>
<feColorMatrix type="matrix" values="0 0 0 0 0 0 0 0 0 0 0 0 0 0 0 0 0 0 0.05 0"/>
<feBlend mode="normal" in2="BackgroundImageFix" result="effect1_dropShadow_1384_18880"/>
<feBlend mode="normal" in="SourceGraphic" in2="effect1_dropShadow_1384_18880" result="shape"/>
</filter>
<clipPath id="clip0_1384_18880">
<rect width="30" height="24.1463" fill="white"/>
</clipPath>
</defs>
</svg>
