<svg width="120" height="92" viewBox="0 0 120 92" fill="none" xmlns="http://www.w3.org/2000/svg">
<g opacity="0.9" clip-path="url(#clip0_4544_27272)">
<path d="M119.85 43.6522L116.035 24.9144C115.644 22.9941 114.53 21.3481 112.9 20.2674C111.271 19.1867 109.309 18.8043 107.397 19.195L98.0782 21.0904C89.9563 8.41289 75.7574 0 59.5884 0C36.9434 0 18.1641 16.4766 14.5562 38.0991L5.86897 39.8698C1.91192 40.6761 -0.656837 44.5584 0.149536 48.5154L3.96526 67.2532C4.35598 69.1735 5.46994 70.8195 7.09931 71.9002C8.31303 72.7066 9.70963 73.1223 11.1312 73.1223C11.6217 73.1223 12.1204 73.0724 12.6109 72.9726L21.6805 71.1271C29.8773 83.3225 43.7935 91.3446 59.5967 91.3446C81.8759 91.3446 100.422 75.3834 104.446 54.2764L114.139 52.3062C116.059 51.9155 117.705 50.8015 118.786 49.1722C119.867 47.5428 120.249 45.5809 119.859 43.6689L119.85 43.6522ZM59.5884 3.72428C73.9202 3.72428 86.5728 10.9235 94.1378 21.8885L87.8447 23.1687C81.2275 14.8639 71.0356 9.52684 59.5884 9.52684C42.9705 9.52684 28.9878 20.7413 24.7647 36.0125L18.5049 37.2844C22.3872 18.1476 39.2961 3.72428 59.5884 3.72428ZM83.9957 23.9584L28.6303 35.231C32.9864 22.3041 45.1984 12.9851 59.5884 12.9851C69.2981 12.9851 78.0103 17.2331 83.9957 23.9584ZM59.5884 87.6121C45.639 87.6121 33.294 80.787 25.6708 70.3041L32.0138 69.0156C38.6393 76.8382 48.5319 81.8095 59.5884 81.8095C75.8156 81.8095 89.5406 71.1022 94.1045 56.3713L100.447 55.0828C96.1745 73.7125 79.515 87.6121 59.5884 87.6121ZM35.9542 68.2175L90.1724 57.1777C85.517 69.5476 73.5877 78.3512 59.5884 78.3512C50.286 78.3512 41.9064 74.4524 35.9542 68.2092V68.2175ZM115.311 46.8694C114.846 47.576 114.131 48.0582 113.3 48.2245L11.7796 68.8909C10.9483 69.0572 10.1004 68.8909 9.39373 68.4254C8.68712 67.9598 8.20496 67.2449 8.03869 66.4136L4.22297 47.6758C4.05671 46.8445 4.22297 45.9965 4.6885 45.2899C5.15404 44.5833 5.86897 44.1011 6.70028 43.9349L108.22 23.2684C108.436 23.2269 108.644 23.2019 108.86 23.2019C109.475 23.2019 110.082 23.3848 110.606 23.7257C111.313 24.1912 111.795 24.9061 111.961 25.7374L115.777 44.4752C115.943 45.3065 115.777 46.1545 115.311 46.8611V46.8694Z" fill="#E82168"/>
<path d="M27.2254 53.3121C26.6185 52.8549 25.9535 52.5639 25.2136 52.4475C24.4737 52.3312 23.5343 52.248 22.4038 52.2065C21.3147 52.1815 20.5001 52.1067 19.9431 51.9654C19.3861 51.8324 19.0619 51.5165 18.9704 51.0343C18.8707 50.5438 19.012 50.1115 19.3944 49.7291C19.7768 49.3467 20.4252 49.0641 21.3397 48.8812C22.6532 48.6235 24.0331 48.7316 25.4962 49.2137L26.0117 46.5203C25.2801 46.2459 24.4654 46.088 23.5593 46.0381C22.6532 45.9965 21.747 46.0631 20.8409 46.2376C19.544 46.4953 18.4883 46.911 17.6653 47.4763C16.8423 48.0499 16.277 48.7066 15.9611 49.4714C15.6452 50.2362 15.5704 51.0177 15.7366 51.8407C15.9278 52.7884 16.3186 53.495 16.9254 53.9605C17.5323 54.4344 18.2056 54.7253 18.9455 54.8417C19.6854 54.9581 20.6248 55.0412 21.7553 55.0828C22.4869 55.1077 23.0771 55.141 23.5177 55.1992C23.9583 55.2491 24.3324 55.3654 24.64 55.5317C24.9476 55.7063 25.1305 55.9557 25.2053 56.2965C25.2967 56.7537 25.1471 57.1694 24.7564 57.5352C24.3657 57.9009 23.7006 58.1753 22.7695 58.3582C21.9299 58.5244 21.0653 58.5577 20.1758 58.4496C19.2863 58.3415 18.4883 58.1337 17.7983 57.8012L17.1748 60.4946C17.9064 60.8521 18.8291 61.0849 19.9348 61.1763C21.0404 61.2761 22.1544 61.2096 23.2766 60.9851C24.5735 60.7274 25.6376 60.3118 26.4606 59.7465C27.2919 59.1729 27.8655 58.5078 28.1814 57.7513C28.5056 56.9948 28.5804 56.2051 28.4225 55.3987C28.2313 54.451 27.8405 53.7527 27.2337 53.2955L27.2254 53.3121Z" fill="#E82168"/>
<path d="M33.1278 44.0596L29.6196 59.4971L32.9864 58.832L33.6432 55.54L40.2272 54.2348L42.0893 57.0281L45.531 56.3464L36.3782 43.4195L33.1361 44.0596H33.1278ZM34.1918 52.8382L35.364 46.9609L38.6893 51.9487L34.1918 52.8382Z" fill="#E82168"/>
<path d="M57.4438 39.238L53.9689 49.089L46.911 41.3245L44.1926 41.8649L47.0025 56.0471L50.0866 55.4402L48.4323 47.1105L53.9439 53.1126L55.4237 52.8216L58.2086 44.9823L59.9128 53.4867L62.9969 52.8798L60.1372 38.6976L57.4438 39.238Z" fill="#E82168"/>
<path d="M75.5748 38.1489C74.918 37.4756 74.095 37.0267 73.0808 36.7856C72.0749 36.5528 70.936 36.5611 69.6808 36.8105L63.5374 38.0242L66.3472 52.2064L69.6309 51.558L68.8578 47.6425L71.7175 47.0772C72.9727 46.8279 74.0202 46.4039 74.8681 45.8136C75.7161 45.2151 76.3063 44.4835 76.6555 43.6107C77.0046 42.7378 77.0711 41.7735 76.8633 40.7343C76.6555 39.6786 76.2232 38.8223 75.5748 38.1489ZM73.1307 43.3613C72.6984 43.885 71.9918 44.2508 71.0109 44.442L68.334 44.974L67.3614 40.0527L70.0382 39.5206C71.0275 39.3211 71.8172 39.3876 72.4158 39.7118C73.0143 40.036 73.3884 40.593 73.5464 41.3911C73.7043 42.1725 73.563 42.8292 73.139 43.3613H73.1307Z" fill="#E82168"/>
<path d="M83.7382 45.9799L81.4604 34.4745L78.1768 35.123L80.9866 49.3052L91.3863 47.2518L90.8543 44.575L83.7382 45.9799Z" fill="#E82168"/>
<path d="M95.9667 43.6024L95.3183 40.3187L101.902 39.0135L101.395 36.4614L94.8112 37.7666L94.2044 34.6824L101.661 33.2026L101.138 30.5674L90.4136 32.6955L93.2317 46.8861L104.213 44.708L103.69 42.0728L95.9667 43.6024Z" fill="#E82168"/>
</g>
<defs>
<clipPath id="clip0_4544_27272">
<rect width="120" height="91.3363" fill="white"/>
</clipPath>
</defs>
</svg>
