<svg width="100" height="100" viewBox="0 0 100 100" fill="none" xmlns="http://www.w3.org/2000/svg">
<circle opacity="0.05" cx="50" cy="50" r="50" fill="#816CEC"/>
<path d="M53 44H70.4098C72.9518 44 75 45.9014 75 48.2236V70.0986C75 71.1418 74.0673 72 72.9335 72H61.6683" stroke="#816CEC" stroke-width="2" stroke-miterlimit="10" stroke-linecap="round"/>
<path d="M50.5987 71.9313C51.6806 71.9313 52.5706 71.0135 52.5706 69.8976V33.5252C52.5706 30.4656 50.686 28 47.7195 28H30.3571C27.3906 28 25 30.4836 25 33.5252V69.8976C25 71.0135 25.8899 71.9313 26.9718 71.9313H50.5987Z" stroke="#816CEC" stroke-width="2" stroke-miterlimit="10" stroke-linecap="round"/>
<path d="M35.9408 35.0996H31.3457V39.4927H35.9408V35.0996Z" fill="#816CEC"/>
<path d="M35.9408 43.4609H31.3457V47.8541H35.9408V43.4609Z" fill="#816CEC"/>
<path d="M45.1322 35.0996H40.5371V39.4927H45.1322V35.0996Z" fill="#816CEC"/>
<path d="M63.5131 51H58.918V55.3931H63.5131V51Z" fill="#816CEC"/>
<path d="M70.5951 51H66V55.3931H70.5951V51Z" fill="#816CEC"/>
<path d="M70.4056 59.2559H65.8105V63.649H70.4056V59.2559Z" fill="#816CEC"/>
<path d="M33.7227 57.1934C33.7227 56.6411 34.1704 56.1934 34.7227 56.1934H43.2702C43.8224 56.1934 44.2702 56.6411 44.2702 57.1934V72.0146H33.7227V57.1934Z" fill="#816CEC"/>
</svg>
