<svg width="36" height="36" viewBox="0 0 36 36" fill="none" xmlns="http://www.w3.org/2000/svg">
<circle cx="18" cy="18" r="17.5" fill="url(#paint0_linear_5707_19061)" stroke="white"/>
<path d="M12.6497 23.3032C15.5882 26.2321 20.3526 26.2321 23.291 23.3032C26.2295 20.3743 26.2295 15.6254 23.291 12.6966C20.3526 9.76772 15.5882 9.76772 12.6497 12.6966C12.3559 12.9894 11.8794 12.9894 11.5856 12.6966C11.2918 12.4037 11.2918 11.9288 11.5856 11.6359C15.1117 8.12136 20.8288 8.12136 24.3552 11.6359C27.8816 15.1505 27.8812 20.8489 24.3552 24.3639C20.8291 27.8784 15.112 27.8784 11.5856 24.3639C11.2918 24.071 11.2918 23.5961 11.5856 23.3032C11.8794 23.0103 12.3559 23.0103 12.6497 23.3032Z" fill="white"/>
<path d="M9.90012 17.4328H18.9027L15.941 14.4808C15.588 14.1317 15.5858 13.5635 15.9357 13.2116C15.9375 13.2099 15.9393 13.2081 15.941 13.2063C16.2923 12.8583 16.8591 12.8583 17.2104 13.2063L21.0726 17.0647C21.4109 17.3998 21.6017 17.8547 21.6038 18.33C21.5996 18.8022 21.4088 19.2536 21.0726 19.5861L17.2104 23.4445C16.8574 23.794 16.287 23.7919 15.9364 23.44C15.5858 23.088 15.588 22.5196 15.941 22.1701L18.9027 19.2268H9.90012C9.4028 19.2268 9 18.825 9 18.3297C9 17.8343 9.40315 17.4325 9.90012 17.4325V17.4328Z" fill="white"/>
<defs>
<linearGradient id="paint0_linear_5707_19061" x1="10.75" y1="2.28426" x2="39.7977" y2="18.1378" gradientUnits="userSpaceOnUse">
<stop stop-color="#00B4CD"/>
<stop offset="1" stop-color="#0686CE"/>
</linearGradient>
</defs>
</svg>
