<svg width="44" height="43" viewBox="0 0 44 43" fill="none" xmlns="http://www.w3.org/2000/svg">
<path d="M19.3291 33.3714C19.3291 31.5838 20.4677 30.0136 22.1624 29.4648L27.5705 27.7134V27.597C27.5705 27.5901 27.5747 27.4727 27.5747 27.4727H27.3298C25.4959 27.4727 24.004 25.975 24.004 24.1339V20.6673L23.9714 20.6414C23.5512 20.3093 23.3097 19.8115 23.3097 19.2766V18.5398C23.3097 18.0049 23.5503 17.5079 23.9714 17.1749L24.004 17.149V15.1552C24.004 12.2166 25.6721 9.66114 28.1084 8.39462V0.888639C28.1084 0.397731 27.7122 0 27.2233 0H0.885156C0.396172 0 0 0.397731 0 0.888639V37.7999C0 38.2908 0.396172 38.6886 0.885156 38.6886H19.3291V33.3705V33.3714Z" fill="#DFF8FF"/>
<path d="M27.5701 27.5967C27.5701 27.5898 27.5744 27.4725 27.5744 27.4725H27.3295C26.0215 27.4725 24.8888 26.7107 24.3457 25.6055V28.7571L27.5709 27.7132V27.5967H27.5701Z" fill="#AEE0F4"/>
<path d="M24.3461 0.888639V12.8956C24.9528 10.9415 26.3252 9.3238 28.1084 8.39548V0.888639C28.1084 0.397731 27.7123 0 27.2233 0H23.4609C23.9499 0 24.3461 0.397731 24.3461 0.888639Z" fill="#AEE0F4"/>
<path d="M8.19375 13.6991V4.54789C8.19375 4.40467 8.07859 4.28906 7.93594 4.28906H5.22461C5.08195 4.28906 4.9668 4.40467 4.9668 4.54789V13.7H8.19375V13.6991Z" fill="#52D8A4"/>
<path d="M8.19316 13.6991V4.54789C8.19316 4.40467 8.07801 4.28906 7.93535 4.28906H6.72363V13.7H8.19316V13.6991Z" fill="#1FC091"/>
<path d="M13.9301 13.6986V9.33305C13.9301 9.18983 13.8149 9.07422 13.6723 9.07422H10.9609C10.8183 9.07422 10.7031 9.18983 10.7031 9.33305V13.6986H13.9301Z" fill="#B3DAFE"/>
<path d="M13.9295 13.6986V9.33305C13.9295 9.18983 13.8143 9.07422 13.6717 9.07422H12.4385V13.6986H13.9295Z" fill="#7F95E0"/>
<path d="M11.0156 25.1636H4.05469C3.8175 25.1636 3.625 24.9703 3.625 24.7322V17.7439C3.625 17.5058 3.8175 17.3125 4.05469 17.3125H11.0156C11.2528 17.3125 11.4453 17.5058 11.4453 17.7439V24.7322C11.4453 24.9703 11.2528 25.1636 11.0156 25.1636Z" fill="#FFDA8F"/>
<path d="M19.6664 13.6991V4.54789C19.6664 4.40467 19.5512 4.28906 19.4086 4.28906H16.6973C16.5546 4.28906 16.4395 4.40467 16.4395 4.54789V13.7H19.6664V13.6991Z" fill="#52D8A4"/>
<path d="M19.6663 13.6991V4.54789C19.6663 4.40467 19.5512 4.28906 19.4085 4.28906H18.1934V13.7H19.6663V13.6991Z" fill="#1FC091"/>
<path d="M25.0421 16.799H26.3785V16.0078C26.3785 15.4185 26.8554 14.9397 27.4424 14.9397H31.6576C31.8415 14.9397 32.0125 14.8405 32.1045 14.6809L33.0094 13.1072L33.9143 14.6809C34.0063 14.8405 34.1773 14.9397 34.3612 14.9397H35.725C36.312 14.9397 36.7889 15.4185 36.7889 16.0078V16.799H38.1253C38.5541 16.799 38.946 16.9568 39.2485 17.2165V15.152C39.2485 10.902 35.817 7.45703 31.5837 7.45703C27.3504 7.45703 23.9189 10.902 23.9189 15.152V17.2165C24.2214 16.9568 24.6133 16.799 25.0421 16.799Z" fill="#596C76"/>
<path d="M28.1032 26.6715L29.2514 26.0063V25.2194L29.205 25.1953C27.634 24.3834 26.5882 22.8494 26.4068 21.0929L26.3991 21.0152H25.0421C24.6133 21.0152 24.2214 20.8573 23.9189 20.5977V24.1341C23.9189 26.0253 25.4461 27.5592 27.3307 27.5592H27.5739C27.5868 27.1934 27.7861 26.8561 28.1032 26.6723V26.6715Z" fill="#596C76"/>
<path d="M38.1252 21.0161H36.7683L36.7605 21.0937C36.5792 22.8503 35.5334 24.3843 33.9624 25.1961L33.916 25.2203V26.0071L35.0641 26.6723C35.3813 26.8561 35.5806 27.1934 35.5935 27.5592H35.8367C37.7205 27.5592 39.2484 26.0261 39.2484 24.1341V20.5977C38.9459 20.8573 38.5541 21.0161 38.1252 21.0161Z" fill="#596C76"/>
<path d="M34.7445 14.9397H35.7242C36.3111 14.9397 36.7881 15.4185 36.7881 16.0078V16.799H38.1244C38.5532 16.799 38.9451 16.9568 39.2476 17.2165V15.152C39.2476 10.902 35.8161 7.45703 31.5829 7.45703C30.8 7.45703 30.0446 7.57523 29.333 7.79437C32.4036 8.73995 34.6525 11.5689 34.7436 14.9397H34.7445Z" fill="#465A61"/>
<path d="M38.124 21.0152H36.767L36.7593 21.0929C36.608 22.5596 35.8535 23.871 34.6942 24.7363C34.604 25.2462 34.402 25.7164 34.1133 26.1219L35.0629 26.6723C35.38 26.8561 35.5794 27.1934 35.5923 27.5592H35.8355C37.7192 27.5592 39.2472 26.0261 39.2472 24.1341V20.5977C38.9447 20.8573 38.5528 21.0152 38.124 21.0152Z" fill="#465A61"/>
<path d="M43.9999 41.2877V33.3771C43.9999 31.5541 42.826 29.9399 41.0961 29.3852L35.6812 27.6484H27.4844L22.1357 29.38C20.4109 29.9382 19.2422 31.5498 19.2422 33.3694V41.2886C19.2422 41.7795 19.6384 42.1773 20.1273 42.1773H43.1139C43.6029 42.1773 43.999 41.7795 43.999 41.2886L43.9999 41.2877Z" fill="#B3DAFE"/>
<path d="M44.0004 33.3826C44.0004 31.5596 42.8265 29.9454 41.0966 29.3906L38.9043 28.6875C39.7353 29.4631 40.238 30.5657 40.238 31.758V42.1819H43.1152C43.6042 42.1819 44.0004 41.7841 44.0004 41.2932V33.3826Z" fill="#8AC9FE"/>
<path d="M35.1061 26.5965L33.915 25.9062V26.9985C33.915 27.0865 33.8763 27.1676 33.8075 27.2228L32.7918 28.0407L31.5826 30.5177L30.3735 28.0407L29.3568 27.2228C29.2889 27.1676 29.2494 27.0865 29.2494 26.9985V25.9062L28.0583 26.5965C27.7025 26.8027 27.4834 27.184 27.4834 27.5964V31.6712C27.4834 31.9749 27.8168 32.1586 28.0721 31.9964L30.5411 30.4228C30.7129 30.3132 30.9372 30.4374 30.9372 30.6411V42.1796H32.2263V30.6411C32.2263 30.4366 32.4506 30.3132 32.6225 30.4228L35.0914 31.9964C35.3467 32.1595 35.6801 31.9749 35.6801 31.6712V27.5964C35.6801 27.184 35.461 26.8027 35.1052 26.5965H35.1061Z" fill="#8AC9FE"/>
<path d="M35.1071 26.5965L33.916 25.9062V26.8596C34.0845 27.0632 34.1816 27.3229 34.1816 27.5964V31.4141L35.0942 31.9956C35.3495 32.1586 35.6829 31.974 35.6829 31.6703V27.5955C35.6829 27.1831 35.4637 26.8018 35.108 26.5956L35.1071 26.5965Z" fill="#60B7FF"/>
<path d="M31.5833 25.7724C30.7111 25.7724 29.8886 25.5549 29.165 25.1719V26.9975C29.165 27.1105 29.2166 27.2183 29.3043 27.2891L30.3054 28.0949L31.5833 30.7125L32.8612 28.0949L33.8624 27.2891C33.95 27.2183 34.0016 27.1114 34.0016 26.9975V25.1719C33.2789 25.5541 32.4564 25.7724 31.5833 25.7724Z" fill="#FFE5D8"/>
<path d="M32.1807 25.7361V26.2538C32.1807 26.3668 32.1292 26.4746 32.0415 26.5454L31.0404 27.3512L30.4912 28.4762L31.5826 30.7125L32.8605 28.0949L33.8617 27.2891C33.9493 27.2183 34.0009 27.1114 34.0009 26.9975V25.1719C33.4457 25.4661 32.8313 25.6611 32.1807 25.737V25.7361Z" fill="#FFD8CA"/>
<path d="M26.3786 20.5503V16.7188H25.0423C24.0386 16.7188 23.2256 17.5358 23.2256 18.5435V19.2803C23.2256 20.288 24.0394 21.1041 25.0423 21.1041H26.4087C26.3898 20.9221 26.3795 20.7375 26.3795 20.5503H26.3786Z" fill="#FFD8CA"/>
<path d="M38.1253 16.7118H36.789V20.5433C36.789 20.7305 36.7787 20.9151 36.7598 21.0972H38.1262C39.1299 21.0972 39.9429 20.2802 39.9429 19.2725V18.5357C39.9429 17.528 39.1291 16.7109 38.1262 16.7109L38.1253 16.7118Z" fill="#FFD8CA"/>
<path d="M33.9876 14.6445L33.0079 12.9414L32.0282 14.6445C31.9517 14.7782 31.8099 14.8602 31.6561 14.8602H27.4409C26.8058 14.8602 26.291 15.377 26.291 16.0145V20.5509C26.291 23.4843 28.6595 25.8629 31.5822 25.8629C34.5049 25.8629 36.8734 23.4851 36.8734 20.5509V16.0145C36.8734 15.377 36.3586 14.8602 35.7235 14.8602H34.3597C34.2059 14.8602 34.0641 14.7782 33.9876 14.6445Z" fill="#FFE5D8"/>
<path d="M35.7237 14.8555H34.4536C34.4536 14.8555 34.457 14.8598 34.4587 14.8615C35.0388 14.9202 35.4917 15.4119 35.4917 16.0098V20.5462C35.4917 23.2449 33.4868 25.4717 30.8906 25.8116C31.1175 25.8418 31.3478 25.8582 31.5824 25.8582C34.5043 25.8582 36.8736 23.4804 36.8736 20.5462V16.0098C36.8736 15.3723 36.3588 14.8555 35.7237 14.8555Z" fill="#FFD8CA"/>
<path d="M29.2549 18.9794C28.8991 18.9794 28.6104 18.6895 28.6104 18.3323V17.2564C28.6104 16.8993 28.8991 16.6094 29.2549 16.6094C29.6107 16.6094 29.8994 16.8993 29.8994 17.2564V18.3323C29.8994 18.6895 29.6107 18.9794 29.2549 18.9794Z" fill="#FFB7A0"/>
<path d="M33.9121 18.9794C33.5563 18.9794 33.2676 18.6895 33.2676 18.3323V17.2564C33.2676 16.8993 33.5563 16.6094 33.9121 16.6094C34.2679 16.6094 34.5566 16.8993 34.5566 17.2564V18.3323C34.5566 18.6895 34.2679 18.9794 33.9121 18.9794Z" fill="#FFB7A0"/>
<path d="M31.5834 21.0915C30.8427 21.0915 30.2402 20.4867 30.2402 19.743C30.2402 18.9993 30.8427 18.3945 31.5834 18.3945C31.9392 18.3945 32.228 18.6844 32.228 19.0416C32.228 19.3988 31.9392 19.6887 31.5834 19.6887C31.5534 19.6887 31.5293 19.7128 31.5293 19.743C31.5293 19.7732 31.5534 19.7974 31.5834 19.7974C31.9392 19.7974 32.228 20.0873 32.228 20.4444C32.228 20.8016 31.9392 21.0915 31.5834 21.0915Z" fill="#FFB7A0"/>
<path d="M31.5344 24.1363C30.9388 24.1363 30.3252 23.8818 29.8792 23.4478C29.4822 23.0613 29.2639 22.5825 29.2656 22.0985C29.2665 21.7413 29.5552 21.4531 29.9102 21.4531H29.9119C30.2677 21.454 30.5556 21.7447 30.5547 22.1019C30.5547 22.227 30.6372 22.3823 30.7764 22.5178C30.9904 22.7266 31.292 22.8508 31.5619 22.8404C31.5765 22.8404 31.5911 22.8404 31.6057 22.8404C31.8747 22.8482 32.1763 22.7257 32.3912 22.5178C32.5304 22.3823 32.6129 22.227 32.6129 22.1019C32.612 21.7447 32.8999 21.454 33.2557 21.4531C33.6089 21.4514 33.9011 21.7413 33.902 22.0985C33.9037 22.5816 33.6854 23.0613 33.2884 23.447C32.8303 23.893 32.1944 24.151 31.5842 24.1346C31.5679 24.1346 31.5516 24.1346 31.5352 24.1346L31.5344 24.1363Z" fill="#FFB7A0"/>
<path d="M20.3606 14.9035H4.27051C3.91473 14.9035 3.62598 14.6136 3.62598 14.2564C3.62598 13.8993 3.91473 13.6094 4.27051 13.6094H20.3606C20.7164 13.6094 21.0051 13.8993 21.0051 14.2564C21.0051 14.6136 20.7164 14.9035 20.3606 14.9035Z" fill="#AEE0F4"/>
<path d="M20.3608 18.5949H13.8545C13.4987 18.5949 13.21 18.305 13.21 17.9478C13.21 17.5907 13.4987 17.3008 13.8545 17.3008H20.3608C20.7166 17.3008 21.0053 17.5907 21.0053 17.9478C21.0053 18.305 20.7166 18.5949 20.3608 18.5949Z" fill="#AEE0F4"/>
<path d="M20.3608 21.884H13.8545C13.4987 21.884 13.21 21.5941 13.21 21.2369C13.21 20.8797 13.4987 20.5898 13.8545 20.5898H20.3608C20.7166 20.5898 21.0053 20.8797 21.0053 21.2369C21.0053 21.5941 20.7166 21.884 20.3608 21.884Z" fill="#AEE0F4"/>
<path d="M20.3608 25.173H13.8545C13.4987 25.173 13.21 24.8832 13.21 24.526C13.21 24.1688 13.4987 23.8789 13.8545 23.8789H20.3608C20.7166 23.8789 21.0053 24.1688 21.0053 24.526C21.0053 24.8832 20.7166 25.173 20.3608 25.173Z" fill="#AEE0F4"/>
<path d="M5.4273 28.4699H4.25684C3.90105 28.4699 3.6123 28.18 3.6123 27.8228C3.6123 27.4657 3.90105 27.1758 4.25684 27.1758H5.4273C5.78308 27.1758 6.07183 27.4657 6.07183 27.8228C6.07183 28.18 5.78308 28.4699 5.4273 28.4699Z" fill="#AEE0F4"/>
<path d="M5.4273 31.759H4.25684C3.90105 31.759 3.6123 31.4691 3.6123 31.1119C3.6123 30.7547 3.90105 30.4648 4.25684 30.4648H5.4273C5.78308 30.4648 6.07183 30.7547 6.07183 31.1119C6.07183 31.4691 5.78308 31.759 5.4273 31.759Z" fill="#AEE0F4"/>
<path d="M5.4273 35.048H4.25684C3.90105 35.048 3.6123 34.7582 3.6123 34.401C3.6123 34.0438 3.90105 33.7539 4.25684 33.7539H5.4273C5.78308 33.7539 6.07183 34.0438 6.07183 34.401C6.07183 34.7582 5.78308 35.048 5.4273 35.048Z" fill="#AEE0F4"/>
<path d="M16.7859 28.4699H7.84668C7.4909 28.4699 7.20215 28.18 7.20215 27.8228C7.20215 27.4657 7.4909 27.1758 7.84668 27.1758H16.7859C17.1417 27.1758 17.4304 27.4657 17.4304 27.8228C17.4304 28.18 17.1417 28.4699 16.7859 28.4699Z" fill="#AEE0F4"/>
<path d="M16.7859 31.759H7.84668C7.4909 31.759 7.20215 31.4691 7.20215 31.1119C7.20215 30.7547 7.4909 30.4648 7.84668 30.4648H16.7859C17.1417 30.4648 17.4304 30.7547 17.4304 31.1119C17.4304 31.4691 17.1417 31.759 16.7859 31.759Z" fill="#AEE0F4"/>
<path d="M16.7859 35.048H7.84668C7.4909 35.048 7.20215 34.7582 7.20215 34.401C7.20215 34.0438 7.4909 33.7539 7.84668 33.7539H16.7859C17.1417 33.7539 17.4304 34.0438 17.4304 34.401C17.4304 34.7582 17.1417 35.048 16.7859 35.048Z" fill="#AEE0F4"/>
<path d="M6.90476 21.8681L3.75 25.0352C3.82734 25.1129 3.93477 25.1612 4.05336 25.1612H11.0143C11.2515 25.1612 11.444 24.968 11.444 24.7298V18.832L8.4207 21.8672H6.90476V21.8681Z" fill="#7F95E0"/>
</svg>
