<svg width="66" height="50" viewBox="0 0 66 50" fill="none" xmlns="http://www.w3.org/2000/svg">
<g filter="url(#filter0_d_3968_25081)">
<path d="M60.8647 1.23438L59.6309 10.7398V46.0004H62.4687C62.9455 46.0004 63.3324 45.6135 63.3324 45.1367V9.58384L62.0986 1.23557H60.8647V1.23438Z" fill="#FEBE67"/>
<path d="M63.3324 9.58331V0.863696C63.3324 0.386926 62.9455 0 62.4687 0H59.6309V10.7405L63.3324 9.58331Z" fill="#FFCE7E"/>
<path d="M62.0994 44.7666L59.6317 46.0004H2.8637C2.38693 46.0004 2 45.6135 2 45.1367V9.58384L3.23385 1.23438H62.0994V44.7666Z" fill="#FFCE7E"/>
<path d="M62.0994 8.34946L59.6317 10.7405L32.6666 19.1666L2 9.58331V0.863696C2 0.386926 2.38693 0 2.8637 0H59.6305L62.0982 1.23385V8.34826L62.0994 8.34946Z" fill="#FFDD94"/>
<path d="M33.6728 39.2601C32.1131 39.2601 30.8457 37.9915 30.8457 36.4318V36.4031C30.8457 34.8434 32.1143 33.5748 33.6728 33.5748H34.6491V9.58419C34.6491 9.07268 35.0636 8.6582 35.5751 8.6582C36.0866 8.6582 36.5011 9.07268 36.5011 9.58419V33.5748H40.3667C40.8782 33.5748 41.2927 33.9893 41.2927 34.5008C41.2927 35.0123 40.8782 35.4268 40.3667 35.4268H36.5011V36.433C36.5011 37.9927 35.2325 39.2613 33.6728 39.2613V39.2601ZM34.6491 35.4268H33.6728C33.1349 35.4268 32.6965 35.8652 32.6965 36.4031V36.4318C32.6965 36.9697 33.1349 37.4081 33.6728 37.4081C34.2106 37.4081 34.6491 36.9697 34.6491 36.4318V35.4256V35.4268Z" fill="#F2FBFF"/>
<path d="M29.76 27.7601C29.2485 27.7601 28.834 27.3457 28.834 26.8342V9.58419C28.834 9.07268 29.2485 8.6582 29.76 8.6582C30.2715 8.6582 30.686 9.07268 30.686 9.58419V26.8342C30.686 27.3457 30.2715 27.7601 29.76 27.7601Z" fill="#F2FBFF"/>
<path d="M32.6673 13.4167C34.7844 13.4167 36.5006 11.7004 36.5006 9.58333C36.5006 7.46624 34.7844 5.75 32.6673 5.75C30.5502 5.75 28.834 7.46624 28.834 9.58333C28.834 11.7004 30.5502 13.4167 32.6673 13.4167Z" fill="#918291"/>
<path d="M32.6673 30.6667C34.7844 30.6667 36.5006 28.9504 36.5006 26.8333C36.5006 24.7162 34.7844 23 32.6673 23C30.5502 23 28.834 24.7162 28.834 26.8333C28.834 28.9504 30.5502 30.6667 32.6673 30.6667Z" fill="#918291"/>
</g>
<defs>
<filter id="filter0_d_3968_25081" x="0" y="0" width="65.332" height="50" filterUnits="userSpaceOnUse" color-interpolation-filters="sRGB">
<feFlood flood-opacity="0" result="BackgroundImageFix"/>
<feColorMatrix in="SourceAlpha" type="matrix" values="0 0 0 0 0 0 0 0 0 0 0 0 0 0 0 0 0 0 127 0" result="hardAlpha"/>
<feOffset dy="2"/>
<feGaussianBlur stdDeviation="1"/>
<feComposite in2="hardAlpha" operator="out"/>
<feColorMatrix type="matrix" values="0 0 0 0 0 0 0 0 0 0 0 0 0 0 0 0 0 0 0.1 0"/>
<feBlend mode="normal" in2="BackgroundImageFix" result="effect1_dropShadow_3968_25081"/>
<feBlend mode="normal" in="SourceGraphic" in2="effect1_dropShadow_3968_25081" result="shape"/>
</filter>
</defs>
</svg>
