<svg width="114" height="28" viewBox="0 0 114 28" fill="none" xmlns="http://www.w3.org/2000/svg">
<path d="M49.2744 5.62109V9.36523H51.4365V11.2285H49.2744V14.9727H47.0244V5.62109H49.2744ZM49.2744 15.7812V21.6348H47.0244V17.5566H38.499V15.7812H49.2744ZM44.4229 6.72852V8.52148H39.4482V12.3008C42.3398 12.292 43.9307 12.2129 45.7236 11.8262L45.9521 13.6016C43.9482 14.041 42.1025 14.1113 38.5518 14.1113H37.1982V6.72852H44.4229ZM65.6396 5.62109V21.6523H63.4248V13.0742H60.6123V11.2637H63.4248V5.62109H65.6396ZM60.3486 6.95703V8.76758H55.1104V11.4219H59.7686V13.1797H55.1104V16.2031C57.3252 16.1855 59.1006 16.1064 61.0869 15.7988L61.3154 17.5918C58.9775 17.9434 56.8857 18.0312 54.1436 18.0312H52.8779V6.95703H60.3486ZM72.8818 6.69336C75.4131 6.67578 77.3115 8.32812 77.3115 10.6133C77.3115 12.916 75.4131 14.5508 72.8818 14.5508C70.3506 14.5508 68.4346 12.916 68.4346 10.6133C68.4346 8.32812 70.3506 6.67578 72.8818 6.69336ZM72.8818 8.62695C71.6162 8.62695 70.6494 9.36523 70.667 10.6133C70.6494 11.8789 71.6162 12.5996 72.8818 12.5996C74.1475 12.5996 75.1143 11.8789 75.1318 10.6133C75.1143 9.36523 74.165 8.62695 72.8818 8.62695ZM81.1436 5.62109V21.6523H78.9111V5.62109H81.1436ZM67.7666 16.5547C70.6143 16.5723 74.5693 16.5195 77.9971 16.0449L78.1729 17.6621C74.6221 18.3477 70.8252 18.3828 68.0303 18.3828L67.7666 16.5547ZM92.71 6.5V8.29297H89.5107C89.6162 9.98047 90.8203 11.668 93.3252 12.3535L92.2002 14.0938C90.3721 13.5752 89.0889 12.4766 88.3682 11.0703C87.6387 12.5908 86.3291 13.7949 84.4307 14.375L83.3057 12.6172C85.8545 11.8789 87.0938 10.1035 87.208 8.29297H83.9209V6.5H92.71ZM96.6475 5.62109V14.3047H94.3975V5.62109H96.6475ZM88.1572 14.9727V16.4668H94.415V14.9727H96.6475V21.4414H85.9424V14.9727H88.1572ZM88.1572 19.6484H94.415V18.207H88.1572V19.6484ZM104.698 9.24219C104.681 12.1074 105.911 15.0078 108.478 16.2383L107.124 18.0312C105.41 17.1875 104.259 15.6055 103.591 13.6719C102.896 15.7461 101.657 17.4424 99.8467 18.3301L98.458 16.5195C101.165 15.2715 102.448 12.2129 102.448 9.24219V6.85156H104.698V9.24219ZM111.431 5.62109V11.791H113.786V13.6895H111.431V21.6172H109.181V5.62109H111.431Z" fill="#343A40"/>
<g clip-path="url(#clip0_1650_15458)">
<rect width="34" height="27.3659" fill="white"/>
<path d="M27.1683 16.8327C29.1059 17.0021 29.6008 18.222 29.3867 19.9628C29.434 19.96 29.4826 19.9572 29.5299 19.9544C29.5771 19.8367 29.6397 19.7233 29.6703 19.6015C29.8537 18.8872 30.0817 18.2009 30.5015 17.5791C31.2354 16.4895 33.0659 16.596 33.6372 17.7878C34 18.5455 34.0542 19.3452 33.9583 20.1462C33.8735 20.8549 33.6748 21.5482 33.5344 22.2106C32.8269 22.1196 32.2236 22.0005 31.6162 21.9725C30.4764 21.9221 29.9135 22.4767 29.9024 23.6279C29.8927 24.59 30.0414 25.5354 30.3444 26.4485C30.4278 26.6992 30.3611 26.7958 30.1415 26.8953C29.2811 27.2832 28.3692 27.335 27.4533 27.3056C26.9153 27.2888 26.3691 27.2174 25.8451 27.0913C24.9291 26.8701 24.419 26.2132 24.3411 25.2959C24.2758 24.5228 24.3453 23.7385 24.3578 22.9599C24.3592 22.8366 24.38 22.7148 24.3981 22.5201C24.305 22.6041 24.2633 22.6363 24.2271 22.6756C22.1783 24.9402 19.5846 26.2118 16.6629 26.8827C15.1534 27.2286 13.6217 27.3588 12.0788 27.3616C8.9639 27.3673 5.8476 27.3658 2.73268 27.3616C1.42889 27.3616 0.455909 26.6838 0.119537 25.5284C0.0361392 25.2427 0.0041699 24.9318 0.0041699 24.6335C0 17.3396 0 10.0472 0 2.75338C0 1.1288 1.03553 0.00979564 2.64233 0.00699463C6.32435 -7.89086e-06 10.0092 -0.0294185 13.6884 0.0784203C16.492 0.16105 19.1468 0.932728 21.5459 2.44947C24.74 4.4676 26.6276 7.37365 27.2448 11.1172C27.545 12.9407 27.5283 14.7641 27.1878 16.582C27.1753 16.6492 27.1767 16.7192 27.1683 16.8327ZM8.39958 13.6787C8.39958 15.463 8.39958 17.2472 8.39958 19.0328C8.39958 19.4236 8.52606 19.5986 8.8541 19.5944C10.497 19.5776 12.1428 19.6 13.7815 19.5062C14.9991 19.4362 16.1306 18.9936 17.123 18.2598C18.4768 17.2612 19.1134 15.8677 19.2149 14.2137C19.3317 12.281 18.8772 10.5528 17.3162 9.26853C16.2418 8.38481 14.9811 7.91984 13.6161 7.84282C12.0927 7.75599 10.5624 7.78119 9.03618 7.76299C8.51633 7.75739 8.39958 7.87923 8.39958 8.39602C8.39958 10.1579 8.39958 11.9183 8.39958 13.6801V13.6787Z" fill="#02CA66"/>
<g filter="url(#filter0_d_1650_15458)">
<path d="M24.2285 22.6769C24.2647 22.6377 24.3064 22.6055 24.3995 22.5214C26.6457 19.7274 27.1683 16.834 27.1683 16.834C27.1767 16.7206 27.1753 16.6505 27.1892 16.5833C27.5297 14.7655 27.5464 12.942 27.2462 11.1185C26.629 7.37499 24.7428 4.46895 21.5473 2.45082C19.1482 0.935473 16.4934 0.162395 13.6884 0.0797653C10.0092 -0.0280735 6.32435 0.00273755 2.64233 0.00833956C1.03553 0.0111406 0 1.13014 0 2.75473C0 10.0486 0 17.341 0.00555987 24.6348C0.00555987 24.9345 0.0375291 25.244 0.120927 25.5297C0.457299 26.6851 1.43028 27.3616 2.73407 27.363C5.84899 27.3658 8.96529 27.3672 12.0802 27.363C13.6231 27.3602 15.1548 27.2313 16.6643 26.884C19.586 26.2132 22.1797 24.9429 24.2285 22.6769ZM19.2149 14.2137C19.1148 15.8662 18.4768 17.2612 17.123 18.2597C16.1292 18.9922 14.9978 19.4361 13.7815 19.5062C12.1428 19.6 10.497 19.5776 8.8541 19.5944C8.52606 19.5972 8.39958 19.4235 8.39958 19.0328C8.39819 17.2485 8.39958 15.4643 8.39958 13.6787C8.39958 11.9168 8.39958 10.1564 8.39958 8.39456C8.39958 7.87917 8.51772 7.75593 9.03618 7.76153C10.5638 7.77974 12.0927 7.75453 13.6161 7.84136C14.9811 7.91979 16.2404 8.38336 17.3162 9.26707C18.8758 10.5499 19.3317 12.2782 19.2149 14.2123V14.2137Z" fill="#00E9F8"/>
</g>
</g>
<defs>
<filter id="filter0_d_1650_15458" x="-10" y="-6" width="47.4587" height="47.3652" filterUnits="userSpaceOnUse" color-interpolation-filters="sRGB">
<feFlood flood-opacity="0" result="BackgroundImageFix"/>
<feColorMatrix in="SourceAlpha" type="matrix" values="0 0 0 0 0 0 0 0 0 0 0 0 0 0 0 0 0 0 127 0" result="hardAlpha"/>
<feOffset dy="4"/>
<feGaussianBlur stdDeviation="5"/>
<feComposite in2="hardAlpha" operator="out"/>
<feColorMatrix type="matrix" values="0 0 0 0 0 0 0 0 0 0 0 0 0 0 0 0 0 0 0.05 0"/>
<feBlend mode="normal" in2="BackgroundImageFix" result="effect1_dropShadow_1650_15458"/>
<feBlend mode="normal" in="SourceGraphic" in2="effect1_dropShadow_1650_15458" result="shape"/>
</filter>
<clipPath id="clip0_1650_15458">
<rect width="34" height="27.3659" fill="white"/>
</clipPath>
</defs>
</svg>
