<svg width="80" height="80" viewBox="0 0 80 80" fill="none" xmlns="http://www.w3.org/2000/svg">
<circle cx="40" cy="40" r="40" fill="#EDF3FF"/>
<path d="M41.9258 37.0332H53.8543C55.596 37.0332 56.9993 38.3054 56.9993 39.8591V54.4953C56.9993 55.1933 56.3603 55.7675 55.5834 55.7675H47.865" stroke="#4A86FF" stroke-width="2" stroke-miterlimit="10" stroke-linecap="round"/>
<path d="M39.7946 55.7674C40.5044 55.7674 41.0882 55.1652 41.0882 54.4331V30.5702C41.0882 28.5629 39.8518 26.9453 37.9056 26.9453H26.5146C24.5684 26.9453 23 28.5747 23 30.5702V54.4331C23 55.1652 23.5839 55.7674 24.2937 55.7674H39.7946Z" stroke="#4A86FF" stroke-width="2" stroke-miterlimit="10" stroke-linecap="round"/>
<path d="M38.5704 36.5703H25.9199V39.4896H38.5704V36.5703Z" fill="#4A86FF"/>
<path d="M35.651 42.4082H25.9199V45.3275H35.651V42.4082Z" fill="#4A86FF"/>
<path d="M31.7586 48.2471H25.9199V51.1664H31.7586V48.2471Z" fill="#4A86FF"/>
<path d="M49.4666 41.3555H46.4519V44.2377H49.4666V41.3555Z" fill="#4A86FF"/>
<path d="M53.9864 41.3555H50.9717V44.2377H53.9864V41.3555Z" fill="#4A86FF"/>
<path d="M53.9864 47.1201H50.9717V50.0023H53.9864V47.1201Z" fill="#4A86FF"/>
<ellipse cx="31.7586" cy="26.8387" rx="5.83867" ry="5.83867" fill="#4A86FF"/>
<path fill-rule="evenodd" clip-rule="evenodd" d="M30.7824 25.8623L28.833 25.8623L28.833 27.8085L30.7824 27.8085L30.7824 29.7557L32.7286 29.7557L32.7286 27.8085L34.6716 27.8085L34.6716 25.8623L32.7286 25.8623L32.7286 23.917L30.7824 23.917L30.7824 25.8623Z" fill="#EDF3FF"/>
</svg>
