<svg width="32" height="32" viewBox="0 0 32 32" fill="none" xmlns="http://www.w3.org/2000/svg">
<path d="M21.7775 12.1479C21.7775 10.6155 21.1687 9.14593 20.0852 8.06239C19.0016 6.97885 17.532 6.37012 15.9997 6.37012C14.4673 6.37012 12.9977 6.97885 11.9142 8.06239C10.8306 9.14593 10.2219 10.6155 10.2219 12.1479C10.2219 18.8886 7.33301 20.8146 7.33301 20.8146H24.6663C24.6663 20.8146 21.7775 18.8886 21.7775 12.1479Z" stroke="white" stroke-width="2" stroke-linecap="round" stroke-linejoin="round"/>
<path d="M17.6658 24.6665C17.4965 24.9584 17.2535 25.2006 16.9612 25.369C16.6688 25.5374 16.3373 25.6261 15.9999 25.6261C15.6625 25.6261 15.331 25.5374 15.0387 25.369C14.7463 25.2006 14.5033 24.9584 14.334 24.6665" stroke="white" stroke-width="2" stroke-linecap="round" stroke-linejoin="round"/>
</svg>
