<svg width="20" height="20" viewBox="0 0 20 20" fill="none" xmlns="http://www.w3.org/2000/svg">
<path d="M3.05555 16.2503V3.75033C3.05555 3.56615 3.12871 3.38951 3.25894 3.25928C3.38918 3.12905 3.56581 3.05588 3.74999 3.05588H7.22221V1.66699H3.74999C3.19746 1.66699 2.66755 1.88649 2.27685 2.27719C1.88615 2.66789 1.66666 3.19779 1.66666 3.75033L1.66666 16.2503C1.66666 16.8029 1.88615 17.3328 2.27685 17.7235C2.66755 18.1142 3.19746 18.3337 3.74999 18.3337H7.22221V16.9448H3.74999C3.56581 16.9448 3.38918 16.8716 3.25894 16.7414C3.12871 16.6111 3.05555 16.4345 3.05555 16.2503Z" fill="#858E96"/>
<path d="M17.7243 8.5275L14.5396 5.34277L13.5576 6.32472L16.5187 9.28583L5.13889 9.30597V10.6949L16.5576 10.6747L13.5562 13.6761L14.5382 14.6581L17.7229 11.4733C18.1137 11.0828 18.3333 10.5531 18.3336 10.0007C18.3338 9.44827 18.1147 8.91836 17.7243 8.5275Z" fill="#858E96"/>
</svg>
