<svg width="100" height="100" viewBox="0 0 100 100" fill="none" xmlns="http://www.w3.org/2000/svg">
<circle opacity="0.05" cx="50" cy="50" r="50" fill="#00B4CD"/>
<g clip-path="url(#clip0_6045_19014)">
<path d="M68.791 41.624C65.9189 41.624 63.582 39.2871 63.582 36.416C63.582 33.5449 65.9189 31.207 68.791 31.207C71.6631 31.207 73.999 33.5439 73.999 36.416C73.999 39.2881 71.6621 41.624 68.791 41.624ZM68.791 33.291C67.0684 33.291 65.666 34.6934 65.666 36.416C65.666 38.1387 67.0684 39.541 68.791 39.541C70.5137 39.541 71.916 38.1387 71.916 36.416C71.916 34.6934 70.5137 33.291 68.791 33.291Z" fill="#00CBEA"/>
<path d="M72.958 62.459C72.3818 62.459 71.917 61.9932 71.917 61.418V47.876C71.917 46.7266 70.9824 45.793 69.833 45.793H68.792C68.0605 45.793 67.3955 46.2764 66.498 47.4639C65.4922 48.793 62.4375 52.543 62.3086 52.7012C62.1094 52.9443 61.8135 53.085 61.5 53.085H56.292C55.7168 53.085 55.25 53.5518 55.25 54.127V55.1689H64.1045L66.917 51.4189C67.2617 50.959 67.915 50.8662 68.375 51.2109C68.835 51.5557 68.9287 52.209 68.583 52.668L65.458 56.835C65.2617 57.0986 64.9522 57.2529 64.626 57.2529H54.209C53.6328 57.2529 53.168 56.7871 53.168 56.2109V54.1279C53.168 52.4053 54.5703 51.0029 56.293 51.0029H61.0049C61.8262 49.9922 64.0381 47.2637 64.8359 46.208C65.7158 45.0449 66.96 43.7109 68.792 43.7109H69.833C72.1309 43.7109 74 45.5801 74 47.8779V61.4199C74 61.9961 73.5342 62.4609 72.958 62.4609V62.459Z" fill="#00CBEA"/>
<path d="M29.208 41.624C26.3359 41.624 24 39.2871 24 36.416C24 33.5449 26.3369 31.207 29.208 31.207C32.0791 31.207 34.417 33.5439 34.417 36.416C34.417 39.2881 32.0801 41.624 29.208 41.624ZM29.208 33.291C27.4854 33.291 26.083 34.6934 26.083 36.416C26.083 38.1387 27.4854 39.541 29.208 39.541C30.9307 39.541 32.333 38.1387 32.333 36.416C32.333 34.6934 30.9307 33.291 29.208 33.291Z" fill="#00CBEA"/>
<path d="M25.042 62.457C24.4668 62.457 24 61.9912 24 61.416V47.874C24 45.5762 25.8691 43.707 28.167 43.707H29.208C31.041 43.707 32.2852 45.041 33.1631 46.2041C33.9619 47.2588 36.1729 49.9883 36.9941 50.999H41.708C43.4307 50.999 44.833 52.4014 44.833 54.124V56.207C44.833 56.7832 44.3662 57.249 43.792 57.249H33.375C33.0469 57.249 32.7383 57.0947 32.541 56.832L29.416 52.665C29.0703 52.2061 29.1641 51.5527 29.625 51.208C30.0869 50.8633 30.7393 50.9561 31.083 51.416L33.8955 55.165H42.75V54.123C42.75 53.5479 42.2822 53.0811 41.708 53.0811H36.5C36.1865 53.0811 35.8906 52.9404 35.6924 52.6973C35.5635 52.5391 32.5078 48.7891 31.5029 47.459C30.6045 46.2725 29.9404 45.7891 29.208 45.7891H28.167C27.0176 45.7891 26.083 46.7236 26.083 47.8721V61.4141C26.083 61.9902 25.6162 62.4551 25.042 62.4551V62.457Z" fill="#00CBEA"/>
<path d="M48.999 34.333C46.7012 34.333 44.832 32.4648 44.832 30.167C44.832 27.8691 46.7012 26 48.999 26C51.2969 26 53.166 27.8691 53.166 30.167C53.166 32.4648 51.2969 34.333 48.999 34.333ZM48.999 28.083C47.8496 28.083 46.916 29.0176 46.916 30.167C46.916 31.3164 47.8506 32.25 48.999 32.25C50.1475 32.25 51.082 31.3154 51.082 30.167C51.082 29.0186 50.1475 28.083 48.999 28.083Z" fill="#00CBEA"/>
<path d="M55.249 44.751C54.6729 44.751 54.207 44.2842 54.207 43.709V41.626C54.207 40.792 53.8809 40.0078 53.291 39.417C52.7012 38.8262 51.917 38.501 51.082 38.501H46.916C46.0811 38.501 45.2969 38.8262 44.707 39.417C44.1162 40.0078 43.791 40.792 43.791 41.626V43.709C43.791 44.2842 43.3242 44.751 42.749 44.751C42.1738 44.751 41.707 44.2842 41.707 43.709V41.626C41.707 40.2363 42.249 38.9287 43.2324 37.9434C44.2178 36.959 45.5264 36.418 46.916 36.418H51.082C52.4736 36.418 53.7822 36.96 54.7646 37.9434C55.748 38.9268 56.291 40.2354 56.291 41.626V43.709C56.291 44.2842 55.8252 44.751 55.249 44.751Z" fill="#00CBEA"/>
<path d="M47.957 60.375H50.041V62.458H47.957V60.375Z" fill="#00CBEA"/>
<path d="M43.793 60.375H45.876V62.458H43.793V60.375Z" fill="#00CBEA"/>
<path d="M52.125 60.375H54.208V62.458H52.125V60.375Z" fill="#00CBEA"/>
<path d="M70.874 69.75H27.124C26.5488 69.75 26.082 69.2841 26.082 68.708V66.625C26.082 66.4433 26.1289 66.2656 26.2197 66.1084L30.3857 58.8164C30.6719 58.3173 31.3086 58.1435 31.8066 58.4287C32.3057 58.7138 32.4795 59.3506 32.1943 59.8496L28.165 66.9013V67.666H69.8311V66.8896L64.041 56.2685C63.7656 55.7646 63.9512 55.1318 64.457 54.8564C64.9629 54.58 65.5938 54.7666 65.8691 55.2714L71.7861 66.1259C71.8701 66.2773 71.9141 66.4502 71.9141 66.624V68.707C71.9141 69.2832 71.4482 69.749 70.8721 69.749L70.874 69.75Z" fill="#00CBEA"/>
<path d="M62.3535 52.0371C61.9248 52.0371 61.5547 51.7803 61.3955 51.4092L57.7568 44.751H55.249C54.6729 44.751 54.207 44.2842 54.207 43.709C54.207 43.1338 54.6729 42.668 55.249 42.668H58.374C58.7539 42.668 59.1055 42.876 59.2891 43.21L63.2686 50.4912C63.3516 50.6445 63.3955 50.8164 63.3955 50.9902C63.3955 51.5664 62.9297 52.0371 62.3535 52.0371Z" fill="#00CBEA"/>
<path d="M35.645 52.043C35.4761 52.043 35.3052 52.002 35.147 51.916C34.6411 51.6396 34.4556 51.0078 34.7309 50.502L38.7104 43.21C38.8931 42.876 39.2436 42.668 39.6255 42.668H51.0835C51.6597 42.668 52.1255 43.1348 52.1255 43.709C52.1255 44.2832 51.6597 44.751 51.0835 44.751H40.2436L36.56 51.5C36.3706 51.8467 36.0132 52.043 35.644 52.043H35.645Z" fill="#00CBEA"/>
<path d="M65.667 73.918C65.0908 73.918 64.625 73.4521 64.625 72.876V68.709C64.625 68.1328 65.0908 67.668 65.667 67.668C66.2432 67.668 66.708 68.1338 66.708 68.709V72.876C66.708 73.4521 66.2422 73.918 65.667 73.918Z" fill="#00CBEA"/>
<path d="M32.334 73.918C31.7588 73.918 31.293 73.4521 31.293 72.876V68.709C31.293 68.1328 31.7598 67.668 32.334 67.668C32.9082 67.668 33.376 68.1338 33.376 68.709V72.876C33.376 73.4521 32.9092 73.918 32.334 73.918Z" fill="#00CBEA"/>
</g>
<defs>
<clipPath id="clip0_6045_19014">
<rect width="50" height="47.917" fill="white" transform="translate(24 26)"/>
</clipPath>
</defs>
</svg>
