<svg width="100" height="100" viewBox="0 0 100 100" fill="none" xmlns="http://www.w3.org/2000/svg">
<circle opacity="0.05" cx="50" cy="50" r="50" fill="#4A86FF"/>
<path d="M52.834 47.5781H70.3753C72.9365 47.5781 75.0001 49.449 75.0001 51.7337V73.2567C75.0001 74.2832 74.0604 75.1276 72.918 75.1276H61.5678" stroke="#4A86FF" stroke-width="2" stroke-miterlimit="10" stroke-linecap="round"/>
<path d="M49.697 75.126C50.7408 75.126 51.5994 74.2405 51.5994 73.1639V38.0727C51.5994 35.121 49.7812 32.7422 46.9192 32.7422H30.1684C27.3064 32.7422 25 35.1383 25 38.0727V73.1639C25 74.2405 25.8586 75.126 26.9024 75.126H49.697Z" stroke="#4A86FF" stroke-width="2" stroke-miterlimit="10" stroke-linecap="round"/>
<path d="M47.8959 46.8965H29.293V51.1895H47.8959V46.8965Z" fill="#4A86FF"/>
<path d="M43.6029 55.4824H29.293V59.7754H43.6029V55.4824Z" fill="#4A86FF"/>
<path d="M37.8789 64.0684H29.293V68.3613H37.8789V64.0684Z" fill="#4A86FF"/>
<path d="M63.9176 53.9355H59.4844V58.1739H63.9176V53.9355Z" fill="#4A86FF"/>
<path d="M70.566 53.9355H66.1328V58.1739H70.566V53.9355Z" fill="#4A86FF"/>
<path d="M70.566 62.4121H66.1328V66.6505H70.566V62.4121Z" fill="#4A86FF"/>
<circle cx="37.8789" cy="32.586" r="8.58597" fill="#4A86FF"/>
<rect x="33.5859" y="31.1543" width="8.58597" height="2.86199" fill="white"/>
<rect x="39.3105" y="28.293" width="8.58597" height="2.86199" transform="rotate(90 39.3105 28.293)" fill="white"/>
</svg>
