<svg width="20" height="20" viewBox="0 0 20 20" fill="none" xmlns="http://www.w3.org/2000/svg">
<path d="M15.8333 4.16797H4.16667C3.24619 4.16797 2.5 4.83125 2.5 5.64945V16.0198C2.5 16.838 3.24619 17.5013 4.16667 17.5013H15.8333C16.7538 17.5013 17.5 16.838 17.5 16.0198V5.64945C17.5 4.83125 16.7538 4.16797 15.8333 4.16797Z" stroke="#495057" stroke-width="1.5" stroke-linecap="round" stroke-linejoin="round"/>
<path d="M13.3335 2.5V4.16667" stroke="#495057" stroke-width="1.5" stroke-linecap="round" stroke-linejoin="round"/>
<path d="M6.6665 2.5V4.16667" stroke="#495057" stroke-width="1.5" stroke-linecap="round" stroke-linejoin="round"/>
<path d="M2.5 8.33203H17.5" stroke="#495057" stroke-width="1.5" stroke-linecap="round" stroke-linejoin="round"/>
<path d="M9.896 13.543C10.4138 13.543 10.8335 13.1232 10.8335 12.6055C10.8335 12.0877 10.4138 11.668 9.896 11.668C9.37823 11.668 8.9585 12.0877 8.9585 12.6055C8.9585 13.1232 9.37823 13.543 9.896 13.543Z" fill="#495057"/>
<path d="M6.771 13.543C7.28876 13.543 7.7085 13.1232 7.7085 12.6055C7.7085 12.0877 7.28876 11.668 6.771 11.668C6.25323 11.668 5.8335 12.0877 5.8335 12.6055C5.8335 13.1232 6.25323 13.543 6.771 13.543Z" fill="#495057"/>
<path d="M13.021 13.543C13.5388 13.543 13.9585 13.1232 13.9585 12.6055C13.9585 12.0877 13.5388 11.668 13.021 11.668C12.5032 11.668 12.0835 12.0877 12.0835 12.6055C12.0835 13.1232 12.5032 13.543 13.021 13.543Z" fill="#495057"/>
</svg>
