<svg width="17" height="17" viewBox="0 0 17 17" fill="none" xmlns="http://www.w3.org/2000/svg">
<path d="M5.6875 3.74666V2.45857C5.6875 1.63773 6.30825 1 7.10902 1H10.2997C11.0942 1 11.715 1.63773 11.715 2.45857V3.74666" stroke="#00CBEA" stroke-width="1.2" stroke-miterlimit="10"/>
<path d="M15.1711 3.74609H2.23252C1.55182 3.74609 1 4.2892 1 4.95916V13.5197C1 14.1896 1.55182 14.7327 2.23252 14.7327H15.1711C15.8518 14.7327 16.4036 14.1896 16.4036 13.5197V4.95916C16.4036 4.2892 15.8518 3.74609 15.1711 3.74609Z" stroke="#00CBEA" stroke-width="1.2" stroke-miterlimit="10"/>
<path d="M11.7152 8.76043H9.9495V7.17969H8.12311V8.76043H6.35742V10.4056H8.12311V11.9863H9.9495V10.4056H11.7152V8.76043Z" fill="#00CBEA"/>
<path d="M1 7.86719C1 7.86719 2.15963 9.45231 4.34861 9.92718" stroke="#00CBEA" stroke-width="1.2" stroke-miterlimit="10" stroke-linecap="round"/>
<path d="M16.4035 7.86719C16.4035 7.86719 15.4758 9.45231 13.7246 9.92718" stroke="#00CBEA" stroke-width="1.2" stroke-miterlimit="10" stroke-linecap="round"/>
<path d="M3.67773 14.7324V15.4191" stroke="#00CBEA" stroke-width="1.2" stroke-miterlimit="10" stroke-linecap="round"/>
<path d="M13.7246 14.7324V15.4191" stroke="#00CBEA" stroke-width="1.2" stroke-miterlimit="10" stroke-linecap="round"/>
</svg>
