<svg width="108" height="26" viewBox="0 0 108 26" fill="none" xmlns="http://www.w3.org/2000/svg">
<g clip-path="url(#clip0_5534_45874)">
<rect width="32" height="25.7561" fill="#ECF9FF"/>
<path d="M25.5702 15.8424C27.3938 16.0019 27.8595 17.15 27.6581 18.7884C27.7026 18.7857 27.7483 18.7831 27.7928 18.7805C27.8373 18.6698 27.8962 18.563 27.9249 18.4483C28.0976 17.7761 28.3122 17.1302 28.7073 16.5449C29.398 15.5194 31.1209 15.6196 31.6586 16.7413C32 17.4544 32.051 18.2071 31.9608 18.9611C31.881 19.628 31.6939 20.2805 31.5618 20.904C30.8959 20.8183 30.3281 20.7063 29.7564 20.6799C28.6837 20.6324 28.1539 21.1544 28.1434 22.2379C28.1343 23.1435 28.2742 24.0332 28.5594 24.8926C28.6379 25.1285 28.5751 25.2195 28.3684 25.3131C27.5586 25.6782 26.7005 25.727 25.8384 25.6993C25.3321 25.6835 24.818 25.6163 24.3248 25.4976C23.4627 25.2894 22.9825 24.6712 22.9093 23.8078C22.8478 23.0802 22.9132 22.342 22.925 21.6092C22.9263 21.4932 22.9459 21.3785 22.9629 21.1953C22.8753 21.2744 22.836 21.3047 22.802 21.3416C20.8737 23.473 18.4326 24.6698 15.6828 25.3012C14.2621 25.6268 12.8204 25.7494 11.3683 25.752C8.43661 25.7573 5.50362 25.756 2.57193 25.752C1.34483 25.752 0.429091 25.114 0.112506 24.0266C0.0340133 23.7577 0.00392462 23.4651 0.00392462 23.1843C0 16.3195 0 9.45608 0 2.59131C0 1.06228 0.974613 0.00910453 2.4869 0.00646829C5.95233 -0.000122317 9.42039 -0.0278029 12.8832 0.0736925C15.5219 0.151462 18.0205 0.877747 20.2785 2.30527C23.2847 4.20469 25.0613 6.93979 25.6421 10.4631C25.9247 12.1793 25.909 13.8955 25.5885 15.6064C25.5767 15.6697 25.578 15.7356 25.5702 15.8424ZM7.90548 12.874C7.90548 14.5533 7.90548 16.2325 7.90548 17.9132C7.90548 18.2809 8.02453 18.4457 8.33327 18.4417C9.87957 18.4259 11.4285 18.447 12.9709 18.3587C14.1168 18.2928 15.1817 17.8762 16.1158 17.1855C17.39 16.2457 17.9891 14.9342 18.0846 13.3775C18.1945 11.5585 17.7667 9.93192 16.2976 8.72321C15.2864 7.89147 14.0998 7.45386 12.8152 7.38136C11.3814 7.29964 9.94105 7.32336 8.50464 7.30623C8.01537 7.30095 7.90548 7.41563 7.90548 7.90202C7.90548 9.56021 7.90548 11.2171 7.90548 12.8753V12.874Z" fill="#02CA66"/>
<g filter="url(#filter0_d_5534_45874)">
<path d="M22.8033 21.343C22.8373 21.3061 22.8766 21.2757 22.9642 21.1967C25.0783 18.567 25.5702 15.8438 25.5702 15.8438C25.578 15.737 25.5767 15.6711 25.5898 15.6078C25.9103 13.8969 25.926 12.1807 25.6434 10.4645C25.0626 6.94117 23.2874 4.20607 20.2798 2.30665C18.0218 0.880445 15.5232 0.152842 12.8832 0.0750732C9.42038 -0.0264222 5.95233 0.00257651 2.4869 0.007849C0.974613 0.0104852 0 1.06366 0 2.59269C0 9.45746 0 16.3209 0.00523282 23.1857C0.00523282 23.4678 0.0353215 23.7591 0.113814 24.028C0.430399 25.1154 1.34614 25.7521 2.57324 25.7534C5.50493 25.756 8.43792 25.7574 11.3696 25.7534C12.8217 25.7508 14.2634 25.6295 15.6841 25.3026C18.4339 24.6712 20.875 23.4757 22.8033 21.343ZM18.0846 13.3776C17.9904 14.9329 17.39 16.2458 16.1158 17.1856C15.1804 17.875 14.1155 18.2928 12.9709 18.3587C11.4285 18.4471 9.87956 18.426 8.33327 18.4418C8.02453 18.4444 7.90548 18.281 7.90548 17.9132C7.90417 16.2339 7.90548 14.5546 7.90548 12.874C7.90548 11.2158 7.90548 9.55896 7.90548 7.90076C7.90548 7.41569 8.01668 7.2997 8.50464 7.30497C9.94236 7.3221 11.3814 7.29838 12.8152 7.3801C14.0998 7.45392 15.2851 7.89022 16.2976 8.72195C17.7654 9.92935 18.1945 11.5559 18.0846 13.3762V13.3776Z" fill="#00E9F8"/>
</g>
</g>
<path d="M49.6094 7.26562V10.6562H51.5781V12.1094H49.6094V15.5469H47.875V7.26562H49.6094ZM49.6094 16.2812V21.4062H47.875V17.6562H40.2031V16.2812H49.6094ZM45.3906 8.25V9.65625H40.7812V13.2656C43.4375 13.2578 44.9141 13.1797 46.5938 12.8281L46.7812 14.2031C44.9375 14.6094 43.2812 14.6719 40.2031 14.6719H39.0625V8.25H45.3906ZM64.1406 7.26562V21.4062H62.4219V13.7812H59.7656V12.375H62.4219V7.26562H64.1406ZM59.5469 8.48438V9.90625H54.6875V12.4375H58.9844V13.8125H54.6875V16.7188C56.8359 16.7109 58.4453 16.6406 60.2656 16.3438L60.4375 17.75C58.375 18.0625 56.5781 18.1406 54.0469 18.1562H52.9375V8.48438H59.5469ZM70.7031 8.25C72.9375 8.23438 74.5781 9.65625 74.5938 11.6562C74.5781 13.6719 72.9375 15.0781 70.7031 15.0781C68.4844 15.0781 66.8281 13.6719 66.8281 11.6562C66.8281 9.65625 68.4844 8.23438 70.7031 8.25ZM70.7031 9.75C69.4688 9.75 68.5469 10.4844 68.5469 11.6562C68.5469 12.8438 69.4688 13.5625 70.7031 13.5625C71.9531 13.5625 72.8906 12.8438 72.8906 11.6562C72.8906 10.4844 71.9531 9.75 70.7031 9.75ZM77.8906 7.26562V21.4062H76.1562V7.26562H77.8906ZM66.1875 17.0312C68.7344 17.0312 72.2656 17 75.3125 16.5625L75.4531 17.8281C72.2812 18.4375 68.8906 18.4531 66.4062 18.4531L66.1875 17.0312ZM88.2812 8.10938V9.5H85.3125C85.3359 11.1562 86.5547 12.7422 88.7812 13.375L87.9062 14.7344C86.2734 14.25 85.0938 13.2266 84.4531 11.9219C83.8203 13.3281 82.6094 14.4375 80.9219 14.9688L80.0469 13.6094C82.3047 12.9453 83.5234 11.25 83.5625 9.5H80.5156V8.10938H88.2812ZM91.7188 7.26562V14.9219H89.9688V7.26562H91.7188ZM84.0938 15.5469V17H89.9844V15.5469H91.7188V21.2188H82.375V15.5469H84.0938ZM84.0938 19.8125H89.9844V18.3438H84.0938V19.8125ZM98.8281 10.6562C98.8125 13.1719 100.078 15.7344 102.266 16.7812L101.203 18.1719C99.6719 17.3984 98.5703 15.9062 97.9688 14.1094C97.3516 16.0312 96.1953 17.625 94.5781 18.4375L93.5156 17.0469C95.7812 15.9688 97.0781 13.2656 97.0938 10.6562V8.40625H98.8281V10.6562ZM104.844 7.26562V12.7969H107.016V14.2812H104.844V21.3906H103.109V7.26562H104.844Z" fill="#343A40"/>
<defs>
<filter id="filter0_d_5534_45874" x="-10" y="-6" width="45.8438" height="45.7559" filterUnits="userSpaceOnUse" color-interpolation-filters="sRGB">
<feFlood flood-opacity="0" result="BackgroundImageFix"/>
<feColorMatrix in="SourceAlpha" type="matrix" values="0 0 0 0 0 0 0 0 0 0 0 0 0 0 0 0 0 0 127 0" result="hardAlpha"/>
<feOffset dy="4"/>
<feGaussianBlur stdDeviation="5"/>
<feComposite in2="hardAlpha" operator="out"/>
<feColorMatrix type="matrix" values="0 0 0 0 0 0 0 0 0 0 0 0 0 0 0 0 0 0 0.05 0"/>
<feBlend mode="normal" in2="BackgroundImageFix" result="effect1_dropShadow_5534_45874"/>
<feBlend mode="normal" in="SourceGraphic" in2="effect1_dropShadow_5534_45874" result="shape"/>
</filter>
<clipPath id="clip0_5534_45874">
<rect width="32" height="25.7561" fill="white"/>
</clipPath>
</defs>
</svg>
