<svg width="24" height="24" viewBox="0 0 24 24" fill="none" xmlns="http://www.w3.org/2000/svg">
<path d="M12 24C18.6272 24 24 18.6277 24 12C24 5.37234 18.6277 -8.14241e-07 12 -5.24537e-07C5.37234 -2.34833e-07 -8.14241e-07 5.37234 -5.24537e-07 12C-2.34833e-07 18.6277 5.37234 24 12 24Z" fill="#00CBEA"/>
<path opacity="0.1" d="M12 20.7717C5.92031 20.7717 0.897187 16.2497 0.108281 10.3856C0.0370307 10.9134 -5.48469e-07 11.4525 -5.24557e-07 11.9995C-2.34833e-07 18.6277 5.37234 24 12 24C18.6277 24 24 18.6277 24 12C24 11.4525 23.9625 10.9139 23.8917 10.3856C23.1033 16.2497 18.0802 20.7717 12 20.7717Z" fill="black"/>
<path d="M5.66211 9.98922L10.4016 9.98922L10.4016 7.21141L18.6179 11.9983L10.4016 16.7852L10.4016 14.0073L5.66211 14.0073L5.66211 9.98922Z" fill="white"/>
</svg>
