<svg width="50" height="52" viewBox="0 0 50 52" fill="none" xmlns="http://www.w3.org/2000/svg">
<path d="M46.8828 51.7858H49.2204C49.651 51.7858 49.9999 51.4358 49.9999 51.004V7.03357C49.9999 6.60168 49.651 6.25172 49.2204 6.25172H31.2988L46.8828 51.7858Z" fill="#C5F3FF"/>
<path d="M14.7285 51.7858H46.8827V47.8786L13.949 41.4185V51.005C13.949 51.4369 14.2979 51.7868 14.7285 51.7868V51.7858Z" fill="#E5FAFF"/>
<path d="M43.7665 48.6594H46.1042C46.5348 48.6594 46.8837 48.3095 46.8837 47.8776V3.9072C46.8837 3.47531 46.5348 3.12535 46.1042 3.12535H28.1826L43.7665 48.6594Z" fill="#14CFFF"/>
<path d="M11.6126 48.6594H43.7667V38.2922H10.833V47.8786C10.833 48.3105 11.1819 48.6605 11.6126 48.6605V48.6594Z" fill="#5ADDFF"/>
<path d="M7.71572 38.2922H0.781458C0.294366 38.2922 -0.0807864 38.7362 0.0150185 39.2146C0.442611 41.3619 2.33249 42.9802 4.59954 42.9802H39.0913V24.7459L7.71572 38.2922Z" fill="#A0ECFF"/>
<path d="M40.6494 0L37.5322 3.12637V42.7142C38.0375 42.8932 38.582 42.9893 39.1508 42.9812C41.7224 42.9488 43.7656 40.7914 43.7656 38.2112V0.781844C43.7656 0.349959 43.4167 0 42.986 0H40.6484H40.6494Z" fill="#C5F3FF"/>
<path d="M7.71558 0.781844V38.2932H33.6928C34.0811 38.2932 34.4078 38.5804 34.4633 38.9658C34.7134 40.7095 35.9195 42.1417 37.5321 42.7142C39.3473 42.0699 40.6493 40.3343 40.6493 38.2932V0H8.49513C8.06451 0 7.71558 0.349959 7.71558 0.781844Z" fill="#E5FAFF"/>
<path d="M28.0789 32.4309H36.7537C37.1844 32.4309 37.5333 32.0809 37.5333 31.649V28.5226C37.5333 28.0908 37.1844 27.7408 36.7537 27.7408H28.0789C27.6482 27.7408 27.2993 28.0908 27.2993 28.5226V31.649C27.2993 32.0809 27.6482 32.4309 28.0789 32.4309Z" fill="white"/>
<path d="M34.6046 18.914L28.4419 8.20785C27.9033 7.27226 26.8959 6.64214 25.7422 6.64214C25.1744 6.64214 24.6419 6.79486 24.1841 7.06188L28.3067 23.6H31.906C33.6274 23.6 35.0231 22.2001 35.0231 20.4736C35.0231 19.9052 34.8709 19.3721 34.6066 18.9129L34.6046 18.914Z" fill="#FFB464"/>
<path d="M31.0043 18.9119L24.183 7.06187C23.7101 7.33699 23.3147 7.73246 23.0414 8.20784L16.8787 18.9139C16.6144 19.3731 16.4622 19.9062 16.4622 20.4746C16.4622 22.2011 17.8579 23.601 19.5793 23.601H28.3067C30.7058 23.601 32.2054 20.9965 31.0053 18.9119H31.0043Z" fill="#FFD06A"/>
<path d="M26.5118 19.0379C26.5807 18.6117 26.2922 18.2101 25.8672 18.1409C25.4422 18.0717 25.0418 18.3611 24.9728 18.7873C24.9038 19.2136 25.1924 19.6152 25.6174 19.6844C26.0423 19.7535 26.4428 19.4641 26.5118 19.0379Z" fill="#41486B"/>
<path d="M25.7412 16.5674C25.3106 16.5674 24.9617 16.2175 24.9617 15.7856V12.8949C24.9617 12.463 25.3106 12.113 25.7412 12.113C26.1718 12.113 26.5208 12.463 26.5208 12.8949V15.7856C26.5208 16.2175 26.1718 16.5674 25.7412 16.5674Z" fill="#41486B"/>
<path d="M24.1832 29.3055H13.9502C13.5196 29.3055 13.1707 28.9556 13.1707 28.5237C13.1707 28.0918 13.5196 27.7418 13.9502 27.7418H24.1832C24.6138 27.7418 24.9627 28.0918 24.9627 28.5237C24.9627 28.9556 24.6138 29.3055 24.1832 29.3055Z" fill="#5ADDFF"/>
<path d="M24.1832 32.4308H13.9502C13.5196 32.4308 13.1707 32.0809 13.1707 31.649C13.1707 31.2171 13.5196 30.8672 13.9502 30.8672H24.1832C24.6138 30.8672 24.9627 31.2171 24.9627 31.649C24.9627 32.0809 24.6138 32.4308 24.1832 32.4308Z" fill="#5ADDFF"/>
</svg>
