<svg width="18" height="18" viewBox="0 0 18 18" fill="none" xmlns="http://www.w3.org/2000/svg">
<path d="M15.0056 12.1671H14.9487L15.0411 11.6762C15.0625 11.5552 15.0411 11.4485 14.9913 11.3703C14.9487 11.3062 14.8775 11.2635 14.7992 11.2493C14.5858 11.2137 14.4364 11.3204 14.4008 11.5268L14.3012 12.1671H14.0664L13.917 11.5339C13.853 11.2635 13.604 11.2422 13.5257 11.2422C13.4475 11.2422 13.1985 11.2635 13.1415 11.5339L12.9921 12.1671H12.7573L12.6577 11.5268C12.6222 11.3204 12.4728 11.2137 12.2593 11.2493C12.1739 11.2635 12.1099 11.3062 12.0601 11.3703C12.0032 11.4485 11.989 11.5552 12.0103 11.6762L12.1028 12.1671H12.053C11.868 12.1671 11.7969 12.2952 11.7969 12.409C11.7969 12.537 11.8751 12.658 12.053 12.658H12.1953L12.366 13.5687C12.4087 13.8035 12.5866 13.9244 12.7431 13.9386C12.7573 13.9386 12.7716 13.9386 12.7858 13.9386C12.9494 13.9386 13.1344 13.8604 13.1842 13.6256L13.4048 12.6509H13.6538L13.8743 13.6256C13.9313 13.8746 14.1376 13.9457 14.3155 13.9315C14.5004 13.9173 14.657 13.7608 14.6925 13.5616L14.8633 12.6509H15.0056C15.1834 12.6509 15.2617 12.5228 15.2617 12.4019C15.2617 12.288 15.1977 12.16 15.0056 12.16V12.1671ZM12.857 12.7718L12.8356 12.6651H12.8783L12.857 12.7718ZM13.5186 12.1671L13.5328 12.1173L13.5471 12.1671H13.5257H13.5186ZM14.2087 12.7718L14.1803 12.6651H14.223L14.2087 12.7718Z" fill="#816CEC"/>
<path d="M4.71725 5.23674C4.61053 5.47152 4.71725 5.74188 4.95203 5.8486C5.01606 5.87706 5.08009 5.89129 5.13701 5.89129C5.31487 5.89129 5.48563 5.79168 5.55677 5.61382L5.64926 5.41461H7.24294L7.32831 5.61382C7.40657 5.78457 7.57733 5.89129 7.74808 5.89129C7.81211 5.89129 7.87614 5.87706 7.93306 5.8486C8.16784 5.74188 8.27456 5.47152 8.16784 5.23674L6.92989 2.44069C6.84452 2.25571 6.65954 2.13477 6.4461 2.13477C6.23266 2.13477 6.04768 2.2486 5.95519 2.43358L4.71013 5.22963L4.71725 5.23674ZM6.06191 4.48971L6.45321 3.61461L6.8374 4.48971H6.06191Z" fill="#816CEC"/>
<path d="M2.58745 3.0499H2.97164V5.41907C2.97164 5.6752 3.17796 5.88152 3.43409 5.88152C3.69022 5.88152 3.89654 5.6752 3.89654 5.41907V3.0499H4.28785C4.54397 3.0499 4.7503 2.84358 4.7503 2.58745C4.7503 2.33132 4.54397 2.125 4.28785 2.125H2.58745C2.33132 2.125 2.125 2.33132 2.125 2.58745C2.125 2.84358 2.33132 3.0499 2.58745 3.0499Z" fill="#816CEC"/>
<path d="M9.24951 5.88468C9.39892 5.88468 9.54121 5.81353 9.62659 5.68547L10.3096 4.71077L10.9926 5.68547C11.0851 5.81353 11.2274 5.88468 11.3697 5.88468C11.4622 5.88468 11.5546 5.85622 11.6329 5.7993C11.8392 5.6499 11.8962 5.36531 11.7467 5.15187L10.8716 3.8997L11.6116 2.84674C11.761 2.64041 11.7041 2.34871 11.4977 2.1993C11.2914 2.0499 10.9997 2.10681 10.8503 2.31314L10.3096 3.08863L9.76888 2.31314C9.62658 2.10681 9.33489 2.0499 9.12145 2.1993C8.90801 2.34871 8.85821 2.6333 9.00761 2.84674L9.74042 3.8997L8.86532 5.15187C8.71591 5.3582 8.77283 5.6499 8.97915 5.7993C9.05742 5.85622 9.14991 5.88468 9.2424 5.88468H9.24951Z" fill="#816CEC"/>
<path d="M18 9.62609C18 8.26008 16.883 7.14308 15.517 7.14308C14.9407 7.14308 14.3929 7.34941 13.9589 7.69802V0.462451C13.9589 0.206324 13.7526 0 13.4964 0H0.462451C0.206324 0 0 0.206324 0 0.462451V17.5375C0 17.7937 0.206324 18 0.462451 18H13.4964C13.7526 18 13.9589 17.7937 13.9589 17.5375V16.1644C15.9154 15.9154 17.3668 14.1794 17.2174 12.1945C17.2032 11.9668 17.1534 11.7391 17.0964 11.5186C17.6656 11.0419 17.9929 10.3589 17.9929 9.61897L18 9.62609ZM0.924901 17.0751V0.924901H13.034V8.79368C12.6071 8.85059 12.2016 8.96443 11.8316 9.14941V8.29565C11.8316 8.03953 11.6253 7.8332 11.3692 7.8332H2.58972C2.3336 7.8332 2.12727 8.03953 2.12727 8.29565V14.6704C2.12727 14.9265 2.3336 15.1328 2.58972 15.1328H10.8996C10.9565 15.1897 11.0063 15.2609 11.0704 15.3107C11.6324 15.7945 12.3154 16.0791 13.034 16.1715V17.0751H0.924901ZM10.9209 9.80395C10.8711 9.85375 10.8142 9.89644 10.7715 9.95336H5.17945V8.75099H10.9138V9.73992C10.9138 9.73992 10.9209 9.78261 10.9281 9.80395H10.9209ZM4.24743 9.95336H3.04506V8.75099H4.24743V9.95336ZM3.04506 10.8783H4.24743V12.0806H3.04506V10.8783ZM3.04506 13.0055H4.24743V14.2079H3.04506V13.0055ZM5.17233 13.0055H9.81818C9.8751 13.4253 9.99605 13.8379 10.1881 14.2079H5.17233V13.0055ZM9.78972 12.0806H5.17233V10.8783H10.1455C9.96759 11.2553 9.83953 11.6538 9.78972 12.0806ZM13.7099 15.2751C12.9628 15.332 12.2372 15.0972 11.668 14.6063C11.0988 14.1154 10.7573 13.4395 10.7004 12.6925C10.5794 11.1486 11.7391 9.79684 13.283 9.683C13.3542 9.683 13.4253 9.67589 13.4964 9.67589C14.1652 9.67589 14.8055 9.91067 15.3178 10.3518C15.887 10.8427 16.2285 11.5186 16.2854 12.2656C16.4063 13.8095 15.2466 15.1613 13.7028 15.2751H13.7099ZM15.9225 9.64743C15.4174 9.21344 14.8198 8.94308 14.1794 8.82213C14.4569 8.3668 14.9621 8.06087 15.5099 8.06087C16.3708 8.06087 17.068 8.7581 17.068 9.61897C17.068 9.98893 16.9399 10.3304 16.7051 10.6079C16.4988 10.2522 16.2427 9.91779 15.9154 9.64032L15.9225 9.64743Z" fill="#816CEC"/>
</svg>
