<svg width="44" height="44" viewBox="0 0 44 44" fill="none" xmlns="http://www.w3.org/2000/svg">
<rect width="44" height="44" rx="22" fill="#DEE2E5"/>
<path d="M28.0335 22.6869C28.0644 26.0159 30.9681 27.1238 31 27.1382C30.9753 27.216 30.5359 28.7172 29.4699 30.2675C28.549 31.6079 27.5921 32.9432 26.0857 32.9709C24.605 32.9985 24.1296 32.0974 22.4369 32.0974C20.7453 32.0974 20.2164 32.9432 18.815 32.9985C17.3611 33.0538 16.2539 31.5496 15.3247 30.2143C13.4273 27.4812 11.9765 22.4954 13.9243 19.1285C14.8915 17.4573 16.6212 16.3985 18.4981 16.3709C19.9263 16.3442 21.2732 17.3273 22.1468 17.3273C23.0193 17.3273 24.6564 16.1446 26.3789 16.3186C27.0992 16.3483 29.1232 16.6084 30.4217 18.5008C30.3178 18.5653 28.0078 19.9037 28.0335 22.6869ZM25.2512 14.5123C26.0229 13.5825 26.5425 12.2882 26.4005 11C25.2882 11.044 23.9423 11.7383 23.1438 12.6671C22.4287 13.4904 21.8021 14.8072 21.9708 16.0698C23.2118 16.165 24.4794 15.4421 25.2512 14.5123Z" fill="#ADB5BD"/>
</svg>
