<svg width="44" height="44" viewBox="0 0 44 44" fill="none" xmlns="http://www.w3.org/2000/svg">
<path d="M21.5832 43.9981H4.55548C3.5775 43.9981 2.78516 43.2048 2.78516 42.2277V36.7647C2.78516 31.085 7.38971 26.4805 13.0693 26.4805C18.749 26.4805 23.3535 31.085 23.3535 36.7647V42.2277C23.3535 43.2057 22.5612 43.9981 21.5832 43.9981Z" fill="#F0F6FF"/>
<path d="M11.6165 33.3633H14.5246L15.4098 43.9947H10.7305L11.6156 33.3633H11.6165Z" fill="#7F95E0"/>
<path d="M13.0706 34.613C12.3444 34.613 11.7273 34.0836 11.6165 33.366L10.9238 29.7695H15.2173L14.5246 33.366C14.4138 34.0836 13.7959 34.613 13.0706 34.613Z" fill="#7F95E0"/>
<path d="M18.6893 28.7335L14.5771 26.5352H11.5633L7.45117 28.7335L9.57298 33.1936C9.90814 33.6904 10.6206 33.7385 11.0193 33.2916L13.0707 30.991L15.122 33.2916C15.5207 33.7385 16.2332 33.6904 16.5683 33.1936L18.6901 28.7335H18.6893Z" fill="#DDE2F6"/>
<path d="M24.3711 16.0226H23.5908V14.6408C23.5908 8.83049 18.8814 4.12109 13.0712 4.12109C7.2609 4.12109 2.55064 8.83135 2.55064 14.6416V16.0235H1.77032C0.792348 16.0235 0 16.8158 0 17.7938C0 18.7718 0.793207 19.5641 1.77032 19.5641H2.55064V20.0007C2.55064 25.811 7.2609 30.5204 13.0703 30.5204C18.8797 30.5204 23.59 25.811 23.59 20.0007V19.5641H24.3703C25.3483 19.5641 26.1406 18.7709 26.1406 17.7938C26.1406 16.8158 25.3474 16.0235 24.3703 16.0235L24.3711 16.0226Z" fill="#FFE5D8"/>
<path d="M24.3711 16.0226H23.5908V14.6408C23.5908 8.83049 18.8814 4.12109 13.0711 4.12109C12.4678 4.12109 11.8766 4.1718 11.3008 4.26977C16.2671 5.11196 20.0501 8.01065 20.0501 8.01065V19.9998C20.0501 25.206 16.268 29.5295 11.3008 30.3708C11.8766 30.4688 12.4678 30.5195 13.0711 30.5195C18.8814 30.5195 23.5908 25.8101 23.5908 19.9998V19.5633H24.3711C25.3491 19.5633 26.1414 18.7701 26.1414 17.793C26.1414 16.815 25.3482 16.0226 24.3711 16.0226Z" fill="#FFD8CA"/>
<path d="M2.55176 16.0231H3.65004C4.40458 16.0231 5.01646 15.4113 5.01646 14.6567V13.4003C5.01646 12.4498 5.81568 11.697 6.7653 11.7494C9.21195 11.8835 13.6988 11.6781 16.7461 8.8834C18.3325 7.42848 21.1883 8.44512 21.1883 10.701V14.7203C21.1883 15.4405 21.7718 16.024 22.4919 16.024H23.5911V7.41902C23.5911 4.95174 21.5904 2.95111 19.1232 2.95111C19.1232 1.32087 17.8023 1.51874e-07 16.1721 1.51874e-07H10.697C6.1981 -0.000859227 2.55176 3.64549 2.55176 8.14434V16.024V16.0231Z" fill="#E49A6B"/>
<path d="M13.0698 25.6388C11.9801 25.6388 10.9557 25.2143 10.1849 24.4425C9.92535 24.183 9.92535 23.7628 10.1849 23.5032C10.4444 23.2437 10.8647 23.2437 11.1242 23.5032C11.645 24.0232 12.3359 24.3102 13.0707 24.3102C13.8054 24.3102 14.4964 24.024 15.0172 23.5032C15.2767 23.2437 15.6969 23.2437 15.9565 23.5032C16.216 23.7628 16.216 24.183 15.9565 24.4425C15.1856 25.2143 14.1604 25.6388 13.0715 25.6388H13.0698Z" fill="#FFB7A0"/>
<path d="M44.0002 35.5357C44.0002 30.8624 40.212 27.0742 35.5396 27.0742C33.6421 27.0742 31.8924 27.7007 30.4813 28.7552L27.9504 27.1653C27.4408 26.8448 26.8487 27.436 27.1692 27.9465L28.7591 30.4774C27.7046 31.8885 27.0781 33.6382 27.0781 35.5357C27.0781 40.209 30.8663 43.9971 35.5387 43.9971C40.212 43.9971 43.9993 40.209 43.9993 35.5365L44.0002 35.5357Z" fill="#FFE177"/>
<path d="M35.5379 27.0742C34.9312 27.0742 34.3391 27.1387 33.7684 27.2598C37.591 28.0745 40.4578 31.4699 40.4578 35.5348C40.4578 39.6005 37.5901 42.9968 33.7676 43.8106C34.3382 43.9327 34.9312 43.9963 35.5379 43.9963C40.2112 43.9963 43.9993 40.2081 43.9993 35.5357C43.9993 30.8624 40.2112 27.0742 35.5388 27.0742H35.5379Z" fill="#FFD15B"/>
<path d="M8.04107 36.8281H5.79809C5.43113 36.8281 5.13379 37.1255 5.13379 37.4924C5.13379 37.8594 5.43113 38.1567 5.79809 38.1567H8.04107C8.40802 38.1567 8.70537 37.8594 8.70537 37.4924C8.70537 37.1255 8.40802 36.8281 8.04107 36.8281Z" fill="#FFE177"/>
<path d="M35.5 39.9815C35.867 39.9815 36.1644 39.6841 36.1644 39.3172V39.0275C37.0555 38.7629 37.6287 37.9843 37.7602 37.2134C37.939 36.1735 37.3787 35.2351 36.3672 34.8776C35.9555 34.7324 34.9526 34.5253 34.7936 34.0199C34.6381 33.5241 35.1658 33.2456 35.5499 33.2173C35.7819 33.2095 36.0578 33.2963 36.2245 33.4098C36.3457 33.5378 36.5176 33.6177 36.7075 33.6177C37.0744 33.6177 37.3718 33.3204 37.3718 32.9534C37.3718 32.7575 37.2876 32.5822 37.1526 32.4602C36.8768 32.2144 36.5322 32.0442 36.1626 31.9574V31.7581C36.1626 31.3911 35.8653 31.0938 35.4983 31.0938C35.1314 31.0938 34.834 31.3911 34.834 31.7581V32.0004C33.8543 32.29 33.2158 33.4347 33.5243 34.4178C33.8526 35.4637 35.0025 35.8049 35.922 36.1306C36.4961 36.3334 36.4815 36.7992 36.4488 36.99C36.3826 37.3775 36.0561 37.7952 35.4975 37.7952C35.1082 37.7952 34.6424 37.6895 34.3433 37.5107C33.9076 37.2529 33.2803 37.4738 33.2803 38.0427C33.2803 38.2859 33.4109 38.4982 33.606 38.6142C33.7624 38.7182 34.1835 38.9605 34.834 39.0688V39.318C34.834 39.685 35.1314 39.9823 35.4983 39.9823L35.5 39.9815Z" fill="white"/>
</svg>
