<svg width="18" height="17" viewBox="0 0 18 17" fill="none" xmlns="http://www.w3.org/2000/svg">
<path d="M9.90625 7.54492H15.5198C16.3395 7.54492 16.9999 8.14363 16.9999 8.8748V15.7626C16.9999 16.0911 16.6992 16.3613 16.3336 16.3613H12.7013" stroke="#4A86FF" stroke-width="1.2" stroke-miterlimit="10" stroke-linecap="round"/>
<path d="M8.90358 16.3626C9.2376 16.3626 9.51237 16.0792 9.51237 15.7347V4.50471C9.51237 3.56009 8.93051 2.79883 8.01463 2.79883H2.65399C1.7381 2.79883 1 3.56564 1 4.50471V15.7347C1 16.0792 1.27477 16.3626 1.6088 16.3626H8.90358Z" stroke="#4A86FF" stroke-width="1.2" stroke-miterlimit="10" stroke-linecap="round"/>
<path d="M8.32639 7.32617H2.37305V8.70002H8.32639V7.32617Z" fill="#4A86FF"/>
<path d="M6.95254 10.0742H2.37305V11.4481H6.95254V10.0742Z" fill="#4A86FF"/>
<path d="M5.12074 12.8223H2.37305V14.1961H5.12074V12.8223Z" fill="#4A86FF"/>
<path d="M13.4558 9.58008H12.0371V10.9365H13.4558V9.58008Z" fill="#4A86FF"/>
<path d="M15.5828 9.58008H14.1641V10.9365H15.5828V9.58008Z" fill="#4A86FF"/>
<path d="M15.5828 12.291H14.1641V13.6474H15.5828V12.291Z" fill="#4A86FF"/>
<ellipse cx="5.1227" cy="2.74769" rx="2.7477" ry="2.74769" fill="#4A86FF"/>
<path fill-rule="evenodd" clip-rule="evenodd" d="M4.66778 2.28715L3.75035 2.28715L3.75035 3.20305L4.66778 3.20305L4.66778 4.12074L5.58367 4.12074L5.58367 3.20305L6.49805 3.20305L6.49805 2.28715L5.58367 2.28715L5.58367 1.37305L4.66778 1.37305L4.66778 2.28715Z" fill="#EDF3FF"/>
</svg>
