<svg width="50" height="50" viewBox="0 0 50 50" fill="none" xmlns="http://www.w3.org/2000/svg">
<circle cx="25" cy="25" r="25" fill="white"/>
<path d="M27.6973 19.9023H37.2739C38.6722 19.9023 39.7988 20.9237 39.7988 22.1711V33.9216C39.7988 34.482 39.2858 34.9429 38.6621 34.9429H32.4655" stroke="#816CEC" stroke-width="1.5" stroke-miterlimit="10" stroke-linecap="round"/>
<path d="M26.6571 34.9441C27.227 34.9441 27.6957 34.4606 27.6957 33.8729V14.7149C27.6957 13.1034 26.7031 11.8047 25.1406 11.8047H15.9955C14.433 11.8047 13.1738 13.1129 13.1738 14.7149V33.8729C13.1738 34.4606 13.6426 34.9441 14.2124 34.9441H26.6571Z" stroke="#816CEC" stroke-width="1.5" stroke-miterlimit="10" stroke-linecap="round"/>
<path d="M19.225 15.2773H16.8047V17.5913H19.225V15.2773Z" fill="#816CEC"/>
<path d="M19.225 19.6797H16.8047V21.9936H19.225V19.6797Z" fill="#816CEC"/>
<path d="M24.0668 15.2773H21.6465V17.5913H24.0668V15.2773Z" fill="#816CEC"/>
<path d="M33.7465 23.3711H31.3262V25.685H33.7465V23.3711Z" fill="#816CEC"/>
<path d="M37.3773 23.3711H34.957V25.685H37.3773V23.3711Z" fill="#816CEC"/>
<path d="M37.3773 28H34.957V30.3139H37.3773V28Z" fill="#816CEC"/>
<path d="M18.0566 27.3867C18.0566 26.8344 18.5044 26.3867 19.0566 26.3867H22.6122C23.1645 26.3867 23.6122 26.8344 23.6122 27.3867V34.7201H18.0566V27.3867Z" fill="#816CEC"/>
</svg>
