<svg width="44" height="53" viewBox="0 0 44 53" fill="none" xmlns="http://www.w3.org/2000/svg">
<path d="M35.7177 49.0606H10.8588C10.2591 49.0606 9.68389 48.8222 9.26063 48.3982L3.78585 42.9181C3.36361 42.4951 3.12598 41.9213 3.12598 41.3241V5.45931C3.12598 5.20961 3.32792 5.00781 3.57779 5.00781H35.7177C35.9676 5.00781 36.1695 5.20961 36.1695 5.45931V48.6102C36.1695 48.8599 35.9676 49.0617 35.7177 49.0617V49.0606Z" fill="#AEE0F4"/>
<path d="M18.8514 2.33031C18.8514 1.01558 17.7621 -0.0453859 16.4353 0.00149617C15.1716 0.0463399 14.1895 1.12259 14.1895 2.38535V3.88455H18.8514V2.33031Z" fill="#FBC96D"/>
<path d="M31.9135 9.454L32.6376 51.3126C32.6376 51.5623 32.4357 51.764 32.1858 51.764L28.8181 52.1778H9.30041C8.99648 52.1778 8.70071 52.1126 8.42942 51.9893L7.97761 44.8897C7.97761 44.6573 7.78994 44.4698 7.55741 44.4698L0.18868 43.7431C0.0642533 43.4731 0 43.1765 0 42.8738V8.57649C0 8.32782 0.202959 8.125 0.451813 8.125H30.6274L31.4637 9.00251C31.7136 9.00251 31.9155 9.20533 31.9155 9.454H31.9135Z" fill="#DFF8FF"/>
<path d="M23.8219 9.87738H9.21902C8.98649 9.87738 8.79883 9.68883 8.79883 9.45748V4.69181C8.79883 3.82246 9.50459 3.11719 10.3746 3.11719H22.6663C23.5363 3.11719 24.2421 3.82246 24.2421 4.69181V9.45748C24.2421 9.68985 24.0534 9.87738 23.8219 9.87738Z" fill="#FFDA8F"/>
<path d="M32.5911 8.125H30.6268V49.8623C30.6268 51.1413 29.5886 52.1788 28.3086 52.1788H32.5911C32.841 52.1788 33.0429 51.9771 33.0429 51.7274V8.57649C33.0429 8.32782 32.841 8.125 32.5911 8.125Z" fill="#C0ECFC"/>
<path d="M28.0828 21.9806H4.46512C4.23258 21.9806 4.04492 21.7921 4.04492 21.5607V16.7207C4.04492 16.4883 4.2336 16.3008 4.46512 16.3008H28.0838C28.3163 16.3008 28.504 16.4893 28.504 16.7207V21.5607C28.504 21.7931 28.3153 21.9806 28.0838 21.9806H28.0828Z" fill="#AEE0F4"/>
<path d="M13.4404 47.6353H4.6907C4.45817 47.6353 4.27051 47.4467 4.27051 47.2154V40.5918C4.27051 40.3594 4.45919 40.1719 4.6907 40.1719H13.4404C13.6729 40.1719 13.8606 40.3604 13.8606 40.5918V47.2154C13.8606 47.4478 13.6719 47.6353 13.4404 47.6353Z" fill="#FFDA8F"/>
<path d="M28.4189 47.6353H19.6692C19.4367 47.6353 19.249 47.4467 19.249 47.2154V40.5918C19.249 40.3594 19.4377 40.1719 19.6692 40.1719H28.4189C28.6514 40.1719 28.8391 40.3604 28.8391 40.5918V47.2154C28.8391 47.4478 28.6504 47.6353 28.4189 47.6353Z" fill="#FFDA8F"/>
<path d="M7.02508 30.2137C6.85067 30.1526 6.68443 30.0965 6.52533 30.0435C5.95419 29.853 5.50339 29.7021 5.2984 29.4657C5.07402 29.2068 4.99447 28.8878 5.08014 28.5892C5.12501 28.4343 5.2576 28.156 5.63598 28.0419C6.37132 27.8207 6.82314 28.2712 6.87311 28.3232C7.17194 28.6391 7.67067 28.6534 7.98683 28.3558C8.303 28.0572 8.3183 27.5588 8.01947 27.2429C7.74206 26.9493 7.31778 26.667 6.79968 26.5182V25.8659C6.79968 25.4308 6.4468 25.0781 6.0113 25.0781C5.57581 25.0781 5.22292 25.4308 5.22292 25.8659V26.5243C5.20865 26.5284 5.19539 26.5315 5.18111 26.5355C4.39477 26.772 3.79099 27.3774 3.56662 28.153C3.33204 28.9622 3.535 29.8397 4.10818 30.4991C4.59569 31.0607 5.25862 31.2818 6.02558 31.5387C6.17652 31.5886 6.33461 31.6416 6.49983 31.7007C7.22905 31.9586 7.21376 32.5477 7.17296 32.7892C7.09035 33.2825 6.67423 33.8155 5.95929 33.8206C5.2321 33.8247 5.02608 33.7921 4.47534 33.4323C4.11124 33.1938 3.62271 33.2968 3.38508 33.6606C3.14744 34.0244 3.24943 34.5126 3.61353 34.7511C4.22445 35.1506 4.6732 35.3106 5.22394 35.3677V35.9374C5.22394 36.3726 5.57683 36.7253 6.01232 36.7253C6.44782 36.7253 6.8007 36.3726 6.8007 35.9374V35.2699C7.88077 34.9356 8.57225 33.9867 8.72932 33.0501C8.94145 31.7894 8.25711 30.651 7.02712 30.2158L7.02508 30.2137Z" fill="#52D8A4"/>
<path d="M28.501 32.4727H11.636C11.2005 32.4727 10.8477 32.8253 10.8477 33.2605C10.8477 33.6957 11.2005 34.0483 11.636 34.0483H28.501C28.9365 34.0483 29.2894 33.6957 29.2894 33.2605C29.2894 32.8253 28.9365 32.4727 28.501 32.4727Z" fill="#C0ECFC"/>
<path d="M11.636 29.3256H28.501C28.9365 29.3256 29.2894 28.973 29.2894 28.5378C29.2894 28.1026 28.9365 27.75 28.501 27.75H11.636C11.2005 27.75 10.8477 28.1026 10.8477 28.5378C10.8477 28.973 11.2005 29.3256 11.636 29.3256Z" fill="#C0ECFC"/>
<path d="M34.3881 39.6099L32.9908 39.3225L30.7002 37.8569C27.2927 35.6779 25.2305 31.9141 25.2305 27.871V20.0988C25.2305 19.894 25.3794 19.7187 25.5813 19.684L26.9051 19.4639C29.2101 19.0796 31.4192 18.2561 33.4121 17.0382L34.3963 16.4369C34.5309 16.3544 34.7002 16.3544 34.8348 16.4369L35.819 17.0382C37.7497 18.2184 39.8833 19.0277 42.1097 19.4262C42.1821 19.4394 43.4213 19.8318 43.4213 19.8318C43.6242 19.8654 43.7721 20.0407 43.7721 20.2466L43.765 27.7854C43.765 31.8183 41.8904 35.0552 38.4962 37.2373L34.843 39.6089C34.7043 39.6975 34.5278 39.6975 34.3891 39.6089L34.3881 39.6099Z" fill="#52D8A4"/>
<path d="M43.9999 20.1052V27.8968C43.9999 31.9287 41.9479 35.6854 38.5547 37.8674L34.8678 40.237C34.7291 40.3267 34.5516 40.3267 34.414 40.238L32.9912 39.3289L37.5318 36.2775C40.3967 34.4348 42.1091 31.3019 42.1091 27.8968V19.4336C42.1805 19.4468 42.2529 19.4601 42.3253 19.4713L43.6491 19.6914C43.851 19.7251 43.9999 19.9004 43.9999 20.1052Z" fill="#1FC091"/>
<path d="M32.4896 35.0642C30.0357 33.4957 28.5518 30.7857 28.5518 27.875V22.8637C28.5518 22.668 28.6874 22.4998 28.8781 22.455C30.8149 21.9974 32.668 21.2768 34.41 20.3035C34.5375 20.2322 34.6925 20.2322 34.82 20.3035C36.562 21.2768 38.4141 21.9974 40.3519 22.455C40.5426 22.4998 40.6783 22.668 40.6783 22.8637V27.8933C40.6783 30.8102 39.2127 33.4937 36.7578 35.0714L34.8629 36.2893C34.7242 36.3779 34.5477 36.3779 34.409 36.2893L32.4906 35.0632L32.4896 35.0642Z" fill="#1FC091"/>
<path d="M33.9931 30.9779H33.986C33.7748 30.9759 33.5729 30.8892 33.426 30.7374L31.2098 28.4412C30.9079 28.1283 30.9171 27.6299 31.2302 27.3282C31.5433 27.0266 32.042 27.0357 32.3439 27.3486L34.0023 29.068L37.3496 25.723C37.6576 25.4152 38.1563 25.4152 38.4643 25.723C38.7723 26.0308 38.7723 26.5292 38.4643 26.837L34.5489 30.7496C34.4011 30.8974 34.2001 30.9799 33.9911 30.9799L33.9931 30.9779Z" fill="#DFF8FF"/>
<path d="M8.42922 44.167V51.9933C8.20076 51.8903 7.9927 51.7456 7.8132 51.5662L0.613772 44.3617C0.435291 44.1823 0.291486 43.9744 0.188477 43.7461H8.01004C8.24258 43.7461 8.43023 43.9336 8.43023 44.166L8.42922 44.167Z" fill="#AEE0F4"/>
</svg>
