<svg width="44" height="44" viewBox="0 0 44 44" fill="none" xmlns="http://www.w3.org/2000/svg">
<rect width="44" height="44" rx="22" fill="#DEE2E5"/>
<path d="M21.7438 12C15.7963 12 11 15.837 11 20.4952C11 23.5188 12.9953 26.1664 15.9882 27.6782L14.9752 31.4616C14.9561 31.5183 14.9532 31.5792 14.9667 31.6375C14.9803 31.6957 15.0098 31.7491 15.0519 31.7916C15.1134 31.8458 15.1925 31.8758 15.2745 31.876C15.3425 31.8705 15.4069 31.8437 15.4587 31.7992L19.8176 28.8601C20.461 28.9489 21.1096 28.995 21.7591 28.9982C27.6989 28.9982 32.5029 25.1611 32.5029 20.4952C32.5029 15.8294 27.6836 12 21.7438 12Z" fill="#ADB5BD"/>
</svg>
