<svg width="60" height="60" viewBox="0 0 60 60" fill="none" xmlns="http://www.w3.org/2000/svg">
<path d="M59.9988 58.6967C59.9988 59.4163 59.4153 59.9998 58.6946 59.9998H35.2214C35.2214 59.9998 35.2179 59.9998 35.2167 59.9998C35.2144 59.9998 35.2108 59.9998 35.2085 59.9998H28.7036C28.7036 59.9998 28.6989 59.9998 28.6954 59.9998C28.693 59.9998 28.6919 59.9998 28.6895 59.9998H10.4357C9.71505 59.9998 9.13147 59.4163 9.13147 58.6967C9.13147 57.9772 9.71505 57.3937 10.4357 57.3937H17.5863L1.00239 53.4492C0.301631 53.2828 -0.130779 52.5797 0.0356223 51.8801C0.202024 51.1805 0.906302 50.7481 1.60589 50.9145L28.8477 57.3948H35.0339L53.1189 52.2329C53.8115 52.0348 54.5334 52.4356 54.7314 53.1281C54.9294 53.8195 54.5287 54.5414 53.8361 54.7394L44.5305 57.396H58.6957C59.4164 57.396 60 57.9796 60 58.6991L59.9988 58.6967Z" fill="#DDAC5E"/>
<path d="M51.191 40.2608C49.3066 52.5077 37.3269 60.5149 25.2768 57.5783C13.2268 54.6428 6.28124 42.0256 10.2526 30.286C10.2526 30.286 21.9382 -3.85562 39.244 0.360674C56.5498 4.57697 51.191 40.2596 51.191 40.2596V40.2608Z" fill="#FCECCA"/>
<path d="M30.7304 52.157C29.4179 52.0891 28.1101 51.8664 26.8328 51.4856C26.1274 51.2746 25.7254 50.5317 25.9375 49.8262C26.1485 49.1208 26.8926 48.72 27.598 48.931C31.3925 50.0653 35.3545 49.5731 38.7551 47.5447C42.1558 45.5174 44.4702 42.2667 45.2729 38.3926C45.4218 37.6719 46.1272 37.2078 46.8491 37.3578C47.5709 37.5067 48.035 38.2121 47.885 38.9328C46.9428 43.4807 44.114 47.4544 40.1227 49.8344C37.2751 51.5324 33.9939 52.3246 30.7304 52.157ZM48.2436 32.2814L48.2576 32.0154C48.2951 31.2807 47.7303 30.6537 46.9944 30.615C46.2585 30.5775 45.6315 31.1424 45.5928 31.8771L45.5788 32.1431C45.5413 32.8779 46.1061 33.5048 46.842 33.5435C47.5779 33.581 48.2049 33.0162 48.2436 32.2814Z" fill="white"/>
<path d="M17.1226 42.9759C17.0922 42.9689 17.0629 42.9607 17.0324 42.9537C11.5622 41.5967 8.43343 35.8453 10.1842 30.4923C10.2064 30.4231 10.2299 30.3552 10.2521 30.286C10.2521 30.286 21.9377 -3.85562 39.2435 0.360674C39.2564 0.36419 39.2705 0.367705 39.2834 0.370049C41.4407 0.903238 43.0215 2.73834 43.3016 4.94141C44.6059 15.2021 43.0356 25.6561 43.0356 25.6561C41.1525 37.903 29.1715 45.9102 17.1215 42.9736L17.1226 42.9759Z" fill="#FFF2D2"/>
<path d="M39.4257 16.9968L29.6959 26.7173L34.0891 31.1058C34.6106 31.6261 34.6106 32.4698 34.0891 32.9913C33.829 33.2514 33.4868 33.3815 33.1458 33.3815C32.8048 33.3815 32.4626 33.2514 32.2025 32.9913L22.4726 23.2709L18.0794 27.6594C17.8193 27.9196 17.4771 28.0496 17.1361 28.0496C16.7951 28.0496 16.4529 27.9196 16.1927 27.6594C15.6713 27.1391 15.6713 26.2942 16.1927 25.7739L20.586 21.3854L16.2724 17.0753C16.7142 16.2867 17.1794 15.4898 17.6646 14.6953L27.8092 24.8306L37.539 15.1101C38.0605 14.5898 38.9054 14.5898 39.4257 15.1101C39.9472 15.6304 39.9472 16.4753 39.4257 16.9956V16.9968Z" fill="#DBBD9C"/>
</svg>
