<svg width="60" height="84" viewBox="0 0 60 84" fill="none" xmlns="http://www.w3.org/2000/svg">
<path d="M60 79.9214C60 81.6641 58.5867 83.0773 56.8441 83.0773H3.15593C1.41327 83.0773 0 81.6641 0 79.9214V7.77312C0 6.03046 1.41327 4.61719 3.15593 4.61719H56.8424C58.5851 4.61719 59.9984 6.03046 59.9984 7.77312V79.9214H60Z" fill="#00CBEA"/>
<path d="M55.3825 10.1326C55.3825 9.63449 54.9785 9.23047 54.4804 9.23047H5.51556C5.01743 9.23047 4.6134 9.63449 4.6134 10.1326V77.5592C4.6134 78.0573 5.01743 78.4613 5.51556 78.4613H27.8067C41.537 78.4613 40.9804 74.4016 46.1516 69.2305C51.3228 64.0593 55.3825 62.3069 55.3825 50.8855V10.1326Z" fill="#F0FDFF"/>
<path opacity="0.3" d="M48.6958 9.23047C48.6828 49.0358 48.7396 47.8302 48.6455 49.6815C48.1214 54.8949 43.721 58.9644 38.3697 58.9644H35.5594C33.893 58.9644 32.543 60.3143 32.543 61.9807V64.7911C32.543 70.2446 28.3161 74.7099 22.96 75.0929C21.5305 75.1367 21.6116 75.1156 4.6134 75.1172V77.5592C4.6134 78.0573 5.01743 78.4613 5.51556 78.4613H27.8067C41.537 78.4613 40.9804 74.4016 46.1516 69.2305C51.3228 64.0593 55.3825 62.3069 55.3825 50.8855V10.1326C55.3825 9.63449 54.9785 9.23047 54.4804 9.23047H48.6942H48.6958Z" fill="#97D6F5"/>
<path d="M44.517 2.30732H33.4412C33.3341 2.30732 33.24 2.24079 33.1995 2.14181C32.6802 0.884309 31.4422 0 29.9981 0C28.554 0 27.316 0.884309 26.7967 2.14181C26.7562 2.24079 26.6621 2.30732 26.555 2.30732H15.4792C14.5754 2.30732 13.8436 3.0391 13.8436 3.94288V14.4751C13.8436 15.4016 14.5949 16.1528 15.5214 16.1528H44.4732C45.3997 16.1528 46.1509 15.4016 46.1509 14.4751V3.94288C46.1509 3.0391 45.4192 2.30732 44.5154 2.30732H44.517Z" fill="#E2E2E2"/>
<path d="M44.517 2.30469H39.4659V8.4835C39.4659 10.8719 37.5301 12.8077 35.1417 12.8077H13.8436V14.4725C13.8436 15.399 14.5949 16.1502 15.5214 16.1502H44.4732C45.3997 16.1502 46.1509 15.399 46.1509 14.4725V3.94025C46.1509 3.03647 45.4192 2.30469 44.5154 2.30469H44.517Z" fill="#CECECE"/>
<path d="M30.002 5.85966C30.6741 5.85966 31.2189 5.31482 31.2189 4.64272C31.2189 3.97062 30.6741 3.42578 30.002 3.42578C29.3299 3.42578 28.785 3.97062 28.785 4.64272C28.785 5.31482 29.3299 5.85966 30.002 5.85966Z" fill="#CECECE"/>
<path d="M27.8086 78.4603H28.9038C34.6072 78.4603 39.2316 73.8359 39.2316 68.1325V63.208C39.2316 62.7098 39.6356 62.3058 40.1338 62.3058H45.0583C50.7617 62.3058 55.3861 57.6814 55.3861 51.9781V50.8828V53.3848C55.3861 67.2336 44.1594 78.4587 30.3122 78.4587H27.8102L27.8086 78.4603Z" fill="white"/>
</svg>
