<svg width="36" height="36" viewBox="0 0 36 36" fill="none" xmlns="http://www.w3.org/2000/svg">
<circle cx="18" cy="18" r="18" fill="#4A86FF"/>
<path d="M19.9414 15.4551H26.8366C27.8433 15.4551 28.6545 16.1905 28.6545 17.0886V25.5489C28.6545 25.9524 28.2852 26.2843 27.8361 26.2843H23.3745" stroke="white" stroke-width="1.5" stroke-miterlimit="10" stroke-linecap="round"/>
<path d="M18.708 26.2854C19.1183 26.2854 19.4558 25.9373 19.4558 25.5141V11.7203C19.4558 10.5601 18.7411 9.625 17.6161 9.625H11.0316C9.90661 9.625 9 10.5669 9 11.7203V25.5141C9 25.9373 9.3375 26.2854 9.74779 26.2854H18.708Z" stroke="white" stroke-width="1.5" stroke-miterlimit="10" stroke-linecap="round"/>
<path d="M18 15.1875H10.6875V16.875H18V15.1875Z" fill="white"/>
<path d="M16.3125 18.5625H10.6875V20.25H16.3125V18.5625Z" fill="white"/>
<path d="M14.0625 21.9375H10.6875V23.625H14.0625V21.9375Z" fill="white"/>
<path d="M24.2973 17.9551H22.5547V19.6211H24.2973V17.9551Z" fill="white"/>
<path d="M26.9106 17.9551H25.168V19.6211H26.9106V17.9551Z" fill="white"/>
<path d="M26.9106 21.2871H25.168V22.9531H26.9106V21.2871Z" fill="white"/>
<circle cx="14.0625" cy="9.5625" r="3.375" fill="white"/>
<rect x="12.375" y="9" width="3.375" height="1.125" fill="#4A86FF"/>
<rect x="14.625" y="7.875" width="3.375" height="1.125" transform="rotate(90 14.625 7.875)" fill="#4A86FF"/>
</svg>
