<svg width="261" height="120" viewBox="0 0 261 120" fill="none" xmlns="http://www.w3.org/2000/svg">
<circle cx="60" cy="60" r="60" fill="#816CEC"/>
<path d="M161.707 35.4844V36.7969H166.664V35.4844H167.754V39.8672H160.605V35.4844H161.707ZM161.707 38.9531H166.664V37.6641H161.707V38.9531ZM167.777 29.9531V30.75C167.777 31.5527 167.777 32.4551 167.508 33.7266H168.996V34.6289H159.387V33.7266H166.418C166.664 32.5195 166.676 31.6348 166.676 30.8672H160.594V29.9531H167.777ZM172.605 30.2812C173.561 30.2812 174.352 30.832 174.82 31.7812H177.41V29.4961H178.512V40.0195H177.41V35.9883H174.891C174.439 37.043 173.613 37.6523 172.605 37.6523C171.035 37.6523 169.934 36.2227 169.945 33.9609C169.934 31.7109 171.035 30.2812 172.605 30.2812ZM172.605 31.2773C171.656 31.2773 171 32.3086 171 33.9609C171 35.625 171.656 36.6562 172.605 36.6562C173.555 36.6562 174.211 35.625 174.211 33.9609C174.211 32.3086 173.555 31.2773 172.605 31.2773ZM175.137 32.6953C175.213 33.082 175.266 33.5039 175.266 33.9609C175.266 34.3594 175.23 34.7285 175.16 35.0742H177.41V32.6953H175.137ZM183.809 31.7344C183.809 32.9648 184.828 34.125 186.422 34.5703L185.895 35.4375C184.682 35.0918 183.762 34.3418 183.281 33.375C182.824 34.459 181.91 35.3145 180.656 35.707L180.129 34.8516C181.723 34.3359 182.707 33.082 182.707 31.7344V31.6055H180.422V30.7148H182.707V29.4492H183.82V30.7148H186.094V31.6055H183.809V31.7344ZM188.883 29.4961V35.8594H187.77V33.3516H185.766V32.4375H187.77V29.4961H188.883ZM185.367 36.0938C187.559 36.0938 188.918 36.7969 188.918 38.0273C188.918 39.2695 187.559 39.9844 185.367 39.9727C183.164 39.9844 181.805 39.2695 181.816 38.0273C181.805 36.7969 183.164 36.0938 185.367 36.0938ZM185.367 36.9609C183.832 36.9609 182.918 37.3477 182.918 38.0273C182.918 38.707 183.832 39.1172 185.367 39.1172C186.914 39.1172 187.816 38.707 187.816 38.0273C187.816 37.3477 186.914 36.9609 185.367 36.9609ZM198.855 30.1523V31.0781C198.855 32.0742 198.855 33.1523 198.562 34.6523H200.074V35.5664H195.82V40.0078H194.695V35.5664H190.5V34.6523H197.438C197.754 33.1582 197.754 32.0566 197.754 31.0781V31.0664H191.672V30.1523H198.855ZM201.504 35.7656C201.516 33.5625 202.137 31.7227 203.238 30.1523H204.387C203.578 31.3125 202.805 33.6797 202.805 35.7656C202.805 37.8633 203.578 40.2188 204.387 41.3906H203.238C202.137 39.8203 201.516 37.9805 201.504 35.7656ZM210.516 30.2227C210.516 31.5352 212.203 32.8008 214.195 33.0938L213.762 33.9727C212.098 33.6973 210.627 32.8359 209.953 31.6523C209.285 32.8594 207.803 33.7207 206.133 33.9961L205.711 33.1172C207.703 32.8125 209.379 31.582 209.379 30.2227V29.7656H210.516V30.2227ZM214.758 34.7812V35.6836H210.586V37.7109H209.484V35.6836H205.148V34.7812H214.758ZM213.691 38.8711V39.7734H206.344V36.7266H207.457V38.8711H213.691ZM224.285 29.5078V37.5117H223.172V35.3438H221.484V34.4531H223.172V33.1523H221.484V32.2383H223.172V29.5078H224.285ZM221.449 30.7266V31.6289H215.543V30.7266H218.004V29.4961H219.105V30.7266H221.449ZM218.543 32.1328C219.961 32.1328 220.957 32.9531 220.969 34.1484C220.957 35.3555 219.961 36.1758 218.543 36.1758C217.125 36.1758 216.129 35.3555 216.129 34.1484C216.129 32.9531 217.125 32.1328 218.543 32.1328ZM218.543 33C217.723 33.0117 217.172 33.457 217.172 34.1484C217.172 34.8633 217.723 35.3086 218.543 35.3086C219.352 35.3086 219.914 34.8633 219.926 34.1484C219.914 33.457 219.352 33.0117 218.543 33ZM224.52 38.8711V39.7734H217.43V36.8086H218.555V38.8711H224.52ZM234.293 30.0234V30.8203C234.293 31.6465 234.293 32.584 234.023 33.8555H235.512V34.7695H225.902V33.8555H232.898C233.18 32.6309 233.191 31.7344 233.191 30.9375H227.109V30.0234H234.293ZM234.305 36.1055V39.8672H227.074V36.1055H234.305ZM228.164 36.9844V38.9648H233.203V36.9844H228.164ZM245.883 37.793V38.7422H236.273V37.793H240.492V35.5547H237.117V34.6758H238.688V31.3711H237.094V30.4688H245.004V31.3711H243.398V34.6758H244.969V35.5547H241.594V37.793H245.883ZM239.789 34.6758H242.309V31.3711H239.789V34.6758ZM254.895 29.4961V32.2148H256.418V33.1641H254.895V35.8242H253.781V29.4961H254.895ZM254.895 36.375V39.8672H248.191V36.375H254.895ZM249.281 37.2539V38.9648H253.793V37.2539H249.281ZM252.914 30.5625V31.4531H246.656V30.5625H249.234V29.4141H250.348V30.5625H252.914ZM249.785 31.9102C251.297 31.9102 252.328 32.6602 252.328 33.7852C252.328 34.9219 251.297 35.6602 249.785 35.6719C248.25 35.6602 247.23 34.9219 247.23 33.7852C247.23 32.6602 248.25 31.9102 249.785 31.9102ZM249.785 32.7656C248.895 32.7539 248.297 33.1523 248.309 33.7852C248.297 34.4414 248.895 34.8281 249.785 34.8281C250.676 34.8281 251.273 34.4414 251.285 33.7852C251.273 33.1523 250.676 32.7539 249.785 32.7656ZM259.898 35.7656C259.887 37.9805 259.266 39.8203 258.164 41.3906H257.016C257.824 40.2188 258.598 37.8633 258.598 35.7656C258.598 33.6797 257.824 31.3125 257.016 30.1523H258.164C259.266 31.7227 259.887 33.5625 259.898 35.7656Z" fill="#02CA66"/>
<rect x="150" y="32" width="3" height="3" rx="1.5" fill="#02CA66"/>
<path d="M168.094 47.5078V55.1953H166.98V47.5078H168.094ZM168.41 56.8711V57.7734H161.227V54.4688H162.352V56.8711H168.41ZM163.207 49.125C163.195 50.6602 164.18 52.0664 165.797 52.6289L165.223 53.5195C164.01 53.0684 163.113 52.1777 162.645 51.0352C162.182 52.2539 161.273 53.2324 160.043 53.707L159.445 52.8281C161.098 52.2188 162.07 50.707 162.07 49.125V48.082H163.207V49.125ZM179.332 52.6172V53.5195H169.758V52.6172H172.055V51.1992C171.246 50.8711 170.789 50.3438 170.789 49.6523C170.789 48.4102 172.23 47.6836 174.539 47.6836C176.836 47.6836 178.289 48.4102 178.289 49.6523C178.289 50.3438 177.826 50.877 177.012 51.1992V52.6172H179.332ZM174.539 54.2344C176.801 54.2344 178.16 54.9023 178.16 56.0977C178.16 57.3164 176.801 57.9727 174.539 57.9727C172.254 57.9727 170.895 57.3164 170.895 56.0977C170.895 54.9023 172.254 54.2344 174.539 54.2344ZM174.539 55.0898C172.934 55.0898 172.02 55.4531 172.02 56.0977C172.02 56.7539 172.934 57.1289 174.539 57.1172C176.121 57.1289 177.047 56.7539 177.047 56.0977C177.047 55.4531 176.121 55.0898 174.539 55.0898ZM174.539 48.5391C172.91 48.5391 171.926 48.9492 171.938 49.6523C171.926 50.3555 172.91 50.7539 174.539 50.7539C176.168 50.7539 177.141 50.3555 177.141 49.6523C177.141 48.9492 176.168 48.5391 174.539 48.5391ZM173.18 52.6172H175.91V51.4922C175.5 51.5625 175.037 51.5977 174.539 51.5977C174.047 51.5977 173.59 51.5625 173.18 51.5039V52.6172ZM185.59 48.5625C185.578 51.6562 184.629 54.4102 180.797 56.2969L180.188 55.4648C182.086 54.5332 183.217 53.4023 183.844 52.0664L180.41 52.3945L180.246 51.4336L184.184 51.1641C184.342 50.6309 184.436 50.0625 184.477 49.4648H180.797V48.5625H185.59ZM188.309 47.4961V51.6914H189.938V52.6055H188.309V57.9844H187.195V47.4961H188.309ZM199.008 52.4766V53.3906H191.695V48.4336H198.914V49.3477H192.797V52.4766H199.008ZM200.109 55.6875V56.6133H190.5V55.6875H200.109Z" fill="#00CBEA"/>
<rect x="150" y="50" width="3" height="3" rx="1.5" fill="#00CBEA"/>
<path d="M168.141 65.5078V73.5117H167.027V71.3438H165.34V70.4531H167.027V69.1523H165.34V68.2383H167.027V65.5078H168.141ZM165.305 66.7266V67.6289H159.398V66.7266H161.859V65.4961H162.961V66.7266H165.305ZM162.398 68.1328C163.816 68.1328 164.812 68.9531 164.824 70.1484C164.812 71.3555 163.816 72.1758 162.398 72.1758C160.98 72.1758 159.984 71.3555 159.984 70.1484C159.984 68.9531 160.98 68.1328 162.398 68.1328ZM162.398 69C161.578 69.0117 161.027 69.457 161.027 70.1484C161.027 70.8633 161.578 71.3086 162.398 71.3086C163.207 71.3086 163.77 70.8633 163.781 70.1484C163.77 69.457 163.207 69.0117 162.398 69ZM168.375 74.8711V75.7734H161.285V72.8086H162.41V74.8711H168.375ZM178.148 66.0234V66.8203C178.148 67.6465 178.148 68.584 177.879 69.8555H179.367V70.7695H169.758V69.8555H176.754C177.035 68.6309 177.047 67.7344 177.047 66.9375H170.965V66.0234H178.148ZM178.16 72.1055V75.8672H170.93V72.1055H178.16ZM172.02 72.9844V74.9648H177.059V72.9844H172.02ZM183.035 66.1055C183.908 66.0996 184.652 66.4277 185.145 66.9727H187.77V65.4961H188.883V71.6953H187.77V70.2773H185.133C184.646 70.8164 183.902 71.1387 183.035 71.1328C181.453 71.1445 180.281 70.0898 180.281 68.625C180.281 67.1484 181.453 66.0938 183.035 66.1055ZM183.035 67.0664C182.051 67.0547 181.348 67.6875 181.348 68.625C181.348 69.5391 182.051 70.1953 183.035 70.1836C183.996 70.1953 184.699 69.5391 184.699 68.625C184.699 67.6875 183.996 67.0547 183.035 67.0664ZM185.367 71.9297C187.547 71.9297 188.918 72.668 188.918 73.957C188.918 75.2344 187.547 75.9844 185.367 75.9727C183.176 75.9844 181.805 75.2344 181.816 73.957C181.805 72.668 183.176 71.9297 185.367 71.9297ZM185.367 72.7852C183.832 72.7852 182.895 73.207 182.906 73.957C182.895 74.6836 183.832 75.0938 185.367 75.0938C186.914 75.0938 187.828 74.6836 187.828 73.957C187.828 73.207 186.914 72.7852 185.367 72.7852ZM185.648 67.8633C185.725 68.0977 185.766 68.3555 185.766 68.625C185.766 68.8828 185.725 69.1348 185.66 69.3633H187.77V67.8633H185.648ZM195.879 66.4219C195.867 67.8164 197.578 69.1289 199.641 69.3984L199.207 70.3125C197.49 70.0371 195.979 69.1465 195.305 67.9102C194.613 69.1523 193.107 70.0371 191.402 70.3125L190.957 69.3984C193.02 69.1289 194.707 67.8281 194.719 66.4219V65.8477H195.879V66.4219ZM200.074 71.3438V72.2578H195.809V75.9961H194.719V72.2578H190.5V71.3438H200.074ZM210.445 70.4414V71.3438H200.871V70.4414H210.445ZM205.652 72.1523C207.914 72.1523 209.273 72.8555 209.273 74.0742C209.273 75.293 207.914 75.9844 205.652 75.9727C203.379 75.9844 202.008 75.293 202.008 74.0742C202.008 72.8555 203.379 72.1523 205.652 72.1523ZM205.652 73.0195C204.047 73.0312 203.133 73.3945 203.133 74.0742C203.133 74.7422 204.047 75.0938 205.652 75.0938C207.234 75.0938 208.16 74.7422 208.16 74.0742C208.16 73.3945 207.234 73.0312 205.652 73.0195ZM209.59 66.0117V66.9258H206.402C206.525 67.9453 208.014 68.8125 209.953 69.0117L209.555 69.8906C207.738 69.6797 206.232 68.9121 205.664 67.8047C205.078 68.9121 203.578 69.6797 201.762 69.8906L201.375 69.0117C203.279 68.8125 204.779 67.9512 204.914 66.9258H201.75V66.0117H209.59Z" fill="#816CEC"/>
<rect x="150" y="69" width="3" height="3" rx="1.5" fill="#816CEC"/>
<path d="M165.352 84.4453V85.3477H164.355V88.6406C164.854 88.5996 165.34 88.5527 165.809 88.5L165.879 89.332C163.758 89.6719 161.32 89.7188 159.516 89.7188L159.387 88.8047C159.791 88.8047 160.225 88.7988 160.676 88.793V85.3477H159.68V84.4453H165.352ZM167.637 83.5078V86.6133H169.16V87.5508H167.637V91.2305H166.523V83.5078H167.637ZM168.082 92.8711V93.7734H160.98V90.4922H162.094V92.8711H168.082ZM161.754 88.7578C162.252 88.752 162.756 88.7344 163.266 88.6992V85.3477H161.754V88.7578ZM178.793 83.4961V93.9961H177.727V88.5234H176.426V93.4805H175.371V83.6953H176.426V87.6094H177.727V83.4961H178.793ZM174.188 84.6797V91.2305H170.109V84.6797H174.188ZM171.164 85.5586V90.3398H173.145V85.5586H171.164ZM180.762 89.7656C180.773 87.5625 181.395 85.7227 182.496 84.1523H183.645C182.836 85.3125 182.062 87.6797 182.062 89.7656C182.062 91.8633 182.836 94.2188 183.645 95.3906H182.496C181.395 93.8203 180.773 91.9805 180.762 89.7656ZM193.172 83.4961V88.8398H192.059V87.832H189.398V86.9648H192.059V85.8281H189.527C188.877 87.457 187.295 88.5293 184.969 89.0742L184.582 88.1602C187.102 87.6035 188.467 86.4375 188.648 84.8906H185.133V83.9766H189.867C189.867 84.3164 189.838 84.6387 189.785 84.9492H192.059V83.4961H193.172ZM193.172 89.2852V91.9453H187.43V93H193.488V93.8906H186.328V91.1016H192.059V90.1641H186.305V89.2852H193.172ZM203.801 83.4961V93.9961H202.734V83.4961H203.801ZM201.668 83.7188V93.4688H200.613V88.125H198.984V87.2109H200.613V83.7188H201.668ZM197.953 86.4258C197.953 88.2188 198.68 90.0117 200.156 90.8672L199.488 91.6875C198.486 91.0898 197.795 90.0293 197.438 88.7578C197.057 90.1289 196.342 91.2949 195.316 91.9336L194.637 91.1016C196.125 90.1992 196.887 88.2891 196.887 86.4258V85.582H194.953V84.6797H199.758V85.582H197.953V86.4258ZM208.043 89.7656C208.031 91.9805 207.41 93.8203 206.309 95.3906H205.16C205.969 94.2188 206.742 91.8633 206.742 89.7656C206.742 87.6797 205.969 85.3125 205.16 84.1523H206.309C207.41 85.7227 208.031 87.5625 208.043 89.7656ZM218.461 83.4961V93.9961H217.395V88.5703H216.035V93.457H215.016V83.707H216.035V87.6562H217.395V83.4961H218.461ZM213.738 84.7617V85.6641H210.914V90.5273C212.203 90.5156 213.176 90.457 214.301 90.2461L214.383 91.1602C213.117 91.418 212.039 91.4648 210.504 91.4766H209.801V84.7617H213.738ZM228.773 83.4961V90.1172H227.719V87.1875H226.5V89.7539H225.457V83.6953H226.5V86.2734H227.719V83.4961H228.773ZM225.07 84.6914V85.5703H219.762V84.6914H221.883V83.5781H222.984V84.6914H225.07ZM222.422 86.0625C223.758 86.0625 224.695 86.7773 224.695 87.8672C224.695 88.957 223.758 89.6719 222.422 89.6719C221.109 89.6719 220.172 88.957 220.172 87.8672C220.172 86.7773 221.109 86.0625 222.422 86.0625ZM222.422 86.8828C221.684 86.8828 221.168 87.2695 221.168 87.8672C221.168 88.4648 221.684 88.8633 222.422 88.8633C223.184 88.8633 223.688 88.4648 223.688 87.8672C223.688 87.2695 223.184 86.8828 222.422 86.8828ZM225.258 90.2695C227.484 90.2695 228.82 90.9375 228.832 92.1328C228.82 93.3047 227.484 93.9844 225.258 93.9727C223.031 93.9844 221.695 93.3047 221.707 92.1328C221.695 90.9375 223.031 90.2695 225.258 90.2695ZM225.258 91.125C223.699 91.125 222.797 91.4766 222.809 92.1328C222.797 92.7656 223.699 93.1289 225.258 93.1172C226.828 93.1289 227.707 92.7656 227.719 92.1328C227.707 91.4766 226.828 91.125 225.258 91.125Z" fill="#FCA31D"/>
<rect x="150" y="87" width="3" height="3" rx="1.5" fill="#FCA31D"/>
<path fill-rule="evenodd" clip-rule="evenodd" d="M60.5 0.00203994V62L91.6932 110.956C82.4965 116.688 71.635 120 60 120C26.8629 120 0 93.1371 0 60C0 26.8629 26.8629 0 60 0C60.1668 0 60.3335 0.000680856 60.5 0.00203994Z" fill="#02CA66"/>
<path fill-rule="evenodd" clip-rule="evenodd" d="M60.5 0.00390625C93.4069 0.272505 120 27.0316 120 60.0019C120 71.2597 116.899 81.7933 111.506 90.7955L60.5 62.0019V0.00390625Z" fill="#00CBEA"/>
</svg>
