<svg width="228" height="113" viewBox="0 0 228 113" fill="none" xmlns="http://www.w3.org/2000/svg">
<path d="M14.7412 110.107C13.2695 110.107 12.1631 109.21 12.1094 107.97H13.2588C13.3232 108.63 13.957 109.114 14.7412 109.119C15.6865 109.114 16.3633 108.432 16.3633 107.508C16.3633 106.562 15.665 105.875 14.6875 105.864C14.0645 105.864 13.5864 106.074 13.3232 106.552H12.2061L12.7109 102.223H17.1152V103.232H13.6885L13.4307 105.413H13.5059C13.8281 105.102 14.376 104.892 14.9668 104.887C16.4331 104.892 17.5127 105.977 17.5127 107.476C17.5127 109.006 16.3633 110.107 14.7412 110.107ZM26.4395 101.299V106.938H25.4189V106.477H23.5391V105.832H25.4189V101.299H26.4395ZM18.415 104.844C20.2788 104.849 22.6313 104.828 24.71 104.607L24.7637 105.263C23.856 105.392 22.9106 105.467 21.9922 105.515V106.96H20.9824V105.553C20.1177 105.58 19.2852 105.58 18.5332 105.574L18.415 104.844ZM19.1348 102.91C19.1294 102.029 20.0801 101.46 21.541 101.46C22.9751 101.46 23.9365 102.029 23.9473 102.91C23.9365 103.807 22.9751 104.35 21.541 104.35C20.0801 104.35 19.1294 103.807 19.1348 102.91ZM19.8545 107.97V107.261H26.4395V109.334H20.8965V110.075H26.7295V110.816H19.8975V108.657H25.4297V107.97H19.8545ZM20.0908 102.91C20.0854 103.367 20.6548 103.662 21.541 103.662C22.4165 103.662 22.9805 103.367 22.9805 102.91C22.9805 102.448 22.4165 102.147 21.541 102.147C20.6548 102.147 20.0854 102.448 20.0908 102.91Z" fill="#343A40"/>
<path d="M60.8218 110.107C59.3823 110.097 57.8784 109.243 57.8784 106.369C57.8838 103.662 59.0547 102.115 60.9185 102.115C62.3525 102.115 63.3462 103.007 63.5288 104.242H62.3579C62.2021 103.608 61.7026 103.152 60.9185 103.146C59.7153 103.152 59.0171 104.194 59.0171 105.95H59.103C59.5273 105.29 60.2578 104.903 61.1011 104.897C62.4868 104.903 63.604 105.966 63.604 107.454C63.604 108.963 62.4922 110.118 60.8218 110.107ZM59.1567 107.486C59.1621 108.351 59.855 109.114 60.811 109.119C61.751 109.114 62.4546 108.383 62.4546 107.476C62.4546 106.584 61.7778 105.859 60.8433 105.864C59.8926 105.859 59.1675 106.622 59.1567 107.486ZM72.5308 101.299V106.938H71.5103V106.477H69.6304V105.832H71.5103V101.299H72.5308ZM64.5063 104.844C66.3701 104.849 68.7227 104.828 70.8013 104.607L70.855 105.263C69.9473 105.392 69.002 105.467 68.0835 105.515V106.96H67.0737V105.553C66.209 105.58 65.3765 105.58 64.6245 105.574L64.5063 104.844ZM65.2261 102.91C65.2207 102.029 66.1714 101.46 67.6323 101.46C69.0664 101.46 70.0278 102.029 70.0386 102.91C70.0278 103.807 69.0664 104.35 67.6323 104.35C66.1714 104.35 65.2207 103.807 65.2261 102.91ZM65.9458 107.97V107.261H72.5308V109.334H66.9878V110.075H72.8208V110.816H65.9888V108.657H71.521V107.97H65.9458ZM66.1821 102.91C66.1768 103.367 66.7461 103.662 67.6323 103.662C68.5078 103.662 69.0718 103.367 69.0718 102.91C69.0718 102.448 68.5078 102.147 67.6323 102.147C66.7461 102.147 66.1768 102.448 66.1821 102.91Z" fill="#343A40"/>
<path d="M107.125 110L110.595 103.297V103.232H106.588V102.223H111.819V103.275L108.36 110H107.125ZM120.682 101.299V106.938H119.661V106.477H117.781V105.832H119.661V101.299H120.682ZM112.657 104.844C114.521 104.849 116.874 104.828 118.952 104.607L119.006 105.263C118.098 105.392 117.153 105.467 116.234 105.515V106.96H115.225V105.553C114.36 105.58 113.527 105.58 112.775 105.574L112.657 104.844ZM113.377 102.91C113.372 102.029 114.322 101.46 115.783 101.46C117.217 101.46 118.179 102.029 118.189 102.91C118.179 103.807 117.217 104.35 115.783 104.35C114.322 104.35 113.372 103.807 113.377 102.91ZM114.097 107.97V107.261H120.682V109.334H115.139V110.075H120.972V110.816H114.14V108.657H119.672V107.97H114.097ZM114.333 102.91C114.328 103.367 114.897 103.662 115.783 103.662C116.659 103.662 117.223 103.367 117.223 102.91C117.223 102.448 116.659 102.147 115.783 102.147C114.897 102.147 114.328 102.448 114.333 102.91Z" fill="#343A40"/>
<path d="M154.752 110.107C153.06 110.107 151.884 109.194 151.895 107.927C151.884 106.928 152.598 106.111 153.517 105.972V105.929C152.716 105.746 152.185 105.037 152.185 104.188C152.185 102.991 153.264 102.115 154.752 102.115C156.218 102.115 157.303 102.991 157.309 104.188C157.303 105.037 156.761 105.746 155.977 105.929V105.972C156.884 106.111 157.604 106.928 157.609 107.927C157.604 109.194 156.417 110.107 154.752 110.107ZM153.098 107.841C153.082 108.604 153.726 109.13 154.752 109.13C155.762 109.13 156.406 108.604 156.406 107.841C156.406 107.041 155.708 106.455 154.752 106.455C153.785 106.455 153.082 107.041 153.098 107.841ZM153.334 104.296C153.339 105.021 153.919 105.526 154.752 105.521C155.563 105.526 156.154 105.026 156.148 104.296C156.154 103.571 155.584 103.077 154.752 103.082C153.898 103.077 153.339 103.571 153.334 104.296ZM166.504 101.299V106.938H165.483V106.477H163.604V105.832H165.483V101.299H166.504ZM158.479 104.844C160.343 104.849 162.696 104.828 164.774 104.607L164.828 105.263C163.92 105.392 162.975 105.467 162.057 105.515V106.96H161.047V105.553C160.182 105.58 159.35 105.58 158.598 105.574L158.479 104.844ZM159.199 102.91C159.194 102.029 160.145 101.46 161.605 101.46C163.04 101.46 164.001 102.029 164.012 102.91C164.001 103.807 163.04 104.35 161.605 104.35C160.145 104.35 159.194 103.807 159.199 102.91ZM159.919 107.97V107.261H166.504V109.334H160.961V110.075H166.794V110.816H159.962V108.657H165.494V107.97H159.919ZM160.155 102.91C160.15 103.367 160.719 103.662 161.605 103.662C162.481 103.662 163.045 103.367 163.045 102.91C163.045 102.448 162.481 102.147 161.605 102.147C160.719 102.147 160.15 102.448 160.155 102.91Z" fill="#343A40"/>
<path d="M201.682 102.115C203.111 102.126 204.609 102.985 204.615 105.832C204.615 108.561 203.438 110.107 201.575 110.107C200.141 110.107 199.142 109.221 198.954 107.959H200.125C200.286 108.614 200.791 109.071 201.575 109.076C202.772 109.071 203.476 108.029 203.487 106.251H203.39C202.971 106.906 202.241 107.304 201.403 107.304C200.006 107.304 198.889 106.235 198.889 104.747C198.889 103.265 199.99 102.104 201.682 102.115ZM200.039 104.726C200.044 105.628 200.715 106.342 201.661 106.337C202.601 106.342 203.326 105.574 203.326 104.715C203.326 103.872 202.633 103.104 201.682 103.104C200.742 103.104 200.033 103.834 200.039 104.726ZM213.531 101.299V106.938H212.51V106.477H210.63V105.832H212.51V101.299H213.531ZM205.506 104.844C207.37 104.849 209.723 104.828 211.801 104.607L211.855 105.263C210.947 105.392 210.002 105.467 209.083 105.515V106.96H208.074V105.553C207.209 105.58 206.376 105.58 205.625 105.574L205.506 104.844ZM206.226 102.91C206.221 102.029 207.171 101.46 208.632 101.46C210.066 101.46 211.028 102.029 211.039 102.91C211.028 103.807 210.066 104.35 208.632 104.35C207.171 104.35 206.221 103.807 206.226 102.91ZM206.946 107.97V107.261H213.531V109.334H207.988V110.075H213.821V110.816H206.989V108.657H212.521V107.97H206.946ZM207.182 102.91C207.177 103.367 207.746 103.662 208.632 103.662C209.508 103.662 210.072 103.367 210.072 102.91C210.072 102.448 209.508 102.147 208.632 102.147C207.746 102.147 207.177 102.448 207.182 102.91Z" fill="#343A40"/>
<rect y="92" width="228" height="1" fill="#DEE2E5"/>
<rect x="10" y="52" width="20" height="40" fill="#DEE2E5"/>
<rect x="56" y="33" width="20" height="59" fill="#DEE2E5"/>
<rect x="104" width="20" height="92" fill="#DEE2E5"/>
<path d="M150 26H170V92H150V26Z" fill="#DEE2E5"/>
<rect x="198" y="11" width="20" height="81" fill="#00CBEA"/>
</svg>
