<svg width="480" height="169" viewBox="0 0 480 169" fill="none" xmlns="http://www.w3.org/2000/svg">
<rect width="480" height="169" rx="4" fill="#F8F9FA"/>
<rect x="16" y="133" width="447" height="1" fill="#DEE2E5"/>
<path d="M24.2393 143.93V151H23.3506V144.848H23.3116L21.5928 145.99V145.102L23.3506 143.93H24.2393ZM32.9698 143.119V148.236H32.1983V147.758H30.4405V147.25H32.1983V143.119H32.9698ZM25.7823 146.391C27.462 146.4 29.6104 146.381 31.4854 146.176L31.5342 146.674C30.6846 146.796 29.8008 146.869 28.9366 146.908V148.266H28.1846V146.938C27.3643 146.967 26.5782 146.972 25.8702 146.967L25.7823 146.391ZM32.9698 148.549V150.346H27.9014V151.127H33.253V151.693H27.1495V149.809H32.208V149.105H27.1104V148.549H32.9698ZM28.6143 143.285C29.9034 143.285 30.7627 143.793 30.7725 144.594C30.7627 145.404 29.9034 145.893 28.6143 145.893C27.3057 145.893 26.4561 145.404 26.4561 144.594C26.4561 143.793 27.3057 143.285 28.6143 143.285ZM28.6143 143.822C27.7354 143.822 27.169 144.125 27.1788 144.594C27.169 145.053 27.7354 145.365 28.6143 145.365C29.4834 145.365 30.0498 145.053 30.0498 144.594C30.0498 144.125 29.4834 143.822 28.6143 143.822Z" fill="#858E96"/>
<path d="M176.417 151.098C175.001 151.098 173.966 150.258 173.926 149.086H175.167C175.206 149.662 175.743 150.072 176.417 150.072C177.208 150.072 177.774 149.496 177.774 148.715C177.774 147.904 177.188 147.328 176.378 147.328C175.831 147.318 175.43 147.514 175.206 147.934H174.024L174.454 143.93H178.633V144.994H175.499L175.284 146.869H175.352C175.626 146.557 176.143 146.332 176.719 146.332C178.038 146.332 179.005 147.318 179.005 148.676C179.005 150.092 177.94 151.098 176.417 151.098ZM187.188 143.051V148.197H186.094V147.836H184.444V147.172H186.094V143.051H187.188ZM179.776 146.234C181.485 146.234 183.614 146.215 185.508 146.029L185.567 146.713C184.761 146.825 183.931 146.894 183.116 146.928V148.207H182.042V146.977C181.285 146.996 180.557 147.001 179.893 146.996L179.776 146.234ZM187.188 148.471V150.453H182.169V151.02H187.423V151.791H181.104V149.74H186.114V149.213H181.065V148.471H187.188ZM182.628 143.188C183.936 143.188 184.835 143.715 184.835 144.516C184.835 145.336 183.936 145.834 182.628 145.834C181.29 145.834 180.401 145.336 180.401 144.516C180.401 143.715 181.29 143.188 182.628 143.188ZM182.628 143.91C181.885 143.91 181.426 144.145 181.436 144.516C181.426 144.887 181.885 145.111 182.628 145.111C183.35 145.111 183.819 144.887 183.819 144.516C183.819 144.145 183.35 143.91 182.628 143.91Z" fill="#816CEC"/>
<path d="M328.669 143.832C329.89 143.842 331.237 144.574 331.237 147.182C331.237 149.691 330.212 151.098 328.552 151.098C327.312 151.098 326.433 150.336 326.257 149.213H327.126C327.282 149.848 327.761 150.316 328.552 150.316C329.704 150.316 330.407 149.32 330.417 147.602H330.32C329.909 148.188 329.265 148.539 328.513 148.539C327.243 148.539 326.198 147.572 326.198 146.205C326.198 144.887 327.165 143.822 328.669 143.832ZM328.669 144.604C327.741 144.604 327.048 145.326 327.058 146.195C327.058 147.074 327.712 147.768 328.64 147.768C329.558 147.768 330.28 147.006 330.28 146.176C330.28 145.365 329.607 144.604 328.669 144.604ZM339.294 143.119V148.236H338.523V147.758H336.765V147.25H338.523V143.119H339.294ZM332.107 146.391C333.786 146.4 335.935 146.381 337.81 146.176L337.859 146.674C337.009 146.796 336.125 146.869 335.261 146.908V148.266H334.509V146.938C333.689 146.967 332.903 146.972 332.195 146.967L332.107 146.391ZM339.294 148.549V150.346H334.226V151.127H339.577V151.693H333.474V149.809H338.532V149.105H333.435V148.549H339.294ZM334.939 143.285C336.228 143.285 337.087 143.793 337.097 144.594C337.087 145.404 336.228 145.893 334.939 145.893C333.63 145.893 332.78 145.404 332.78 144.594C332.78 143.793 333.63 143.285 334.939 143.285ZM334.939 143.822C334.06 143.822 333.493 144.125 333.503 144.594C333.493 145.053 334.06 145.365 334.939 145.365C335.808 145.365 336.374 145.053 336.374 144.594C336.374 144.125 335.808 143.822 334.939 143.822Z" fill="#858E96"/>
<path d="M59.9028 151L59.893 150.355L62.3051 147.816C63.145 146.928 63.5453 146.449 63.5453 145.795C63.5453 145.072 62.9301 144.594 62.1391 144.594C61.2993 144.594 60.7621 145.131 60.7621 145.922H59.9321C59.9223 144.672 60.8891 143.832 62.1684 143.832C63.4477 143.832 64.3657 144.691 64.3657 145.795C64.3657 146.586 63.9946 147.201 62.7446 148.49L61.1235 150.16V150.219H64.4926V151H59.9028ZM72.6176 143.119V148.236H71.8461V147.758H70.0883V147.25H71.8461V143.119H72.6176ZM65.4301 146.391C67.1098 146.4 69.2582 146.381 71.1332 146.176L71.1821 146.674C70.3325 146.796 69.4487 146.869 68.5844 146.908V148.266H67.8325V146.938C67.0121 146.967 66.226 146.972 65.518 146.967L65.4301 146.391ZM72.6176 148.549V150.346H67.5493V151.127H72.9008V151.693H66.7973V149.809H71.8559V149.105H66.7582V148.549H72.6176ZM68.2621 143.285C69.5512 143.285 70.4106 143.793 70.4203 144.594C70.4106 145.404 69.5512 145.893 68.2621 145.893C66.9536 145.893 66.1039 145.404 66.1039 144.594C66.1039 143.793 66.9536 143.285 68.2621 143.285ZM68.2621 143.822C67.3832 143.822 66.8168 144.125 66.8266 144.594C66.8168 145.053 67.3832 145.365 68.2621 145.365C69.1313 145.365 69.6977 145.053 69.6977 144.594C69.6977 144.125 69.1313 143.822 68.2621 143.822Z" fill="#858E96"/>
<path d="M214.543 151.098C213.313 151.078 211.965 150.355 211.965 147.738C211.965 145.238 212.99 143.832 214.651 143.832C215.891 143.832 216.76 144.594 216.945 145.707H216.076C215.91 145.082 215.442 144.613 214.651 144.613C213.488 144.613 212.795 145.609 212.795 147.309H212.883C213.293 146.723 213.938 146.371 214.699 146.371C215.959 146.371 217.004 147.348 217.004 148.715C217.004 150.043 216.028 151.107 214.543 151.098ZM214.543 150.326C215.461 150.326 216.145 149.604 216.154 148.725C216.145 147.855 215.49 147.143 214.563 147.143C213.635 147.143 212.922 147.895 212.912 148.734C212.912 149.564 213.596 150.326 214.543 150.326ZM225.061 143.119V148.236H224.289V147.758H222.531V147.25H224.289V143.119H225.061ZM217.873 146.391C219.553 146.4 221.701 146.381 223.576 146.176L223.625 146.674C222.776 146.796 221.892 146.869 221.028 146.908V148.266H220.276V146.938C219.455 146.967 218.669 146.972 217.961 146.967L217.873 146.391ZM225.061 148.549V150.346H219.992V151.127H225.344V151.693H219.24V149.809H224.299V149.105H219.201V148.549H225.061ZM220.705 143.285C221.994 143.285 222.854 143.793 222.863 144.594C222.854 145.404 221.994 145.893 220.705 145.893C219.397 145.893 218.547 145.404 218.547 144.594C218.547 143.793 219.397 143.285 220.705 143.285ZM220.705 143.822C219.826 143.822 219.26 144.125 219.27 144.594C219.26 145.053 219.826 145.365 220.705 145.365C221.574 145.365 222.141 145.053 222.141 144.594C222.141 144.125 221.574 143.822 220.705 143.822Z" fill="#858E96"/>
<path d="M364.788 143.93V151H363.9V144.848H363.861L362.142 145.99V145.102L363.9 143.93H364.788ZM368.988 151.098C367.415 151.098 366.517 149.779 366.517 147.465C366.517 145.17 367.435 143.832 368.988 143.832C370.54 143.832 371.458 145.17 371.458 147.465C371.458 149.779 370.55 151.098 368.988 151.098ZM368.988 150.316C370.003 150.316 370.599 149.291 370.599 147.465C370.599 145.639 370.003 144.594 368.988 144.594C367.972 144.594 367.366 145.639 367.366 147.465C367.366 149.291 367.962 150.316 368.988 150.316ZM379.476 143.119V148.236H378.704V147.758H376.947V147.25H378.704V143.119H379.476ZM372.288 146.391C373.968 146.4 376.116 146.381 377.991 146.176L378.04 146.674C377.191 146.796 376.307 146.869 375.443 146.908V148.266H374.691V146.938C373.87 146.967 373.084 146.972 372.376 146.967L372.288 146.391ZM379.476 148.549V150.346H374.407V151.127H379.759V151.693H373.656V149.809H378.714V149.105H373.616V148.549H379.476ZM375.12 143.285C376.409 143.285 377.269 143.793 377.279 144.594C377.269 145.404 376.409 145.893 375.12 145.893C373.812 145.893 372.962 145.404 372.962 144.594C372.962 143.793 373.812 143.285 375.12 143.285ZM375.12 143.822C374.241 143.822 373.675 144.125 373.685 144.594C373.675 145.053 374.241 145.365 375.12 145.365C375.99 145.365 376.556 145.053 376.556 144.594C376.556 144.125 375.99 143.822 375.12 143.822Z" fill="#858E96"/>
<path d="M100.271 151.098C98.8644 151.098 97.8586 150.346 97.8098 149.223H98.6984C98.7473 149.896 99.4211 150.316 100.261 150.316C101.189 150.316 101.872 149.809 101.872 149.076C101.872 148.305 101.257 147.758 100.154 147.758H99.5773V146.986H100.154C101.013 146.986 101.609 146.508 101.609 145.775C101.609 145.072 101.091 144.594 100.29 144.594C99.5383 144.594 98.8449 145.014 98.8058 145.707H97.9562C98.0051 144.584 99.0402 143.832 100.3 143.832C101.648 143.832 102.468 144.711 102.458 145.727C102.468 146.527 101.999 147.123 101.257 147.328V147.377C102.175 147.523 102.741 148.178 102.732 149.076C102.741 150.238 101.677 151.098 100.271 151.098ZM110.847 143.119V148.236H110.075V147.758H108.318V147.25H110.075V143.119H110.847ZM103.659 146.391C105.339 146.4 107.487 146.381 109.362 146.176L109.411 146.674C108.562 146.796 107.678 146.869 106.814 146.908V148.266H106.062V146.938C105.241 146.967 104.455 146.972 103.747 146.967L103.659 146.391ZM110.847 148.549V150.346H105.779V151.127H111.13V151.693H105.027V149.809H110.085V149.105H104.987V148.549H110.847ZM106.491 143.285C107.78 143.285 108.64 143.793 108.65 144.594C108.64 145.404 107.78 145.893 106.491 145.893C105.183 145.893 104.333 145.404 104.333 144.594C104.333 143.793 105.183 143.285 106.491 143.285ZM106.491 143.822C105.612 143.822 105.046 144.125 105.056 144.594C105.046 145.053 105.612 145.365 106.491 145.365C107.361 145.365 107.927 145.053 107.927 144.594C107.927 144.125 107.361 143.822 106.491 143.822Z" fill="#858E96"/>
<path d="M250.692 151L253.934 144.76V144.711H250.194V143.93H254.842V144.75L251.61 151H250.692ZM262.831 143.119V148.236H262.059V147.758H260.301V147.25H262.059V143.119H262.831ZM255.643 146.391C257.323 146.4 259.471 146.381 261.346 146.176L261.395 146.674C260.546 146.796 259.662 146.869 258.798 146.908V148.266H258.046V146.938C257.225 146.967 256.439 146.972 255.731 146.967L255.643 146.391ZM262.831 148.549V150.346H257.762V151.127H263.114V151.693H257.01V149.809H262.069V149.105H256.971V148.549H262.831ZM258.475 143.285C259.764 143.285 260.624 143.793 260.633 144.594C260.624 145.404 259.764 145.893 258.475 145.893C257.167 145.893 256.317 145.404 256.317 144.594C256.317 143.793 257.167 143.285 258.475 143.285ZM258.475 143.822C257.596 143.822 257.03 144.125 257.04 144.594C257.03 145.053 257.596 145.365 258.475 145.365C259.344 145.365 259.911 145.053 259.911 144.594C259.911 144.125 259.344 143.822 258.475 143.822Z" fill="#858E96"/>
<path d="M402.825 143.93V151H401.936V144.848H401.897L400.178 145.99V145.102L401.936 143.93H402.825ZM407.209 143.93V151H406.321V144.848H406.282L404.563 145.99V145.102L406.321 143.93H407.209ZM415.94 143.119V148.236H415.168V147.758H413.411V147.25H415.168V143.119H415.94ZM408.752 146.391C410.432 146.4 412.58 146.381 414.455 146.176L414.504 146.674C413.655 146.796 412.771 146.869 411.907 146.908V148.266H411.155V146.938C410.334 146.967 409.548 146.972 408.84 146.967L408.752 146.391ZM415.94 148.549V150.346H410.871V151.127H416.223V151.693H410.12V149.809H415.178V149.105H410.08V148.549H415.94ZM411.584 143.285C412.873 143.285 413.733 143.793 413.743 144.594C413.733 145.404 412.873 145.893 411.584 145.893C410.276 145.893 409.426 145.404 409.426 144.594C409.426 143.793 410.276 143.285 411.584 143.285ZM411.584 143.822C410.705 143.822 410.139 144.125 410.149 144.594C410.139 145.053 410.705 145.365 411.584 145.365C412.453 145.365 413.02 145.053 413.02 144.594C413.02 144.125 412.453 143.822 411.584 143.822Z" fill="#858E96"/>
<path d="M135.697 149.555V148.832L138.881 143.93H139.965V148.783H140.951V149.555H139.965V151H139.125V149.555H135.697ZM136.644 148.783H139.125V145.043H139.037L136.644 148.725V148.783ZM148.959 143.119V148.236H148.187V147.758H146.43V147.25H148.187V143.119H148.959ZM141.771 146.391C143.451 146.4 145.6 146.381 147.475 146.176L147.523 146.674C146.674 146.796 145.79 146.869 144.926 146.908V148.266H144.174V146.938C143.353 146.967 142.567 146.972 141.859 146.967L141.771 146.391ZM148.959 148.549V150.346H143.891V151.127H149.242V151.693H143.139V149.809H148.197V149.105H143.1V148.549H148.959ZM144.603 143.285C145.893 143.285 146.752 143.793 146.762 144.594C146.752 145.404 145.893 145.893 144.603 145.893C143.295 145.893 142.445 145.404 142.445 144.594C142.445 143.793 143.295 143.285 144.603 143.285ZM144.603 143.822C143.725 143.822 143.158 144.125 143.168 144.594C143.158 145.053 143.725 145.365 144.603 145.365C145.473 145.365 146.039 145.053 146.039 144.594C146.039 144.125 145.473 143.822 144.603 143.822Z" fill="#858E96"/>
<path d="M290.635 151.098C289.151 151.098 288.116 150.277 288.126 149.125C288.116 148.207 288.751 147.455 289.561 147.328V147.289C288.858 147.123 288.399 146.479 288.399 145.707C288.399 144.623 289.346 143.832 290.635 143.832C291.924 143.832 292.872 144.623 292.882 145.707C292.872 146.479 292.403 147.123 291.71 147.289V147.328C292.51 147.455 293.145 148.207 293.155 149.125C293.145 150.277 292.11 151.098 290.635 151.098ZM290.635 150.326C291.651 150.326 292.276 149.818 292.276 149.076C292.276 148.295 291.583 147.719 290.635 147.719C289.688 147.719 288.985 148.295 289.005 149.076C288.985 149.818 289.62 150.326 290.635 150.326ZM290.635 146.977C291.436 146.977 292.022 146.488 292.022 145.775C292.022 145.072 291.466 144.594 290.635 144.594C289.796 144.594 289.249 145.072 289.249 145.775C289.249 146.488 289.825 146.977 290.635 146.977ZM301.182 143.119V148.236H300.411V147.758H298.653V147.25H300.411V143.119H301.182ZM293.995 146.391C295.674 146.4 297.823 146.381 299.698 146.176L299.747 146.674C298.897 146.796 298.013 146.869 297.149 146.908V148.266H296.397V146.938C295.577 146.967 294.791 146.972 294.083 146.967L293.995 146.391ZM301.182 148.549V150.346H296.114V151.127H301.466V151.693H295.362V149.809H300.421V149.105H295.323V148.549H301.182ZM296.827 143.285C298.116 143.285 298.975 143.793 298.985 144.594C298.975 145.404 298.116 145.893 296.827 145.893C295.518 145.893 294.669 145.404 294.669 144.594C294.669 143.793 295.518 143.285 296.827 143.285ZM296.827 143.822C295.948 143.822 295.382 144.125 295.391 144.594C295.382 145.053 295.948 145.365 296.827 145.365C297.696 145.365 298.262 145.053 298.262 144.594C298.262 144.125 297.696 143.822 296.827 143.822Z" fill="#858E96"/>
<path d="M440.988 143.93V151H440.099V144.848H440.06L438.342 145.99V145.102L440.099 143.93H440.988ZM442.873 151L442.863 150.355L445.275 147.816C446.115 146.928 446.515 146.449 446.515 145.795C446.515 145.072 445.9 144.594 445.109 144.594C444.269 144.594 443.732 145.131 443.732 145.922H442.902C442.892 144.672 443.859 143.832 445.138 143.832C446.418 143.832 447.336 144.691 447.336 145.795C447.336 146.586 446.965 147.201 445.715 148.49L444.094 150.16V150.219H447.463V151H442.873ZM455.588 143.119V148.236H454.816V147.758H453.058V147.25H454.816V143.119H455.588ZM448.4 146.391C450.08 146.4 452.228 146.381 454.103 146.176L454.152 146.674C453.303 146.796 452.419 146.869 451.554 146.908V148.266H450.803V146.938C449.982 146.967 449.196 146.972 448.488 146.967L448.4 146.391ZM455.588 148.549V150.346H450.519V151.127H455.871V151.693H449.767V149.809H454.826V149.105H449.728V148.549H455.588ZM451.232 143.285C452.521 143.285 453.381 143.793 453.39 144.594C453.381 145.404 452.521 145.893 451.232 145.893C449.924 145.893 449.074 145.404 449.074 144.594C449.074 143.793 449.924 143.285 451.232 143.285ZM451.232 143.822C450.353 143.822 449.787 144.125 449.797 144.594C449.787 145.053 450.353 145.365 451.232 145.365C452.101 145.365 452.668 145.053 452.668 144.594C452.668 144.125 452.101 143.822 451.232 143.822Z" fill="#858E96"/>
<line x1="180.5" y1="47.5" x2="180.5" y2="133.5" stroke="#816CEC" stroke-linecap="round" stroke-dasharray="2 2"/>
<path d="M23 104.723C29.4815 103.233 41.6667 97.0735 54.1111 102.24C66.5556 107.406 80.5556 104.392 86 100.749C101.556 87.8338 97.6667 79.3895 113.222 71.4417C128.778 63.4938 149 83.3634 161.444 60.5131C166.561 51.118 178.085 47.1008 180.889 47.1013C182.444 47.1015 212 43.6237 226 77.4021" stroke="#816CEC"/>
<circle cx="180.5" cy="45.5" r="4" fill="#816CEC" stroke="#816CEC"/>
<circle cx="422" cy="22" r="2.5" fill="#816CEC" stroke="#816CEC"/>
<path d="M431.66 26V25.36L434.06 22.82C434.9 21.93 435.3 21.45 435.3 20.8C435.3 20.07 434.69 19.6 433.9 19.6C433.06 19.6 432.53 20.13 432.52 20.92H431.7C431.68 19.67 432.65 18.83 433.92 18.84C435.21 18.83 436.12 19.69 436.14 20.8C436.12 21.59 435.76 22.2 434.5 23.5L432.88 25.16V25.22H436.26V26H431.66ZM439.859 26.1C438.289 26.1 437.379 24.78 437.379 22.46C437.379 20.17 438.299 18.83 439.859 18.84C441.409 18.83 442.329 20.17 442.319 22.46C442.329 24.78 441.419 26.1 439.859 26.1ZM438.239 22.46C438.239 24.29 438.829 25.32 439.859 25.32C440.879 25.32 441.469 24.29 441.479 22.46C441.469 20.63 440.869 19.6 439.859 19.6C438.839 19.6 438.239 20.63 438.239 22.46ZM443.496 26V25.36L445.896 22.82C446.736 21.93 447.136 21.45 447.136 20.8C447.136 20.07 446.526 19.6 445.736 19.6C444.896 19.6 444.366 20.13 444.356 20.92H443.536C443.516 19.67 444.486 18.83 445.756 18.84C447.046 18.83 447.956 19.69 447.976 20.8C447.956 21.59 447.596 22.2 446.336 23.5L444.716 25.16V25.22H448.096V26H443.496ZM451.815 26.1C450.415 26.1 449.405 25.34 449.355 24.22H450.255C450.295 24.9 450.965 25.32 451.815 25.32C452.745 25.32 453.415 24.81 453.415 24.08C453.415 23.31 452.805 22.76 451.695 22.76H451.135V21.98H451.695C452.565 21.99 453.165 21.5 453.155 20.78C453.165 20.07 452.645 19.6 451.835 19.6C451.085 19.6 450.395 20.01 450.355 20.7H449.515C449.555 19.58 450.595 18.83 451.855 18.84C453.195 18.83 454.015 19.72 454.015 20.74C454.015 21.53 453.545 22.12 452.815 22.32V22.38C453.725 22.52 454.285 23.18 454.275 24.08C454.285 25.24 453.235 26.1 451.815 26.1ZM462.417 18.12V24.54H461.657V21.54H459.157V20.92H461.657V19.88H459.157V19.26H461.657V18.12H462.417ZM455.757 23.26V18.74H456.517V22.6C457.717 22.6 458.857 22.53 460.197 22.28L460.277 22.92C458.857 23.19 457.677 23.24 456.397 23.26H455.757ZM456.837 26.6V24H457.597V25.96H462.657V26.6H456.837Z" fill="#858E96"/>
<circle cx="422" cy="40" r="3" fill="#FCA31D"/>
<path d="M431.66 44V43.36L434.06 40.82C434.9 39.93 435.3 39.45 435.3 38.8C435.3 38.07 434.69 37.6 433.9 37.6C433.06 37.6 432.53 38.13 432.52 38.92H431.7C431.68 37.67 432.65 36.83 433.92 36.84C435.21 36.83 436.12 37.69 436.14 38.8C436.12 39.59 435.76 40.2 434.5 41.5L432.88 43.16V43.22H436.26V44H431.66ZM439.859 44.1C438.289 44.1 437.379 42.78 437.379 40.46C437.379 38.17 438.299 36.83 439.859 36.84C441.409 36.83 442.329 38.17 442.319 40.46C442.329 42.78 441.419 44.1 439.859 44.1ZM438.239 40.46C438.239 42.29 438.829 43.32 439.859 43.32C440.879 43.32 441.469 42.29 441.479 40.46C441.469 38.63 440.869 37.6 439.859 37.6C438.839 37.6 438.239 38.63 438.239 40.46ZM443.496 44V43.36L445.896 40.82C446.736 39.93 447.136 39.45 447.136 38.8C447.136 38.07 446.526 37.6 445.736 37.6C444.896 37.6 444.366 38.13 444.356 38.92H443.536C443.516 37.67 444.486 36.83 445.756 36.84C447.046 36.83 447.956 37.69 447.976 38.8C447.956 39.59 447.596 40.2 446.336 41.5L444.716 43.16V43.22H448.096V44H443.496ZM449.375 44V43.36L451.775 40.82C452.615 39.93 453.015 39.45 453.015 38.8C453.015 38.07 452.405 37.6 451.615 37.6C450.775 37.6 450.245 38.13 450.235 38.92H449.415C449.395 37.67 450.365 36.83 451.635 36.84C452.925 36.83 453.835 37.69 453.855 38.8C453.835 39.59 453.475 40.2 452.215 41.5L450.595 43.16V43.22H453.975V44H449.375ZM462.134 36.12V42.54H461.374V39.54H458.874V38.92H461.374V37.88H458.874V37.26H461.374V36.12H462.134ZM455.474 41.26V36.74H456.234V40.6C457.434 40.6 458.574 40.53 459.914 40.28L459.994 40.92C458.574 41.19 457.394 41.24 456.114 41.26H455.474ZM456.554 44.6V42H457.314V43.96H462.374V44.6H456.554Z" fill="#858E96"/>
<path d="M23 117.152C29.7651 115.654 42.4834 109.461 55.4723 114.655C68.4613 119.848 87.1328 118.317 92.8155 114.655C109.052 101.671 106.616 90.4596 122.852 82.4698C139.089 74.4801 154.513 95.6791 167.502 72.7084C172.842 63.2638 184.87 59.2255 187.797 59.2259C189.421 59.2262 215.399 54.2324 225.952 91.1849C236.506 128.137 268.166 102.171 280.343 93.6817C292.52 85.1926 319.31 76.7036 337.17 95.6792C355.03 114.655 386.69 112.158 398.055 106.665C409.421 101.172 447.576 94.181 463 106.665" stroke="#FCA31D"/>
<circle cx="180.5" cy="59.5" r="4" fill="#FCA31D" stroke="#FCA31D"/>
<g filter="url(#filter0_d_1654_8065)">
<rect x="193" y="40" width="136" height="46" rx="4" fill="white"/>
</g>
<circle cx="204" cy="54" r="2.5" fill="#816CEC" stroke="#816CEC"/>
<path d="M211.66 58V57.36L214.06 54.82C214.9 53.93 215.3 53.45 215.3 52.8C215.3 52.07 214.69 51.6 213.9 51.6C213.06 51.6 212.53 52.13 212.52 52.92H211.7C211.68 51.67 212.65 50.83 213.92 50.84C215.21 50.83 216.12 51.69 216.14 52.8C216.12 53.59 215.76 54.2 214.5 55.5L212.88 57.16V57.22H216.26V58H211.66ZM219.859 58.1C218.289 58.1 217.379 56.78 217.379 54.46C217.379 52.17 218.299 50.83 219.859 50.84C221.409 50.83 222.329 52.17 222.319 54.46C222.329 56.78 221.419 58.1 219.859 58.1ZM218.239 54.46C218.239 56.29 218.829 57.32 219.859 57.32C220.879 57.32 221.469 56.29 221.479 54.46C221.469 52.63 220.869 51.6 219.859 51.6C218.839 51.6 218.239 52.63 218.239 54.46ZM223.496 58V57.36L225.896 54.82C226.736 53.93 227.136 53.45 227.136 52.8C227.136 52.07 226.526 51.6 225.736 51.6C224.896 51.6 224.366 52.13 224.356 52.92H223.536C223.516 51.67 224.486 50.83 225.756 50.84C227.046 50.83 227.956 51.69 227.976 52.8C227.956 53.59 227.596 54.2 226.336 55.5L224.716 57.16V57.22H228.096V58H223.496ZM231.815 58.1C230.415 58.1 229.405 57.34 229.355 56.22H230.255C230.295 56.9 230.965 57.32 231.815 57.32C232.745 57.32 233.415 56.81 233.415 56.08C233.415 55.31 232.805 54.76 231.695 54.76H231.135V53.98H231.695C232.565 53.99 233.165 53.5 233.155 52.78C233.165 52.07 232.645 51.6 231.835 51.6C231.085 51.6 230.395 52.01 230.355 52.7H229.515C229.555 51.58 230.595 50.83 231.855 50.84C233.195 50.83 234.015 51.72 234.015 52.74C234.015 53.53 233.545 54.12 232.815 54.32V54.38C233.725 54.52 234.285 55.18 234.275 56.08C234.285 57.24 233.235 58.1 231.815 58.1ZM242.417 50.12V56.54H241.657V53.54H239.157V52.92H241.657V51.88H239.157V51.26H241.657V50.12H242.417ZM235.757 55.26V50.74H236.517V54.6C237.717 54.6 238.857 54.53 240.197 54.28L240.277 54.92C238.857 55.19 237.677 55.24 236.397 55.26H235.757ZM236.837 58.6V56H237.597V57.96H242.657V58.6H236.837Z" fill="#858E96"/>
<path d="M250.586 58V57.082L253.086 54.6699C253.799 53.957 254.17 53.5371 254.17 52.9414C254.17 52.2871 253.652 51.8672 252.959 51.8672C252.227 51.8672 251.758 52.3262 251.768 53.0391H250.557C250.547 51.7012 251.553 50.832 252.969 50.832C254.414 50.832 255.391 51.6914 255.391 52.8828C255.391 53.6836 255 54.3281 253.613 55.6367L252.354 56.8867V56.9355H255.498V58H250.586ZM259.219 58.0977C257.52 58.0977 256.504 56.7793 256.504 54.4648C256.504 52.1602 257.52 50.832 259.219 50.832C260.908 50.832 261.934 52.1602 261.934 54.4648C261.934 56.7793 260.918 58.0977 259.219 58.0977ZM259.219 57.0332C260.107 57.0332 260.654 56.1641 260.654 54.4648C260.654 52.7754 260.098 51.8867 259.219 51.8867C258.34 51.8867 257.783 52.7754 257.783 54.4648C257.783 56.1641 258.33 57.0332 259.219 57.0332ZM265.566 58.0977C264.053 58.0977 262.979 57.2773 262.949 56.0859H264.229C264.268 56.6523 264.834 57.0234 265.566 57.0234C266.348 57.0234 266.904 56.5938 266.904 55.9688C266.904 55.334 266.357 54.875 265.439 54.875H264.805V53.8984H265.439C266.191 53.8984 266.719 53.4785 266.709 52.8633C266.719 52.2676 266.27 51.8672 265.576 51.8672C264.912 51.8672 264.336 52.2383 264.316 52.834H263.096C263.125 51.6426 264.199 50.832 265.586 50.832C267.021 50.832 267.949 51.7109 267.939 52.7949C267.949 53.5859 267.422 54.1621 266.65 54.3184V54.377C267.646 54.5137 268.213 55.1484 268.203 56.0371C268.213 57.2285 267.1 58.0977 265.566 58.0977ZM270.527 57.3066L269.707 60.041H268.779L269.287 57.3066H270.527ZM274.268 50.832C275.654 50.8418 277.021 51.6621 277.031 54.25C277.031 56.6914 275.928 58.0977 274.189 58.0977C272.822 58.0977 271.885 57.248 271.729 56.0762H272.988C273.115 56.6328 273.545 56.9941 274.189 56.9941C275.215 56.9941 275.791 56.0859 275.801 54.5723H275.723C275.361 55.1875 274.688 55.5488 273.906 55.5488C272.646 55.5488 271.67 54.5918 271.66 53.2539C271.66 51.8672 272.695 50.8223 274.268 50.832ZM274.277 51.8574C273.486 51.8574 272.891 52.4727 272.9 53.2246C272.9 53.9863 273.467 54.582 274.258 54.582C275.039 54.582 275.654 53.9473 275.645 53.2148C275.645 52.4922 275.068 51.8574 274.277 51.8574ZM280.654 58.0977C279.082 58.0977 277.969 57.2578 277.969 56.1055C277.969 55.207 278.633 54.4746 279.482 54.3379V54.2988C278.74 54.1426 278.232 53.498 278.232 52.7266C278.232 51.6328 279.258 50.832 280.654 50.832C282.041 50.832 283.066 51.6328 283.066 52.7266C283.066 53.498 282.549 54.1426 281.816 54.2988V54.3379C282.666 54.4746 283.34 55.207 283.34 56.1055C283.34 57.2578 282.217 58.0977 280.654 58.0977ZM280.654 57.0918C281.484 57.0918 282.031 56.6426 282.031 55.9883C282.031 55.3242 281.445 54.8359 280.654 54.8359C279.854 54.8359 279.268 55.3242 279.277 55.9883C279.268 56.6426 279.814 57.0918 280.654 57.0918ZM280.654 53.8887C281.338 53.8887 281.826 53.459 281.826 52.8438C281.826 52.248 281.348 51.8281 280.654 51.8281C279.951 51.8281 279.473 52.2383 279.473 52.8438C279.473 53.459 279.961 53.8887 280.654 53.8887ZM284.268 56.6816V55.666L287.324 50.9297H288.906V55.6367H289.834V56.6816H288.906V58H287.695V56.6816H284.268ZM285.566 55.6367H287.715V52.375H287.637L285.566 55.5879V55.6367ZM292.07 57.3066L291.25 60.041H290.322L290.83 57.3066H292.07ZM295.781 58.0977C294.404 58.0879 293.018 57.2676 293.027 54.6602C293.027 52.2383 294.131 50.832 295.859 50.832C297.227 50.832 298.164 51.6914 298.32 52.834H297.061C296.934 52.2969 296.504 51.9355 295.859 51.9355C294.834 51.9355 294.258 52.8438 294.258 54.3281H294.326C294.688 53.7227 295.371 53.3613 296.143 53.3613C297.412 53.3613 298.389 54.3184 298.389 55.6562C298.389 57.0625 297.344 58.1074 295.781 58.0977ZM295.781 57.0723C296.572 57.0723 297.158 56.457 297.158 55.6855C297.158 54.9336 296.582 54.3281 295.801 54.3281C295.01 54.3281 294.404 54.9531 294.395 55.6953C294.404 56.4375 294.98 57.0723 295.781 57.0723ZM299.727 58L302.793 52.043V51.9941H299.238V50.9297H304.111V52.0137L301.045 58H299.727ZM307.549 50.832C308.936 50.8418 310.303 51.6621 310.312 54.25C310.312 56.6914 309.209 58.0977 307.471 58.0977C306.104 58.0977 305.166 57.248 305.01 56.0762H306.27C306.396 56.6328 306.826 56.9941 307.471 56.9941C308.496 56.9941 309.072 56.0859 309.082 54.5723H309.004C308.643 55.1875 307.969 55.5488 307.188 55.5488C305.928 55.5488 304.951 54.5918 304.941 53.2539C304.941 51.8672 305.977 50.8223 307.549 50.832ZM307.559 51.8574C306.768 51.8574 306.172 52.4727 306.182 53.2246C306.182 53.9863 306.748 54.582 307.539 54.582C308.32 54.582 308.936 53.9473 308.926 53.2148C308.926 52.4922 308.35 51.8574 307.559 51.8574ZM318.477 50.0508V56.7305H317.383V55.959H315.654V55.1973H317.383V50.0508H318.477ZM318.682 57.8145V58.6934H312.207V56.0859H313.291V57.8145H318.682ZM311.035 54.0156C312.666 54.0059 314.854 53.9863 316.729 53.752L316.787 54.5332C316.06 54.6553 315.308 54.7383 314.561 54.7871V56.4863H313.477V54.8457C312.651 54.8799 311.865 54.8848 311.172 54.8848L311.035 54.0156ZM313.916 50.373C315.205 50.373 316.104 51.0078 316.113 51.9355C316.104 52.8828 315.205 53.4883 313.916 53.4883C312.607 53.4883 311.709 52.8828 311.709 51.9355C311.709 51.0078 312.607 50.373 313.916 50.373ZM313.916 51.1738C313.213 51.1738 312.734 51.457 312.734 51.9355C312.734 52.4141 313.213 52.6973 313.916 52.6973C314.59 52.6973 315.068 52.4141 315.078 51.9355C315.068 51.457 314.59 51.1738 313.916 51.1738Z" fill="#816CEC"/>
<path d="M253.457 68.9297V76H252.178V70.1699H252.139L250.488 71.2246V70.0625L252.236 68.9297H253.457ZM255.439 76L258.506 70.043V69.9941H254.951V68.9297H259.824V70.0137L256.758 76H255.439ZM263.281 76.0977C261.709 76.0977 260.596 75.2578 260.596 74.1055C260.596 73.207 261.26 72.4746 262.109 72.3379V72.2988C261.367 72.1426 260.859 71.498 260.859 70.7266C260.859 69.6328 261.885 68.832 263.281 68.832C264.668 68.832 265.693 69.6328 265.693 70.7266C265.693 71.498 265.176 72.1426 264.443 72.2988V72.3379C265.293 72.4746 265.967 73.207 265.967 74.1055C265.967 75.2578 264.844 76.0977 263.281 76.0977ZM263.281 75.0918C264.111 75.0918 264.658 74.6426 264.658 73.9883C264.658 73.3242 264.072 72.8359 263.281 72.8359C262.48 72.8359 261.895 73.3242 261.904 73.9883C261.895 74.6426 262.441 75.0918 263.281 75.0918ZM263.281 71.8887C263.965 71.8887 264.453 71.459 264.453 70.8438C264.453 70.248 263.975 69.8281 263.281 69.8281C262.578 69.8281 262.1 70.2383 262.1 70.8438C262.1 71.459 262.588 71.8887 263.281 71.8887ZM268.232 75.3066L267.412 78.041H266.484L266.992 75.3066H268.232ZM271.582 68.9297V76H270.303V70.1699H270.264L268.613 71.2246V70.0625L270.361 68.9297H271.582ZM275.908 76.0977C274.209 76.0977 273.193 74.7793 273.193 72.4648C273.193 70.1602 274.209 68.832 275.908 68.832C277.598 68.832 278.623 70.1602 278.623 72.4648C278.623 74.7793 277.607 76.0977 275.908 76.0977ZM275.908 75.0332C276.797 75.0332 277.344 74.1641 277.344 72.4648C277.344 70.7754 276.787 69.8867 275.908 69.8867C275.029 69.8867 274.473 70.7754 274.473 72.4648C274.473 74.1641 275.02 75.0332 275.908 75.0332ZM282.197 68.832C283.584 68.8418 284.951 69.6621 284.961 72.25C284.961 74.6914 283.857 76.0977 282.119 76.0977C280.752 76.0977 279.814 75.248 279.658 74.0762H280.918C281.045 74.6328 281.475 74.9941 282.119 74.9941C283.145 74.9941 283.721 74.0859 283.73 72.5723H283.652C283.291 73.1875 282.617 73.5488 281.836 73.5488C280.576 73.5488 279.6 72.5918 279.59 71.2539C279.59 69.8672 280.625 68.8223 282.197 68.832ZM282.207 69.8574C281.416 69.8574 280.82 70.4727 280.83 71.2246C280.83 71.9863 281.396 72.582 282.188 72.582C282.969 72.582 283.584 71.9473 283.574 71.2148C283.574 70.4922 282.998 69.8574 282.207 69.8574ZM287.158 75.3066L286.338 78.041H285.41L285.918 75.3066H287.158ZM290.83 76.0977C289.131 76.0977 288.115 74.7793 288.115 72.4648C288.115 70.1602 289.131 68.832 290.83 68.832C292.52 68.832 293.545 70.1602 293.545 72.4648C293.545 74.7793 292.529 76.0977 290.83 76.0977ZM290.83 75.0332C291.719 75.0332 292.266 74.1641 292.266 72.4648C292.266 70.7754 291.709 69.8867 290.83 69.8867C289.951 69.8867 289.395 70.7754 289.395 72.4648C289.395 74.1641 289.941 75.0332 290.83 75.0332ZM297.119 76.0977C295.703 76.0977 294.668 75.2578 294.629 74.0859H295.869C295.908 74.6621 296.445 75.0723 297.119 75.0723C297.91 75.0723 298.477 74.4961 298.477 73.7148C298.477 72.9043 297.891 72.3281 297.08 72.3281C296.533 72.3184 296.133 72.5137 295.908 72.9336H294.727L295.156 68.9297H299.336V69.9941H296.201L295.986 71.8691H296.055C296.328 71.5566 296.846 71.332 297.422 71.332C298.74 71.332 299.707 72.3184 299.707 73.6758C299.707 75.0918 298.643 76.0977 297.119 76.0977ZM303.35 76.0977C301.836 76.0977 300.762 75.2773 300.732 74.0859H302.012C302.051 74.6523 302.617 75.0234 303.35 75.0234C304.131 75.0234 304.688 74.5938 304.688 73.9688C304.688 73.334 304.141 72.875 303.223 72.875H302.588V71.8984H303.223C303.975 71.8984 304.502 71.4785 304.492 70.8633C304.502 70.2676 304.053 69.8672 303.359 69.8672C302.695 69.8672 302.119 70.2383 302.1 70.834H300.879C300.908 69.6426 301.982 68.832 303.369 68.832C304.805 68.832 305.732 69.7109 305.723 70.7949C305.732 71.5859 305.205 72.1621 304.434 72.3184V72.377C305.43 72.5137 305.996 73.1484 305.986 74.0371C305.996 75.2285 304.883 76.0977 303.35 76.0977ZM314.209 68.0508V74.7305H313.115V73.959H311.387V73.1973H313.115V68.0508H314.209ZM314.414 75.8145V76.6934H307.939V74.0859H309.023V75.8145H314.414ZM306.768 72.0156C308.398 72.0059 310.586 71.9863 312.461 71.752L312.52 72.5332C311.792 72.6553 311.04 72.7383 310.293 72.7871V74.4863H309.209V72.8457C308.384 72.8799 307.598 72.8848 306.904 72.8848L306.768 72.0156ZM309.648 68.373C310.938 68.373 311.836 69.0078 311.846 69.9355C311.836 70.8828 310.938 71.4883 309.648 71.4883C308.34 71.4883 307.441 70.8828 307.441 69.9355C307.441 69.0078 308.34 68.373 309.648 68.373ZM309.648 69.1738C308.945 69.1738 308.467 69.457 308.467 69.9355C308.467 70.4141 308.945 70.6973 309.648 70.6973C310.322 70.6973 310.801 70.4141 310.811 69.9355C310.801 69.457 310.322 69.1738 309.648 69.1738Z" fill="#FCA31D"/>
<circle cx="204" cy="72" r="3" fill="#FCA31D"/>
<path d="M211.66 76V75.36L214.06 72.82C214.9 71.93 215.3 71.45 215.3 70.8C215.3 70.07 214.69 69.6 213.9 69.6C213.06 69.6 212.53 70.13 212.52 70.92H211.7C211.68 69.67 212.65 68.83 213.92 68.84C215.21 68.83 216.12 69.69 216.14 70.8C216.12 71.59 215.76 72.2 214.5 73.5L212.88 75.16V75.22H216.26V76H211.66ZM219.859 76.1C218.289 76.1 217.379 74.78 217.379 72.46C217.379 70.17 218.299 68.83 219.859 68.84C221.409 68.83 222.329 70.17 222.319 72.46C222.329 74.78 221.419 76.1 219.859 76.1ZM218.239 72.46C218.239 74.29 218.829 75.32 219.859 75.32C220.879 75.32 221.469 74.29 221.479 72.46C221.469 70.63 220.869 69.6 219.859 69.6C218.839 69.6 218.239 70.63 218.239 72.46ZM223.496 76V75.36L225.896 72.82C226.736 71.93 227.136 71.45 227.136 70.8C227.136 70.07 226.526 69.6 225.736 69.6C224.896 69.6 224.366 70.13 224.356 70.92H223.536C223.516 69.67 224.486 68.83 225.756 68.84C227.046 68.83 227.956 69.69 227.976 70.8C227.956 71.59 227.596 72.2 226.336 73.5L224.716 75.16V75.22H228.096V76H223.496ZM229.375 76V75.36L231.775 72.82C232.615 71.93 233.015 71.45 233.015 70.8C233.015 70.07 232.405 69.6 231.615 69.6C230.775 69.6 230.245 70.13 230.235 70.92H229.415C229.395 69.67 230.365 68.83 231.635 68.84C232.925 68.83 233.835 69.69 233.855 70.8C233.835 71.59 233.475 72.2 232.215 73.5L230.595 75.16V75.22H233.975V76H229.375ZM242.134 68.12V74.54H241.374V71.54H238.874V70.92H241.374V69.88H238.874V69.26H241.374V68.12H242.134ZM235.474 73.26V68.74H236.234V72.6C237.434 72.6 238.574 72.53 239.914 72.28L239.994 72.92C238.574 73.19 237.394 73.24 236.114 73.26H235.474ZM236.554 76.6V74H237.314V75.96H242.374V76.6H236.554Z" fill="#858E96"/>
<defs>
<filter id="filter0_d_1654_8065" x="183" y="32" width="156" height="66" filterUnits="userSpaceOnUse" color-interpolation-filters="sRGB">
<feFlood flood-opacity="0" result="BackgroundImageFix"/>
<feColorMatrix in="SourceAlpha" type="matrix" values="0 0 0 0 0 0 0 0 0 0 0 0 0 0 0 0 0 0 127 0" result="hardAlpha"/>
<feOffset dy="2"/>
<feGaussianBlur stdDeviation="5"/>
<feComposite in2="hardAlpha" operator="out"/>
<feColorMatrix type="matrix" values="0 0 0 0 0 0 0 0 0 0 0 0 0 0 0 0 0 0 0.1 0"/>
<feBlend mode="normal" in2="BackgroundImageFix" result="effect1_dropShadow_1654_8065"/>
<feBlend mode="normal" in="SourceGraphic" in2="effect1_dropShadow_1654_8065" result="shape"/>
</filter>
</defs>
</svg>
