<svg width="90" height="42" viewBox="0 0 90 42" fill="none" xmlns="http://www.w3.org/2000/svg">
<rect x="0.5" y="0.5" width="89" height="41" fill="white"/>
<rect x="0.5" y="0.5" width="89" height="41" stroke="#E1E6EA"/>
<rect width="7" height="42" fill="#FF4B2C"/>
<path d="M26.386 25.978C26.442 25.9593 26.4933 25.9593 26.54 25.978C26.5867 25.9873 26.61 26.02 26.61 26.076L26.638 26.622C26.6473 26.7433 26.582 26.8273 26.442 26.874C26.134 26.9767 25.8167 27.0513 25.49 27.098C25.1633 27.1447 24.7527 27.168 24.258 27.168C22.634 27.168 21.3413 26.6733 20.38 25.684C19.904 25.1987 19.5493 24.634 19.316 23.99C19.092 23.346 18.98 22.618 18.98 21.806C18.98 20.21 19.4607 18.9173 20.422 17.928C21.402 16.9387 22.6807 16.444 24.258 16.444C24.482 16.444 24.6827 16.4487 24.86 16.458C25.0467 16.4673 25.224 16.4813 25.392 16.5C25.5693 16.5187 25.742 16.542 25.91 16.57C26.078 16.598 26.2553 16.6353 26.442 16.682C26.582 16.71 26.6473 16.7987 26.638 16.948L26.61 17.508C26.5913 17.6387 26.5213 17.6807 26.4 17.634C26.036 17.5127 25.6907 17.4333 25.364 17.396C25.0373 17.3493 24.6687 17.326 24.258 17.326C22.942 17.326 21.892 17.746 21.108 18.586C20.38 19.398 20.016 20.4713 20.016 21.806C20.016 22.478 20.1047 23.0847 20.282 23.626C20.4593 24.1673 20.73 24.6387 21.094 25.04C21.85 25.88 22.9047 26.2953 24.258 26.286C24.65 26.2767 25.0373 26.2487 25.42 26.202C25.812 26.1553 26.134 26.0807 26.386 25.978ZM36.5063 21.806C36.5063 21.218 36.4316 20.6627 36.2823 20.14C36.1329 19.6173 35.9229 19.146 35.6523 18.726C35.3256 18.2687 34.9336 17.9187 34.4762 17.676C34.0283 17.424 33.5196 17.298 32.9503 17.298C32.3716 17.298 31.8536 17.424 31.3963 17.676C30.9483 17.9187 30.5609 18.2687 30.2343 18.726C29.9636 19.146 29.7536 19.6173 29.6043 20.14C29.4549 20.6627 29.3803 21.218 29.3803 21.806C29.3803 22.394 29.4549 22.954 29.6043 23.486C29.7536 24.0087 29.9636 24.48 30.2343 24.9C30.5703 25.348 30.9669 25.698 31.4243 25.95C31.8816 26.202 32.3903 26.328 32.9503 26.328C33.5196 26.328 34.0283 26.2067 34.4762 25.964C34.9336 25.712 35.3256 25.3573 35.6523 24.9C35.9229 24.48 36.1329 24.0087 36.2823 23.486C36.4316 22.954 36.5063 22.394 36.5063 21.806ZM37.5283 21.806C37.5096 23.4673 37.1269 24.7647 36.3803 25.698C35.5683 26.706 34.4249 27.21 32.9503 27.21C31.4756 27.21 30.3276 26.706 29.5063 25.698C28.7409 24.7367 28.3583 23.4393 28.3583 21.806C28.3583 21.0313 28.4516 20.3313 28.6383 19.706C28.8249 19.0807 29.0956 18.5253 29.4503 18.04C29.8703 17.5267 30.3743 17.13 30.9623 16.85C31.5596 16.5607 32.2223 16.416 32.9503 16.416C33.6876 16.416 34.3456 16.556 34.9243 16.836C35.5123 17.116 36.0163 17.522 36.4363 18.054C36.8003 18.558 37.0756 19.1227 37.2623 19.748C37.4489 20.364 37.5376 21.05 37.5283 21.806ZM40.8058 23.374C40.8058 24.2607 41.0344 24.9607 41.4918 25.474C42.0051 26.0433 42.6911 26.328 43.5498 26.328C44.4271 26.328 45.1224 26.0433 45.6358 25.474C45.8691 25.222 46.0371 24.9233 46.1398 24.578C46.2518 24.2233 46.3078 23.822 46.3078 23.374V16.794C46.3078 16.6633 46.3731 16.598 46.5038 16.598H47.1478C47.2784 16.598 47.3438 16.6633 47.3438 16.794V23.374C47.3438 24.0553 47.2318 24.6573 47.0078 25.18C46.7838 25.6933 46.4618 26.1133 46.0418 26.44C45.3604 26.9533 44.5298 27.21 43.5498 27.21C42.5791 27.21 41.7531 26.9533 41.0718 26.44C40.2038 25.796 39.7698 24.774 39.7698 23.374V16.794C39.7698 16.6633 39.8351 16.598 39.9658 16.598H40.6098C40.7404 16.598 40.8058 16.6633 40.8058 16.794V23.374ZM55.1777 19.552C55.1777 18.8893 55.005 18.3807 54.6597 18.026C54.3143 17.662 53.8057 17.48 53.1337 17.48H51.0337V21.666H52.1677C52.6157 21.666 53.017 21.6427 53.3717 21.596C53.7357 21.5493 54.0437 21.4513 54.2957 21.302C54.557 21.1527 54.7623 20.9427 54.9117 20.672C55.061 20.392 55.1497 20.0187 55.1777 19.552ZM51.0337 26.79C51.0337 26.9207 50.9683 26.986 50.8377 26.986H50.2077C50.077 26.986 50.0117 26.9207 50.0117 26.79V17.018C50.0117 16.8127 50.0303 16.6913 50.0677 16.654C50.1143 16.6167 50.2357 16.598 50.4317 16.598H52.9237C53.9503 16.598 54.753 16.8453 55.3317 17.34C55.929 17.8533 56.2277 18.5907 56.2277 19.552C56.2277 20.0373 56.139 20.4713 55.9617 20.854C55.7937 21.2273 55.5557 21.5447 55.2477 21.806C54.9397 22.058 54.5757 22.2493 54.1557 22.38C53.7357 22.5107 53.2877 22.5667 52.8117 22.548H51.0337V26.79ZM65.7777 21.806C65.7777 21.218 65.7031 20.6627 65.5537 20.14C65.4044 19.6173 65.1944 19.146 64.9237 18.726C64.5971 18.2687 64.2051 17.9187 63.7477 17.676C63.2997 17.424 62.7911 17.298 62.2217 17.298C61.6431 17.298 61.1251 17.424 60.6677 17.676C60.2197 17.9187 59.8324 18.2687 59.5057 18.726C59.2351 19.146 59.0251 19.6173 58.8757 20.14C58.7264 20.6627 58.6517 21.218 58.6517 21.806C58.6517 22.394 58.7264 22.954 58.8757 23.486C59.0251 24.0087 59.2351 24.48 59.5057 24.9C59.8417 25.348 60.2384 25.698 60.6957 25.95C61.1531 26.202 61.6617 26.328 62.2217 26.328C62.7911 26.328 63.2997 26.2067 63.7477 25.964C64.2051 25.712 64.5971 25.3573 64.9237 24.9C65.1944 24.48 65.4044 24.0087 65.5537 23.486C65.7031 22.954 65.7777 22.394 65.7777 21.806ZM66.7997 21.806C66.7811 23.4673 66.3984 24.7647 65.6517 25.698C64.8397 26.706 63.6964 27.21 62.2217 27.21C60.7471 27.21 59.5991 26.706 58.7777 25.698C58.0124 24.7367 57.6297 23.4393 57.6297 21.806C57.6297 21.0313 57.7231 20.3313 57.9097 19.706C58.0964 19.0807 58.3671 18.5253 58.7217 18.04C59.1417 17.5267 59.6457 17.13 60.2337 16.85C60.8311 16.5607 61.4937 16.416 62.2217 16.416C62.9591 16.416 63.6171 16.556 64.1957 16.836C64.7837 17.116 65.2877 17.522 65.7077 18.054C66.0717 18.558 66.3471 19.1227 66.5337 19.748C66.7204 20.364 66.8091 21.05 66.7997 21.806ZM69.9933 26.79C69.9933 26.9207 69.9279 26.986 69.7973 26.986H69.1673C69.0366 26.986 68.9713 26.9207 68.9713 26.79V16.99C68.9713 16.794 68.9853 16.682 69.0133 16.654C69.0506 16.6167 69.1673 16.598 69.3633 16.598H70.0073C70.1286 16.598 70.2079 16.612 70.2453 16.64C70.2919 16.6587 70.3386 16.71 70.3853 16.794L75.6633 25.852V16.794C75.6633 16.6633 75.7286 16.598 75.8593 16.598H76.4753C76.6059 16.598 76.6713 16.6633 76.6713 16.794V26.594C76.6713 26.79 76.6526 26.9067 76.6153 26.944C76.5873 26.972 76.4753 26.986 76.2793 26.986H75.4253C75.3506 26.986 75.2946 26.9767 75.2573 26.958C75.2293 26.9393 75.1919 26.8927 75.1453 26.818L69.9933 17.914V26.79Z" fill="#181C32"/>
</svg>
