<svg width="275" height="164" viewBox="0 0 275 164" fill="none" xmlns="http://www.w3.org/2000/svg">
<path fill-rule="evenodd" clip-rule="evenodd" d="M10.001 136C10.0003 135.833 10 135.667 10 135.5C10 65.0837 67.0837 8 137.5 8C207.916 8 265 65.0837 265 135.5C265 135.667 265 135.833 264.999 136H228.999C229 135.833 229 135.667 229 135.5C229 84.9659 188.034 44 137.5 44C86.9659 44 46 84.9659 46 135.5C46 135.667 46.0004 135.833 46.0013 136H10.001Z" fill="url(#paint0_linear_1603_15907)"/>
<path d="M82.9375 93.9121V106.162H81.6934V99.8867H80.1211V105.533H78.9043V94.1582H80.1211V98.8203H81.6934V93.9121H82.9375ZM73.0254 103.045V95.3613H74.3242V101.903C75.4521 101.89 76.6895 101.801 78.084 101.527L78.2207 102.662C76.5391 102.963 75.1377 103.052 73.8184 103.045H73.0254ZM89.8555 94.6641V96.5234H92.918V94.6641H94.2031V95.8535H96.8828V93.9121H98.1816V101.309H96.8828V99.4219H94.2031V100.461H88.5566V94.6641H89.8555ZM89.8555 99.4219H92.918V97.5488H89.8555V99.4219ZM89.9375 103.852C89.9307 102.375 91.5029 101.534 94.0801 101.527C96.6436 101.534 98.2158 102.375 98.2227 103.852C98.2158 105.301 96.6436 106.142 94.0801 106.135C91.5029 106.142 89.9307 105.301 89.9375 103.852ZM91.2227 103.852C91.2158 104.665 92.2822 105.13 94.0801 105.137C95.8643 105.13 96.9307 104.665 96.9375 103.852C96.9307 103.004 95.8643 102.539 94.0801 102.525C92.2822 102.539 91.2158 103.004 91.2227 103.852ZM94.2031 98.3555H96.8828V96.8926H94.2031V98.3555ZM110.254 93.9258V103.209H108.955V102.033H106.494V101.117H108.955V93.9258H110.254ZM100.014 99.5176C102.276 99.4971 105.332 99.4766 107.943 99.1484L108.025 100.078C106.979 100.256 105.879 100.365 104.799 100.44V102.826H103.5V100.509C102.311 100.557 101.169 100.557 100.178 100.557L100.014 99.5176ZM100.971 96.5508C100.964 95.252 102.201 94.3906 104.02 94.3906C105.811 94.3906 107.055 95.252 107.055 96.5508C107.055 97.8564 105.811 98.6836 104.02 98.6836C102.208 98.6836 100.964 97.8564 100.971 96.5508ZM101.709 105.902V102.307H102.994V104.85H110.555V105.902H101.709ZM102.201 96.5508C102.194 97.2754 102.933 97.7266 104.02 97.7266C105.065 97.7266 105.817 97.2754 105.824 96.5508C105.817 95.8193 105.065 95.3477 104.02 95.3613C102.933 95.3477 102.194 95.8193 102.201 96.5508ZM116.16 94.7871C118.095 94.7803 119.489 95.9766 119.496 97.6992C119.489 99.4219 118.095 100.618 116.16 100.625C114.232 100.618 112.817 99.4219 112.824 97.6992C112.817 95.9766 114.232 94.7803 116.16 94.7871ZM112.236 102.471C114.465 102.471 117.555 102.45 120.234 102.061L120.33 103.004C117.562 103.537 114.588 103.551 112.4 103.551L112.236 102.471ZM114.109 97.6992C114.096 98.7861 114.971 99.4902 116.16 99.4902C117.35 99.4902 118.225 98.7861 118.225 97.6992C118.225 96.626 117.35 95.9082 116.16 95.9082C114.971 95.9082 114.096 96.626 114.109 97.6992ZM121 106.189V93.9121H122.299V106.189H121ZM137.898 93.9258V101.172H136.6V99.6816H133.51V98.6152H136.6V97.125H133.64C132.847 99.0938 131.008 100.481 128.355 101.24L127.836 100.229C130.734 99.4014 132.43 97.8428 132.662 95.8672H128.465V94.8008H134.07C134.07 95.252 134.022 95.6895 133.94 96.0996H136.6V93.9258H137.898ZM129.736 103.701C129.736 102.218 131.35 101.315 133.865 101.309C136.347 101.315 137.974 102.218 137.98 103.701C137.974 105.191 136.347 106.107 133.865 106.107C131.35 106.107 129.736 105.191 129.736 103.701ZM131.021 103.701C131.021 104.562 132.115 105.062 133.865 105.068C135.581 105.062 136.675 104.562 136.682 103.701C136.675 102.826 135.581 102.327 133.865 102.334C132.115 102.327 131.021 102.826 131.021 103.701ZM143.176 94.623C144.194 94.6162 145.062 94.999 145.637 95.6348H148.699V93.9121H149.998V101.145H148.699V99.4902H145.63C145.056 100.119 144.188 100.495 143.176 100.488C141.33 100.495 139.956 99.2715 139.963 97.5625C139.956 95.833 141.33 94.6162 143.176 94.623ZM141.207 97.5625C141.2 98.6357 142.027 99.3945 143.176 99.3809C144.29 99.3945 145.117 98.6357 145.117 97.5625C145.117 96.4619 144.29 95.7305 143.176 95.7441C142.027 95.7305 141.2 96.4619 141.207 97.5625ZM141.754 103.783C141.747 102.286 143.333 101.411 145.896 101.418C148.446 101.411 150.032 102.286 150.039 103.783C150.032 105.273 148.446 106.142 145.896 106.135C143.333 106.142 141.747 105.273 141.754 103.783ZM143.025 103.783C143.019 104.624 144.099 105.116 145.896 105.109C147.694 105.116 148.768 104.624 148.768 103.783C148.768 102.908 147.694 102.423 145.896 102.416C144.099 102.423 143.019 102.908 143.025 103.783ZM146.231 96.6738C146.313 96.9473 146.361 97.248 146.361 97.5625C146.361 97.8633 146.313 98.1572 146.231 98.4238H148.699V96.6738H146.231ZM159.691 96.0859C159.685 97.6309 160.792 99.1416 162.645 99.7773L161.975 100.789C160.601 100.317 159.582 99.333 159.049 98.123C158.516 99.4697 157.442 100.55 155.986 101.062L155.316 100.037C157.196 99.3945 158.372 97.7607 158.365 96.0996V95.7578H155.713V94.7051H162.316V95.7578H159.691V96.0859ZM157.217 102.908V101.855H165.516V106.162H164.217V102.908H157.217ZM161.947 98.0957V97.0293H164.217V93.9121H165.516V101.24H164.217V98.0957H161.947ZM177.615 93.9121V101.199H176.316V98.0957H174.033V97.0293H176.316V93.9121H177.615ZM167.402 100.092C169.303 99.4287 170.472 97.7744 170.465 96.0859V95.8125H167.812V94.7598H174.416V95.8125H171.791V96.0723C171.784 97.624 172.892 99.1348 174.744 99.7637L174.074 100.789C172.7 100.317 171.688 99.333 171.155 98.123C170.622 99.4902 169.549 100.591 168.086 101.131L167.402 100.092ZM169.371 103.852C169.364 102.396 170.937 101.548 173.514 101.541C176.077 101.548 177.649 102.396 177.656 103.852C177.649 105.308 176.077 106.155 173.514 106.162C170.937 106.155 169.364 105.308 169.371 103.852ZM170.656 103.852C170.649 104.679 171.716 105.15 173.514 105.137C175.298 105.15 176.364 104.679 176.371 103.852C176.364 103.018 175.298 102.546 173.514 102.553C171.716 102.546 170.649 103.018 170.656 103.852ZM183.85 95.7441C183.843 97.46 184.957 98.9912 186.816 99.5996L186.105 100.611C184.759 100.119 183.768 99.1758 183.234 97.9453C182.708 99.3467 181.642 100.447 180.158 100.98L179.461 99.9414C181.416 99.2715 182.551 97.6377 182.564 95.7988V94.5957H183.85V95.7441ZM181.471 103.824C181.464 102.341 183.036 101.479 185.613 101.486C188.177 101.479 189.749 102.341 189.756 103.824C189.749 105.301 188.177 106.142 185.613 106.135C183.036 106.142 181.464 105.301 181.471 103.824ZM182.756 103.824C182.749 104.638 183.815 105.116 185.613 105.109C187.397 105.116 188.464 104.638 188.471 103.824C188.464 102.983 187.397 102.498 185.613 102.498C183.815 102.498 182.749 102.983 182.756 103.824ZM185.832 97.4668V96.4004H188.416V93.9121H189.715V101.145H188.416V97.4668H185.832ZM202.771 100.311V101.35H191.602V100.311H202.771ZM192.805 96.7695C192.798 95.2314 194.514 94.3154 197.18 94.3223C199.832 94.3154 201.548 95.2314 201.555 96.7695C201.548 98.3145 199.832 99.251 197.18 99.2578C194.514 99.251 192.798 98.3145 192.805 96.7695ZM193.01 105.902V102.348H194.322V104.85H201.514V105.902H193.01ZM194.145 96.7695C194.138 97.6787 195.3 98.1914 197.18 98.1914C199.053 98.1914 200.222 97.6787 200.215 96.7695C200.222 95.8945 199.053 95.3613 197.18 95.3613C195.3 95.3613 194.138 95.8945 194.145 96.7695Z" fill="#343A40"/>
<path d="M27.583 154.474V155.997H22.3682V160.362H20.5225V155.997H15.3809V154.474H27.583ZM16.6113 150.489C16.604 148.636 18.5815 147.464 21.4453 147.457C24.3091 147.464 26.3086 148.636 26.3086 150.489C26.3086 152.298 24.3091 153.463 21.4453 153.463C18.5815 153.463 16.604 152.298 16.6113 150.489ZM18.5303 150.489C18.5229 151.441 19.6582 151.976 21.4453 151.983C23.2471 151.976 24.375 151.441 24.375 150.489C24.375 149.5 23.2471 148.958 21.4453 148.951C19.6582 148.958 18.5229 149.5 18.5303 150.489ZM35.4346 148.058C35.4272 149.632 37.0386 151.368 40.0928 151.749L39.3604 153.258C37.0312 152.921 35.3247 151.844 34.4531 150.401C33.5742 151.837 31.875 152.921 29.5752 153.258L28.8281 151.749C31.8604 151.368 33.4644 149.632 33.4717 148.058V147.413H35.4346V148.058ZM28.3594 155.792V154.269H40.5176V155.792H35.332V160.348H33.4863V155.792H28.3594Z" fill="#01BAD7"/>
<path d="M239.746 147.574C241.782 147.56 243.262 148.724 243.262 150.401C243.262 152.064 241.782 153.243 239.746 153.229C237.717 153.243 236.238 152.064 236.245 150.401C236.238 148.724 237.717 147.56 239.746 147.574ZM235.425 154.049C237.791 154.042 241.138 153.998 243.979 153.565L244.097 154.942C242.998 155.162 241.87 155.301 240.757 155.389V159.952H238.896V155.499C237.725 155.55 236.619 155.558 235.659 155.572L235.425 154.049ZM238.047 150.401C238.04 151.236 238.75 151.72 239.746 151.705C240.771 151.72 241.489 151.236 241.489 150.401C241.489 149.552 240.771 149.061 239.746 149.068C238.75 149.061 238.04 149.552 238.047 150.401ZM244.785 160.348V147.032H246.631V160.348H244.785ZM259.595 147.018V155.074H257.734V152.452H256.006V150.929H257.734V147.018H259.595ZM248.389 149.669V148.175H251.406V146.9H253.252V148.175H256.24V149.669H248.389ZM249.121 152.496C249.121 151.104 250.461 150.108 252.329 150.108C254.204 150.108 255.522 151.104 255.522 152.496C255.522 153.954 254.197 154.906 252.329 154.913C250.461 154.906 249.121 153.954 249.121 152.496ZM250.63 160.201V155.646H259.595V160.201H250.63ZM250.923 152.496C250.908 153.17 251.458 153.529 252.329 153.536C253.179 153.529 253.735 153.17 253.735 152.496C253.735 151.866 253.179 151.507 252.329 151.515C251.458 151.507 250.908 151.866 250.923 152.496ZM252.505 158.707H257.764V157.11H252.505V158.707Z" fill="#F47272"/>
<path d="M117.1 123.568V125.396H110.842V130.635H108.627V125.396H102.457V123.568H117.1ZM103.934 118.787C103.925 116.563 106.298 115.157 109.734 115.148C113.171 115.157 115.57 116.563 115.57 118.787C115.57 120.958 113.171 122.355 109.734 122.355C106.298 122.355 103.925 120.958 103.934 118.787ZM106.236 118.787C106.228 119.93 107.59 120.571 109.734 120.58C111.896 120.571 113.25 119.93 113.25 118.787C113.25 117.601 111.896 116.95 109.734 116.941C107.59 116.95 106.228 117.601 106.236 118.787ZM126.521 115.869C126.513 117.759 128.446 119.842 132.111 120.299L131.232 122.109C128.438 121.705 126.39 120.413 125.344 118.682C124.289 120.404 122.25 121.705 119.49 122.109L118.594 120.299C122.232 119.842 124.157 117.759 124.166 115.869V115.096H126.521V115.869ZM118.031 125.15V123.322H132.621V125.15H126.398V130.617H124.184V125.15H118.031Z" fill="#00B4CD"/>
<path d="M143.723 117.912V124.488H142.424V117.912H143.723ZM133.811 121.316C133.817 119.635 135.198 118.466 137.078 118.473C138.951 118.466 140.332 119.635 140.332 121.316C140.332 122.991 138.951 124.16 137.078 124.146C135.198 124.16 133.817 122.991 133.811 121.316ZM135.082 121.316C135.075 122.376 135.916 123.08 137.078 123.08C138.227 123.08 139.061 122.376 139.061 121.316C139.061 120.271 138.227 119.56 137.078 119.566C135.916 119.56 135.075 120.271 135.082 121.316ZM135.711 130.012V125.076H136.982V126.457H142.438V125.076H143.723V130.012H135.711ZM136.982 128.945H142.438V127.482H136.982V128.945ZM155.836 117.912V130.162H154.537V117.912H155.836ZM146.416 127.045V119.102H147.701V125.924C149.492 125.917 151.372 125.76 153.334 125.363L153.512 126.457C151.345 126.901 149.376 127.052 147.441 127.045H146.416ZM167.307 117.912V122.656H169.275V123.723H167.307V130.189H166.008V117.912H167.307ZM158.283 127.141V119.088H164.012V120.141H159.582V126.061C161.64 126.054 163.178 125.965 164.928 125.65L165.092 126.744C163.171 127.086 161.544 127.147 159.268 127.141H158.283ZM171.258 129.096C170.725 129.089 170.28 128.658 170.287 128.125C170.28 127.592 170.725 127.154 171.258 127.154C171.784 127.154 172.222 127.592 172.229 128.125C172.222 128.658 171.784 129.089 171.258 129.096Z" fill="#343A40"/>
<g filter="url(#filter0_d_1603_15907)">
<mask id="path-6-inside-1_1603_15907" fill="white">
<path fill-rule="evenodd" clip-rule="evenodd" d="M10.001 136C10.0003 135.833 10 135.667 10 135.5C10 65.0837 67.0837 8 137.5 8C207.916 8 265 65.0837 265 135.5C265 135.667 265 135.833 264.999 136H228.999C229 135.833 229 135.667 229 135.5C229 84.9659 188.034 44 137.5 44C86.9659 44 46 84.9659 46 135.5C46 135.667 46.0004 135.833 46.0013 136H10.001Z"/>
</mask>
<path d="M10.001 136L8.00097 136.008L8.00862 138H10.001V136ZM264.999 136V138H266.991L266.999 136.008L264.999 136ZM228.999 136L226.999 135.989L226.988 138H228.999V136ZM46.0013 136V138H48.0121L48.0013 135.989L46.0013 136ZM8 135.5C8 135.669 8.00032 135.839 8.00097 136.008L12.0009 135.992C12.0003 135.828 12 135.664 12 135.5H8ZM137.5 6C65.9791 6 8 63.9791 8 135.5H12C12 66.1883 68.1883 10 137.5 10V6ZM267 135.5C267 63.9791 209.021 6 137.5 6V10C206.812 10 263 66.1883 263 135.5H267ZM266.999 136.008C267 135.839 267 135.669 267 135.5H263C263 135.664 263 135.828 262.999 135.992L266.999 136.008ZM228.999 138H264.999V134H228.999V138ZM230.999 136.011C231 135.841 231 135.67 231 135.5H227C227 135.663 227 135.826 226.999 135.989L230.999 136.011ZM231 135.5C231 83.8614 189.139 42 137.5 42V46C186.929 46 227 86.0705 227 135.5H231ZM137.5 42C85.8614 42 44 83.8614 44 135.5H48C48 86.0705 88.0705 46 137.5 46V42ZM44 135.5C44 135.67 44.0005 135.841 44.0014 136.011L48.0013 135.989C48.0004 135.826 48 135.663 48 135.5H44ZM10.001 138H46.0013V134H10.001V138Z" fill="white" mask="url(#path-6-inside-1_1603_15907)"/>
<path d="M137.5 34L144.861 43H130.139L137.5 34Z" fill="white"/>
</g>
<defs>
<filter id="filter0_d_1603_15907" x="0" y="0" width="275" height="148" filterUnits="userSpaceOnUse" color-interpolation-filters="sRGB">
<feFlood flood-opacity="0" result="BackgroundImageFix"/>
<feColorMatrix in="SourceAlpha" type="matrix" values="0 0 0 0 0 0 0 0 0 0 0 0 0 0 0 0 0 0 127 0" result="hardAlpha"/>
<feOffset dy="2"/>
<feGaussianBlur stdDeviation="5"/>
<feComposite in2="hardAlpha" operator="out"/>
<feColorMatrix type="matrix" values="0 0 0 0 0 0 0 0 0 0 0 0 0 0 0 0 0 0 0.1 0"/>
<feBlend mode="normal" in2="BackgroundImageFix" result="effect1_dropShadow_1603_15907"/>
<feBlend mode="normal" in="SourceGraphic" in2="effect1_dropShadow_1603_15907" result="shape"/>
</filter>
<linearGradient id="paint0_linear_1603_15907" x1="10" y1="123" x2="273.5" y2="123" gradientUnits="userSpaceOnUse">
<stop stop-color="#00CBEA"/>
<stop offset="0.490156" stop-color="#FFD15B"/>
<stop offset="1" stop-color="#F47272"/>
</linearGradient>
</defs>
</svg>
