<svg width="336" height="122" viewBox="0 0 336 122" fill="none" xmlns="http://www.w3.org/2000/svg">
<path d="M0 15H217C219.209 15 221 16.7909 221 19V27C221 29.2091 219.209 31 217 31H0V15Z" fill="#00CBEA"/>
<path d="M0.5625 9V8.29688L2.76855 6.07324C3.46289 5.34375 3.81445 4.93945 3.81445 4.38574C3.81445 3.76172 3.30469 3.35742 2.63672 3.35742C1.93359 3.35742 1.47656 3.80566 1.47656 4.48242H0.5625C0.553711 3.32227 1.44141 2.54883 2.6543 2.54883C3.88477 2.54883 4.72852 3.32227 4.7373 4.35938C4.72852 5.07129 4.39453 5.63379 3.19922 6.81152L1.90723 8.12109V8.17383H4.84277V9H0.5625ZM8.12988 9.08789C6.65332 9.08789 5.79199 7.90137 5.79199 5.81836C5.79199 3.75293 6.6709 2.54883 8.12988 2.54883C9.58887 2.54883 10.4678 3.75293 10.4678 5.81836C10.4678 7.90137 9.59766 9.08789 8.12988 9.08789ZM8.12988 8.25293C8.99121 8.25293 9.50098 7.40918 9.50098 5.81836C9.50098 4.23633 8.98242 3.36621 8.12988 3.36621C7.27734 3.36621 6.75879 4.23633 6.75879 5.81836C6.75879 7.40918 7.26855 8.25293 8.12988 8.25293ZM11.4697 9V8.29688L13.6758 6.07324C14.3701 5.34375 14.7217 4.93945 14.7217 4.38574C14.7217 3.76172 14.2119 3.35742 13.5439 3.35742C12.8408 3.35742 12.3838 3.80566 12.3838 4.48242H11.4697C11.4609 3.32227 12.3486 2.54883 13.5615 2.54883C14.792 2.54883 15.6357 3.32227 15.6445 4.35938C15.6357 5.07129 15.3018 5.63379 14.1064 6.81152L12.8145 8.12109V8.17383H15.75V9H11.4697ZM19.0811 9.08789C17.7627 9.08789 16.8223 8.37598 16.7871 7.33887H17.7715C17.8066 7.90137 18.3604 8.25293 19.0723 8.25293C19.8369 8.25293 20.3994 7.83105 20.3994 7.21582C20.3994 6.5918 19.8721 6.13477 18.9668 6.13477H18.4219V5.34375H18.9668C19.6875 5.34375 20.1973 4.93945 20.1973 4.33301C20.1973 3.75293 19.7666 3.35742 19.0898 3.35742C18.4482 3.35742 17.8857 3.70898 17.8594 4.28906H16.9277C16.9541 3.25195 17.9121 2.54883 19.0986 2.54883C20.3467 2.54883 21.1377 3.33984 21.1289 4.28027C21.1377 5.00098 20.6895 5.52832 20.0039 5.69531V5.73926C20.874 5.8623 21.375 6.44238 21.375 7.25098C21.375 8.31445 20.3994 9.08789 19.0811 9.08789ZM22.8691 9.06152C22.5264 9.06152 22.2363 8.78027 22.2451 8.4375C22.2363 8.09473 22.5264 7.81348 22.8691 7.81348C23.2031 7.81348 23.4932 8.09473 23.4932 8.4375C23.4932 8.78027 23.2031 9.06152 22.8691 9.06152ZM26.5957 9.08789C25.1191 9.08789 24.2578 7.90137 24.2578 5.81836C24.2578 3.75293 25.1367 2.54883 26.5957 2.54883C28.0547 2.54883 28.9336 3.75293 28.9336 5.81836C28.9336 7.90137 28.0635 9.08789 26.5957 9.08789ZM26.5957 8.25293C27.457 8.25293 27.9668 7.40918 27.9668 5.81836C27.9668 4.23633 27.4482 3.36621 26.5957 3.36621C25.7432 3.36621 25.2246 4.23633 25.2246 5.81836C25.2246 7.40918 25.7344 8.25293 26.5957 8.25293ZM32.124 2.54883C33.293 2.55762 34.5234 3.26074 34.5234 5.58984C34.5234 7.82227 33.5654 9.08789 32.0361 9.08789C30.8672 9.08789 30.041 8.36719 29.8916 7.33008H30.8496C30.9814 7.86621 31.3945 8.24414 32.0361 8.24414C33.0205 8.24414 33.5918 7.38281 33.6006 5.93262H33.5215C33.1787 6.46875 32.5811 6.79395 31.8955 6.79395C30.7529 6.79395 29.8389 5.92383 29.8389 4.70215C29.8389 3.48926 30.7441 2.54004 32.124 2.54883ZM32.124 3.35742C31.3506 3.35742 30.7793 3.95508 30.7793 4.68457C30.7793 5.42285 31.333 6.00293 32.1064 6.00293C32.8711 6.00293 33.4688 5.37891 33.4688 4.67578C33.4688 3.99023 32.9062 3.35742 32.124 3.35742ZM35.7451 6.57422C35.7539 4.92188 36.2197 3.54199 37.0459 2.36426H37.9072C37.3008 3.23438 36.7207 5.00977 36.7207 6.57422C36.7207 8.14746 37.3008 9.91406 37.9072 10.793H37.0459C36.2197 9.61523 35.7539 8.23535 35.7451 6.57422ZM44.6836 1.87207V3.86719H45.8174V4.55273H44.6836V6.52148H43.8398V1.87207H44.6836ZM42.1348 6.6709C43.7432 6.6709 44.7451 7.2334 44.7451 8.2002C44.7451 9.16699 43.7432 9.73828 42.1348 9.72949C40.5088 9.73828 39.4893 9.16699 39.4893 8.2002C39.4893 7.2334 40.5088 6.6709 42.1348 6.6709ZM42.1348 7.34766C40.9922 7.33887 40.3066 7.65527 40.3154 8.2002C40.3066 8.74512 40.9922 9.06152 42.1348 9.06152C43.251 9.06152 43.9365 8.74512 43.9453 8.2002C43.9365 7.65527 43.251 7.33887 42.1348 7.34766ZM42.3369 2.45215V3.12891H39.6475V5.27344C41.1987 5.26904 42.0732 5.2207 43.0664 5.01855L43.1455 5.69531C42.0908 5.91504 41.1504 5.9502 39.4453 5.9502H38.8213V2.45215H42.3369ZM52.8135 1.88086V6.49512H51.9785V6.11719H50.4404V5.58984H51.9785V1.88086H52.8135ZM46.248 4.78125C47.7686 4.79004 49.7021 4.77246 51.3984 4.58789L51.4424 5.12402C50.6997 5.2251 49.9307 5.28662 49.1748 5.32617V6.5127H48.3486V5.36133C47.6367 5.37891 46.96 5.3833 46.3447 5.37891L46.248 4.78125ZM52.8135 6.75879V8.45508H48.2783V9.06152H53.0508V9.66797H47.4609V7.90137H51.9873V7.33887H47.4258V6.75879H52.8135ZM48.8057 2.0127C49.9746 2.0127 50.7656 2.47852 50.7744 3.19922C50.7656 3.9375 49.9746 4.37695 48.8057 4.37695C47.6104 4.37695 46.8281 3.9375 46.8369 3.19922C46.8281 2.47852 47.6104 2.0127 48.8057 2.0127ZM48.8057 2.5752C48.0762 2.5752 47.6191 2.82129 47.6191 3.19922C47.6191 3.57715 48.0762 3.81445 48.8057 3.81445C49.5176 3.81445 49.9834 3.57715 49.9834 3.19922C49.9834 2.82129 49.5176 2.5752 48.8057 2.5752ZM56.2061 6.57422C56.1973 8.23535 55.7314 9.61523 54.9053 10.793H54.0439C54.6504 9.91406 55.2305 8.14746 55.2305 6.57422C55.2305 5.00977 54.6504 3.23438 54.0439 2.36426H54.9053C55.7314 3.54199 56.1973 4.92188 56.2061 6.57422Z" fill="#00A3FF"/>
<path d="M0.5625 50V49.2969L2.76855 47.0732C3.46289 46.3438 3.81445 45.9395 3.81445 45.3857C3.81445 44.7617 3.30469 44.3574 2.63672 44.3574C1.93359 44.3574 1.47656 44.8057 1.47656 45.4824H0.5625C0.553711 44.3223 1.44141 43.5488 2.6543 43.5488C3.88477 43.5488 4.72852 44.3223 4.7373 45.3594C4.72852 46.0713 4.39453 46.6338 3.19922 47.8115L1.90723 49.1211V49.1738H4.84277V50H0.5625ZM8.12988 50.0879C6.65332 50.0879 5.79199 48.9014 5.79199 46.8184C5.79199 44.7529 6.6709 43.5488 8.12988 43.5488C9.58887 43.5488 10.4678 44.7529 10.4678 46.8184C10.4678 48.9014 9.59766 50.0879 8.12988 50.0879ZM8.12988 49.2529C8.99121 49.2529 9.50098 48.4092 9.50098 46.8184C9.50098 45.2363 8.98242 44.3662 8.12988 44.3662C7.27734 44.3662 6.75879 45.2363 6.75879 46.8184C6.75879 48.4092 7.26855 49.2529 8.12988 49.2529ZM11.4697 50V49.2969L13.6758 47.0732C14.3701 46.3438 14.7217 45.9395 14.7217 45.3857C14.7217 44.7617 14.2119 44.3574 13.5439 44.3574C12.8408 44.3574 12.3838 44.8057 12.3838 45.4824H11.4697C11.4609 44.3223 12.3486 43.5488 13.5615 43.5488C14.792 43.5488 15.6357 44.3223 15.6445 45.3594C15.6357 46.0713 15.3018 46.6338 14.1064 47.8115L12.8145 49.1211V49.1738H15.75V50H11.4697ZM19.0811 50.0879C17.7627 50.0879 16.8223 49.376 16.7871 48.3389H17.7715C17.8066 48.9014 18.3604 49.2529 19.0723 49.2529C19.8369 49.2529 20.3994 48.8311 20.3994 48.2158C20.3994 47.5918 19.8721 47.1348 18.9668 47.1348H18.4219V46.3438H18.9668C19.6875 46.3438 20.1973 45.9395 20.1973 45.333C20.1973 44.7529 19.7666 44.3574 19.0898 44.3574C18.4482 44.3574 17.8857 44.709 17.8594 45.2891H16.9277C16.9541 44.252 17.9121 43.5488 19.0986 43.5488C20.3467 43.5488 21.1377 44.3398 21.1289 45.2803C21.1377 46.001 20.6895 46.5283 20.0039 46.6953V46.7393C20.874 46.8623 21.375 47.4424 21.375 48.251C21.375 49.3145 20.3994 50.0879 19.0811 50.0879ZM22.8691 50.0615C22.5264 50.0615 22.2363 49.7803 22.2451 49.4375C22.2363 49.0947 22.5264 48.8135 22.8691 48.8135C23.2031 48.8135 23.4932 49.0947 23.4932 49.4375C23.4932 49.7803 23.2031 50.0615 22.8691 50.0615ZM26.5957 50.0879C25.1191 50.0879 24.2578 48.9014 24.2578 46.8184C24.2578 44.7529 25.1367 43.5488 26.5957 43.5488C28.0547 43.5488 28.9336 44.7529 28.9336 46.8184C28.9336 48.9014 28.0635 50.0879 26.5957 50.0879ZM26.5957 49.2529C27.457 49.2529 27.9668 48.4092 27.9668 46.8184C27.9668 45.2363 27.4482 44.3662 26.5957 44.3662C25.7432 44.3662 25.2246 45.2363 25.2246 46.8184C25.2246 48.4092 25.7344 49.2529 26.5957 49.2529ZM32.1592 50.0879C30.7793 50.0879 29.8125 49.3408 29.8213 48.3037C29.8125 47.4863 30.4014 46.8184 31.1484 46.7041V46.6689C30.498 46.5195 30.0586 45.9395 30.0586 45.2451C30.0586 44.2695 30.9463 43.5488 32.1592 43.5488C33.3633 43.5488 34.2422 44.2695 34.251 45.2451C34.2422 45.9395 33.8027 46.5195 33.1611 46.6689V46.7041C33.8994 46.8184 34.4883 47.4863 34.4971 48.3037C34.4883 49.3408 33.5215 50.0879 32.1592 50.0879ZM32.1592 49.2881C32.9854 49.2881 33.5127 48.8574 33.5127 48.2334C33.5127 47.5742 32.9414 47.0996 32.1592 47.0996C31.3682 47.0996 30.7881 47.5742 30.8057 48.2334C30.7881 48.8574 31.3154 49.2881 32.1592 49.2881ZM32.1592 46.335C32.8271 46.335 33.3018 45.9307 33.3018 45.333C33.3018 44.7441 32.8359 44.3398 32.1592 44.3398C31.4561 44.3398 30.999 44.7354 30.999 45.333C30.999 45.9307 31.4824 46.335 32.1592 46.335ZM35.7012 47.5742C35.71 45.9219 36.1758 44.542 37.002 43.3643H37.8633C37.2568 44.2344 36.6768 46.0098 36.6768 47.5742C36.6768 49.1475 37.2568 50.9141 37.8633 51.793H37.002C36.1758 50.6152 35.71 49.2354 35.7012 47.5742ZM45.0088 42.8809V48.6465H44.1738V45.6846H42.6709V45.0078H44.1738V42.8809H45.0088ZM45.2197 49.9033V50.5801H39.8936V48.1279H40.7285V49.9033H45.2197ZM41.2646 44.4717C41.2646 45.4561 41.9766 46.4404 43.1631 46.8359L42.7324 47.5039C41.8491 47.1919 41.1943 46.5591 40.8516 45.7812C40.5088 46.647 39.8188 47.3457 38.8828 47.6797L38.4521 47.0029C39.665 46.5898 40.4121 45.5527 40.4121 44.4717V44.1641H38.707V43.4785H42.9521V44.1641H41.2646V44.4717ZM52.7695 42.8809V47.4951H51.9346V47.1172H50.3965V46.5898H51.9346V42.8809H52.7695ZM46.2041 45.7812C47.7246 45.79 49.6582 45.7725 51.3545 45.5879L51.3984 46.124C50.6558 46.2251 49.8867 46.2866 49.1309 46.3262V47.5127H48.3047V46.3613C47.5928 46.3789 46.916 46.3833 46.3008 46.3789L46.2041 45.7812ZM52.7695 47.7588V49.4551H48.2344V50.0615H53.0068V50.668H47.417V48.9014H51.9434V48.3389H47.3818V47.7588H52.7695ZM48.7617 43.0127C49.9307 43.0127 50.7217 43.4785 50.7305 44.1992C50.7217 44.9375 49.9307 45.377 48.7617 45.377C47.5664 45.377 46.7842 44.9375 46.793 44.1992C46.7842 43.4785 47.5664 43.0127 48.7617 43.0127ZM48.7617 43.5752C48.0322 43.5752 47.5752 43.8213 47.5752 44.1992C47.5752 44.5771 48.0322 44.8145 48.7617 44.8145C49.4736 44.8145 49.9395 44.5771 49.9395 44.1992C49.9395 43.8213 49.4736 43.5752 48.7617 43.5752ZM56.1621 47.5742C56.1533 49.2354 55.6875 50.6152 54.8613 51.793H54C54.6064 50.9141 55.1865 49.1475 55.1865 47.5742C55.1865 46.0098 54.6064 44.2344 54 43.3643H54.8613C55.6875 44.542 56.1533 45.9219 56.1621 47.5742Z" fill="#858E96"/>
<path d="M0.5625 100V99.2969L2.76855 97.0732C3.46289 96.3438 3.81445 95.9395 3.81445 95.3857C3.81445 94.7617 3.30469 94.3574 2.63672 94.3574C1.93359 94.3574 1.47656 94.8057 1.47656 95.4824H0.5625C0.553711 94.3223 1.44141 93.5488 2.6543 93.5488C3.88477 93.5488 4.72852 94.3223 4.7373 95.3594C4.72852 96.0713 4.39453 96.6338 3.19922 97.8115L1.90723 99.1211V99.1738H4.84277V100H0.5625ZM8.12988 100.088C6.65332 100.088 5.79199 98.9014 5.79199 96.8184C5.79199 94.7529 6.6709 93.5488 8.12988 93.5488C9.58887 93.5488 10.4678 94.7529 10.4678 96.8184C10.4678 98.9014 9.59766 100.088 8.12988 100.088ZM8.12988 99.2529C8.99121 99.2529 9.50098 98.4092 9.50098 96.8184C9.50098 95.2363 8.98242 94.3662 8.12988 94.3662C7.27734 94.3662 6.75879 95.2363 6.75879 96.8184C6.75879 98.4092 7.26855 99.2529 8.12988 99.2529ZM11.4697 100V99.2969L13.6758 97.0732C14.3701 96.3438 14.7217 95.9395 14.7217 95.3857C14.7217 94.7617 14.2119 94.3574 13.5439 94.3574C12.8408 94.3574 12.3838 94.8057 12.3838 95.4824H11.4697C11.4609 94.3223 12.3486 93.5488 13.5615 93.5488C14.792 93.5488 15.6357 94.3223 15.6445 95.3594C15.6357 96.0713 15.3018 96.6338 14.1064 97.8115L12.8145 99.1211V99.1738H15.75V100H11.4697ZM16.8223 100V99.2969L19.0283 97.0732C19.7227 96.3438 20.0742 95.9395 20.0742 95.3857C20.0742 94.7617 19.5645 94.3574 18.8965 94.3574C18.1934 94.3574 17.7363 94.8057 17.7363 95.4824H16.8223C16.8135 94.3223 17.7012 93.5488 18.9141 93.5488C20.1445 93.5488 20.9883 94.3223 20.9971 95.3594C20.9883 96.0713 20.6543 96.6338 19.459 97.8115L18.167 99.1211V99.1738H21.1025V100H16.8223ZM22.7988 100.062C22.4561 100.062 22.166 99.7803 22.1748 99.4375C22.166 99.0947 22.4561 98.8135 22.7988 98.8135C23.1328 98.8135 23.4229 99.0947 23.4229 99.4375C23.4229 99.7803 23.1328 100.062 22.7988 100.062ZM26.5254 100.088C25.0488 100.088 24.1875 98.9014 24.1875 96.8184C24.1875 94.7529 25.0664 93.5488 26.5254 93.5488C27.9844 93.5488 28.8633 94.7529 28.8633 96.8184C28.8633 98.9014 27.9932 100.088 26.5254 100.088ZM26.5254 99.2529C27.3867 99.2529 27.8965 98.4092 27.8965 96.8184C27.8965 95.2363 27.3779 94.3662 26.5254 94.3662C25.6729 94.3662 25.1543 95.2363 25.1543 96.8184C25.1543 98.4092 25.6641 99.2529 26.5254 99.2529ZM32.0537 93.5488C33.2227 93.5576 34.4531 94.2607 34.4531 96.5898C34.4531 98.8223 33.4951 100.088 31.9658 100.088C30.7969 100.088 29.9707 99.3672 29.8213 98.3301H30.7793C30.9111 98.8662 31.3242 99.2441 31.9658 99.2441C32.9502 99.2441 33.5215 98.3828 33.5303 96.9326H33.4512C33.1084 97.4688 32.5107 97.7939 31.8252 97.7939C30.6826 97.7939 29.7686 96.9238 29.7686 95.7021C29.7686 94.4893 30.6738 93.54 32.0537 93.5488ZM32.0537 94.3574C31.2803 94.3574 30.709 94.9551 30.709 95.6846C30.709 96.4229 31.2627 97.0029 32.0361 97.0029C32.8008 97.0029 33.3984 96.3789 33.3984 95.6758C33.3984 94.9902 32.8359 94.3574 32.0537 94.3574ZM35.6748 97.5742C35.6836 95.9219 36.1494 94.542 36.9756 93.3643H37.8369C37.2305 94.2344 36.6504 96.0098 36.6504 97.5742C36.6504 99.1475 37.2305 100.914 37.8369 101.793H36.9756C36.1494 100.615 35.6836 99.2354 35.6748 97.5742ZM44.9824 92.8809V98.6465H44.1475V95.6846H42.6445V95.0078H44.1475V92.8809H44.9824ZM45.1934 99.9033V100.58H39.8672V98.1279H40.7021V99.9033H45.1934ZM41.2383 94.4717C41.2383 95.4561 41.9502 96.4404 43.1367 96.8359L42.7061 97.5039C41.8228 97.1919 41.168 96.5591 40.8252 95.7812C40.4824 96.647 39.7925 97.3457 38.8564 97.6797L38.4258 97.0029C39.6387 96.5898 40.3857 95.5527 40.3857 94.4717V94.1641H38.6807V93.4785H42.9258V94.1641H41.2383V94.4717ZM52.7607 92.8809V98.6992H51.9258V96.0186H49.7637V95.3506H51.9258V94.5244H49.7637V93.8564H51.9258V92.8809H52.7607ZM52.9629 99.9033V100.58H47.6279V98.1895H48.4717V99.9033H52.9629ZM47.4873 93.4258V96.8711C48.5332 96.8711 49.5264 96.8052 50.6514 96.5986L50.7393 97.2842C49.4912 97.5215 48.4277 97.5654 47.2676 97.5742H46.6611V93.4258H47.4873ZM61.1631 96.7041V97.3721H53.9736V96.7041H57.1641V95.8691H54.8701V93.2324H60.2754V93.8916H55.6963V95.2012H60.3281V95.8691H57.9727V96.7041H61.1631ZM57.5596 97.8818C59.2559 97.8818 60.2754 98.4004 60.2754 99.3145C60.2754 100.229 59.2559 100.738 57.5596 100.747C55.8545 100.738 54.8262 100.229 54.8262 99.3145C54.8262 98.4004 55.8545 97.8818 57.5596 97.8818ZM57.5596 98.5322C56.3555 98.5322 55.6699 98.8135 55.6699 99.3145C55.6699 99.8154 56.3555 100.097 57.5596 100.088C58.7461 100.097 59.4404 99.8154 59.4404 99.3145C59.4404 98.8135 58.7461 98.5322 57.5596 98.5322ZM68.2998 92.8721V100.747H67.4561V92.8721H68.2998ZM65.9531 93.7158C65.9531 96.0186 64.9688 98.0225 62.2705 99.3145L61.8311 98.6377C63.9272 97.6401 64.9468 96.2207 65.1094 94.3838H62.209V93.7158H65.9531ZM71.6924 97.5742C71.6836 99.2354 71.2178 100.615 70.3916 101.793H69.5303C70.1367 100.914 70.7168 99.1475 70.7168 97.5742C70.7168 96.0098 70.1367 94.2344 69.5303 93.3643H70.3916C71.2178 94.542 71.6836 95.9219 71.6924 97.5742Z" fill="#858E96"/>
<path opacity="0.3" d="M0 55H182C184.209 55 186 56.7909 186 59V67C186 69.2091 184.209 71 182 71H0V55Z" fill="#00CBEA"/>
<path d="M0 106H251C253.209 106 255 107.791 255 110V118C255 120.209 253.209 122 251 122H0V106Z" fill="#858E96"/>
<line x1="0.5" y1="80.5" x2="335.5" y2="80.5" stroke="#CED4DA" stroke-linecap="round" stroke-dasharray="3 3"/>
</svg>
