<svg width="200" height="154" viewBox="0 0 200 154" fill="none" xmlns="http://www.w3.org/2000/svg">
<g clip-path="url(#clip0_1951_9432)">
<path opacity="0.44" d="M195.11 88.6659C198.887 70.6029 199.167 48.7389 189.156 32.9931C180.344 19.1327 167.225 4.4877 151.552 1.08189C141.463 -1.10756 129.257 0.510199 119.106 1.65966C108.359 2.87602 97.6981 5.15061 87.3529 8.59291C59.0969 18.0075 24.8685 37.6578 15.6181 70.7063C10.2965 89.7363 13.6354 112.33 26.6869 126.124C30.9381 130.618 36.4665 134.206 42.3597 133.939C47.8455 133.696 52.6988 130.223 57.5582 127.425C68.8825 120.906 81.4779 117.64 93.9273 114.434C105.227 111.521 116.917 108.596 128.338 110.846C136.153 112.385 143.403 116.271 150.92 119.087C158.437 121.903 166.745 123.642 174.256 120.796C186.079 116.32 192.307 102.07 195.11 88.6598V88.6659Z" fill="#AFD5EB"/>
<path opacity="0.57" d="M177.43 111.133C185.226 96.6037 190.968 77.7988 186.279 61.3597C182.149 46.8911 174.504 30.5249 161.824 23.1477C153.656 18.3978 142.709 16.3422 133.659 14.4568C124.068 12.462 114.294 11.4098 104.49 11.4524C77.7123 11.5801 43.2103 18.854 26.9171 44.7807C17.539 59.7115 14.7474 80.1707 22.5504 95.7827C25.0926 100.867 28.9667 105.532 34.1241 106.973C38.9226 108.317 43.9887 106.693 48.8907 105.653C60.3123 103.227 72.0137 103.975 83.5691 104.735C94.0602 105.422 104.892 106.207 114.191 111.382C120.559 114.928 125.838 120.335 131.621 124.896C137.405 129.458 144.144 133.313 151.345 132.985C162.681 132.468 171.646 121.922 177.436 111.133H177.43Z" fill="#F8FCFF"/>
<path d="M69.6132 132.935C69.6132 132.935 40.6578 135.003 39.6847 123.277C38.7177 111.546 48.1384 119.099 47.2018 111.436C46.2652 103.767 35.6281 109.678 35.9383 100.446C36.2485 91.2141 44.7204 98.8954 43.4858 92.6615C42.2573 86.4338 32.2831 77.0678 40.9254 73.4613C49.5676 69.8609 53.8979 92.3939 56.0508 89.2192C58.2038 86.0445 61.5731 75.9366 65.7452 83.4537C69.9173 90.9708 63.0145 104.533 68.3908 101.529C73.7671 98.5244 75.0321 95.3011 78.0365 97.4723C84.2156 101.93 80.153 117.5 69.6071 132.941L69.6132 132.935Z" fill="url(#paint0_linear_1951_9432)"/>
<path d="M71.8329 137.534C71.6261 137.163 70.7564 135.491 69.9172 133.879C69.2117 132.517 68.5427 131.234 68.3663 130.905C56.4581 109.169 40.9921 73.8578 40.834 73.5051L41.0286 73.4199C41.1806 73.7727 56.6467 109.078 68.5548 130.802C68.7373 131.13 69.4002 132.419 70.1118 133.782C70.9511 135.4 71.8147 137.066 72.0215 137.431L71.839 137.534H71.8329Z" fill="white"/>
<path d="M54.232 102.538L35.9258 100.543L35.9501 100.337L54.0982 102.307L63.8534 81.1484L64.0419 81.2397L54.232 102.538Z" fill="white"/>
<path d="M39.6235 122.056L39.6113 121.843L63.1114 120.705L77.951 97.4121L78.1274 97.5277L63.227 120.912L39.6235 122.056Z" fill="white"/>
<path d="M161.751 121.264C161.751 121.264 146.382 103.159 153.656 96.8457C160.924 90.5328 160.498 100.404 165.108 96.0794C169.718 91.7552 160.668 87.5953 166.914 83.332C173.16 79.0686 172.187 88.3738 175.702 84.5483C179.218 80.7229 180.58 69.6175 187.13 73.5768C193.686 77.536 180.908 91.287 184.047 91.1714C187.185 91.0558 195.48 88.392 192.537 94.7779C189.593 101.164 177.308 103.171 181.894 105.263C186.479 107.355 189.21 106.631 189.234 109.666C189.283 115.894 177.046 120.747 161.757 121.252L161.751 121.264Z" fill="url(#paint1_linear_1951_9432)"/>
<path d="M159.945 125.022L159.787 124.949C159.933 124.632 160.614 123.252 161.277 121.92C161.837 120.795 162.36 119.73 162.487 119.457C171.069 101.09 186.888 73.8127 187.046 73.5391L187.198 73.6242C187.04 73.8979 171.227 101.169 162.646 119.53C162.518 119.809 161.989 120.868 161.435 121.999C160.772 123.331 160.091 124.711 159.951 125.022H159.945Z" fill="white"/>
<path d="M174.371 96.4136L166.836 83.3742L166.982 83.2891L174.456 96.219L193.134 92.4239L193.17 92.5942L174.371 96.4136Z" fill="white"/>
<path d="M166.597 111.235L166.567 111.205L154.428 96.213L154.562 96.1035L166.676 111.059L189.222 109.587L189.234 109.763L166.597 111.235Z" fill="white"/>
<g opacity="0.69">
<path d="M20.4898 69.7331C20.4898 69.7331 -0.620164 69.0702 0.0549155 43.8672C0.0549155 43.8672 19.7295 43.7212 20.4898 69.7331Z" fill="url(#paint2_linear_1951_9432)"/>
<path d="M23.2507 73.771C21.9431 71.1133 20.4592 69.7935 20.447 69.7813C16.1411 64.1253 0.158127 44.1161 0 43.9094L0.109472 43.8242C0.267599 44.0249 16.2506 64.0401 20.5443 69.6901C20.5443 69.6901 22.0526 71.0281 23.3724 73.7102L23.2446 73.771H23.2507Z" fill="white"/>
<path d="M6.3972 51.805L0.728961 52.2186L0.716797 52.0787L6.25123 51.6712L6.05054 45.1211H6.1965L6.3972 51.805Z" fill="white"/>
<path d="M2.75502 58.2873L2.72461 58.1474L10.1201 56.5358L11.0323 47.8145L11.1722 47.8266L10.2478 56.6574L2.75502 58.2873Z" fill="white"/>
<path d="M6.66517 63.632L6.63477 63.4921L14.3282 61.8561L16.1163 53.3477L16.2562 53.372L14.4499 61.9716L6.66517 63.632Z" fill="white"/>
<path d="M12.6007 67.7254L12.5703 67.5855L17.898 66.3935L19.4123 61.2422L19.5461 61.2787L18.0074 66.5151L12.6007 67.7254Z" fill="white"/>
</g>
<g style="mix-blend-mode:multiply" opacity="0.71">
<path d="M14.4257 138.761C14.4257 138.761 5.9902 142.52 14.377 144.795C20.7933 146.534 98.0322 144.107 98.0322 144.107C98.0322 144.107 142.6 144.868 148.426 143.152C151.455 142.258 164.707 139.297 151.047 138.403C132.145 137.168 14.4257 138.761 14.4257 138.761Z" fill="#C5E6F9"/>
</g>
<g style="mix-blend-mode:multiply" opacity="0.71">
<path d="M166.179 50.2305H109.016C104.875 50.2305 101.518 53.5878 101.518 57.7293V134.36C101.518 138.502 104.875 141.859 109.016 141.859H166.179C170.321 141.859 173.678 138.502 173.678 134.36V57.7293C173.678 53.5878 170.321 50.2305 166.179 50.2305Z" fill="#C5E6F9"/>
</g>
<path d="M162.614 43.2344H106.035C101.732 43.2344 98.2441 46.7224 98.2441 51.0252V134.474C98.2441 138.776 101.732 142.264 106.035 142.264H162.614C166.917 142.264 170.405 138.776 170.405 134.474V51.0252C170.405 46.7224 166.917 43.2344 162.614 43.2344Z" fill="url(#paint3_linear_1951_9432)"/>
<g style="mix-blend-mode:multiply">
<path d="M168.599 47.5293H101.547V139.547H168.599V47.5293Z" fill="#ABB3BD"/>
</g>
<g style="mix-blend-mode:multiply">
<path d="M149.119 53.8347H120.127C119.452 53.8347 118.904 53.2569 118.904 52.5514V46.2872C118.904 45.5817 119.452 45.0039 120.127 45.0039H149.119C149.794 45.0039 150.341 45.5817 150.341 46.2872V52.5514C150.341 53.2569 149.794 53.8347 149.119 53.8347ZM120.127 45.6242C119.78 45.6242 119.5 45.9162 119.5 46.2811V52.5453C119.5 52.9042 119.78 53.2022 120.127 53.2022H149.119C149.465 53.2022 149.745 52.9102 149.745 52.5453V46.2811C149.745 45.9223 149.465 45.6242 149.119 45.6242H120.127Z" fill="#ABB3BD"/>
</g>
<path d="M167.851 46.7383H100.799V138.756H167.851V46.7383Z" fill="url(#paint4_linear_1951_9432)"/>
<path d="M124.591 57.7715H105.129V78.2246H124.591V57.7715Z" fill="#ABB3BD"/>
<path d="M163.521 57.7715H128.338V59.4926H163.521V57.7715Z" fill="#ABB3BD"/>
<path d="M163.519 62.2949H128.336V64.0161H163.519V62.2949Z" fill="#ABB3BD"/>
<path d="M163.519 66.8203H128.336V68.5415H163.519V66.8203Z" fill="#ABB3BD"/>
<path d="M163.519 71.3457H128.336V73.0669H163.519V71.3457Z" fill="#ABB3BD"/>
<path d="M163.521 75.877H128.338V77.5981H163.521V75.877Z" fill="#ABB3BD"/>
<path d="M163.514 82.4805H105.129V83.338H163.514V82.4805Z" fill="#ABB3BD"/>
<path d="M163.514 86.8359H105.129V87.6935H163.514V86.8359Z" fill="#ABB3BD"/>
<path d="M163.514 91.1895H105.129V92.047H163.514V91.1895Z" fill="#ABB3BD"/>
<path d="M163.514 95.5391H105.129V96.3966H163.514V95.5391Z" fill="#ABB3BD"/>
<path d="M163.514 99.8926H105.129V100.75H163.514V99.8926Z" fill="#ABB3BD"/>
<path d="M163.514 104.248H105.129V105.106H163.514V104.248Z" fill="#ABB3BD"/>
<path d="M163.514 108.596H105.129V109.453H163.514V108.596Z" fill="#ABB3BD"/>
<path d="M163.514 112.951H105.129V113.809H163.514V112.951Z" fill="#ABB3BD"/>
<path d="M163.514 117.307H105.129V118.164H163.514V117.307Z" fill="#ABB3BD"/>
<path d="M163.514 121.654H105.129V122.512H163.514V121.654Z" fill="#ABB3BD"/>
<path d="M163.514 126.008H105.129V126.865H163.514V126.008Z" fill="#ABB3BD"/>
<path opacity="0.4" d="M141.492 46.7383H100.799V138.756H121.106L141.492 46.7383Z" fill="#FDFEFF"/>
<path d="M148.822 53.5183H119.83C119.155 53.5183 118.607 52.9405 118.607 52.235V45.9708C118.607 45.2653 119.155 44.6875 119.83 44.6875H148.822C149.497 44.6875 150.044 45.2653 150.044 45.9708V52.235C150.044 52.9405 149.497 53.5183 148.822 53.5183ZM119.83 45.3078C119.483 45.3078 119.203 45.5998 119.203 45.9647V52.2289C119.203 52.5878 119.483 52.8858 119.83 52.8858H148.822C149.168 52.8858 149.448 52.5938 149.448 52.2289V45.9647C149.448 45.6059 149.168 45.3078 148.822 45.3078H119.83Z" fill="url(#paint5_linear_1951_9432)"/>
<path d="M148.049 42.4688H120.602V47.5227H148.049V42.4688Z" fill="#FFD79F"/>
<path d="M148.049 45.9668H120.602V47.5237H148.049V45.9668Z" fill="#FECD88"/>
<g style="mix-blend-mode:multiply" opacity="0.71">
<path d="M129.993 50.0237C129.993 60.7095 109.667 71.4621 109.667 71.4621C109.667 71.4621 89.3418 60.7095 89.3418 50.0237V21.1595L97.6313 17.6929C105.3 14.4878 114.028 14.4878 121.697 17.6929L129.986 21.1595V50.0237H129.993Z" fill="#C5E6F9"/>
</g>
<path d="M127.682 48.1131C127.682 59.7476 105.544 71.4611 105.544 71.4611C105.544 71.4611 83.4062 59.7476 83.4062 48.1131V16.6763L92.4377 12.8995C100.788 9.40851 110.3 9.40851 118.65 12.8995L127.682 16.6763V48.1131Z" fill="url(#paint6_linear_1951_9432)"/>
<path d="M123.783 46.8415C123.783 56.4325 105.544 66.0783 105.544 66.0783C105.544 66.0783 87.3047 56.4265 87.3047 46.8415V20.9391L94.7488 17.8313C101.633 14.9547 109.467 14.9547 116.351 17.8313L123.795 20.9391V46.8415H123.783Z" fill="url(#paint7_linear_1951_9432)"/>
<path d="M93.3379 34.5218V40.9746H117.756V34.5218H93.3379Z" fill="#FDFEFF"/>
<path d="M108.932 26.1289H102.15V49.3675H108.932V26.1289Z" fill="#FDFEFF"/>
<path opacity="0.4" d="M114.083 11.367C106.943 9.52422 99.298 10.029 92.4377 12.8996L83.4062 16.6764V48.1132C83.4062 56.2568 94.244 64.4307 100.752 68.6089L114.083 11.367Z" fill="#FDFEFF"/>
<path d="M73.0052 91.5117L76.5326 119.506L76.5813 119.914V120.029L75.9609 144.861L70.7123 144.928L69.3865 120.121L69.4351 120.644L63.3047 93.0687L73.0052 91.5117Z" fill="#272626"/>
<path d="M67.2641 65.8457H64.582V70.6868H67.2641V65.8457Z" fill="#FAC6C7"/>
<g style="mix-blend-mode:color-burn">
<path d="M67.2641 68.7467V65.8457H64.582V67.0621C65.549 68.096 66.7654 68.5886 66.7654 68.5886C66.9296 68.6494 67.0938 68.7042 67.2641 68.7528V68.7467Z" fill="#FAC6C7"/>
</g>
<path d="M57.9297 91.9141L57.9479 95.6179H57.954C57.954 95.6179 58.252 111.297 59.3711 119.416C59.4441 119.951 59.4319 120.486 59.3285 121.015C59.067 122.28 58.6352 125.358 58.7933 131.245C59.0122 139.431 59.5049 144.734 59.5049 144.734L63.4216 144.874L65.611 118.571L67.7579 92.2607L57.9297 91.9141Z" fill="#323333"/>
<path d="M70.1699 59.1626C69.7259 58.3051 67.5304 57.2164 65.8883 57.9098C64.2462 58.6031 63.5468 59.9472 63.1454 61.8873C62.9386 62.909 63.2731 64.1497 63.6381 65.0985C64.4044 66.8135 66.3992 67.6163 66.3992 67.6163C67.0986 67.8718 67.8588 68.042 68.4913 67.9022C69.9145 66.6919 70.3402 64.6423 70.4618 63.6875C70.5409 62.6232 70.547 61.7595 70.547 61.5832C70.547 61.5832 70.6139 60.0141 70.1638 59.1565L70.1699 59.1626Z" fill="#FAC6C7"/>
<g style="mix-blend-mode:color-burn">
<path d="M70.5527 61.5898V60.0997L64.7871 59.4551L64.8297 62.9521C64.8297 62.9521 65.5169 60.7809 66.9583 61.1154C69.3606 61.681 70.5527 61.5837 70.5527 61.5837V61.5898Z" fill="#FAC6C7"/>
</g>
<path d="M64.4413 65.2386C64.4656 64.971 64.5325 64.7156 64.6116 64.4602C64.7637 63.9736 64.6359 63.0796 65.2198 61.699C66.2355 59.321 69.1243 61.845 71.2833 60.9145C73.4424 59.984 71.6604 57.9466 70.5596 58.1655C69.4588 58.3784 69.6656 57.4661 68.5648 57.308C67.6039 57.1681 66.6673 56.9127 64.8792 58.129C63.0912 59.3454 63.2432 60.1299 63.2432 60.1299C63.2432 60.1299 61.1328 62.8424 64.0338 66.4976C64.1433 66.6314 64.3623 66.5706 64.3805 66.4003L64.4352 65.2447L64.4413 65.2386Z" fill="#2F2F4F"/>
<path d="M64.9281 63.3223C64.9281 63.3223 64.7396 62.1667 64.1071 62.4161C63.4746 62.6655 63.6631 65.1651 64.5206 65.0982C65.3721 65.0252 64.9342 63.3223 64.9342 63.3223H64.9281Z" fill="#FAC6C7"/>
<path d="M62.8791 63.377V64.2892C62.8791 64.2892 63.0859 64.9886 62.9704 65.2197C62.8609 65.4508 63.3596 65.3961 63.4143 64.9339C63.4691 64.4717 62.873 63.377 62.873 63.377H62.8791Z" fill="#2F2F4F"/>
<path d="M61.3592 73.5341L56.1471 91.1835L53.8907 89.3346L65.0934 84.4631C65.6651 84.2137 66.328 84.4752 66.5713 85.0469C66.8085 85.5882 66.5774 86.2146 66.0665 86.4883L55.2835 92.2295C54.5172 92.637 53.5623 92.3451 53.1487 91.5788C52.9663 91.2321 52.9237 90.8551 53.0028 90.5023L53.0271 90.3807L56.9985 72.409C57.2661 71.1926 58.4703 70.4263 59.6806 70.7C60.897 70.9676 61.6633 72.1718 61.3896 73.382C61.3774 73.4307 61.3653 73.4854 61.3531 73.5341H61.3592Z" fill="#FAC6C7"/>
<path d="M73.2902 95.6244L74.2207 76.0167C74.3301 72.7812 73.0165 70.1112 68.9113 69.7889L65.7852 69.4727C65.7852 69.4727 60.0866 69.7767 59.004 70.0504C57.9214 70.3241 56.9605 71.4067 56.7294 75.1652C56.7294 75.1835 56.7294 75.1956 56.7294 75.2139C56.699 75.4754 56.6868 75.743 56.6929 76.0167L57.9519 95.6244H73.2902Z" fill="url(#paint8_linear_1951_9432)"/>
<path d="M65.2988 84.4097C65.2988 84.4097 65.7367 83.0169 67.318 82.5973C68.8993 82.1776 66.278 83.6738 65.9253 85.0361C65.5725 86.3984 65.2988 84.4036 65.2988 84.4036V84.4097Z" fill="#FAC6C7"/>
<path d="M65.5984 87.1023C65.5984 87.1023 67.1067 87.5402 70.105 87.2787C70.105 87.2787 70.9139 87.1327 70.847 86.8104C70.7801 86.4881 69.0711 86.3725 68.5238 86.4029C67.9764 86.4333 70.9443 86.7252 71.6559 86.111C72.3675 85.4967 68.4934 85.4481 67.946 85.5636C67.3986 85.6731 71.887 86.0562 72.2702 85.2048C72.6594 84.3594 70.0746 84.7304 68.6515 84.4689C67.2344 84.2013 71.6194 84.7487 71.5586 83.8972C71.4917 83.0457 70.4639 83.6539 67.5872 83.4532C64.7166 83.2464 65.5984 87.1023 65.5984 87.1023Z" fill="#FAC6C7"/>
<path d="M66.2297 87.2247C66.2297 87.2247 65.0316 87.1213 64.4782 86.9085C63.9247 86.6895 64.7032 83.9771 66.1142 83.4236C67.5251 82.8702 66.2297 87.2247 66.2297 87.2247Z" fill="#FAC6C7"/>
<path d="M64.4188 84.0195L62.4727 84.8649C62.6916 86.0569 63.0261 87.8693 63.2572 89.1039L65.2946 88.1308L64.4128 84.0195H64.4188Z" fill="#E3F3FC"/>
<path d="M67.489 69.1243C67.2396 69.2094 66.9234 69.2824 66.5037 69.325C65.2569 69.4649 64.6792 69.0878 64.4055 68.7168L64.4541 69.0331C64.4541 69.0331 63.2135 69.398 65.1596 70.2555C67.1058 71.113 67.866 70.0366 67.866 70.0366L67.6836 69.5987L67.495 69.1243H67.489Z" fill="#CEE2EB"/>
<path d="M64.5204 68.3594C64.5204 68.3594 64.1068 68.7304 66.5031 69.3325L65.4327 71.2665C65.4327 71.2665 64.2042 70.4941 63.5352 69.6122L64.5265 68.3594H64.5204Z" fill="#E3F3FC"/>
<path d="M66.4492 69.3137C66.4492 69.3137 67.0513 69.2832 67.3432 68.748L68.736 69.7698C68.736 69.7698 68.5596 70.4388 67.9271 71.2659L66.4492 69.3197V69.3137Z" fill="#E3F3FC"/>
<path d="M75.2674 147.021C75.0119 145.501 75.1579 143.463 75.1579 143.463C75.1579 143.463 73.1083 138.47 71.7886 143.463C71.4662 144.68 71.5331 146.06 71.375 147.021H75.2674Z" fill="#FAC6C7"/>
<path d="M80.5771 149.514C79.7256 149.562 78.2356 149.234 76.5813 148.176C76.0948 147.865 75.7785 147.336 75.5596 146.74H71.0834C70.5968 149.726 70.761 151.411 70.761 151.411H73.0296L73.1025 150.353L73.3945 151.411H82.1827C82.1827 151.411 82.4928 149.404 80.571 149.514H80.5771Z" fill="#272626"/>
<path d="M63.4021 147.021C63.1467 145.501 63.2926 143.463 63.2926 143.463C63.2926 143.463 61.2431 138.47 59.9233 143.463C59.601 144.68 59.6679 146.06 59.5098 147.021H63.4021Z" fill="#FAC6C7"/>
<path d="M68.7118 149.514C67.8604 149.562 66.3703 149.234 64.7161 148.176C64.2295 147.865 63.9133 147.336 63.6944 146.74H59.2181C58.7316 149.726 58.8958 151.411 58.8958 151.411H61.1643L61.2373 150.353L61.5292 151.411H70.3174C70.3174 151.411 70.6276 149.404 68.7058 149.514H68.7118Z" fill="#272626"/>
<path d="M73.0052 91.5117L76.5326 119.506L76.5813 119.914V120.029L75.9609 144.861L70.7123 144.928L69.3865 120.121L69.4351 120.644L63.3047 93.0687L73.0052 91.5117Z" fill="#272626"/>
<path d="M67.2641 65.8457H64.582V70.6868H67.2641V65.8457Z" fill="#FAC6C7"/>
<g style="mix-blend-mode:color-burn">
<path d="M67.2641 68.7467V65.8457H64.582V67.0621C65.549 68.096 66.7654 68.5886 66.7654 68.5886C66.9296 68.6494 67.0938 68.7042 67.2641 68.7528V68.7467Z" fill="#FAC6C7"/>
</g>
<path d="M80.1573 92.1747C80.1573 92.1747 81.7142 92.4119 83.1921 92.1747C84.67 91.9375 89.4199 93.829 88.0271 94.6926C86.6344 95.5562 82.9488 95.8846 79.3423 93.8715C75.7358 91.8585 80.1634 92.1747 80.1634 92.1747H80.1573Z" fill="#FAC6C7"/>
<path d="M57.9297 91.9141L57.9479 95.6179H57.954C57.954 95.6179 58.252 111.297 59.3711 119.416C59.4441 119.951 59.4319 120.486 59.3285 121.015C59.067 122.28 58.6352 125.358 58.7933 131.245C59.0122 139.431 59.5049 144.734 59.5049 144.734L63.4216 144.874L65.611 118.571L67.7579 92.2607L57.9297 91.9141Z" fill="#323333"/>
<path d="M70.1699 59.1626C69.7259 58.3051 67.5304 57.2164 65.8883 57.9098C64.2462 58.6031 63.5468 59.9472 63.1454 61.8873C62.9386 62.909 63.2731 64.1497 63.6381 65.0985C64.4044 66.8135 66.3992 67.6163 66.3992 67.6163C67.0986 67.8718 67.8588 68.042 68.4913 67.9022C69.9145 66.6919 70.3402 64.6423 70.4618 63.6875C70.5409 62.6232 70.547 61.7595 70.547 61.5832C70.547 61.5832 70.6139 60.0141 70.1638 59.1565L70.1699 59.1626Z" fill="#FAC6C7"/>
<g style="mix-blend-mode:color-burn">
<path d="M70.5527 61.5898V60.0997L64.7871 59.4551L64.8297 62.9521C64.8297 62.9521 65.5169 60.7809 66.9583 61.1154C69.3606 61.681 70.5527 61.5837 70.5527 61.5837V61.5898Z" fill="#FAC6C7"/>
</g>
<path d="M64.4413 65.2386C64.4656 64.971 64.5325 64.7156 64.6116 64.4602C64.7637 63.9736 64.6359 63.0796 65.2198 61.699C66.2355 59.321 69.1243 61.845 71.2833 60.9145C73.4424 59.984 71.6604 57.9466 70.5596 58.1655C69.4588 58.3784 69.6656 57.4661 68.5648 57.308C67.6039 57.1681 66.6673 56.9127 64.8792 58.129C63.0912 59.3454 63.2432 60.1299 63.2432 60.1299C63.2432 60.1299 61.1328 62.8424 64.0338 66.4976C64.1433 66.6314 64.3623 66.5706 64.3805 66.4003L64.4352 65.2447L64.4413 65.2386Z" fill="#2F2F4F"/>
<path d="M64.9281 63.3223C64.9281 63.3223 64.7396 62.1667 64.1071 62.4161C63.4746 62.6655 63.6631 65.1651 64.5206 65.0982C65.3721 65.0252 64.9342 63.3223 64.9342 63.3223H64.9281Z" fill="#FAC6C7"/>
<path d="M62.8791 63.377V64.2892C62.8791 64.2892 63.0859 64.9886 62.9704 65.2197C62.8609 65.4508 63.3596 65.3961 63.4143 64.9339C63.4691 64.4717 62.873 63.377 62.873 63.377H62.8791Z" fill="#2F2F4F"/>
<path d="M61.3592 73.5341L56.1471 91.1835L53.8907 89.3346L65.0934 84.4631C65.6651 84.2137 66.328 84.4752 66.5713 85.0469C66.8085 85.5882 66.5774 86.2146 66.0665 86.4883L55.2835 92.2295C54.5172 92.637 53.5623 92.3451 53.1487 91.5788C52.9663 91.2321 52.9237 90.8551 53.0028 90.5023L53.0271 90.3807L56.9985 72.409C57.2661 71.1926 58.4703 70.4263 59.6806 70.7C60.897 70.9676 61.6633 72.1718 61.3896 73.382C61.3774 73.4307 61.3653 73.4854 61.3531 73.5341H61.3592Z" fill="#FAC6C7"/>
<path d="M72.7316 86.9871L73.4675 80.2789C73.4675 80.2789 74.0757 74.7384 73.6196 72.7192C73.2242 70.9676 71.7707 70.4629 71.3875 70.3595C70.9983 70.2561 70.603 70.2013 70.2259 70.1709C68.6021 70.0432 69.1373 71.3204 69.0035 72.8834L67.4222 91.1835L67.41 91.3234C67.3675 91.8161 67.5013 92.3269 67.8236 92.7587C68.5473 93.7379 69.9644 93.969 70.98 93.2696L81.7266 95.3617L82.4199 91.6093L72.7255 86.9932L72.7316 86.9871Z" fill="#EFF9FE"/>
<path d="M73.2902 95.6244L74.2207 76.0167C74.3301 72.7812 73.0165 70.1112 68.9113 69.7889L65.7852 69.4727C65.7852 69.4727 60.0866 69.7767 59.004 70.0504C57.9214 70.3241 56.9605 71.4067 56.7294 75.1652C56.7294 75.1835 56.7294 75.1956 56.7294 75.2139C56.699 75.4754 56.6868 75.743 56.6929 76.0167L57.9519 95.6244H73.2902Z" fill="#668CC8"/>
<path d="M65.2988 84.4097C65.2988 84.4097 65.7367 83.0169 67.318 82.5973C68.8993 82.1776 66.278 83.6738 65.9253 85.0361C65.5725 86.3984 65.2988 84.4036 65.2988 84.4036V84.4097Z" fill="#FAC6C7"/>
<path d="M79.3177 75.1641H67.1055V92.8743H79.3177V75.1641Z" fill="#FDFEFF"/>
<path d="M78.5521 75.9863H74.6172V77.2453H78.5521V75.9863Z" fill="#CACACA"/>
<path d="M78.5521 77.5059H74.6172V77.7187H78.5521V77.5059Z" fill="#CACACA"/>
<path d="M78.5521 77.8711H74.6172V78.084H78.5521V77.8711Z" fill="#CACACA"/>
<path d="M78.5452 88.0039H76.082V88.2168H78.5452V88.0039Z" fill="#CACACA"/>
<path d="M74.8287 88.0039H73.2109V88.2168H74.8287V88.0039Z" fill="#CACACA"/>
<path d="M78.5452 88.4414H76.082V88.6543H78.5452V88.4414Z" fill="#CACACA"/>
<path d="M75.183 79.5566H71.248V79.7695H75.183V79.5566Z" fill="#CACACA"/>
<path d="M78.5212 80.6504H67.9023V80.8633H78.5212V80.6504Z" fill="#CACACA"/>
<path d="M78.5212 81.1309H67.9023V81.3437H78.5212V81.1309Z" fill="#CACACA"/>
<path d="M78.5212 81.6172H67.9023V81.8301H78.5212V81.6172Z" fill="#CACACA"/>
<path d="M78.5212 82.0977H67.9023V82.3105H78.5212V82.0977Z" fill="#CACACA"/>
<path d="M78.5212 82.584H67.9023V82.7969H78.5212V82.584Z" fill="#CACACA"/>
<path d="M78.5212 83.0642H67.9023V83.2771H78.5212V83.0642Z" fill="#CACACA"/>
<path d="M78.5212 83.5508H67.9023V83.7636H78.5212V83.5508Z" fill="#CACACA"/>
<path d="M78.5212 84.0312H67.9023V84.2441H78.5212V84.0312Z" fill="#CACACA"/>
<path d="M78.5212 84.5176H67.9023V84.7304H78.5212V84.5176Z" fill="#CACACA"/>
<path d="M78.5212 85.0059H67.9023V85.2187H78.5212V85.0059Z" fill="#CACACA"/>
<path d="M78.5212 85.4844H67.9023V85.6972H78.5212V85.4844Z" fill="#CACACA"/>
<path d="M78.5212 85.9727H67.9023V86.1855H78.5212V85.9727Z" fill="#CACACA"/>
<path d="M65.5984 87.1023C65.5984 87.1023 67.1067 87.5402 70.105 87.2787C70.105 87.2787 70.9139 87.1327 70.847 86.8104C70.7801 86.4881 69.0711 86.3725 68.5238 86.4029C67.9764 86.4333 70.9443 86.7252 71.6559 86.111C72.3675 85.4967 68.4934 85.4481 67.946 85.5636C67.3986 85.6731 71.887 86.0562 72.2702 85.2048C72.6594 84.3594 70.0746 84.7304 68.6515 84.4689C67.2344 84.2013 71.6194 84.7487 71.5586 83.8972C71.4917 83.0457 70.4639 83.6539 67.5872 83.4532C64.7166 83.2464 65.5984 87.1023 65.5984 87.1023Z" fill="#FAC6C7"/>
<path d="M66.2297 87.2247C66.2297 87.2247 65.0316 87.1213 64.4782 86.9085C63.9247 86.6895 64.7032 83.9771 66.1142 83.4236C67.5251 82.8702 66.2297 87.2247 66.2297 87.2247Z" fill="#FAC6C7"/>
<path d="M64.4177 84.0187L58.1656 86.7312L60.8963 76.1732C60.9145 76.1124 60.9328 76.0455 60.9449 75.9847C61.2794 74.4521 61.4072 70.4259 59.8137 70.1036C59.6495 70.0732 59.4914 70.0549 59.3272 70.0488C56.9188 70.134 56.0369 74.0993 55.3193 76.8118L52.3574 90.2526L52.327 90.3864C52.2236 90.8729 52.2845 91.3899 52.546 91.8642C53.1359 92.9225 54.5104 93.3239 55.6112 92.7522L65.2934 88.1361L64.4116 84.0248L64.4177 84.0187Z" fill="#EFF9FE"/>
<path d="M64.4188 84.0195L62.4727 84.8649C62.6916 86.0569 63.0261 87.8693 63.2572 89.1039L65.2946 88.1308L64.4128 84.0195H64.4188Z" fill="#E3F3FC"/>
<path d="M67.489 69.1243C67.2396 69.2094 66.9234 69.2824 66.5037 69.325C65.2569 69.4649 64.6792 69.0878 64.4055 68.7168L64.4541 69.0331C64.4541 69.0331 63.2135 69.398 65.1596 70.2555C67.1058 71.113 67.866 70.0366 67.866 70.0366L67.6836 69.5987L67.495 69.1243H67.489Z" fill="#CEE2EB"/>
<path d="M64.5204 68.3594C64.5204 68.3594 64.1068 68.7304 66.5031 69.3325L65.4327 71.2665C65.4327 71.2665 64.2042 70.4941 63.5352 69.6122L64.5265 68.3594H64.5204Z" fill="#E3F3FC"/>
<path d="M66.4492 69.3137C66.4492 69.3137 67.0513 69.2832 67.3432 68.748L68.736 69.7698C68.736 69.7698 68.5596 70.4388 67.9271 71.2659L66.4492 69.3197V69.3137Z" fill="#E3F3FC"/>
<path d="M118.954 85.1639C116.09 82.3662 117.27 74.5207 114.916 71.936C112.362 69.1262 110.166 68.8342 109.205 67.2347C108.956 66.8212 108.512 66.5475 108.013 66.4988C107.296 66.4319 106.718 65.8907 106.627 65.2034L105.939 60.1008C105.866 59.5473 105.477 59.079 104.93 58.8905C103.154 58.2702 99.2736 57.1815 98.5438 59.2311C97.589 61.9071 98.1485 63.9445 98.5438 66.5779C98.7992 68.293 98.3249 69.26 97.96 69.7344C97.741 70.0202 97.6194 70.3608 97.6437 70.7135C97.9356 74.7944 99.5291 97.7958 98.6594 103.689C97.7045 110.16 102.321 118.814 109.497 120.219C116.674 121.624 120.688 117.458 119.216 110.841C118.091 105.799 119.946 105.282 120.973 99.7237C121.928 94.5298 123.133 89.2326 118.954 85.1517V85.1639Z" fill="#2F2F4F"/>
<path d="M98.3741 147.154C98.3741 147.154 98.4592 148.279 98.5504 148.985C98.6356 149.69 97.626 150.955 97.626 150.955L95.5156 150.347C95.5156 150.347 95.7346 147.629 95.7346 145.707C95.7346 143.785 98.3741 147.16 98.3741 147.16V147.154Z" fill="#FAC6C7"/>
<path d="M98.7134 148.987C98.7134 148.987 97.3571 149.54 95.3441 149.364C95.3441 149.364 94.4379 150.914 92.8566 151.261C91.0503 151.663 90.3326 151.614 90.3326 151.614C90.3326 151.614 90.1867 152.386 90.9895 152.526C91.7923 152.666 95.5691 152.55 96.8827 151.997C97.6126 151.687 97.8376 152.277 97.8376 152.277L99.2303 152.137C99.2303 152.137 99.4493 149.71 98.7195 148.98L98.7134 148.987Z" fill="#272626"/>
<path d="M109.454 147.154C109.454 147.154 109.539 148.279 109.631 148.985C109.716 149.69 108.706 150.955 108.706 150.955L106.596 150.347C106.596 150.347 106.815 147.629 106.815 145.707C106.815 143.785 109.454 147.16 109.454 147.16V147.154Z" fill="#FAC6C7"/>
<path d="M88.8368 83.5333C88.8368 83.5333 88.0461 83.1137 87.073 83.0529C86.1 82.986 83.6308 81.5567 83.0834 80.5532C82.536 79.5437 84.1538 80.5532 84.1538 80.5532C84.1538 80.5532 82.8644 80.0485 82.8401 79.6045C82.8158 79.1605 84.4031 79.8052 84.4031 79.8052C84.4031 79.8052 83.4544 79.6896 83.43 79.2882C83.4057 78.8868 85.0052 79.1179 85.9236 79.6045C86.8419 80.0849 88.332 80.8208 87.9549 79.9694C87.5718 79.1119 87.2068 78.4368 87.8698 78.8686C88.2833 79.1423 88.9827 80.5107 89.1165 81.1736C89.2503 81.8365 89.7977 81.9581 89.7977 81.9581L88.8368 83.5333Z" fill="#FAC6C7"/>
<path d="M105.428 68.6095C105.428 68.6095 103.445 68.3236 102.119 68.6095C100.793 68.8953 103.84 71.7538 103.901 71.699C103.962 71.6382 105.817 69.9779 105.817 69.9779L105.428 68.6155V68.6095Z" fill="#C3D8F0"/>
<path d="M105.118 64.9766H102.168V70.3042H105.118V64.9766Z" fill="#FAC6C7"/>
<g style="mix-blend-mode:color-burn">
<path d="M102.168 68.1695V64.9766H105.118V66.3146C104.054 67.4519 102.709 67.9931 102.709 67.9931C102.533 68.06 102.345 68.1209 102.162 68.1695H102.168Z" fill="#FAC6C7"/>
</g>
<path d="M110.834 93.6719L110.816 97.4608H110.81C110.81 97.4608 110.804 110.616 109.569 118.911C109.49 119.459 110.147 122.883 110.263 123.424C110.548 124.719 111.029 127.864 110.853 133.879C110.609 142.247 110.068 147.672 110.068 147.672L106.401 147.818L103.992 120.924L102.922 94.0307L110.834 93.6719Z" fill="#668CC8"/>
<path d="M105.136 94.0917L104.741 97.8624H104.735C104.735 97.8624 103.415 110.957 101.36 119.1C101.226 119.635 101.536 123.108 101.603 123.655C101.755 124.969 101.925 128.144 101.147 134.116C100.07 142.424 98.9876 147.776 98.9876 147.776L95.3203 147.581L95.6062 120.59L97.2239 93.7207L105.136 94.0917Z" fill="#517AB3"/>
<path d="M104.734 62.1981C104.734 62.1981 104.941 60.927 105.64 61.2007C106.333 61.4744 106.127 64.2295 105.19 64.1504C104.247 64.0713 104.74 62.1981 104.74 62.1981H104.734Z" fill="#FAC6C7"/>
<path d="M105.118 64.9766H102.168V70.3042H105.118V64.9766Z" fill="#FAC6C7"/>
<g style="mix-blend-mode:color-burn">
<path d="M102.168 68.1695V64.9766H105.118V66.3146C104.054 67.4519 102.709 67.9931 102.709 67.9931C102.533 68.06 102.345 68.1209 102.162 68.1695H102.168Z" fill="#FAC6C7"/>
</g>
<path d="M89.871 80.8025L94.5175 85.0111L95.448 74.9153C95.448 74.8605 95.4602 74.7936 95.4662 74.7328C95.6548 73.2853 96.8164 69.7032 98.3247 69.8856C98.4767 69.9039 98.6288 69.9343 98.7687 69.9768C100.861 70.7553 100.386 74.5078 100.161 77.1047L98.5193 89.8035L98.5011 89.9312C98.4402 90.3874 98.2213 90.8313 97.8381 91.1658C96.9806 91.9261 95.6487 91.8774 94.8581 91.0564L87.791 84.1657L89.8649 80.7964L89.871 80.8025Z" fill="#FDFEFF"/>
<path d="M104.734 62.1981C104.734 62.1981 104.941 60.927 105.64 61.2007C106.333 61.4744 106.127 64.2295 105.19 64.1504C104.247 64.0713 104.74 62.1981 104.74 62.1981H104.734Z" fill="#FAC6C7"/>
<path d="M112.854 72.2891L117.233 87.2807L117.258 87.3658C117.306 87.5361 117.318 87.7125 117.306 87.8767L115.792 103.397C115.737 103.951 115.244 104.352 114.691 104.304C114.174 104.255 113.785 103.811 113.785 103.3L113.773 87.7064L113.846 88.2964L109.278 73.3595C108.974 72.3742 109.534 71.3281 110.519 71.0301C111.504 70.726 112.55 71.2856 112.848 72.2708C112.848 72.2708 112.848 72.2891 112.854 72.2952V72.2891Z" fill="#FAC6C7"/>
<path d="M96.8464 97.7519L95.9767 76.1676C95.8733 72.6098 97.1018 69.6662 100.927 69.3135L103.847 68.9668C103.847 68.9668 109.162 69.3013 110.172 69.5993C111.181 69.9034 112.081 71.0893 112.294 75.231C112.294 75.2493 112.294 75.2675 112.294 75.2858C112.318 75.5716 112.337 75.8636 112.325 76.1676L111.151 97.7519H96.8403H96.8464Z" fill="url(#paint9_linear_1951_9432)"/>
<path d="M99.2071 57.6192C99.6693 56.6765 101.92 55.4723 103.61 56.2447C105.295 57.011 106.025 58.4889 106.432 60.6175C106.645 61.7427 106.298 63.1111 105.921 64.1511C105.131 66.0425 103.081 66.9244 103.081 66.9244C102.364 67.2041 101.579 67.3927 100.928 67.2406C99.4625 65.9087 99.0246 63.6523 98.903 62.6002C98.8178 61.4264 98.8178 60.4776 98.8178 60.2891C98.8178 60.2891 98.7509 58.5619 99.2131 57.6192H99.2071Z" fill="#FAC6C7"/>
<path d="M105.037 68.5664L105.755 68.7914L106.132 69.132C106.132 69.132 105.834 73.0304 103.365 73.0183C100.89 73.0061 101.267 69.1868 101.267 69.1868L103.043 68.8097L105.037 68.5664Z" fill="#FAC6C7"/>
<path d="M115.975 101.731C115.975 101.731 115.926 102.716 116.267 103.464C116.607 104.212 115.829 107.381 114.996 107.66C114.169 107.94 114.12 107.277 114.12 107.277C114.12 107.277 114.023 107.727 113.798 107.636C113.305 107.423 114.138 103.111 113.652 103.604C113.165 104.096 113.7 105.294 113.481 105.501C113.262 105.714 112.873 104.984 112.898 103.415C112.898 103.415 112.849 103.026 114.023 101.159C115.196 99.2917 115.975 101.731 115.975 101.731Z" fill="#FAC6C7"/>
<g style="mix-blend-mode:color-burn">
<path d="M105.922 64.1496C106.299 63.1097 106.645 61.7413 106.432 60.6161C106.104 58.9011 105.569 57.6117 104.498 56.7724C104.097 56.5839 103.598 56.4258 102.954 56.3285C102.491 56.2555 102.023 56.3041 101.579 56.4501C101.166 56.5839 100.539 56.7785 99.7242 57.0035C99.487 57.2042 99.3046 57.4171 99.2073 57.6178C98.7451 58.5605 98.812 60.2877 98.812 60.2877C98.812 60.3972 98.812 60.7803 98.8302 61.3094C99.8945 61.8021 100.959 61.5649 101.804 60.7925C102.783 59.8985 104.979 60.8047 104.882 62.4407C104.839 63.2009 104.632 64.6301 104.541 65.9742C105.058 65.5302 105.593 64.9281 105.922 64.1496Z" fill="#FAC6C7"/>
</g>
<path d="M102.951 55.8187C102.489 55.7457 102.02 55.7944 101.576 55.9403C100.962 56.141 99.8796 56.4755 98.3835 56.8283C96.4799 57.2783 97.1732 59.7171 98.3348 60.5199C99.5573 61.3653 100.822 61.1768 101.801 60.2827C102.781 59.3887 104.976 60.2949 104.879 61.9309C104.782 63.5669 103.942 68.3107 105.116 68.6148C106.29 68.9128 110.17 69.6061 110.17 69.6061C110.17 69.6061 108.242 66.2368 108.297 63.944C108.345 61.6451 108.352 59.7293 107.026 58.8292C105.797 57.996 106.004 56.287 102.951 55.8187Z" fill="#2F2F4F"/>
<path d="M110.171 69.6055C110.171 69.6055 112.908 69.8609 114.331 74.927C115.76 79.9932 117.591 86.8899 117.591 87.8691C117.591 88.8483 116.897 101.097 116.897 101.097C116.897 101.097 115.103 101.553 112.944 101.097C112.944 101.097 113.528 88.7875 112.762 86.8839C111.995 84.9863 111.065 79.1478 111.065 79.1478C111.065 79.1478 109.49 72.5491 110.171 69.6055Z" fill="#FDFEFF"/>
<path d="M97.1992 70.4381C97.1992 70.4381 97.5885 69.7205 99.7353 69.3921C101.882 69.0637 98.2453 72.7006 98.2453 72.7006L97.1992 70.4442V70.4381Z" fill="#FDFEFF"/>
<path d="M95.0586 121.641C95.1741 117.791 95.6972 100.476 95.8918 91.2321C96.0256 85.0165 95.9952 78.661 95.9587 74.5254C95.9283 71.746 98.0934 69.4045 100.97 69.0761C101.292 69.0396 101.621 69.0031 101.968 68.9727C101.968 68.9727 100.928 71.7278 103.798 82.8879C103.798 82.8818 103.798 82.8696 103.798 82.8575C106.134 71.6791 105.428 68.918 105.428 68.918C106.93 69.0457 108.244 69.2038 109.308 69.3559C111.035 69.6052 112.307 71.0405 112.282 72.7191C112.228 76.6297 112.161 84.0008 112.331 91.1834C112.556 100.464 113.146 117.889 113.28 121.641C113.28 121.641 103.099 123.612 95.0586 121.641Z" fill="#FDFEFF"/>
<path d="M99.3393 69.3635L100.458 73.9249L99.248 74.8554L103.852 83.3577L102.119 68.6094L99.3393 69.3635Z" fill="#E2ECF8"/>
<path d="M108.202 69.102L107.089 73.9249L108.299 74.8554L103.854 83.3577L103.799 82.9077L105.429 68.6094L108.202 69.102Z" fill="#E2ECF8"/>
<path d="M109.793 148.987C109.793 148.987 108.437 149.54 106.424 149.364C106.424 149.364 105.518 150.914 103.937 151.261C102.13 151.663 101.413 151.614 101.413 151.614C101.413 151.614 101.267 152.386 102.07 152.526C102.872 152.666 106.649 152.55 107.963 151.997C108.693 151.687 108.918 152.277 108.918 152.277L110.31 152.137C110.31 152.137 110.529 149.71 109.8 148.98L109.793 148.987Z" fill="#272626"/>
<path d="M152.42 130.009C153.034 131.462 152.359 133.135 150.912 133.749L142.92 137.143C141.467 137.757 139.794 137.082 139.18 135.634C138.566 134.181 139.241 132.508 140.688 131.894L148.68 128.5C150.133 127.886 151.806 128.561 152.42 130.009Z" fill="#A9DDDC"/>
<path d="M139.182 135.627C139.796 137.08 141.474 137.755 142.922 137.135L146.918 135.438L144.686 130.184L140.69 131.88C139.236 132.495 138.561 134.173 139.182 135.621V135.627Z" fill="#FDFEFF"/>
<g style="mix-blend-mode:multiply" opacity="0.33">
<path d="M139.181 135.628C139.272 135.841 139.388 136.042 139.522 136.218C139.315 134.947 139.984 133.658 141.225 133.129L149.216 129.735C150.451 129.212 151.85 129.626 152.622 130.653C152.585 130.434 152.525 130.216 152.433 129.997C151.819 128.543 150.141 127.868 148.693 128.488L140.702 131.882C139.248 132.496 138.573 134.175 139.193 135.622L139.181 135.628Z" fill="#B2D1CD"/>
</g>
<path d="M126.616 139.674C126.866 138.349 128.143 137.467 129.469 137.716L136.785 139.078C138.111 139.328 138.993 140.605 138.744 141.931C138.494 143.257 137.217 144.138 135.891 143.889L128.575 142.527C127.249 142.277 126.367 141 126.616 139.674Z" fill="#FFD79F"/>
<path d="M138.744 141.932C138.993 140.606 138.112 139.329 136.786 139.08L133.124 138.398L132.23 143.209L135.892 143.89C137.218 144.14 138.495 143.258 138.744 141.932Z" fill="#FDFEFF"/>
<g style="mix-blend-mode:multiply" opacity="0.33">
<path d="M138.744 141.931C138.78 141.736 138.792 141.542 138.78 141.347C138.33 142.351 137.235 142.959 136.104 142.746L128.788 141.384C127.656 141.171 126.854 140.216 126.793 139.115C126.714 139.292 126.653 139.474 126.616 139.675C126.367 141.001 127.249 142.278 128.575 142.527L135.891 143.889C137.217 144.139 138.494 143.257 138.744 141.931Z" fill="#B2D1CD"/>
</g>
<g style="mix-blend-mode:multiply" opacity="0.71">
<path d="M159.131 152.956C159.131 152.956 127.779 154.257 135.515 151.374C143.251 148.492 166.562 148.625 150.61 145.116C139.304 142.629 170.26 141.358 183.585 142.258C196.911 143.158 208.46 147.488 191.583 148.875C174.706 150.267 151.474 147.257 157.488 150.006C163.509 152.755 159.131 152.956 159.131 152.956Z" fill="#C5E6F9"/>
</g>
<path d="M162.945 115.997C162.945 119.507 159.886 122.353 156.115 122.353H153.068V138.579H156.115C159.886 138.579 162.945 141.425 162.945 144.935C162.945 146.102 163.967 147.051 165.22 147.051H196.31C197.569 147.051 198.585 146.102 198.585 144.935V115.997C198.585 114.83 197.563 113.881 196.31 113.881H165.22C163.961 113.881 162.945 114.83 162.945 115.997Z" fill="#FFD79F"/>
<path d="M156.145 145.117H140.819C139.28 145.117 138.033 146.364 138.033 147.902V149.441C138.033 150.979 139.28 152.227 140.819 152.227H156.145C157.683 152.227 158.93 150.979 158.93 149.441V147.902C158.93 146.364 157.683 145.117 156.145 145.117Z" fill="#FDFEFF"/>
<path d="M168.582 120.747V147.057H192.046V120.747H168.582Z" fill="#FDFEFF"/>
<g style="mix-blend-mode:multiply" opacity="0.53">
<path d="M168.228 143.853C166.659 143.853 165.388 142.904 165.388 141.736C165.388 138.227 161.575 135.381 156.868 135.381H153.066V138.58H156.113C159.884 138.58 162.943 141.426 162.943 144.935C162.943 146.103 163.965 147.052 165.218 147.052H196.308C197.567 147.052 198.583 146.103 198.583 144.935V143.853H168.228Z" fill="#EABBD7"/>
</g>
<path opacity="0.25" d="M180.832 113.881H165.22C163.961 113.881 162.945 114.83 162.945 115.997C162.945 119.507 159.886 122.353 156.115 122.353H153.068V138.579H156.115C159.886 138.579 162.945 141.425 162.945 144.935C162.945 146.102 163.967 147.051 165.22 147.051H172.932L180.832 113.881Z" fill="#FDFEFF"/>
<path d="M154.788 122.055H154.021V138.92H154.788V122.055Z" fill="#FFD79F"/>
<g style="mix-blend-mode:multiply" opacity="0.5">
<path d="M154.788 122.055H154.021V138.92H154.788V122.055Z" fill="#FFD79F"/>
</g>
<path d="M157.714 122.055H156.947V138.92H157.714V122.055Z" fill="#FFD79F"/>
<g style="mix-blend-mode:multiply" opacity="0.5">
<path d="M157.714 122.055H156.947V138.92H157.714V122.055Z" fill="#FFD79F"/>
</g>
<path d="M156.266 122.055H155.5V138.92H156.266V122.055Z" fill="#FFD79F"/>
<g style="mix-blend-mode:multiply" opacity="0.5">
<path d="M156.266 122.055H155.5V138.92H156.266V122.055Z" fill="#FFD79F"/>
</g>
<g style="mix-blend-mode:multiply" opacity="0.33">
<path d="M157.081 150.61H139.888C138.866 150.61 138.033 149.838 138.033 148.883V151.382C138.033 151.851 138.441 152.234 138.945 152.234H158.018C158.523 152.234 158.93 151.851 158.93 151.382V148.883C158.93 149.838 158.097 150.61 157.075 150.61H157.081Z" fill="#B2D1CD"/>
</g>
</g>
<defs>
<linearGradient id="paint0_linear_1951_9432" x1="20.1888" y1="49.309" x2="78.1053" y2="141.15" gradientUnits="userSpaceOnUse">
<stop stop-color="#84D0CE"/>
<stop offset="0.97" stop-color="#E2B0D0"/>
<stop offset="1" stop-color="#E5B0D1"/>
</linearGradient>
<linearGradient id="paint1_linear_1951_9432" x1="193.015" y1="48.2061" x2="160.42" y2="130.818" gradientUnits="userSpaceOnUse">
<stop stop-color="#84D0CE"/>
<stop offset="0.97" stop-color="#E2B0D0"/>
<stop offset="1" stop-color="#E5B0D1"/>
</linearGradient>
<linearGradient id="paint2_linear_1951_9432" x1="-7.15054" y1="40.6992" x2="29.5251" y2="74.8784" gradientUnits="userSpaceOnUse">
<stop stop-color="#84D0CE"/>
<stop offset="0.97" stop-color="#E2B0D0"/>
<stop offset="1" stop-color="#E5B0D1"/>
</linearGradient>
<linearGradient id="paint3_linear_1951_9432" x1="100.275" y1="58.0496" x2="183.043" y2="142.392" gradientUnits="userSpaceOnUse">
<stop stop-color="#D8D8ED"/>
<stop offset="0.15" stop-color="#D4D6EC"/>
<stop offset="0.29" stop-color="#C9D2EA"/>
<stop offset="0.43" stop-color="#B6CBE7"/>
<stop offset="0.57" stop-color="#9BC0E2"/>
<stop offset="0.7" stop-color="#79B3DC"/>
<stop offset="0.83" stop-color="#50A3D4"/>
<stop offset="0.96" stop-color="#1F91CC"/>
<stop offset="1" stop-color="#0D8AC9"/>
</linearGradient>
<linearGradient id="paint4_linear_1951_9432" x1="99.8257" y1="49.7305" x2="171.664" y2="139.309" gradientUnits="userSpaceOnUse">
<stop stop-color="#FCFCFC"/>
<stop offset="0.36" stop-color="#F8F8F8"/>
<stop offset="0.7" stop-color="#EDEDED"/>
<stop offset="1" stop-color="#DCDCDC"/>
</linearGradient>
<linearGradient id="paint5_linear_1951_9432" x1="118.607" y1="49.1029" x2="150.044" y2="49.1029" gradientUnits="userSpaceOnUse">
<stop stop-color="#BDBDBD"/>
<stop offset="1" stop-color="#959595"/>
</linearGradient>
<linearGradient id="paint6_linear_1951_9432" x1="83.4062" y1="40.8697" x2="127.682" y2="40.8697" gradientUnits="userSpaceOnUse">
<stop stop-color="#EEA3B7"/>
<stop offset="1" stop-color="#E8859F"/>
</linearGradient>
<linearGradient id="paint7_linear_1951_9432" x1="87.2986" y1="40.8692" x2="123.783" y2="40.8692" gradientUnits="userSpaceOnUse">
<stop stop-color="#ECDAE0"/>
<stop offset="1" stop-color="#EEA3B7"/>
</linearGradient>
<linearGradient id="paint8_linear_1951_9432" x1="73.6551" y1="82.3782" x2="58.0917" y2="83.029" gradientUnits="userSpaceOnUse">
<stop stop-color="#A2CAEC"/>
<stop offset="1" stop-color="#8CBEE7"/>
</linearGradient>
<linearGradient id="paint9_linear_1951_9432" x1="104.917" y1="73.0112" x2="99.3338" y2="128.55" gradientUnits="userSpaceOnUse">
<stop stop-color="#D8D8ED"/>
<stop offset="0.15" stop-color="#D4D6EC"/>
<stop offset="0.29" stop-color="#C9D2EA"/>
<stop offset="0.43" stop-color="#B6CBE7"/>
<stop offset="0.57" stop-color="#9BC0E2"/>
<stop offset="0.7" stop-color="#79B3DC"/>
<stop offset="0.83" stop-color="#50A3D4"/>
<stop offset="0.96" stop-color="#1F91CC"/>
<stop offset="1" stop-color="#0D8AC9"/>
</linearGradient>
<clipPath id="clip0_1951_9432">
<rect width="200" height="153.249" fill="white"/>
</clipPath>
</defs>
</svg>
