<svg width="211" height="120" viewBox="0 0 211 120" fill="none" xmlns="http://www.w3.org/2000/svg">
<circle cx="60" cy="60" r="60" fill="#816CEC"/>
<path d="M168.996 17.7578V18.6836H159.387V17.7578H161.684V15.0156C160.822 14.541 160.301 13.7852 160.301 12.8477C160.301 11.1953 161.918 10.1055 164.168 10.1055C166.43 10.1055 168.047 11.1953 168.047 12.8477C168.047 13.7734 167.543 14.5176 166.699 14.9922V17.7578H168.996ZM164.168 10.9961C162.516 10.9961 161.379 11.7109 161.379 12.8477C161.379 13.9727 162.516 14.7109 164.168 14.7109C165.809 14.7109 166.969 13.9727 166.969 12.8477C166.969 11.7109 165.809 10.9961 164.168 10.9961ZM162.785 17.7578H165.574V15.4141C165.146 15.5254 164.672 15.5781 164.168 15.5781C163.676 15.5781 163.207 15.5254 162.785 15.4258V17.7578ZM179.496 10.9844V11.8984H178.008V13.2344H179.496V14.1602H178.008V15.6953H176.895V9.49609H178.008V10.9844H179.496ZM172.711 10.1055C174.316 10.1055 175.5 11.125 175.512 12.6016C175.5 14.0664 174.316 15.0859 172.711 15.0977C171.105 15.0859 169.91 14.0664 169.922 12.6016C169.91 11.125 171.105 10.1055 172.711 10.1055ZM172.711 11.043C171.727 11.043 171 11.6758 171.012 12.6016C171 13.5391 171.727 14.1484 172.711 14.1602C173.695 14.1484 174.422 13.5391 174.422 12.6016C174.422 11.6758 173.695 11.043 172.711 11.043ZM174.621 15.9766C176.766 15.9766 178.102 16.7148 178.102 17.9805C178.102 19.2344 176.766 19.9844 174.621 19.9727C172.453 19.9844 171.094 19.2344 171.094 17.9805C171.094 16.7148 172.453 15.9766 174.621 15.9766ZM174.621 16.8789C173.098 16.8789 172.195 17.2773 172.207 17.9805C172.195 18.6953 173.098 19.082 174.621 19.082C176.133 19.082 177.012 18.6953 177.012 17.9805C177.012 17.2773 176.133 16.8789 174.621 16.8789ZM182.449 15.4844V16.7969H187.406V15.4844H188.496V19.8672H181.348V15.4844H182.449ZM182.449 18.9531H187.406V17.6641H182.449V18.9531ZM188.52 9.95312V10.75C188.52 11.5527 188.52 12.4551 188.25 13.7266H189.738V14.6289H180.129V13.7266H187.16C187.406 12.5195 187.418 11.6348 187.418 10.8672H181.336V9.95312H188.52ZM193.348 10.2812C194.303 10.2812 195.094 10.832 195.562 11.7812H198.152V9.49609H199.254V20.0195H198.152V15.9883H195.633C195.182 17.043 194.355 17.6523 193.348 17.6523C191.777 17.6523 190.676 16.2227 190.688 13.9609C190.676 11.7109 191.777 10.2812 193.348 10.2812ZM193.348 11.2773C192.398 11.2773 191.742 12.3086 191.742 13.9609C191.742 15.625 192.398 16.6562 193.348 16.6562C194.297 16.6562 194.953 15.625 194.953 13.9609C194.953 12.3086 194.297 11.2773 193.348 11.2773ZM195.879 12.6953C195.955 13.082 196.008 13.5039 196.008 13.9609C196.008 14.3594 195.973 14.7285 195.902 15.0742H198.152V12.6953H195.879Z" fill="#00CBEA"/>
<rect x="150" y="13" width="3" height="3" rx="1.5" fill="#00CBEA"/>
<path d="M162.363 27.8477C163.945 27.8594 165.105 28.832 165.117 30.2031C165.105 31.5859 163.945 32.5469 162.363 32.5469C160.77 32.5469 159.598 31.5859 159.598 30.2031C159.598 28.832 160.77 27.8594 162.363 27.8477ZM162.363 28.7852C161.391 28.7734 160.676 29.3477 160.688 30.2031C160.676 31.0703 161.391 31.6445 162.363 31.6445C163.324 31.6445 164.039 31.0703 164.039 30.2031C164.039 29.3477 163.324 28.7734 162.363 28.7852ZM168.094 27.4961V32.8398H166.98V27.4961H168.094ZM168.094 33.3203V35.9688H162.305V36.9766H168.445V37.8672H161.227V35.1367H166.992V34.2109H161.191V33.3203H168.094ZM178.008 27.5078V30.6016H179.531V31.5391H178.008V35.2188H176.895V27.5078H178.008ZM178.453 36.8711V37.7734H171.352V34.457H172.465V36.8711H178.453ZM171.258 28.2578V29.9336H174.012V28.2578H175.113V33.4844H170.168V28.2578H171.258ZM171.258 32.5938H174.012V30.8125H171.258V32.5938ZM184.02 29.6875C184.02 31.0469 185.027 32.3242 186.645 32.8398L186.07 33.707C184.863 33.3086 183.949 32.4824 183.48 31.4336C183.006 32.5762 182.074 33.4785 180.82 33.918L180.246 33.0391C181.875 32.4883 182.883 31.1289 182.895 29.6875V29.2305H180.539V28.3281H186.328V29.2305H184.02V29.6875ZM188.836 27.5078V35.1719H187.723V27.5078H188.836ZM189.152 36.8711V37.7734H181.969V34.4453H183.094V36.8711H189.152ZM200.109 35.8047V36.7422H190.5V35.8047H193.125V33.9531H191.672V30.6133H197.836V29.1484H191.648V28.2344H198.938V31.5156H192.773V33.0391H199.184V33.9531H197.59V35.8047H200.109ZM194.203 35.8047H196.5V33.9531H194.203V35.8047Z" fill="#FF37C7"/>
<rect x="150" y="31" width="3" height="3" rx="1.5" fill="#FF37C7"/>
<path d="M168.117 45.4961V55.9961H166.992V45.4961H168.117ZM164.988 46.6211C164.988 49.6914 163.676 52.3633 160.078 54.0859L159.492 53.1836C162.287 51.8535 163.646 49.9609 163.863 47.5117H159.996V46.6211H164.988ZM175.148 46.4219V47.3359H171.328V49.3633H174.938V50.2539H171.328V52.6094C173.08 52.6035 174.375 52.5273 175.898 52.2812L176.004 53.1836C174.387 53.4531 172.98 53.5117 171.047 53.5117H170.203V46.4219H175.148ZM177.938 45.4961V49.6328H179.625V50.5703H177.938V55.9961H176.824V45.4961H177.938ZM182.449 51.4844V52.7969H187.406V51.4844H188.496V55.8672H181.348V51.4844H182.449ZM182.449 54.9531H187.406V53.6641H182.449V54.9531ZM188.52 45.9531V46.75C188.52 47.5527 188.52 48.4551 188.25 49.7266H189.738V50.6289H180.129V49.7266H187.16C187.406 48.5195 187.418 47.6348 187.418 46.8672H181.336V45.9531H188.52ZM193.348 46.2812C194.303 46.2812 195.094 46.832 195.562 47.7812H198.152V45.4961H199.254V56.0195H198.152V51.9883H195.633C195.182 53.043 194.355 53.6523 193.348 53.6523C191.777 53.6523 190.676 52.2227 190.688 49.9609C190.676 47.7109 191.777 46.2812 193.348 46.2812ZM193.348 47.2773C192.398 47.2773 191.742 48.3086 191.742 49.9609C191.742 51.625 192.398 52.6562 193.348 52.6562C194.297 52.6562 194.953 51.625 194.953 49.9609C194.953 48.3086 194.297 47.2773 193.348 47.2773ZM195.879 48.6953C195.955 49.082 196.008 49.5039 196.008 49.9609C196.008 50.3594 195.973 50.7285 195.902 51.0742H198.152V48.6953H195.879Z" fill="#816CEC"/>
<rect x="150" y="49" width="3" height="3" rx="1.5" fill="#816CEC"/>
<path d="M162.809 64.2461C164.473 64.2344 165.656 65.2656 165.668 66.7422C165.656 68.2188 164.473 69.25 162.809 69.25C161.156 69.25 159.938 68.2188 159.949 66.7422C159.938 65.2656 161.156 64.2344 162.809 64.2461ZM162.809 65.207C161.789 65.207 161.039 65.8164 161.051 66.7422C161.039 67.668 161.789 68.2773 162.809 68.2773C163.828 68.2773 164.578 67.668 164.578 66.7422C164.578 65.8164 163.828 65.207 162.809 65.207ZM168.07 63.4961V74.0195H166.957V63.4961H168.07ZM159.445 70.832C161.355 70.832 164.004 70.8086 166.301 70.4805L166.383 71.2891C164.004 71.7461 161.461 71.7578 159.586 71.7578L159.445 70.832ZM179.367 71.8047V72.7422H169.758V71.8047H172.383V69.9531H170.93V66.6133H177.094V65.1484H170.906V64.2344H178.195V67.5156H172.031V69.0391H178.441V69.9531H176.848V71.8047H179.367ZM173.461 71.8047H175.758V69.9531H173.461V71.8047ZM189.738 71.7695V72.6953H180.129V71.7695H184.359V69.6133H181.23V64.2109H182.344V66.0156H187.5V64.2109H188.602V69.6133H185.461V71.7695H189.738ZM182.344 68.7109H187.5V66.918H182.344V68.7109ZM199.254 63.4961V69.8594H198.141V67.5742H196.5V66.6484H198.141V63.4961H199.254ZM199.254 70.375V73.8672H192.328V70.375H199.254ZM193.43 71.2539V72.9648H198.164V71.2539H193.43ZM196.664 64.5391V65.4297H190.512V64.5391H193.043V63.4023H194.145V64.5391H196.664ZM193.594 65.9102C195.035 65.9102 196.055 66.6836 196.055 67.7852C196.055 68.9219 195.035 69.6602 193.594 69.6719C192.152 69.6602 191.121 68.9219 191.121 67.7852C191.121 66.6836 192.152 65.9102 193.594 65.9102ZM193.594 66.7656C192.75 66.7539 192.188 67.1641 192.188 67.7852C192.188 68.4297 192.75 68.8281 193.594 68.8281C194.426 68.8281 194.988 68.4297 194.988 67.7852C194.988 67.1641 194.426 66.7539 193.594 66.7656Z" fill="#02CA66"/>
<rect x="150" y="67" width="3" height="3" rx="1.5" fill="#02CA66"/>
<path d="M163.043 84.5898C163.043 86.2539 164.133 88.1055 165.727 88.8555L165.094 89.7227C163.916 89.1543 162.984 87.9707 162.516 86.5938C162.029 88.0996 161.045 89.3945 159.844 89.9922L159.188 89.1133C160.781 88.3516 161.941 86.3711 161.941 84.5898V83.4766H159.574V82.5508H165.328V83.4766H163.043V84.5898ZM167.566 81.4961V85.6562H169.254V86.5938H167.566V91.9961H166.453V81.4961H167.566ZM179.344 86.6055V87.4961H169.758V86.6055H174.012V85.4922H170.953V81.9766H178.16V82.8555H172.055V84.6016H178.23V85.4922H175.09V86.6055H179.344ZM174.539 88.1758C176.801 88.1758 178.16 88.8672 178.16 90.0859C178.16 91.3047 176.801 91.9844 174.539 91.9961C172.266 91.9844 170.895 91.3047 170.895 90.0859C170.895 88.8672 172.266 88.1758 174.539 88.1758ZM174.539 89.043C172.934 89.043 172.02 89.418 172.02 90.0859C172.02 90.7539 172.934 91.1289 174.539 91.1172C176.121 91.1289 177.047 90.7539 177.047 90.0859C177.047 89.418 176.121 89.043 174.539 89.043ZM183.727 84.8711C183.727 86.4883 184.711 88.1992 186.281 88.9492L185.648 89.793C184.506 89.2539 183.645 88.1582 183.199 86.875C182.736 88.2637 181.822 89.4238 180.621 89.9805L180 89.125C181.594 88.3984 182.637 86.6055 182.637 84.8711V84.1797H180.316V83.2891H182.625V81.707H183.75V83.2891H186.035V84.1797H183.727V84.8711ZM188.309 81.4961V85.7266H189.996V86.6641H188.309V91.9961H187.195V81.4961H188.309ZM200.109 89.7695V90.6953H190.5V89.7695H194.73V87.6133H191.602V82.2109H192.715V84.0156H197.871V82.2109H198.973V87.6133H195.832V89.7695H200.109ZM192.715 86.7109H197.871V84.918H192.715V86.7109ZM209.625 81.4961V87.8594H208.512V85.5742H206.871V84.6484H208.512V81.4961H209.625ZM209.625 88.375V91.8672H202.699V88.375H209.625ZM203.801 89.2539V90.9648H208.535V89.2539H203.801ZM207.035 82.5391V83.4297H200.883V82.5391H203.414V81.4023H204.516V82.5391H207.035ZM203.965 83.9102C205.406 83.9102 206.426 84.6836 206.426 85.7852C206.426 86.9219 205.406 87.6602 203.965 87.6719C202.523 87.6602 201.492 86.9219 201.492 85.7852C201.492 84.6836 202.523 83.9102 203.965 83.9102ZM203.965 84.7656C203.121 84.7539 202.559 85.1641 202.559 85.7852C202.559 86.4297 203.121 86.8281 203.965 86.8281C204.797 86.8281 205.359 86.4297 205.359 85.7852C205.359 85.1641 204.797 84.7539 203.965 84.7656Z" fill="#FCA31D"/>
<rect x="150" y="85" width="3" height="3" rx="1.5" fill="#FCA31D"/>
<path d="M168.141 99.5078V107.242H167.027V103.598H164.848V102.672H167.027V99.5078H168.141ZM164.918 100.293C164.906 103.035 163.02 105.098 160.008 106.07L159.539 105.18C161.877 104.424 163.465 102.994 163.699 101.219H160.078V100.293H164.918ZM168.41 108.871V109.773H161.379V106.445H162.504V108.871H168.41ZM178.008 99.4961V102.145H179.531V103.047H178.008V105.73H176.895V99.4961H178.008ZM175.125 100.246C175.125 102.965 173.285 104.922 170.203 105.812L169.746 104.91C172.201 104.213 173.719 102.848 173.918 101.148H170.215V100.246H175.125ZM174.656 105.848C176.777 105.848 178.125 106.633 178.125 107.91C178.125 109.199 176.777 109.984 174.656 109.984C172.547 109.984 171.164 109.199 171.176 107.91C171.164 106.633 172.547 105.848 174.656 105.848ZM174.656 106.727C173.191 106.727 172.266 107.172 172.277 107.91C172.266 108.648 173.191 109.105 174.656 109.105C176.109 109.105 177.035 108.648 177.035 107.91C177.035 107.172 176.109 106.727 174.656 106.727ZM185.555 100.152C185.555 102.824 183.727 104.723 180.68 105.578L180.223 104.711C182.643 104.031 184.148 102.719 184.371 101.066H180.773V100.152H185.555ZM188.883 99.5078V105.449H187.77V103.059H185.602V102.133H187.77V99.5078H188.883ZM188.883 105.883V109.855H182.016V105.883H188.883ZM183.105 106.773V108.965H187.781V106.773H183.105ZM194.391 101.688C194.391 103.047 195.398 104.324 197.016 104.84L196.441 105.707C195.234 105.309 194.32 104.482 193.852 103.434C193.377 104.576 192.445 105.479 191.191 105.918L190.617 105.039C192.246 104.488 193.254 103.129 193.266 101.688V101.23H190.91V100.328H196.699V101.23H194.391V101.688ZM199.207 99.5078V107.172H198.094V99.5078H199.207ZM199.523 108.871V109.773H192.34V106.445H193.465V108.871H199.523Z" fill="#6585EC"/>
<rect x="150" y="103" width="3" height="3" rx="1.5" fill="#6585EC"/>
<path fill-rule="evenodd" clip-rule="evenodd" d="M62 0.0327053V59L101.563 103.273C90.78 113.632 76.1337 120 60 120C26.8629 120 0 93.1371 0 60C0 26.8629 26.8629 0 60 0C60.6693 0 61.336 0.0109583 62 0.0327053Z" fill="#00CBEA"/>
<path fill-rule="evenodd" clip-rule="evenodd" d="M62 0.03125V59.4985L113.751 86.6897C117.751 78.6506 120 69.5872 120 59.9985C120 27.5307 94.2112 1.08623 62 0.03125Z" fill="#FF37C7"/>
<path fill-rule="evenodd" clip-rule="evenodd" d="M101.279 103.544L61 59L105.509 99.1026C104.175 100.654 102.763 102.136 101.279 103.544Z" fill="#02CA66"/>
</svg>
