<svg width="211" height="120" viewBox="0 0 211 120" fill="none" xmlns="http://www.w3.org/2000/svg">
<circle cx="60" cy="60" r="60" fill="#02CA66"/>
<path d="M162.363 11.8477C163.945 11.8594 165.105 12.832 165.117 14.2031C165.105 15.5859 163.945 16.5469 162.363 16.5469C160.77 16.5469 159.598 15.5859 159.598 14.2031C159.598 12.832 160.77 11.8594 162.363 11.8477ZM162.363 12.7852C161.391 12.7734 160.676 13.3477 160.688 14.2031C160.676 15.0703 161.391 15.6445 162.363 15.6445C163.324 15.6445 164.039 15.0703 164.039 14.2031C164.039 13.3477 163.324 12.7734 162.363 12.7852ZM168.094 11.4961V16.8398H166.98V11.4961H168.094ZM168.094 17.3203V19.9688H162.305V20.9766H168.445V21.8672H161.227V19.1367H166.992V18.2109H161.191V17.3203H168.094ZM178.008 11.5078V14.6016H179.531V15.5391H178.008V19.2188H176.895V11.5078H178.008ZM178.453 20.8711V21.7734H171.352V18.457H172.465V20.8711H178.453ZM171.258 12.2578V13.9336H174.012V12.2578H175.113V17.4844H170.168V12.2578H171.258ZM171.258 16.5938H174.012V14.8125H171.258V16.5938ZM184.02 13.6875C184.02 15.0469 185.027 16.3242 186.645 16.8398L186.07 17.707C184.863 17.3086 183.949 16.4824 183.48 15.4336C183.006 16.5762 182.074 17.4785 180.82 17.918L180.246 17.0391C181.875 16.4883 182.883 15.1289 182.895 13.6875V13.2305H180.539V12.3281H186.328V13.2305H184.02V13.6875ZM188.836 11.5078V19.1719H187.723V11.5078H188.836ZM189.152 20.8711V21.7734H181.969V18.4453H183.094V20.8711H189.152ZM200.109 19.8047V20.7422H190.5V19.8047H193.125V17.9531H191.672V14.6133H197.836V13.1484H191.648V12.2344H198.938V15.5156H192.773V17.0391H199.184V17.9531H197.59V19.8047H200.109ZM194.203 19.8047H196.5V17.9531H194.203V19.8047Z" fill="#FF37C7"/>
<rect x="150" y="15" width="3" height="3" rx="1.5" fill="#FF37C7"/>
<path d="M168.996 37.7578V38.6836H159.387V37.7578H161.684V35.0156C160.822 34.541 160.301 33.7852 160.301 32.8477C160.301 31.1953 161.918 30.1055 164.168 30.1055C166.43 30.1055 168.047 31.1953 168.047 32.8477C168.047 33.7734 167.543 34.5176 166.699 34.9922V37.7578H168.996ZM164.168 30.9961C162.516 30.9961 161.379 31.7109 161.379 32.8477C161.379 33.9727 162.516 34.7109 164.168 34.7109C165.809 34.7109 166.969 33.9727 166.969 32.8477C166.969 31.7109 165.809 30.9961 164.168 30.9961ZM162.785 37.7578H165.574V35.4141C165.146 35.5254 164.672 35.5781 164.168 35.5781C163.676 35.5781 163.207 35.5254 162.785 35.4258V37.7578ZM179.496 30.9844V31.8984H178.008V33.2344H179.496V34.1602H178.008V35.6953H176.895V29.4961H178.008V30.9844H179.496ZM172.711 30.1055C174.316 30.1055 175.5 31.125 175.512 32.6016C175.5 34.0664 174.316 35.0859 172.711 35.0977C171.105 35.0859 169.91 34.0664 169.922 32.6016C169.91 31.125 171.105 30.1055 172.711 30.1055ZM172.711 31.043C171.727 31.043 171 31.6758 171.012 32.6016C171 33.5391 171.727 34.1484 172.711 34.1602C173.695 34.1484 174.422 33.5391 174.422 32.6016C174.422 31.6758 173.695 31.043 172.711 31.043ZM174.621 35.9766C176.766 35.9766 178.102 36.7148 178.102 37.9805C178.102 39.2344 176.766 39.9844 174.621 39.9727C172.453 39.9844 171.094 39.2344 171.094 37.9805C171.094 36.7148 172.453 35.9766 174.621 35.9766ZM174.621 36.8789C173.098 36.8789 172.195 37.2773 172.207 37.9805C172.195 38.6953 173.098 39.082 174.621 39.082C176.133 39.082 177.012 38.6953 177.012 37.9805C177.012 37.2773 176.133 36.8789 174.621 36.8789ZM182.449 35.4844V36.7969H187.406V35.4844H188.496V39.8672H181.348V35.4844H182.449ZM182.449 38.9531H187.406V37.6641H182.449V38.9531ZM188.52 29.9531V30.75C188.52 31.5527 188.52 32.4551 188.25 33.7266H189.738V34.6289H180.129V33.7266H187.16C187.406 32.5195 187.418 31.6348 187.418 30.8672H181.336V29.9531H188.52ZM193.348 30.2812C194.303 30.2812 195.094 30.832 195.562 31.7812H198.152V29.4961H199.254V40.0195H198.152V35.9883H195.633C195.182 37.043 194.355 37.6523 193.348 37.6523C191.777 37.6523 190.676 36.2227 190.688 33.9609C190.676 31.7109 191.777 30.2812 193.348 30.2812ZM193.348 31.2773C192.398 31.2773 191.742 32.3086 191.742 33.9609C191.742 35.625 192.398 36.6562 193.348 36.6562C194.297 36.6562 194.953 35.625 194.953 33.9609C194.953 32.3086 194.297 31.2773 193.348 31.2773ZM195.879 32.6953C195.955 33.082 196.008 33.5039 196.008 33.9609C196.008 34.3594 195.973 34.7285 195.902 35.0742H198.152V32.6953H195.879Z" fill="#00CBEA"/>
<rect x="150" y="33" width="3" height="3" rx="1.5" fill="#00CBEA"/>
<path d="M162.809 48.2461C164.473 48.2344 165.656 49.2656 165.668 50.7422C165.656 52.2188 164.473 53.25 162.809 53.25C161.156 53.25 159.938 52.2188 159.949 50.7422C159.938 49.2656 161.156 48.2344 162.809 48.2461ZM162.809 49.207C161.789 49.207 161.039 49.8164 161.051 50.7422C161.039 51.668 161.789 52.2773 162.809 52.2773C163.828 52.2773 164.578 51.668 164.578 50.7422C164.578 49.8164 163.828 49.207 162.809 49.207ZM168.07 47.4961V58.0195H166.957V47.4961H168.07ZM159.445 54.832C161.355 54.832 164.004 54.8086 166.301 54.4805L166.383 55.2891C164.004 55.7461 161.461 55.7578 159.586 55.7578L159.445 54.832ZM179.367 55.8047V56.7422H169.758V55.8047H172.383V53.9531H170.93V50.6133H177.094V49.1484H170.906V48.2344H178.195V51.5156H172.031V53.0391H178.441V53.9531H176.848V55.8047H179.367ZM173.461 55.8047H175.758V53.9531H173.461V55.8047ZM189.738 55.7695V56.6953H180.129V55.7695H184.359V53.6133H181.23V48.2109H182.344V50.0156H187.5V48.2109H188.602V53.6133H185.461V55.7695H189.738ZM182.344 52.7109H187.5V50.918H182.344V52.7109ZM199.254 47.4961V53.8594H198.141V51.5742H196.5V50.6484H198.141V47.4961H199.254ZM199.254 54.375V57.8672H192.328V54.375H199.254ZM193.43 55.2539V56.9648H198.164V55.2539H193.43ZM196.664 48.5391V49.4297H190.512V48.5391H193.043V47.4023H194.145V48.5391H196.664ZM193.594 49.9102C195.035 49.9102 196.055 50.6836 196.055 51.7852C196.055 52.9219 195.035 53.6602 193.594 53.6719C192.152 53.6602 191.121 52.9219 191.121 51.7852C191.121 50.6836 192.152 49.9102 193.594 49.9102ZM193.594 50.7656C192.75 50.7539 192.188 51.1641 192.188 51.7852C192.188 52.4297 192.75 52.8281 193.594 52.8281C194.426 52.8281 194.988 52.4297 194.988 51.7852C194.988 51.1641 194.426 50.7539 193.594 50.7656Z" fill="#02CA66"/>
<rect x="150" y="51" width="3" height="3" rx="1.5" fill="#02CA66"/>
<path d="M163.043 68.5898C163.043 70.2539 164.133 72.1055 165.727 72.8555L165.094 73.7227C163.916 73.1543 162.984 71.9707 162.516 70.5938C162.029 72.0996 161.045 73.3945 159.844 73.9922L159.188 73.1133C160.781 72.3516 161.941 70.3711 161.941 68.5898V67.4766H159.574V66.5508H165.328V67.4766H163.043V68.5898ZM167.566 65.4961V69.6562H169.254V70.5938H167.566V75.9961H166.453V65.4961H167.566ZM179.344 70.6055V71.4961H169.758V70.6055H174.012V69.4922H170.953V65.9766H178.16V66.8555H172.055V68.6016H178.23V69.4922H175.09V70.6055H179.344ZM174.539 72.1758C176.801 72.1758 178.16 72.8672 178.16 74.0859C178.16 75.3047 176.801 75.9844 174.539 75.9961C172.266 75.9844 170.895 75.3047 170.895 74.0859C170.895 72.8672 172.266 72.1758 174.539 72.1758ZM174.539 73.043C172.934 73.043 172.02 73.418 172.02 74.0859C172.02 74.7539 172.934 75.1289 174.539 75.1172C176.121 75.1289 177.047 74.7539 177.047 74.0859C177.047 73.418 176.121 73.043 174.539 73.043ZM183.727 68.8711C183.727 70.4883 184.711 72.1992 186.281 72.9492L185.648 73.793C184.506 73.2539 183.645 72.1582 183.199 70.875C182.736 72.2637 181.822 73.4238 180.621 73.9805L180 73.125C181.594 72.3984 182.637 70.6055 182.637 68.8711V68.1797H180.316V67.2891H182.625V65.707H183.75V67.2891H186.035V68.1797H183.727V68.8711ZM188.309 65.4961V69.7266H189.996V70.6641H188.309V75.9961H187.195V65.4961H188.309ZM200.109 73.7695V74.6953H190.5V73.7695H194.73V71.6133H191.602V66.2109H192.715V68.0156H197.871V66.2109H198.973V71.6133H195.832V73.7695H200.109ZM192.715 70.7109H197.871V68.918H192.715V70.7109ZM209.625 65.4961V71.8594H208.512V69.5742H206.871V68.6484H208.512V65.4961H209.625ZM209.625 72.375V75.8672H202.699V72.375H209.625ZM203.801 73.2539V74.9648H208.535V73.2539H203.801ZM207.035 66.5391V67.4297H200.883V66.5391H203.414V65.4023H204.516V66.5391H207.035ZM203.965 67.9102C205.406 67.9102 206.426 68.6836 206.426 69.7852C206.426 70.9219 205.406 71.6602 203.965 71.6719C202.523 71.6602 201.492 70.9219 201.492 69.7852C201.492 68.6836 202.523 67.9102 203.965 67.9102ZM203.965 68.7656C203.121 68.7539 202.559 69.1641 202.559 69.7852C202.559 70.4297 203.121 70.8281 203.965 70.8281C204.797 70.8281 205.359 70.4297 205.359 69.7852C205.359 69.1641 204.797 68.7539 203.965 68.7656Z" fill="#FCA31D"/>
<rect x="150" y="69" width="3" height="3" rx="1.5" fill="#FCA31D"/>
<path d="M168.141 83.5078V91.2422H167.027V87.5977H164.848V86.6719H167.027V83.5078H168.141ZM164.918 84.293C164.906 87.0352 163.02 89.0977 160.008 90.0703L159.539 89.1797C161.877 88.4238 163.465 86.9941 163.699 85.2188H160.078V84.293H164.918ZM168.41 92.8711V93.7734H161.379V90.4453H162.504V92.8711H168.41ZM178.008 83.4961V86.1445H179.531V87.0469H178.008V89.7305H176.895V83.4961H178.008ZM175.125 84.2461C175.125 86.9648 173.285 88.9219 170.203 89.8125L169.746 88.9102C172.201 88.2129 173.719 86.8477 173.918 85.1484H170.215V84.2461H175.125ZM174.656 89.8477C176.777 89.8477 178.125 90.6328 178.125 91.9102C178.125 93.1992 176.777 93.9844 174.656 93.9844C172.547 93.9844 171.164 93.1992 171.176 91.9102C171.164 90.6328 172.547 89.8477 174.656 89.8477ZM174.656 90.7266C173.191 90.7266 172.266 91.1719 172.277 91.9102C172.266 92.6484 173.191 93.1055 174.656 93.1055C176.109 93.1055 177.035 92.6484 177.035 91.9102C177.035 91.1719 176.109 90.7266 174.656 90.7266ZM185.555 84.1523C185.555 86.8242 183.727 88.7227 180.68 89.5781L180.223 88.7109C182.643 88.0312 184.148 86.7188 184.371 85.0664H180.773V84.1523H185.555ZM188.883 83.5078V89.4492H187.77V87.0586H185.602V86.1328H187.77V83.5078H188.883ZM188.883 89.8828V93.8555H182.016V89.8828H188.883ZM183.105 90.7734V92.9648H187.781V90.7734H183.105ZM194.391 85.6875C194.391 87.0469 195.398 88.3242 197.016 88.8398L196.441 89.707C195.234 89.3086 194.32 88.4824 193.852 87.4336C193.377 88.5762 192.445 89.4785 191.191 89.918L190.617 89.0391C192.246 88.4883 193.254 87.1289 193.266 85.6875V85.2305H190.91V84.3281H196.699V85.2305H194.391V85.6875ZM199.207 83.5078V91.1719H198.094V83.5078H199.207ZM199.523 92.8711V93.7734H192.34V90.4453H193.465V92.8711H199.523Z" fill="#6585EC"/>
<rect x="150" y="87" width="3" height="3" rx="1.5" fill="#6585EC"/>
<path d="M168.117 101.496V111.996H166.992V101.496H168.117ZM164.988 102.621C164.988 105.691 163.676 108.363 160.078 110.086L159.492 109.184C162.287 107.854 163.646 105.961 163.863 103.512H159.996V102.621H164.988ZM175.148 102.422V103.336H171.328V105.363H174.938V106.254H171.328V108.609C173.08 108.604 174.375 108.527 175.898 108.281L176.004 109.184C174.387 109.453 172.98 109.512 171.047 109.512H170.203V102.422H175.148ZM177.938 101.496V105.633H179.625V106.57H177.938V111.996H176.824V101.496H177.938ZM182.449 107.484V108.797H187.406V107.484H188.496V111.867H181.348V107.484H182.449ZM182.449 110.953H187.406V109.664H182.449V110.953ZM188.52 101.953V102.75C188.52 103.553 188.52 104.455 188.25 105.727H189.738V106.629H180.129V105.727H187.16C187.406 104.52 187.418 103.635 187.418 102.867H181.336V101.953H188.52ZM193.348 102.281C194.303 102.281 195.094 102.832 195.562 103.781H198.152V101.496H199.254V112.02H198.152V107.988H195.633C195.182 109.043 194.355 109.652 193.348 109.652C191.777 109.652 190.676 108.223 190.688 105.961C190.676 103.711 191.777 102.281 193.348 102.281ZM193.348 103.277C192.398 103.277 191.742 104.309 191.742 105.961C191.742 107.625 192.398 108.656 193.348 108.656C194.297 108.656 194.953 107.625 194.953 105.961C194.953 104.309 194.297 103.277 193.348 103.277ZM195.879 104.695C195.955 105.082 196.008 105.504 196.008 105.961C196.008 106.359 195.973 106.729 195.902 107.074H198.152V104.695H195.879Z" fill="#816CEC"/>
<rect x="150" y="105" width="3" height="3" rx="1.5" fill="#816CEC"/>
<path fill-rule="evenodd" clip-rule="evenodd" d="M62 0.0327053V59L101.563 103.273C90.78 113.632 76.1337 120 60 120C26.8629 120 0 93.1371 0 60C0 26.8629 26.8629 0 60 0C60.6693 0 61.336 0.0109583 62 0.0327053Z" fill="#FF37C7"/>
<path fill-rule="evenodd" clip-rule="evenodd" d="M62 0.03125V59.4985L113.751 86.6898C117.751 78.6506 120 69.5872 120 59.9985C120 27.5307 94.2112 1.08623 62 0.03125Z" fill="#00CBEA"/>
<path fill-rule="evenodd" clip-rule="evenodd" d="M101.279 103.544L61 59L105.509 99.1026C104.175 100.654 102.763 102.136 101.279 103.544Z" fill="#FCA31D"/>
</svg>
