<svg width="272" height="678" viewBox="0 0 272 678" fill="none" xmlns="http://www.w3.org/2000/svg">
<rect x="135" y="109" width="1" height="30" fill="#DEE2E5"/>
<rect x="135" y="247" width="1" height="30" fill="#DEE2E5"/>
<rect x="42" y="550" width="1" height="30" fill="#DEE2E5"/>
<rect x="222" y="550" width="1" height="30" fill="#DEE2E5"/>
<rect x="42" y="413" width="1" height="30" fill="#DEE2E5"/>
<rect x="222" y="413" width="1" height="30" fill="#DEE2E5"/>
<rect x="136" y="385" width="1" height="30" fill="#DEE2E5"/>
<path d="M98.6094 90.3125V92.0625H105.219V90.3125H106.672V96.1562H97.1406V90.3125H98.6094ZM98.6094 94.9375H105.219V93.2188H98.6094V94.9375ZM106.703 82.9375V84C106.703 85.0703 106.703 86.2734 106.344 87.9688H108.328V89.1719H95.5156V87.9688H104.891C105.219 86.3594 105.234 85.1797 105.234 84.1562H97.125V82.9375H106.703ZM112.821 83.375C114.094 83.375 115.149 84.1094 115.774 85.375H119.227V82.3281H120.696V96.3594H119.227V90.9844H115.868C115.266 92.3906 114.164 93.2031 112.821 93.2031C110.727 93.2031 109.258 91.2969 109.274 88.2812C109.258 85.2812 110.727 83.375 112.821 83.375ZM112.821 84.7031C111.555 84.7031 110.68 86.0781 110.68 88.2812C110.68 90.5 111.555 91.875 112.821 91.875C114.086 91.875 114.961 90.5 114.961 88.2812C114.961 86.0781 114.086 84.7031 112.821 84.7031ZM116.196 86.5938C116.297 87.1094 116.368 87.6719 116.368 88.2812C116.368 88.8125 116.321 89.3047 116.227 89.7656H119.227V86.5938H116.196ZM134.548 82.3281V96.3281H133.126V89.0938H131.313V95.6094H129.954V82.6094H131.313V87.875H133.126V82.3281H134.548ZM128.251 84.0156V85.2188H124.485V91.7031C126.204 91.6875 127.501 91.6094 129.001 91.3281L129.11 92.5469C127.423 92.8906 125.985 92.9531 123.938 92.9688H123.001V84.0156H128.251ZM140.931 84.9062C140.931 86.6875 142.165 88.3125 144.29 88.9844L143.587 90.1406C141.993 89.6328 140.829 88.5781 140.212 87.25C139.603 88.7812 138.376 89.9922 136.696 90.5781L135.931 89.3906C138.118 88.6719 139.431 86.8594 139.446 84.9219V84.5312H136.368V83.3281H143.946V84.5312H140.931V84.9062ZM147.04 82.3281V85.7969H149.071V87.0156H147.04V90.7344H145.556V82.3281H147.04ZM142.524 91.0781C145.415 91.0781 147.165 92.0312 147.165 93.6719C147.165 95.3281 145.415 96.3125 142.524 96.2969C139.603 96.3125 137.821 95.3281 137.821 93.6719C137.821 92.0312 139.603 91.0781 142.524 91.0781ZM142.524 92.25C140.493 92.25 139.29 92.7656 139.306 93.6719C139.29 94.6094 140.493 95.125 142.524 95.125C144.54 95.125 145.712 94.6094 145.712 93.6719C145.712 92.7656 144.54 92.25 142.524 92.25ZM158.025 84.8438C158.025 86.625 159.259 88.3281 161.4 89.0469L160.65 90.2031C159.064 89.6562 157.9 88.5625 157.291 87.1875C156.681 88.7031 155.47 89.8906 153.822 90.4688L153.025 89.3125C155.213 88.5625 156.525 86.7656 156.541 84.8281V84.4531H153.463V83.25H161.041V84.4531H158.025V84.8438ZM164.134 82.3281V85.9219H166.166V87.1719H164.134V90.7656H162.65V82.3281H164.134ZM164.134 91.4531V96.3281H162.65V92.6562H154.884V91.4531H164.134ZM171.611 84.4219C171.611 86.3906 172.877 88.1406 175.002 88.8281L174.189 89.9844C172.65 89.4297 171.518 88.3516 170.908 86.9531C170.299 88.5547 169.08 89.7969 167.393 90.4062L166.596 89.2188C168.83 88.4531 170.127 86.5938 170.143 84.4844V83.1094H171.611V84.4219ZM178.314 82.3281V90.5938H176.83V86.3906H173.877V85.1719H176.83V82.3281H178.314ZM173.627 90.9844C176.564 90.9844 178.361 91.9531 178.361 93.6562C178.361 95.3438 176.564 96.3125 173.627 96.2969C170.689 96.3125 168.877 95.3438 168.893 93.6562C168.877 91.9531 170.689 90.9844 173.627 90.9844ZM173.627 92.1406C171.58 92.1406 170.361 92.6875 170.361 93.6562C170.361 94.5938 171.58 95.125 173.627 95.125C175.674 95.125 176.893 94.5938 176.893 93.6562C176.893 92.6875 175.674 92.1406 173.627 92.1406Z" fill="#495057"/>
<path d="M113.687 221.141C113.687 222.812 115.937 224.422 118.593 224.75L118.046 225.922C115.812 225.594 113.835 224.5 112.937 222.984C112.038 224.508 110.07 225.594 107.827 225.922L107.249 224.75C109.937 224.422 112.171 222.844 112.171 221.141V220.562H113.687V221.141ZM119.312 226.938V228.125H106.546V226.938H119.312ZM112.921 229.312C115.937 229.312 117.749 230.203 117.749 231.812C117.749 233.422 115.937 234.312 112.921 234.328C109.874 234.312 108.062 233.422 108.062 231.812C108.062 230.203 109.874 229.312 112.921 229.312ZM112.921 230.453C110.781 230.453 109.562 230.938 109.562 231.812C109.562 232.703 110.781 233.172 112.921 233.156C115.031 233.172 116.265 232.703 116.265 231.812C116.265 230.938 115.031 230.453 112.921 230.453ZM131.664 220.344V230.516H130.179V220.344H131.664ZM132.086 232.828V234.031H122.507V229.484H124.007V232.828H132.086ZM124.07 221.281C126.179 221.281 127.789 222.719 127.789 224.75C127.789 226.812 126.179 228.234 124.07 228.234C121.961 228.234 120.336 226.812 120.336 224.75C120.336 222.719 121.961 221.281 124.07 221.281ZM124.07 222.578C122.757 222.578 121.789 223.469 121.789 224.75C121.789 226.062 122.757 226.938 124.07 226.938C125.351 226.938 126.336 226.062 126.336 224.75C126.336 223.469 125.351 222.578 124.07 222.578ZM149.961 231.344V232.578H137.149V231.344H140.211V227.688C139.063 227.055 138.368 226.047 138.368 224.797C138.368 222.594 140.524 221.141 143.524 221.141C146.539 221.141 148.696 222.594 148.696 224.797C148.696 226.031 148.024 227.023 146.899 227.656V231.344H149.961ZM143.524 222.328C141.321 222.328 139.805 223.281 139.805 224.797C139.805 226.297 141.321 227.281 143.524 227.281C145.711 227.281 147.258 226.297 147.258 224.797C147.258 223.281 145.711 222.328 143.524 222.328ZM141.68 231.344H145.399V228.219C144.828 228.367 144.196 228.438 143.524 228.438C142.868 228.438 142.243 228.367 141.68 228.234V231.344ZM155.563 223.312C155.563 224.953 156.923 226.5 159.048 227.094L158.344 228.25C156.727 227.789 155.501 226.789 154.86 225.5C154.251 226.945 153.032 228.086 151.36 228.609L150.657 227.469C152.782 226.781 154.094 225.109 154.094 223.312V223.141H151.048V221.953H154.094V220.266H155.579V221.953H158.61V223.141H155.563V223.312ZM162.329 220.328V228.812H160.844V225.469H158.173V224.25H160.844V220.328H162.329ZM157.641 229.125C160.563 229.125 162.376 230.062 162.376 231.703C162.376 233.359 160.563 234.312 157.641 234.297C154.704 234.312 152.891 233.359 152.907 231.703C152.891 230.062 154.704 229.125 157.641 229.125ZM157.641 230.281C155.594 230.281 154.376 230.797 154.376 231.703C154.376 232.609 155.594 233.156 157.641 233.156C159.704 233.156 160.907 232.609 160.907 231.703C160.907 230.797 159.704 230.281 157.641 230.281Z" fill="#495057"/>
<path d="M111.433 358.344V368.953H109.948V367.609H107.136V366.562H109.948V358.344H111.433ZM111.777 370.828V372.031H101.667V367.922H103.136V370.828H111.777ZM99.7297 364.734C102.323 364.719 105.808 364.688 108.792 364.312L108.886 365.375C107.691 365.57 106.433 365.703 105.198 365.781V368.516H103.714V365.859C102.355 365.922 101.05 365.93 99.9172 365.922L99.7297 364.734ZM104.308 358.875C106.355 358.875 107.777 359.859 107.777 361.344C107.777 362.828 106.355 363.781 104.308 363.781C102.23 363.781 100.823 362.828 100.823 361.344C100.823 359.859 102.23 358.875 104.308 358.875ZM104.308 359.984C103.058 359.969 102.214 360.5 102.23 361.344C102.214 362.172 103.058 362.688 104.308 362.688C105.511 362.688 106.355 362.172 106.37 361.344C106.355 360.5 105.511 359.969 104.308 359.984ZM118.191 360.906C118.191 362.688 119.425 364.312 121.55 364.984L120.847 366.141C119.253 365.633 118.089 364.578 117.472 363.25C116.863 364.781 115.636 365.992 113.957 366.578L113.191 365.391C115.378 364.672 116.691 362.859 116.707 360.922V360.531H113.628V359.328H121.207V360.531H118.191V360.906ZM124.3 358.328V361.797H126.332V363.016H124.3V366.734H122.816V358.328H124.3ZM119.785 367.078C122.675 367.078 124.425 368.031 124.425 369.672C124.425 371.328 122.675 372.312 119.785 372.297C116.863 372.312 115.082 371.328 115.082 369.672C115.082 368.031 116.863 367.078 119.785 367.078ZM119.785 368.25C117.753 368.25 116.55 368.766 116.566 369.672C116.55 370.609 117.753 371.125 119.785 371.125C121.8 371.125 122.972 370.609 122.972 369.672C122.972 368.766 121.8 368.25 119.785 368.25ZM138.402 358.328V366.234H136.933V358.328H138.402ZM129.152 359.141V364.047C131.41 364.031 133.394 363.867 135.496 363.422L135.699 364.656C133.387 365.125 131.277 365.297 128.824 365.297H127.668V359.141H129.152ZM138.402 366.875V372.141H129.23V366.875H138.402ZM130.683 368.047V370.953H136.949V368.047H130.683ZM151.043 359.141C151.043 360.812 153.293 362.422 155.95 362.75L155.403 363.922C153.168 363.594 151.192 362.5 150.293 360.984C149.395 362.508 147.426 363.594 145.184 363.922L144.606 362.75C147.293 362.422 149.528 360.844 149.528 359.141V358.562H151.043V359.141ZM156.668 364.938V366.125H143.903V364.938H156.668ZM150.278 367.312C153.293 367.312 155.106 368.203 155.106 369.812C155.106 371.422 153.293 372.312 150.278 372.328C147.231 372.312 145.418 371.422 145.418 369.812C145.418 368.203 147.231 367.312 150.278 367.312ZM150.278 368.453C148.137 368.453 146.918 368.938 146.918 369.812C146.918 370.703 148.137 371.172 150.278 371.156C152.387 371.172 153.622 370.703 153.622 369.812C153.622 368.938 152.387 368.453 150.278 368.453ZM169.02 358.344V368.516H167.536V358.344H169.02ZM169.442 370.828V372.031H159.864V367.484H161.364V370.828H169.442ZM161.427 359.281C163.536 359.281 165.145 360.719 165.145 362.75C165.145 364.812 163.536 366.234 161.427 366.234C159.317 366.234 157.692 364.812 157.692 362.75C157.692 360.719 159.317 359.281 161.427 359.281ZM161.427 360.578C160.114 360.578 159.145 361.469 159.145 362.75C159.145 364.062 160.114 364.938 161.427 364.938C162.708 364.938 163.692 364.062 163.692 362.75C163.692 361.469 162.708 360.578 161.427 360.578Z" fill="#495057"/>
<path d="M3.63187 531.312V533.062H10.2412V531.312H11.6944V537.156H2.16312V531.312H3.63187ZM3.63187 535.938H10.2412V534.219H3.63187V535.938ZM11.7256 523.938V525C11.7256 526.07 11.7256 527.273 11.3662 528.969H13.3506V530.172H0.538124V528.969H9.91312C10.2412 527.359 10.2569 526.18 10.2569 525.156H2.1475V523.938H11.7256ZM17.8431 524.375C19.1166 524.375 20.1712 525.109 20.7962 526.375H24.2494V523.328H25.7181V537.359H24.2494V531.984H20.89C20.2884 533.391 19.1869 534.203 17.8431 534.203C15.7494 534.203 14.2806 532.297 14.2962 529.281C14.2806 526.281 15.7494 524.375 17.8431 524.375ZM17.8431 525.703C16.5775 525.703 15.7025 527.078 15.7025 529.281C15.7025 531.5 16.5775 532.875 17.8431 532.875C19.1087 532.875 19.9837 531.5 19.9837 529.281C19.9837 527.078 19.1087 525.703 17.8431 525.703ZM21.2181 527.594C21.3197 528.109 21.39 528.672 21.39 529.281C21.39 529.812 21.3431 530.305 21.2494 530.766H24.2494V527.594H21.2181ZM39.57 523.328V537.328H38.1481V530.094H36.3356V536.609H34.9762V523.609H36.3356V528.875H38.1481V523.328H39.57ZM33.2731 525.016V526.219H29.5075V532.703C31.2262 532.688 32.5231 532.609 34.0231 532.328L34.1325 533.547C32.445 533.891 31.0075 533.953 28.9606 533.969H28.0231V525.016H33.2731ZM45.9531 525.906C45.9531 527.688 47.1875 529.312 49.3125 529.984L48.6094 531.141C47.0156 530.633 45.8516 529.578 45.2344 528.25C44.625 529.781 43.3984 530.992 41.7188 531.578L40.9531 530.391C43.1406 529.672 44.4531 527.859 44.4688 525.922V525.531H41.3906V524.328H48.9688V525.531H45.9531V525.906ZM52.0625 523.328V526.797H54.0938V528.016H52.0625V531.734H50.5781V523.328H52.0625ZM47.5469 532.078C50.4375 532.078 52.1875 533.031 52.1875 534.672C52.1875 536.328 50.4375 537.312 47.5469 537.297C44.625 537.312 42.8438 536.328 42.8438 534.672C42.8438 533.031 44.625 532.078 47.5469 532.078ZM47.5469 533.25C45.5156 533.25 44.3125 533.766 44.3281 534.672C44.3125 535.609 45.5156 536.125 47.5469 536.125C49.5625 536.125 50.7344 535.609 50.7344 534.672C50.7344 533.766 49.5625 533.25 47.5469 533.25ZM60.1569 523.922V525.828H63.8288V523.922H65.2975V530.031H58.7038V523.922H60.1569ZM60.1569 528.844H63.8288V526.969H60.1569V528.844ZM69.1569 523.328V526.266H71.1881V527.469H69.1569V530.531H67.6725V523.328H69.1569ZM69.1569 531.141V534.672H61.5944V536H69.6413V537.188H60.1413V533.578H67.6881V532.312H60.11V531.141H69.1569ZM78.7744 528.234V530.188H84.4306V531.391H71.665V530.188H77.3056V528.234H78.7744ZM78.79 524.141C78.79 525.922 80.9775 527.484 83.6806 527.828L83.1025 529C80.8759 528.648 78.915 527.562 78.04 526.016C77.1416 527.562 75.1806 528.648 72.9463 529L72.3994 527.828C75.0869 527.484 77.2744 525.906 77.29 524.141V523.547H78.79V524.141ZM78.04 532.422C81.0713 532.422 82.8681 533.297 82.8681 534.875C82.8681 536.438 81.0713 537.312 78.04 537.297C74.9931 537.312 73.1806 536.438 73.1806 534.875C73.1806 533.297 74.9931 532.422 78.04 532.422ZM78.04 533.562C75.8838 533.562 74.6806 534.016 74.6806 534.875C74.6806 535.719 75.8838 536.172 78.04 536.172C80.165 536.172 81.3838 535.719 81.3838 534.875C81.3838 534.016 80.165 533.562 78.04 533.562Z" fill="#495057"/>
<path d="M24.7497 662.188V664.312H28.2497V662.188H29.7184V663.547H32.7809V661.328H34.2653V669.781H32.7809V667.625H29.7184V668.812H23.2653V662.188H24.7497ZM24.7497 667.625H28.2497V665.484H24.7497V667.625ZM29.5778 670.031C32.5153 670.047 34.3122 671 34.3122 672.688C34.3122 674.344 32.5153 675.312 29.5778 675.297C26.6403 675.312 24.8278 674.344 24.8434 672.688C24.8278 671 26.6403 670.047 29.5778 670.031ZM29.5778 671.172C27.5309 671.188 26.3122 671.719 26.3122 672.688C26.3122 673.625 27.5309 674.156 29.5778 674.156C31.6247 674.156 32.8434 673.625 32.8434 672.688C32.8434 671.719 31.6247 671.188 29.5778 671.172ZM29.7184 666.406H32.7809V664.734H29.7184V666.406ZM47.7422 661.344V671.953H46.2578V670.609H43.4453V669.562H46.2578V661.344H47.7422ZM48.0859 673.828V675.031H37.9766V670.922H39.4453V673.828H48.0859ZM36.0391 667.734C38.6328 667.719 42.1172 667.688 45.1016 667.312L45.1953 668.375C44 668.57 42.7422 668.703 41.5078 668.781V671.516H40.0234V668.859C38.6641 668.922 37.3594 668.93 36.2266 668.922L36.0391 667.734ZM40.6172 661.875C42.6641 661.875 44.0859 662.859 44.0859 664.344C44.0859 665.828 42.6641 666.781 40.6172 666.781C38.5391 666.781 37.1328 665.828 37.1328 664.344C37.1328 662.859 38.5391 661.875 40.6172 661.875ZM40.6172 662.984C39.3672 662.969 38.5234 663.5 38.5391 664.344C38.5234 665.172 39.3672 665.688 40.6172 665.688C41.8203 665.688 42.6641 665.172 42.6797 664.344C42.6641 663.5 41.8203 662.969 40.6172 662.984ZM54.5003 663.906C54.5003 665.688 55.7347 667.312 57.8597 667.984L57.1566 669.141C55.5628 668.633 54.3988 667.578 53.7816 666.25C53.1722 667.781 51.9456 668.992 50.2659 669.578L49.5003 668.391C51.6878 667.672 53.0003 665.859 53.0159 663.922V663.531H49.9378V662.328H57.5159V663.531H54.5003V663.906ZM60.6097 661.328V664.797H62.6409V666.016H60.6097V669.734H59.1253V661.328H60.6097ZM56.0941 670.078C58.9847 670.078 60.7347 671.031 60.7347 672.672C60.7347 674.328 58.9847 675.312 56.0941 675.297C53.1722 675.312 51.3909 674.328 51.3909 672.672C51.3909 671.031 53.1722 670.078 56.0941 670.078ZM56.0941 671.25C54.0628 671.25 52.8597 671.766 52.8753 672.672C52.8597 673.609 54.0628 674.125 56.0941 674.125C58.1097 674.125 59.2816 673.609 59.2816 672.672C59.2816 671.766 58.1097 671.25 56.0941 671.25Z" fill="#495057"/>
<path d="M176.878 531.312V533.062H183.487V531.312H184.94V537.156H175.409V531.312H176.878ZM176.878 535.938H183.487V534.219H176.878V535.938ZM184.972 523.938V525C184.972 526.07 184.972 527.273 184.612 528.969H186.597V530.172H173.784V528.969H183.159C183.487 527.359 183.503 526.18 183.503 525.156H175.393V523.938H184.972ZM191.089 524.375C192.362 524.375 193.417 525.109 194.042 526.375H197.495V523.328H198.964V537.359H197.495V531.984H194.136C193.534 533.391 192.433 534.203 191.089 534.203C188.995 534.203 187.527 532.297 187.542 529.281C187.527 526.281 188.995 524.375 191.089 524.375ZM191.089 525.703C189.823 525.703 188.948 527.078 188.948 529.281C188.948 531.5 189.823 532.875 191.089 532.875C192.355 532.875 193.23 531.5 193.23 529.281C193.23 527.078 192.355 525.703 191.089 525.703ZM194.464 527.594C194.566 528.109 194.636 528.672 194.636 529.281C194.636 529.812 194.589 530.305 194.495 530.766H197.495V527.594H194.464ZM212.472 523.328V531.594H210.988V529.516H207.941V530.656H201.441V524.375H207.941V525.531H210.988V523.328H212.472ZM202.91 525.562V529.469H206.488V525.562H202.91ZM207.785 531.984C210.722 531.984 212.519 532.953 212.519 534.656C212.519 536.344 210.722 537.312 207.785 537.297C204.847 537.312 203.035 536.344 203.05 534.656C203.035 532.953 204.847 531.984 207.785 531.984ZM207.785 533.125C205.738 533.141 204.519 533.672 204.519 534.656C204.519 535.594 205.738 536.156 207.785 536.156C209.832 536.156 211.05 535.594 211.05 534.656C211.05 533.672 209.832 533.141 207.785 533.125ZM207.941 528.312H210.988V526.719H207.941V528.312ZM218.574 527.156C218.574 529.391 219.512 531.781 221.387 532.922L220.558 534.062C219.246 533.273 218.355 531.875 217.887 530.25C217.363 532.031 216.402 533.547 215.043 534.375L214.121 533.266C216.105 532.078 217.137 529.609 217.137 527.219V524.609H218.574V527.156ZM226.355 523.328V537.328H224.933V523.328H226.355ZM223.449 523.594V536.641H222.043V529.484H219.871V528.25H222.043V523.594H223.449ZM232.863 526.891C232.863 529.453 234.301 532 236.442 532.969L235.535 534.156C233.942 533.359 232.746 531.773 232.129 529.859C231.512 531.875 230.285 533.578 228.676 534.422L227.738 533.219C229.91 532.188 231.363 529.484 231.363 526.891V524.5H232.863V526.891ZM239.488 523.328V537.359H238.02V529.188H234.895V527.984H238.02V523.328H239.488ZM246.911 523.922V525.828H250.583V523.922H252.052V530.031H245.458V523.922H246.911ZM246.911 528.844H250.583V526.969H246.911V528.844ZM255.911 523.328V526.266H257.942V527.469H255.911V530.531H254.427V523.328H255.911ZM255.911 531.141V534.672H248.348V536H256.395V537.188H246.895V533.578H254.442V532.312H246.864V531.141H255.911ZM265.528 528.234V530.188H271.185V531.391H258.419V530.188H264.06V528.234H265.528ZM265.544 524.141C265.544 525.922 267.732 527.484 270.435 527.828L269.857 529C267.63 528.648 265.669 527.562 264.794 526.016C263.896 527.562 261.935 528.648 259.7 529L259.153 527.828C261.841 527.484 264.028 525.906 264.044 524.141V523.547H265.544V524.141ZM264.794 532.422C267.825 532.422 269.622 533.297 269.622 534.875C269.622 536.438 267.825 537.312 264.794 537.297C261.747 537.312 259.935 536.438 259.935 534.875C259.935 533.297 261.747 532.422 264.794 532.422ZM264.794 533.562C262.638 533.562 261.435 534.016 261.435 534.875C261.435 535.719 262.638 536.172 264.794 536.172C266.919 536.172 268.138 535.719 268.138 534.875C268.138 534.016 266.919 533.562 264.794 533.562Z" fill="#495057"/>
<path d="M206.359 672.328V673.547H193.546V672.328H199.156V669H200.624V672.328H206.359ZM200.656 663.281C200.656 665.5 203.093 667.578 205.796 668.031L205.156 669.25C202.89 668.797 200.804 667.398 199.874 665.469C198.952 667.391 196.89 668.812 194.64 669.25L193.984 668.031C196.671 667.578 199.093 665.5 199.093 663.281V662.219H200.656V663.281ZM219.851 668.281V669.5H207.054V668.281H212.695V666.234H214.164V668.281H219.851ZM214.179 662.141C214.179 663.922 216.367 665.484 219.07 665.828L218.492 667C216.265 666.648 214.304 665.562 213.429 664.016C212.531 665.562 210.57 666.648 208.336 667L207.789 665.828C210.476 665.484 212.664 663.906 212.679 662.141V661.547H214.179V662.141ZM218.257 670.734V675.328H216.757V671.906H208.476V670.734H218.257ZM229.336 663.844C229.336 665.641 230.68 667.359 232.836 668.047L232.071 669.203C230.461 668.672 229.243 667.562 228.618 666.156C227.985 667.68 226.743 668.883 225.071 669.469L224.305 668.328C226.477 667.578 227.821 665.75 227.836 663.844V663.453H224.696V662.25H232.414V663.453H229.336V663.844ZM235.758 661.328V669.781H234.274V661.328H235.758ZM235.758 670.484V675.328H234.274V671.688H226.274V670.484H235.758ZM249.298 661.344V671.953H247.813V670.609H245.001V669.562H247.813V661.344H249.298ZM249.641 673.828V675.031H239.532V670.922H241.001V673.828H249.641ZM237.594 667.734C240.188 667.719 243.673 667.688 246.657 667.312L246.751 668.375C245.555 668.57 244.298 668.703 243.063 668.781V671.516H241.579V668.859C240.219 668.922 238.915 668.93 237.782 668.922L237.594 667.734ZM242.173 661.875C244.219 661.875 245.641 662.859 245.641 664.344C245.641 665.828 244.219 666.781 242.173 666.781C240.094 666.781 238.688 665.828 238.688 664.344C238.688 662.859 240.094 661.875 242.173 661.875ZM242.173 662.984C240.923 662.969 240.079 663.5 240.094 664.344C240.079 665.172 240.923 665.688 242.173 665.688C243.376 665.688 244.219 665.172 244.235 664.344C244.219 663.5 243.376 662.969 242.173 662.984Z" fill="#495057"/>
<circle cx="135" cy="312" r="34.5" fill="white" stroke="#DEE2E5"/>
<circle cx="42" cy="477" r="34.5" fill="white" stroke="#DEE2E5"/>
<circle cx="42" cy="615" r="34.5" fill="white" stroke="#DEE2E5"/>
<circle cx="223" cy="477" r="34.5" fill="white" stroke="#DEE2E5"/>
<circle cx="223" cy="615" r="34.5" fill="white" stroke="#DEE2E5"/>
<path d="M60.0006 472.567V468.193C60.0006 467.632 59.7099 467.111 59.2318 466.814L45.4255 458.247C44.8958 457.918 44.2239 457.918 43.6942 458.247L29.8879 466.815C29.4098 467.112 29.1191 467.633 29.1191 468.194V472.568L44.6083 479.768L60.0006 472.568V472.567Z" fill="#FE73C5"/>
<path d="M56.0843 485.252H33.0342V462.901C33.0342 462.451 33.399 462.086 33.849 462.086H55.2687C55.7187 462.086 56.0835 462.451 56.0835 462.901V485.252H56.0843Z" fill="#F7F9FA"/>
<path d="M55.2694 462.086H52.0498C52.4998 462.086 52.8647 462.451 52.8647 462.901V485.252H56.0842V462.901C56.0842 462.451 55.7194 462.086 55.2694 462.086Z" fill="#ECF1F5"/>
<path d="M43.6932 477.642L29.7432 468.984C29.4705 468.815 29.1182 469.01 29.1182 469.329V485.857C29.1182 486.754 29.8502 487.482 30.7533 487.482H44.5597V477.888C44.2589 477.888 43.9589 477.806 43.694 477.641L43.6932 477.642Z" fill="#FE93D3"/>
<path d="M59.3753 468.987L45.4252 477.645C45.1604 477.809 44.8596 477.892 44.5596 477.892V487.486H58.3659C59.269 487.486 60.0011 486.758 60.0011 485.861V469.333C60.0011 469.014 59.6479 468.819 59.3761 468.988L59.3753 468.987Z" fill="#FE93D3"/>
<path d="M30.3553 486.554L43.7155 476.52C44.2233 476.139 44.9225 476.139 45.4304 476.52L58.7656 486.553C59.1617 486.852 58.9507 487.482 58.4554 487.482H30.6646C30.1685 487.482 29.9584 486.851 30.3545 486.553L30.3553 486.554Z" fill="#FE73C5"/>
<path d="M37.3783 467.02H51.7409C52.0745 467.02 52.3448 466.75 52.3448 466.416C52.3448 466.083 52.0745 465.812 51.7409 465.812H37.3783C37.0447 465.812 36.7744 466.083 36.7744 466.416C36.7744 466.75 37.0447 467.02 37.3783 467.02Z" fill="#DDE2F6"/>
<path d="M51.7409 468.672H37.3783C37.0447 468.672 36.7744 468.942 36.7744 469.276C36.7744 469.609 37.0447 469.88 37.3783 469.88H51.7409C52.0745 469.88 52.3448 469.609 52.3448 469.276C52.3448 468.942 52.0745 468.672 51.7409 468.672Z" fill="#DDE2F6"/>
<path d="M31.3915 498C37.6828 498 42.7829 492.9 42.7829 486.609C42.7829 480.319 37.6828 475.219 31.3915 475.219C25.1001 475.219 20 480.319 20 486.609C20 492.9 25.1001 498 31.3915 498Z" fill="#F7F9FA"/>
<path d="M31.3916 475.219C30.8455 475.219 30.308 475.257 29.7822 475.332C35.3041 476.116 39.5643 480.875 39.5643 486.609C39.5643 492.344 35.3041 497.102 29.7822 497.887C30.308 497.962 30.8455 498 31.3916 498C37.6729 498 42.7831 492.891 42.7831 486.609C42.7831 480.329 37.6729 475.219 31.3916 475.219Z" fill="#ECF1F5"/>
<path d="M31.302 496.165C36.5375 496.165 40.7818 491.907 40.7818 486.655C40.7818 481.402 36.5375 477.145 31.302 477.145C26.0665 477.145 21.8223 481.402 21.8223 486.655C21.8223 491.907 26.0665 496.165 31.302 496.165Z" fill="#FFCD55"/>
<path d="M31.3016 477.145C30.8383 477.145 30.3828 477.178 29.9375 477.243C34.5203 477.909 38.0532 481.876 38.0532 486.655C38.0532 491.434 34.5211 495.402 29.9375 496.067C30.3828 496.131 30.8383 496.165 31.3016 496.165C36.5282 496.165 40.7813 491.899 40.7813 486.655C40.7813 481.411 36.5289 477.145 31.3016 477.145Z" fill="#FFBE46"/>
<path d="M31.3016 493.759C35.2134 493.759 38.3845 490.578 38.3845 486.653C38.3845 482.728 35.2134 479.547 31.3016 479.547C27.3899 479.547 24.2188 482.728 24.2188 486.653C24.2188 490.578 27.3899 493.759 31.3016 493.759Z" fill="#FFE177"/>
<path d="M32.0844 486.144C31.6031 485.973 30.6023 485.763 30.4227 485.188C30.3086 484.822 30.5734 484.36 30.9344 484.251C31.3422 484.127 31.8094 484.202 32.1258 484.441C32.2164 484.521 32.3344 484.569 32.4641 484.569C32.7469 484.569 32.9766 484.34 32.9766 484.056C32.9766 483.882 32.8891 483.728 32.7563 483.635C32.6195 483.528 32.2766 483.295 31.782 483.201V482.879C31.782 482.596 31.5531 482.367 31.2703 482.367C30.9875 482.367 30.7586 482.596 30.7586 482.879V483.238C29.8078 483.478 29.1461 484.532 29.4461 485.493C29.7539 486.477 30.8789 486.802 31.743 487.108C32.443 487.356 32.3977 487.959 32.3664 488.138C32.2891 488.587 31.9133 489.069 31.2703 489.069C30.4781 489.069 30.043 488.763 30.0297 488.754C29.8039 488.584 29.4836 488.628 29.3125 488.853C29.1422 489.079 29.1867 489.399 29.4117 489.57C29.4711 489.615 29.9391 489.952 30.7578 490.059V490.44C30.7578 490.723 30.9867 490.952 31.2695 490.952C31.5524 490.952 31.7813 490.723 31.7813 490.44V490.036C32.7047 489.823 33.2485 489.044 33.3742 488.313C33.5399 487.348 33.0219 486.477 32.0844 486.144Z" fill="#FFCD55"/>
<rect x="42" y="413" width="181" height="1" fill="#DEE2E5"/>
<circle cx="135" cy="174" r="34.5" fill="white" stroke="#DEE2E5"/>
<path d="M152.234 157.543H135.624C136.396 158.73 136.845 160.146 136.845 161.665C136.845 165.846 133.444 169.248 129.262 169.248C127.97 169.248 126.753 168.923 125.688 168.351V179.42C126.495 180.069 127.014 181.063 127.014 182.177C127.014 183.291 126.516 184.27 125.688 184.935V185.363H127.48C128.905 185.363 130.066 186.523 130.066 187.949V194.002H152.233C152.677 194.002 153.037 193.641 153.037 193.197V158.348C153.037 157.903 152.677 157.543 152.233 157.543H152.234Z" fill="#F3F0F3"/>
<path d="M152.234 157.543H149.717V189.856C149.717 190.301 149.357 190.661 148.913 190.661H130.066V194.002H152.234C152.678 194.002 153.038 193.641 153.038 193.197V158.348C153.038 157.903 152.678 157.543 152.234 157.543Z" fill="#E2DEE2"/>
<path d="M141.618 186.914H129.85C129.988 187.23 130.066 187.58 130.066 187.948V188.086H141.618C141.942 188.086 142.204 187.823 142.204 187.5C142.204 187.177 141.942 186.914 141.618 186.914Z" fill="#A79BA7"/>
<path d="M141.619 189.707H130.066V190.879H141.619C141.942 190.879 142.205 190.616 142.205 190.293C142.205 189.97 141.942 189.707 141.619 189.707Z" fill="#A79BA7"/>
<path d="M141.619 162.977H136.731C136.661 163.379 136.558 163.77 136.427 164.148H141.619C141.942 164.148 142.205 163.886 142.205 163.562C142.205 163.239 141.942 162.977 141.619 162.977Z" fill="#A79BA7"/>
<path d="M141.618 165.77H135.635C135.362 166.191 135.05 166.583 134.701 166.941H141.618C141.942 166.941 142.204 166.679 142.204 166.355C142.204 166.032 141.942 165.77 141.618 165.77Z" fill="#A79BA7"/>
<path d="M141.619 170.957H133.45C133.127 170.957 132.864 171.22 132.864 171.543C132.864 171.866 133.127 172.129 133.45 172.129H141.619C141.942 172.129 142.205 171.866 142.205 171.543C142.205 171.22 141.942 170.957 141.619 170.957Z" fill="#A79BA7"/>
<path d="M129.57 172.129H131.277C131.601 172.129 131.863 171.866 131.863 171.543C131.863 171.22 131.601 170.957 131.277 170.957H129.57C129.247 170.957 128.984 171.22 128.984 171.543C128.984 171.866 129.247 172.129 129.57 172.129Z" fill="#A79BA7"/>
<path d="M141.619 173.75H129.57C129.247 173.75 128.984 174.012 128.984 174.336C128.984 174.659 129.247 174.922 129.57 174.922H141.619C141.942 174.922 142.205 174.659 142.205 174.336C142.205 174.012 141.942 173.75 141.619 173.75Z" fill="#A79BA7"/>
<path d="M141.619 178.934H129.57C129.247 178.934 128.984 179.196 128.984 179.52C128.984 179.843 129.247 180.105 129.57 180.105H141.619C141.942 180.105 142.205 179.843 142.205 179.52C142.205 179.196 141.942 178.934 141.619 178.934Z" fill="#A79BA7"/>
<path d="M141.619 181.727H129.57C129.247 181.727 128.984 181.989 128.984 182.312C128.984 182.636 129.247 182.898 129.57 182.898H141.619C141.942 182.898 142.205 182.636 142.205 182.312C142.205 181.989 141.942 181.727 141.619 181.727Z" fill="#A79BA7"/>
<path d="M149.313 164.689C148.989 164.689 148.727 164.952 148.727 165.275V165.768H144.748V161.789H146.721C147.044 161.789 147.307 161.527 147.307 161.203C147.307 160.88 147.044 160.617 146.721 160.617H144.162C143.839 160.617 143.576 160.88 143.576 161.203V166.354C143.576 166.677 143.839 166.94 144.162 166.94H149.313C149.636 166.94 149.899 166.677 149.899 166.354V165.275C149.899 164.952 149.636 164.689 149.313 164.689Z" fill="#A79BA7"/>
<path d="M149.313 180.65C148.989 180.65 148.727 180.912 148.727 181.236V181.729H144.748V177.75H146.721C147.044 177.75 147.307 177.487 147.307 177.164C147.307 176.841 147.044 176.578 146.721 176.578H144.162C143.839 176.578 143.576 176.841 143.576 177.164V182.315C143.576 182.638 143.839 182.901 144.162 182.901H149.313C149.636 182.901 149.899 182.638 149.899 182.315V181.236C149.899 180.912 149.636 180.65 149.313 180.65Z" fill="#A79BA7"/>
<path d="M149.313 168.598H144.162C143.839 168.598 143.576 168.86 143.576 169.184V174.334C143.576 174.658 143.839 174.92 144.162 174.92H149.313C149.636 174.92 149.899 174.658 149.899 174.334V169.184C149.899 168.86 149.636 168.598 149.313 168.598ZM148.727 173.748H144.748V169.77H148.727V173.748Z" fill="#A79BA7"/>
<path d="M149.313 184.555H144.162C143.839 184.555 143.576 184.817 143.576 185.141V190.291C143.576 190.615 143.839 190.877 144.162 190.877H149.313C149.636 190.877 149.899 190.615 149.899 190.291V185.141C149.899 184.817 149.636 184.555 149.313 184.555ZM148.727 189.705H144.748V185.727H148.727V189.705Z" fill="#A79BA7"/>
<path d="M123.032 165.98L116.398 172.615C115.869 173.144 115.869 174.001 116.398 174.53C116.927 175.059 117.784 175.059 118.312 174.53L124.947 167.895C124.2 167.377 123.551 166.727 123.032 165.98Z" fill="#685E68"/>
<path d="M123.882 167L118.312 172.57C117.791 173.091 116.951 173.097 116.42 172.591L116.397 172.614C115.868 173.143 115.868 174 116.397 174.529C116.926 175.058 117.783 175.058 118.312 174.529L124.946 167.895C124.564 167.629 124.208 167.329 123.881 167H123.882Z" fill="#554E56"/>
<path d="M129.263 169.327C133.495 169.327 136.926 165.896 136.926 161.663C136.926 157.431 133.495 154 129.263 154C125.031 154 121.6 157.431 121.6 161.663C121.6 165.896 125.031 169.327 129.263 169.327Z" fill="#0593FC"/>
<path d="M131.56 154.352C132.606 155.662 133.232 157.323 133.232 159.13C133.232 163.362 129.8 166.793 125.568 166.793C124.768 166.793 123.996 166.67 123.271 166.442C124.675 168.201 126.838 169.328 129.263 169.328C133.496 169.328 136.926 165.897 136.926 161.665C136.926 158.233 134.67 155.328 131.56 154.352V154.352Z" fill="#0182FC"/>
<path d="M129.263 166.694C132.041 166.694 134.293 164.442 134.293 161.663C134.293 158.885 132.041 156.633 129.263 156.633C126.485 156.633 124.232 158.885 124.232 161.663C124.232 164.442 126.485 166.694 129.263 166.694Z" fill="white"/>
<path d="M129.263 166.694C132.041 166.694 134.293 164.442 134.293 161.663C134.293 158.885 132.041 156.633 129.263 156.633C126.485 156.633 124.232 158.885 124.232 161.663C124.232 164.442 126.485 166.694 129.263 166.694Z" fill="white"/>
<path d="M129.263 166.695C132.041 166.695 134.294 164.443 134.294 161.665C134.294 160.487 133.887 159.404 133.209 158.547C133.223 158.739 133.233 158.934 133.233 159.13C133.233 162.596 130.931 165.524 127.773 166.47C128.244 166.616 128.745 166.695 129.263 166.695V166.695Z" fill="#F3F0F3"/>
<path d="M133.944 163.505V163.009C133.944 161.975 133.105 161.137 132.071 161.137H126.454C125.419 161.137 124.581 161.975 124.581 163.009V163.505C125.316 165.372 127.134 166.694 129.262 166.694C131.39 166.694 133.208 165.372 133.944 163.505Z" fill="#05E39C"/>
<path d="M129.263 166.695C131.392 166.695 133.21 165.373 133.945 163.505V163.01C133.945 162.277 133.524 161.643 132.91 161.336C132.171 163.794 130.233 165.733 127.774 166.47C128.245 166.616 128.745 166.695 129.263 166.695V166.695Z" fill="#0ED290"/>
<path d="M127.48 185.281H119.48C118.007 185.281 116.813 186.475 116.813 187.948V193.195C116.813 193.64 117.174 194 117.618 194H130.147V187.948C130.147 186.475 128.953 185.281 127.481 185.281H127.48Z" fill="#FFE177"/>
<path d="M123.48 185.802L126.23 188.128C126.492 188.349 126.892 188.163 126.892 187.821V185.281H120.067V187.821C120.067 188.164 120.468 188.35 120.73 188.128L123.48 185.802Z" fill="#FFD15B"/>
<path d="M128.035 185.341V189.856C128.035 190.301 127.675 190.661 127.231 190.661H116.813V193.196C116.813 193.641 117.174 194.001 117.618 194.001H130.147V187.948C130.147 186.666 129.242 185.595 128.035 185.34V185.341Z" fill="#FFD15B"/>
<path d="M123.48 185.792C125.477 185.792 127.095 184.174 127.095 182.177C127.095 180.181 125.477 178.562 123.48 178.562C121.484 178.562 119.865 180.181 119.865 182.177C119.865 184.174 121.484 185.792 123.48 185.792Z" fill="#C96E59"/>
<path d="M123.991 178.598C124.338 179.153 124.54 179.809 124.54 180.512C124.54 182.509 122.922 184.127 120.925 184.127C120.752 184.127 120.581 184.114 120.414 184.091C121.053 185.112 122.187 185.791 123.48 185.791C125.476 185.791 127.095 184.173 127.095 182.176C127.095 180.353 125.745 178.846 123.991 178.598Z" fill="#BB5D4C"/>
<path d="M130.858 156.277C131.526 156.722 132.001 157.437 132.122 158.265C133.097 159.09 133.708 160.321 133.708 161.662C133.708 164.113 131.714 166.107 129.263 166.107C126.812 166.107 124.819 164.113 124.819 161.662C124.819 160.322 125.428 159.091 126.404 158.265C126.526 157.437 126.999 156.721 127.669 156.277C125.313 156.975 123.647 159.17 123.647 161.662C123.647 164.759 126.167 167.279 129.264 167.279C132.361 167.279 134.88 164.759 134.88 161.662C134.88 159.17 133.214 156.975 130.859 156.277H130.858Z" fill="#26A6FE"/>
<path d="M123.48 189.434C123.157 189.434 122.895 189.171 122.895 188.848V188.75C122.895 188.427 123.157 188.164 123.48 188.164C123.804 188.164 124.066 188.427 124.066 188.75V188.848C124.066 189.171 123.804 189.434 123.48 189.434Z" fill="white"/>
<path d="M123.48 191.93C123.157 191.93 122.895 191.667 122.895 191.344V191.246C122.895 190.923 123.157 190.66 123.48 190.66C123.804 190.66 124.066 190.923 124.066 191.246V191.344C124.066 191.667 123.804 191.93 123.48 191.93Z" fill="white"/>
<path d="M147.139 164.911C146.973 164.911 146.814 164.841 146.704 164.717L145.764 163.673C145.547 163.433 145.567 163.063 145.807 162.846C146.047 162.63 146.418 162.649 146.634 162.89L147.08 163.385L148.832 160.872C149.017 160.606 149.382 160.541 149.647 160.727C149.913 160.912 149.978 161.277 149.793 161.542L147.619 164.661C147.517 164.808 147.354 164.899 147.175 164.911C147.163 164.911 147.15 164.912 147.138 164.912L147.139 164.911Z" fill="#0ED290"/>
<path d="M147.139 180.869C146.973 180.869 146.814 180.798 146.704 180.675L145.764 179.631C145.547 179.391 145.567 179.02 145.807 178.804C146.047 178.588 146.418 178.607 146.634 178.847L147.08 179.342L148.832 176.829C149.017 176.563 149.382 176.498 149.647 176.684C149.913 176.869 149.978 177.234 149.793 177.499L147.619 180.618C147.517 180.765 147.354 180.856 147.175 180.868C147.162 180.868 147.15 180.869 147.138 180.869H147.139Z" fill="#0ED290"/>
<path d="M129.263 161.656C130.902 161.656 132.231 160.327 132.231 158.687C132.231 157.048 130.902 155.719 129.263 155.719C127.623 155.719 126.294 157.048 126.294 158.687C126.294 160.327 127.623 161.656 129.263 161.656Z" fill="#FFCEBF"/>
<path d="M130.067 155.832C130.219 156.188 130.303 156.58 130.303 156.991C130.303 158.631 128.974 159.96 127.334 159.96C127.055 159.96 126.785 159.921 126.528 159.848C126.98 160.912 128.034 161.658 129.262 161.658C130.902 161.658 132.231 160.329 132.231 158.689C132.231 157.329 131.315 156.183 130.067 155.832Z" fill="#FFB09E"/>
<circle cx="135" cy="35" r="34.5" fill="white" stroke="#DEE2E5"/>
<path d="M148.364 55H122.77L122.287 54.6867C121.843 54.6867 121.482 54.3266 121.482 53.882V16.1367C121.482 15.6922 121.843 15.332 122.287 15.332L122.77 15H148.364C148.808 15 149.168 15.3602 149.168 15.8047V54.1953C149.168 54.6398 148.808 55 148.364 55Z" fill="#F2FBFF"/>
<path d="M122.77 15V55H121.805C121.36 55 121 54.6398 121 54.1953V15.8047C121 15.3609 121.361 15 121.805 15H122.77Z" fill="#DFEEF4"/>
<path d="M145.03 46.9422C144.912 46.9008 144.8 46.8625 144.693 46.8273C144.318 46.7023 144.023 46.6039 143.897 46.4594C143.762 46.3039 143.715 46.1133 143.765 45.9367C143.791 45.8461 143.869 45.6844 144.09 45.6172C144.526 45.4859 144.799 45.7359 144.849 45.7875C145.082 46.0258 145.464 46.0305 145.703 45.7977C145.941 45.5648 145.946 45.1828 145.713 44.9437C145.522 44.7477 145.251 44.568 144.926 44.4641V44.0805C144.926 43.7469 144.655 43.4766 144.322 43.4766C143.988 43.4766 143.718 43.7469 143.718 44.0805V44.4695C143.176 44.6414 142.761 45.0625 142.604 45.6016C142.44 46.1711 142.582 46.7875 142.984 47.2516C143.326 47.6453 143.803 47.8047 144.308 47.9734C144.41 48.007 144.515 48.043 144.626 48.082C145.05 48.232 145.063 48.5555 145.033 48.7352C144.982 49.0391 144.726 49.3664 144.286 49.3695C143.815 49.3727 143.681 49.3516 143.327 49.1195C143.048 48.9367 142.674 49.0148 142.491 49.2945C142.308 49.5734 142.387 49.9477 142.666 50.1305C143.066 50.3922 143.365 50.5055 143.718 50.5508V50.8695C143.718 51.2031 143.988 51.4734 144.322 51.4734C144.655 51.4734 144.926 51.2031 144.926 50.8695V50.4727C145.652 50.225 146.116 49.5766 146.224 48.9359C146.372 48.05 145.893 47.25 145.029 46.9445L145.03 46.9422Z" fill="#C1E9AF"/>
<path d="M145.668 25.4617H124.42C124.287 25.4617 124.179 25.3539 124.179 25.2203V18.4602C124.179 18.3266 124.287 18.2188 124.42 18.2188H145.668C145.801 18.2188 145.909 18.3266 145.909 18.4602V25.2211C145.909 25.3547 145.801 25.4625 145.668 25.4625V25.4617Z" fill="#FF7E7B"/>
<path d="M128.847 23.0469H126.754C126.665 23.0469 126.593 22.975 126.593 22.8859V20.7937C126.593 20.7047 126.665 20.6328 126.754 20.6328H128.847C128.936 20.6328 129.008 20.7047 129.008 20.7937V22.8867C129.008 22.9758 128.936 23.0477 128.847 23.0477V23.0469Z" fill="#F2FBFF"/>
<path d="M138.626 21.2391H136.655C136.321 21.2391 136.051 20.9688 136.051 20.6352C136.051 20.3016 136.321 20.0312 136.655 20.0312H138.626C138.959 20.0312 139.23 20.3016 139.23 20.6352C139.23 20.9688 138.959 21.2391 138.626 21.2391Z" fill="#F46969"/>
<path d="M134.24 21.2391H131.422C131.089 21.2391 130.818 20.9688 130.818 20.6352C130.818 20.3016 131.089 20.0312 131.422 20.0312H134.24C134.574 20.0312 134.844 20.3016 134.844 20.6352C134.844 20.9688 134.574 21.2391 134.24 21.2391Z" fill="#F46969"/>
<path d="M143.495 23.6531H131.422C131.089 23.6531 130.818 23.3828 130.818 23.0492C130.818 22.7156 131.089 22.4453 131.422 22.4453H143.495C143.829 22.4453 144.099 22.7156 144.099 23.0492C144.099 23.3828 143.829 23.6531 143.495 23.6531Z" fill="#F46969"/>
<path d="M126.526 38.3398H124.461C124.328 38.3398 124.22 38.232 124.22 38.0984V36.1672C124.22 36.0336 124.328 35.9258 124.461 35.9258H126.526C126.66 35.9258 126.767 36.0336 126.767 36.1672V38.0984C126.767 38.232 126.66 38.3398 126.526 38.3398Z" fill="#C1E9AF"/>
<path d="M131.321 38.3406H129.256C129.122 38.3406 129.015 38.2328 129.015 38.0992V32.1437C129.015 32.0102 129.122 31.9023 129.256 31.9023H131.321C131.454 31.9023 131.562 32.0102 131.562 32.1437V38.0992C131.562 38.2328 131.454 38.3406 131.321 38.3406Z" fill="#C1E9AF"/>
<path d="M136.117 38.3406H134.052C133.918 38.3406 133.811 38.2328 133.811 38.0992V33.7531C133.811 33.6195 133.918 33.5117 134.052 33.5117H136.117C136.25 33.5117 136.358 33.6195 136.358 33.7531V38.0992C136.358 38.2328 136.25 38.3406 136.117 38.3406Z" fill="#C1E9AF"/>
<path d="M140.913 38.3414H138.848C138.714 38.3414 138.606 38.2336 138.606 38.1V30.5344C138.606 30.4008 138.714 30.293 138.848 30.293H140.913C141.046 30.293 141.154 30.4008 141.154 30.5344V38.1C141.154 38.2336 141.046 38.3414 140.913 38.3414Z" fill="#C1E9AF"/>
<path d="M145.709 38.3406H143.644C143.51 38.3406 143.402 38.2328 143.402 38.0992V32.1437C143.402 32.0102 143.51 31.9023 143.644 31.9023H145.709C145.842 31.9023 145.95 32.0102 145.95 32.1437V38.0992C145.95 38.2328 145.842 38.3406 145.709 38.3406Z" fill="#C1E9AF"/>
<path d="M145.648 28.4812H133.545C133.212 28.4812 132.941 28.2109 132.941 27.8773C132.941 27.5437 133.212 27.2734 133.545 27.2734H145.648C145.981 27.2734 146.252 27.5437 146.252 27.8773C146.252 28.2109 145.981 28.4812 145.648 28.4812Z" fill="#DFEEF4"/>
<path d="M131.298 28.4812H124.944C124.61 28.4812 124.34 28.2109 124.34 27.8773C124.34 27.5437 124.61 27.2734 124.944 27.2734H131.298C131.631 27.2734 131.902 27.5437 131.902 27.8773C131.902 28.2109 131.631 28.4812 131.298 28.4812Z" fill="#DFEEF4"/>
<path d="M127.566 30.8953H124.944C124.61 30.8953 124.34 30.625 124.34 30.2914C124.34 29.9578 124.61 29.6875 124.944 29.6875H127.566C127.9 29.6875 128.17 29.9578 128.17 30.2914C128.17 30.625 127.9 30.8953 127.566 30.8953Z" fill="#DFEEF4"/>
<path d="M145.648 41.3562H124.944C124.61 41.3562 124.34 41.0859 124.34 40.7523C124.34 40.4187 124.61 40.1484 124.944 40.1484H145.648C145.981 40.1484 146.252 40.4187 146.252 40.7523C146.252 41.0859 145.981 41.3562 145.648 41.3562Z" fill="#CFE2E8"/>
<path d="M140.96 42.5664H124.823C124.489 42.5664 124.219 42.8367 124.219 43.1703V51.782C124.219 52.1156 124.489 52.3859 124.823 52.3859H140.959C141.293 52.3859 141.563 52.1156 141.563 51.782V43.1703C141.563 42.8367 141.293 42.5664 140.959 42.5664H140.96ZM125.427 46.6445H129.33V48.3078H125.427V46.6445ZM130.538 46.6445H140.357V48.3078H130.538V46.6445ZM140.357 45.4375H130.538V43.7742H140.357V45.4375ZM129.331 43.7742V45.4375H125.428V43.7742H129.331ZM125.428 49.5156H129.331V51.1789H125.428V49.5156ZM130.539 51.1789V49.5156H140.358V51.1789H130.539Z" fill="#DFEEF4"/>
<path d="M120.5 326.999V328.935C120.5 329.246 120.752 329.499 121.063 329.499H145.5V295.063C145.5 294.752 145.247 294.5 144.936 294.5H143L120.5 326.999Z" fill="#C8EFFE"/>
<path d="M142.195 327H118.563C118.252 327 118 326.748 118 326.437V297L121.305 295.305L123 292H140.585L142.194 292.805V327H142.195Z" fill="#F2FBFF"/>
<path d="M140.586 292V327H143.001V292.563C143 292.252 142.747 292 142.436 292H140.585H140.586Z" fill="#DFF6FD"/>
<path d="M118 297H122.437C122.748 297 123 296.748 123 296.437V292L118 297Z" fill="#C8EFFE"/>
<path d="M138 300.102H123C122.667 300.102 122.396 299.832 122.396 299.498C122.396 299.165 122.667 298.895 123 298.895H138C138.334 298.895 138.604 299.165 138.604 299.498C138.604 299.832 138.334 300.102 138 300.102Z" fill="#8ACA89"/>
<path d="M138 302.602H123C122.667 302.602 122.396 302.332 122.396 301.998C122.396 301.665 122.667 301.395 123 301.395H138C138.334 301.395 138.604 301.665 138.604 301.998C138.604 302.332 138.334 302.602 138 302.602Z" fill="#8ACA89"/>
<path d="M130.5 305.102H123C122.667 305.102 122.396 304.832 122.396 304.498C122.396 304.165 122.667 303.895 123 303.895H130.5C130.834 303.895 131.104 304.165 131.104 304.498C131.104 304.832 130.834 305.102 130.5 305.102Z" fill="#8ACA89"/>
<path d="M148.445 314.5C148.445 311.66 145.97 309.614 144.012 309.666C143.692 309.675 143.381 309.566 143.08 309.638C140.971 310.148 139.369 312.008 139.256 314.241C139.168 315.966 139.957 317.513 141.216 318.476C142.663 319.581 142.968 321.655 141.863 323.104C141.826 323.153 141.788 323.201 141.749 323.251L144.334 324.055H145.943C145.904 324.007 145.061 323.153 145.023 323.104C143.912 321.646 145.051 319.579 146.5 318.457C147.681 317.543 148.442 316.11 148.442 314.501L148.445 314.5Z" fill="#918291"/>
<path d="M144.012 309.506C143.68 309.521 143.356 309.57 143.044 309.647C145.221 310.188 146.835 312.155 146.835 314.5C146.835 316.11 146.074 317.542 144.893 318.456C143.444 319.578 143.11 321.645 144.221 323.103C144.259 323.151 144.296 323.201 144.335 323.25L145.5 324.054L146.75 323.25C146.711 323.201 146.673 323.152 146.636 323.103C145.524 321.645 145.859 319.578 147.308 318.456C148.49 317.541 149.25 316.109 149.25 314.5C149.25 311.66 146.882 309.373 144.013 309.506H144.012Z" fill="#867885"/>
<path d="M130.5 319.5C133.261 319.5 135.5 317.261 135.5 314.5C135.5 311.739 133.261 309.5 130.5 309.5C127.739 309.5 125.5 311.739 125.5 314.5C125.5 317.261 127.739 319.5 130.5 319.5Z" fill="#8ACA89"/>
<path d="M129.875 316.353C129.72 316.353 129.566 316.293 129.448 316.176L128.198 314.926C127.963 314.69 127.963 314.308 128.198 314.072C128.434 313.836 128.816 313.836 129.052 314.072L129.875 314.895L131.948 312.821C132.184 312.586 132.566 312.586 132.802 312.821C133.038 313.057 133.038 313.439 132.802 313.675L130.302 316.175C130.184 316.293 130.03 316.352 129.876 316.352L129.875 316.353Z" fill="#F2FBFF"/>
<path d="M150.944 331.196L149.335 332.001H137.313C137.002 332.001 136.75 331.748 136.75 331.437V328.695H150.945V331.196H150.944Z" fill="#FFDD94"/>
<path d="M149.336 329.499V332H151.186C151.497 332 151.75 331.748 151.75 331.437V329.5L150.585 328.695L149.335 329.5L149.336 329.499Z" fill="#FFCE7E"/>
<path d="M148.445 326.554H139.25V323.813C139.25 323.502 139.502 323.25 139.813 323.25H146.835L148.444 324.055V326.554H148.445Z" fill="#FFDD94"/>
<path d="M146.836 323.25V325.749L148.043 326.554L149.25 325.749V323.813C149.25 323.502 148.997 323.25 148.686 323.25H146.835H146.836Z" fill="#FFCE7E"/>
<path d="M151.749 328.685L150.585 329.5H136.282C135.897 329.5 135.625 329.123 135.747 328.759L136.621 326.135C136.698 325.905 136.914 325.75 137.156 325.75H149.335L150.945 326.555L151.749 328.685Z" fill="#918291"/>
<path d="M151.344 325.75H149.335L150.585 329.5H152.218C152.602 329.5 152.874 329.123 152.752 328.759L151.878 326.135C151.801 325.905 151.586 325.75 151.344 325.75Z" fill="#867885"/>
<path d="M243.01 475.948L240.509 486H205.506L203.005 475.948L221.848 461.816C222.535 461.301 223.479 461.301 224.166 461.816L243.01 475.948Z" fill="#FFCA2A"/>
<path d="M230.508 492.261H210.506V461.547C210.506 461.245 210.75 461 211.053 461H230.508V492.261Z" fill="#9AE69C"/>
<path d="M233.008 492.252H213.006V459.071C213.006 458.768 213.25 458.523 213.553 458.523H233.008V492.253V492.252Z" fill="#6FD6A4"/>
<path d="M234.259 492.252H215.507V456.547C215.506 456.245 215.751 456 216.053 456H233.711C234.013 456 234.258 456.245 234.258 456.547V492.252H234.259Z" fill="#9AE69C"/>
<path d="M234.961 456H232.461C232.763 456 233.008 456.245 233.008 456.547V492.252H235.508V456.547C235.508 456.245 235.263 456 234.961 456Z" fill="#6FD6A4"/>
<path d="M230.593 491.003H220.421C220.421 489.669 219.34 488.588 218.006 488.588V461.41C218.006 461.15 218.189 460.921 218.445 460.874C218.719 460.823 218.978 460.727 219.212 460.592C219.613 460.361 219.94 460.018 220.153 459.606C220.258 459.403 220.335 459.185 220.379 458.955C220.429 458.693 220.651 458.5 220.918 458.5C221.448 458.5 230.22 458.5 230.098 458.5C230.36 458.5 230.587 458.686 230.635 458.945C230.814 459.91 231.576 460.692 232.567 460.875C232.824 460.923 233.009 461.15 233.009 461.411V488.589C231.675 488.589 230.594 489.67 230.594 491.004L230.593 491.003Z" fill="#BBEFBB"/>
<path d="M225.443 465.988C224.753 465.988 224.192 465.428 224.192 464.737V462.25C224.192 461.56 224.752 461 225.443 461C226.134 461 226.693 461.56 226.693 462.25V464.737C226.693 465.427 226.134 465.988 225.443 465.988Z" fill="#9AE69C"/>
<path d="M225.497 478.492C228.253 478.492 230.487 476.258 230.487 473.502C230.487 470.746 228.253 468.512 225.497 468.512C222.741 468.512 220.507 470.746 220.507 473.502C220.507 476.258 222.741 478.492 225.497 478.492Z" fill="#9AE69C"/>
<path d="M233.009 459.102C233.341 459.102 233.613 458.832 233.613 458.499C233.613 458.166 233.338 457.895 233.009 457.895C232.679 457.895 232.405 458.157 232.405 458.499C232.405 458.84 232.68 459.102 233.009 459.102Z" fill="#F0FCFF"/>
<path d="M218.007 459.105C218.349 459.105 218.611 458.825 218.611 458.502C218.611 458.179 218.363 457.898 218.004 457.898C217.674 457.898 217.403 458.169 217.403 458.502C217.403 458.835 217.674 459.105 218.007 459.105Z" fill="#F0FCFF"/>
<path d="M228.058 472.871H227.99C227.595 471.819 226.153 471.582 225.52 472.39C224.826 473.275 225.026 474.099 224.437 474C224.271 473.972 223.989 473.829 223.987 473.471C223.984 473.089 223.998 472.999 224.18 472.721C224.375 472.423 224.272 472.015 223.943 471.85C223.664 471.71 223.324 471.821 223.155 472.083C222.962 472.381 222.865 472.622 222.818 472.883C222.128 473.02 222.196 474.037 222.901 474.078C223.457 475.53 225.479 475.64 226.013 474.127C226.136 473.78 226.298 473.354 226.469 473.136C226.529 473.078 226.807 473.125 226.863 473.311C226.932 473.538 226.901 473.784 226.745 473.952C226.516 474.197 226.53 474.581 226.776 474.809C227.165 475.168 227.766 474.939 228.025 474.08H228.057C228.39 474.08 228.661 473.809 228.661 473.476C228.661 473.142 228.39 472.871 228.057 472.871L228.058 472.871Z" fill="#F0FCFF"/>
<path d="M203 493.362V475.992L216.841 482.981L211.23 489.019L203 493.362Z" fill="#FCDF65"/>
<path d="M243.014 493.362V475.992L229.173 482.981L235.237 489.606L243.014 493.362Z" fill="#FCDF65"/>
<path d="M228.47 483.336L223.007 486.094L242.794 495.89C242.928 495.79 243.014 495.632 243.014 495.452V493.361L229.173 482.98L228.47 483.335V483.336Z" fill="#FFCA2A"/>
<path d="M203.22 495.89L223.007 486.094L216.841 482.98L203 493.361V495.452C203 495.632 203.086 495.79 203.22 495.89Z" fill="#FFCA2A"/>
<path d="M224.167 481.863C223.477 481.346 222.533 481.35 221.848 481.863C220.93 482.552 203.876 495.342 203.185 495.861C203.281 495.947 203.408 495.999 203.548 495.999H242.468C242.607 495.999 242.734 495.947 242.831 495.861C242.138 495.341 225.084 482.551 224.168 481.863H224.167Z" fill="#FCDF65"/>
<path d="M238.953 627.254L236.024 625.814L230.529 624.234L227.387 624.993H220.037L216.916 624.293L209.893 626.312C208.171 626.854 207 628.452 207 630.257V634.311C207 634.692 207.309 635.001 207.69 635.001H212.515L213.277 634.165L214.039 635.001H220.669L223.723 633.497L226.98 635.001H233.307L234.069 634.165L234.831 635.001H237.601L238.953 633.821V627.254Z" fill="#9DCFFD"/>
<path d="M237.755 626.31L236.023 625.812C236.998 626.581 237.601 627.768 237.601 629.063V634.999H239.958C240.339 634.999 240.648 634.691 240.648 634.309V630.256C240.648 628.451 239.477 626.854 237.755 626.31Z" fill="#6BBCF9"/>
<path d="M226.98 635H220.67L221.869 631.251C221.963 630.956 222.236 630.756 222.546 630.756L223.712 629.945L224.908 630.756C225.205 630.756 225.471 630.94 225.574 631.219L226.98 634.999V635Z" fill="#FF7E8E"/>
<path d="M224.888 630.757H222.557C222.165 630.757 221.847 630.439 221.847 630.046V627.124L223.723 625.547L225.599 627.124V630.046C225.599 630.439 225.28 630.757 224.888 630.757Z" fill="#F45175"/>
<path d="M226.374 618.466V624.987C224.315 626.807 222.325 626.807 220.042 625.001V618.48C221.273 619.176 222.288 619.588 223.38 619.588H223.261C224.353 619.588 225.368 619.176 226.374 618.465V618.466Z" fill="#FFDACC"/>
<path d="M224.335 619.591V624.666C224.335 624.877 224.239 625.078 224.074 625.208C223.516 625.644 222.9 625.955 222.252 626.143C224.044 626.645 225.943 626.263 227.382 624.99V618.469C226.396 619.165 225.403 619.574 224.335 619.591Z" fill="#FCCCB9"/>
<path d="M230.19 603.82V613.702C230.19 617.176 226.581 621.081 222.301 620.48C218.974 620.014 216.414 617.157 216.414 613.702V612.314L215.034 609.484L216.414 606.655V602.098H228.47C229.42 602.098 230.19 602.868 230.19 603.818V603.82Z" fill="#FFECE4"/>
<path d="M229.514 602.097H226.467C227.417 602.097 228.187 602.868 228.187 603.817V613.699C228.187 617.154 225.627 620.011 222.301 620.477C222.614 620.522 222.934 620.544 223.259 620.544H224.39C228.17 620.544 231.235 617.479 231.235 613.698V612.31L232.156 609.481L231.235 606.651V603.815C231.235 602.865 230.464 602.094 229.515 602.094L229.514 602.097Z" fill="#FFDACC"/>
<path d="M232.474 602.523V607.298L231.234 606.654V606.213C231.234 604.848 229.937 603.832 228.603 604.119C225.425 604.803 222.137 604.803 218.959 604.119C217.625 603.832 216.413 604.848 216.413 606.213V606.654L213.275 608.788V602.523C213.275 601.38 213.53 600.298 213.985 599.329C214.475 598.285 215.522 597.614 216.676 597.614H217.183C217.514 597.614 217.806 597.387 217.875 597.063C218.129 595.884 219.178 595 220.433 595H224.952C229.107 595 232.475 598.369 232.475 602.523H232.474Z" fill="#7A6C79"/>
<path d="M234.317 608.789V602.524C234.317 598.369 230.95 595 226.795 595H223.712C227.867 595 231.235 598.369 231.235 602.523V606.184C231.235 606.194 231.235 606.204 231.235 606.213V606.654L234.317 608.788V608.789Z" fill="#685F67"/>
<path d="M216.414 606.656H214.931C213.795 606.656 212.873 607.578 212.873 608.715V610.256C212.873 611.393 213.795 612.315 214.931 612.315H216.414V606.657V606.656Z" fill="#FCCCB9"/>
<path d="M231.234 606.656H232.718C233.855 606.656 234.776 607.578 234.776 608.715V610.256C234.776 611.393 233.855 612.315 232.718 612.315H231.234V606.657V606.656Z" fill="#FCCCB9"/>
<path d="M223.711 626.425L220.036 623.285L219.656 623.207C218.619 622.993 217.585 623.474 216.915 624.293V628.822C216.915 629.34 217.464 629.673 217.924 629.434L223.711 626.424V626.425Z" fill="#F0FCFF"/>
<path d="M223.712 626.421L227.387 623.281L227.768 623.204C228.805 622.99 229.859 623.412 230.529 624.232L230.337 628.846C230.316 629.354 229.77 629.666 229.321 629.425L223.712 626.421Z" fill="#F0FCFF"/>
<path d="M234.83 631.301C234.83 630.88 234.489 630.539 234.068 630.539C233.647 630.539 233.306 630.88 233.306 631.301V635.002H234.83V631.301Z" fill="#6BBCF9"/>
<path d="M214.038 631.301C214.038 630.88 213.697 630.539 213.276 630.539C212.855 630.539 212.514 630.88 212.514 631.301V635.002H214.038V631.301Z" fill="#6BBCF9"/>
<path d="M225.29 615.161C224.308 614.885 223.352 614.884 222.351 615.16C221.946 615.271 221.707 615.691 221.818 616.096C221.93 616.501 222.349 616.74 222.755 616.629C224.051 616.271 224.78 616.656 225.083 616.656C225.963 616.656 226.139 615.399 225.289 615.161H225.29Z" fill="#FCCCB9"/>
<path d="M226.998 608.723C226.577 608.723 226.236 609.064 226.236 609.485V610.218C226.236 610.639 226.577 610.98 226.998 610.98C227.419 610.98 227.76 610.639 227.76 610.218V609.485C227.76 609.064 227.419 608.723 226.998 608.723Z" fill="#FCCCB9"/>
<path d="M220.621 608.723C220.2 608.723 219.859 609.064 219.859 609.485V610.218C219.859 610.639 220.2 610.98 220.621 610.98C221.042 610.98 221.383 610.639 221.383 610.218V609.485C221.383 609.064 221.042 608.723 220.621 608.723Z" fill="#FCCCB9"/>
<path d="M42.6986 595.934H42.4627V601.023L42.2275 602.509L43.6728 605.034L44.6705 605.6H47.3002V600.535C47.3002 597.994 45.24 595.934 42.6986 595.934Z" fill="#455E7E"/>
<path d="M44.6701 604.91H45.935C46.9045 604.91 47.6904 605.696 47.6904 606.666V607.981C47.6904 608.951 46.9045 609.737 45.935 609.737H44.6701L43.4404 607.324L44.6701 604.911V604.91Z" fill="#FCCCB9"/>
<path d="M38.35 634.996L35.4492 620.672H41.2508L38.35 634.996Z" fill="#4F6D8F"/>
<path d="M41.2504 614.988C41.2504 615.253 41.2504 621.07 41.2504 620.801C39.4465 622.163 38.4051 622.353 36.7832 620.801V614.988C38.2684 616.23 38.3074 615.887 38.7293 615.945C39.6613 615.945 40.5269 615.594 41.2504 614.988Z" fill="#FFECE4"/>
<path d="M37.8633 620.557V615.943C36.9727 615.917 36.1453 615.571 35.4492 614.988V620.801C36.5766 621.88 38.1547 622.208 39.557 621.787C39.018 621.626 38.5047 621.354 38.0531 620.971C37.932 620.868 37.8633 620.716 37.8633 620.556V620.557Z" fill="#FFDACC"/>
<path d="M44.6699 602.495V610.923C44.6699 614.148 42.0558 616.762 38.8316 616.762H37.8676C36.1988 616.762 33.248 614.148 33.248 610.923V601.027H43.2027C44.0136 601.027 44.6707 601.684 44.6707 602.495L44.6699 602.495Z" fill="#FFECE4"/>
<path d="M34.4439 610.923V601.027H32.0299L31.176 604.37L30.8291 607.327L32.0307 609.74V610.923C32.0307 614.148 34.6447 616.762 37.8689 616.762C38.6971 616.752 38.976 616.787 39.558 616.716C36.676 616.359 34.4447 613.902 34.4447 610.923H34.4439Z" fill="#FFDACC"/>
<path d="M26.468 621.677C24.9992 622.139 24 623.502 24 625.041V634.451C24 634.753 24.2445 634.998 24.5469 634.998H27.6156L28.2195 634.319L28.8234 634.998H38.35L34.064 621.395L32.0297 620.078L26.468 621.677Z" fill="#9DC7FB"/>
<path d="M35.4489 619.094L32.0293 620.077L30.8465 624.512C30.7895 624.726 30.8676 624.954 31.0442 625.088L32.0286 625.837C32.2497 626.005 32.3098 626.312 32.1676 626.552L31.62 627.475C31.4942 627.687 31.5254 627.958 31.6973 628.135L38.3504 634.997L35.4496 619.094H35.4489Z" fill="#BDD8FC"/>
<path d="M50.2324 621.677C51.7011 622.139 52.7004 623.502 52.7004 625.041L55.1777 634.998H49.016L48.4121 634.319L47.8082 634.998H38.3496L42.4621 620.673L44.6699 620.078L50.2316 621.677L50.2324 621.677Z" fill="#9DC7FB"/>
<path d="M41.2504 619.094L44.6699 620.077L45.8527 624.512C45.9097 624.726 45.8316 624.954 45.6558 625.088L44.6715 625.837C44.4504 626.005 44.3902 626.312 44.5324 626.552L45.0801 627.475C45.2058 627.687 45.1738 627.958 45.0027 628.135L38.3496 634.997L41.2504 619.094Z" fill="#BDD8FC"/>
<path d="M32.0277 603.602V604.912L29.3535 605.872V601.461C29.3535 597.893 32.2465 595 35.8152 595H40.484C41.898 595 43.0449 596.147 43.0449 597.561V601.025C43.0449 601.025 39.916 602.955 33.6871 602.148C32.8082 602.034 32.0277 602.716 32.0277 603.602Z" fill="#4F6D8F"/>
<path d="M32.0291 604.91H30.7643C29.7947 604.91 29.0088 605.696 29.0088 606.666V607.981C29.0088 608.951 29.7947 609.737 30.7643 609.737H32.0291V604.911V604.91Z" fill="#FCCCB9"/>
<path d="M41.058 606.723C40.7244 606.723 40.4541 606.993 40.4541 607.327V607.952C40.4541 608.285 40.7244 608.555 41.058 608.555C41.3916 608.555 41.6619 608.285 41.6619 607.952V607.327C41.6619 606.993 41.3916 606.723 41.058 606.723Z" fill="#FCCCB9"/>
<path d="M36.2215 607.327C36.2215 606.993 35.9512 606.723 35.6176 606.723C35.284 606.723 35.0137 606.993 35.0137 607.327V607.952C35.0137 608.285 35.284 608.555 35.6176 608.555C35.9512 608.555 36.2215 608.285 36.2215 607.952V607.327Z" fill="#FCCCB9"/>
<path d="M39.884 610.867C39.5504 610.867 39.2801 611.138 39.2801 611.471C39.2801 611.984 38.8629 612.401 38.3504 612.401C37.8379 612.401 37.4207 611.984 37.4207 611.471C37.4207 611.138 37.1504 610.867 36.8168 610.867C36.4832 610.867 36.2129 611.138 36.2129 611.471C36.2129 612.649 37.1715 613.608 38.3504 613.608C39.5293 613.608 40.4871 612.649 40.4871 611.471C40.4871 611.138 40.2168 610.867 39.8832 610.867H39.884Z" fill="#FCCCB9"/>
<path d="M49.0154 634.998V629.291C49.0154 628.958 48.7451 628.688 48.4115 628.688C48.0779 628.688 47.8076 628.958 47.8076 629.291V634.998H49.0146H49.0154Z" fill="#BDD8FC"/>
<path d="M28.823 634.997V628.639C28.823 628.305 28.5527 628.035 28.2191 628.035C27.8855 628.035 27.6152 628.305 27.6152 628.639V634.997H28.8223H28.823Z" fill="#BDD8FC"/>
<path d="M62.234 628.03C62.234 631.879 59.1144 634.998 55.266 634.998C53.1504 634.998 49.4004 631.879 49.4004 628.03C49.4004 624.182 52.7027 621.062 55.266 621.062C59.1144 621.062 62.234 624.182 62.234 628.03Z" fill="#EAF6FF"/>
<path d="M50.7129 628.029C50.7129 624.592 53.2012 621.737 56.4738 621.165C52.1809 620.415 48.2988 623.723 48.2988 628.029C48.2988 632.335 52.1809 635.642 56.4738 634.893C53.2012 634.321 50.7129 631.466 50.7129 628.029Z" fill="#D7ECFE"/>
<path d="M58.4687 626.781H57.0625C56.7601 626.781 56.5156 626.537 56.5156 626.234V624.828C56.5156 624.526 56.2711 624.281 55.9687 624.281H54.5625C54.2602 624.281 54.0156 624.526 54.0156 624.828V626.234C54.0156 626.537 53.7711 626.781 53.4687 626.781H52.0625C51.7602 626.781 51.5156 627.026 51.5156 627.328V628.734C51.5156 629.037 51.7602 629.281 52.0625 629.281H53.4687C53.7711 629.281 54.0156 629.526 54.0156 629.828V631.234C54.0156 631.537 54.2602 631.781 54.5625 631.781H55.9687C56.2711 631.781 56.5156 631.537 56.5156 631.234V629.828C56.5156 629.526 56.7601 629.281 57.0625 629.281H58.4687C58.7711 629.281 59.0156 629.037 59.0156 628.734V627.328C59.0156 627.026 58.7711 626.781 58.4687 626.781Z" fill="#5DE1C4"/>
</svg>
