<svg width="640" height="170" viewBox="0 0 640 170" fill="none" xmlns="http://www.w3.org/2000/svg">
<path d="M172.905 155.295V165.193H171.387V156.799H171.332L168.967 158.344V156.908L171.428 155.295H172.905ZM185.182 154.119V161.297H183.883V160.709H181.491V159.889H183.883V154.119H185.182ZM174.969 158.631C177.334 158.645 180.342 158.617 182.981 158.33L183.049 159.164C181.894 159.321 180.698 159.417 179.522 159.479V161.324H178.237V159.533C177.129 159.561 176.077 159.567 175.12 159.561L174.969 158.631ZM185.182 161.707V164.346H178.127V165.289H185.551V166.232H176.856V163.484H183.897V162.609H176.801V161.707H185.182ZM178.948 154.324C180.766 154.324 181.997 155.049 182.01 156.17C181.997 157.318 180.766 158.002 178.948 158.002C177.088 158.002 175.872 157.318 175.885 156.17C175.872 155.049 177.088 154.324 178.948 154.324ZM178.948 155.199C177.813 155.199 177.102 155.582 177.102 156.17C177.102 156.758 177.813 157.127 178.948 157.127C180.055 157.127 180.78 156.758 180.78 156.17C180.78 155.582 180.055 155.199 178.948 155.199Z" fill="#343A40"/>
<path d="M238.599 165.193V164.1L242.03 160.641C243.11 159.506 243.657 158.877 243.657 158.016C243.657 157.045 242.864 156.416 241.825 156.416C240.731 156.416 240.02 157.113 240.02 158.166H238.599C238.585 156.361 239.966 155.158 241.852 155.158C243.766 155.158 245.079 156.361 245.093 157.975C245.079 159.082 244.559 159.957 242.7 161.789L240.69 163.826V163.908H245.257V165.193H238.599ZM256.686 154.119V161.297H255.388V160.709H252.995V159.889H255.388V154.119H256.686ZM246.474 158.631C248.839 158.645 251.847 158.617 254.485 158.33L254.554 159.164C253.398 159.321 252.202 159.417 251.026 159.479V161.324H249.741V159.533C248.634 159.561 247.581 159.567 246.624 159.561L246.474 158.631ZM256.686 161.707V164.346H249.632V165.289H257.056V166.232H248.36V163.484H255.401V162.609H248.306V161.707H256.686ZM250.452 154.324C252.27 154.324 253.501 155.049 253.515 156.17C253.501 157.318 252.27 158.002 250.452 158.002C248.593 158.002 247.376 157.318 247.39 156.17C247.376 155.049 248.593 154.324 250.452 154.324ZM250.452 155.199C249.317 155.199 248.606 155.582 248.606 156.17C248.606 156.758 249.317 157.127 250.452 157.127C251.559 157.127 252.284 156.758 252.284 156.17C252.284 155.582 251.559 155.199 250.452 155.199Z" fill="#343A40"/>
<path d="M312.907 165.33C310.856 165.33 309.393 164.223 309.339 162.609H310.87C310.925 163.484 311.786 164.031 312.893 164.031C314.083 164.031 314.958 163.375 314.958 162.418C314.958 161.447 314.138 160.736 312.729 160.736H311.882V159.506H312.729C313.85 159.506 314.643 158.877 314.643 157.934C314.643 157.031 313.974 156.416 312.921 156.416C311.923 156.416 311.048 156.963 311.007 157.865H309.557C309.599 156.252 311.089 155.158 312.934 155.158C314.876 155.158 316.106 156.389 316.093 157.852C316.106 158.973 315.409 159.793 314.343 160.053V160.121C315.696 160.312 316.475 161.215 316.475 162.473C316.475 164.127 314.958 165.33 312.907 165.33ZM327.891 154.119V161.297H326.593V160.709H324.2V159.889H326.593V154.119H327.891ZM317.679 158.631C320.044 158.645 323.052 158.617 325.69 158.33L325.759 159.164C324.603 159.321 323.407 159.417 322.231 159.479V161.324H320.946V159.533C319.839 159.561 318.786 159.567 317.829 159.561L317.679 158.631ZM327.891 161.707V164.346H320.837V165.289H328.261V166.232H319.565V163.484H326.606V162.609H319.511V161.707H327.891ZM321.657 154.324C323.475 154.324 324.706 155.049 324.72 156.17C324.706 157.318 323.475 158.002 321.657 158.002C319.798 158.002 318.581 157.318 318.595 156.17C318.581 155.049 319.798 154.324 321.657 154.324ZM321.657 155.199C320.522 155.199 319.811 155.582 319.811 156.17C319.811 156.758 320.522 157.127 321.657 157.127C322.765 157.127 323.489 156.758 323.489 156.17C323.489 155.582 322.765 155.199 321.657 155.199Z" fill="#343A40"/>
<path d="M380.099 163.266V162.049L384.474 155.295H386.334V161.994H387.687V163.266H386.334V165.193H384.912V163.266H380.099ZM381.685 161.994H384.912V157.086H384.803L381.685 161.912V161.994ZM398.967 154.119V161.297H397.668V160.709H395.275V159.889H397.668V154.119H398.967ZM388.754 158.631C391.119 158.645 394.127 158.617 396.766 158.33L396.834 159.164C395.679 159.321 394.482 159.417 393.307 159.479V161.324H392.021V159.533C390.914 159.561 389.861 159.567 388.904 159.561L388.754 158.631ZM398.967 161.707V164.346H391.912V165.289H399.336V166.232H390.641V163.484H397.682V162.609H390.586V161.707H398.967ZM392.732 154.324C394.551 154.324 395.781 155.049 395.795 156.17C395.781 157.318 394.551 158.002 392.732 158.002C390.873 158.002 389.656 157.318 389.67 156.17C389.656 155.049 390.873 154.324 392.732 154.324ZM392.732 155.199C391.598 155.199 390.887 155.582 390.887 156.17C390.887 156.758 391.598 157.127 392.732 157.127C393.84 157.127 394.564 156.758 394.564 156.17C394.564 155.582 393.84 155.199 392.732 155.199Z" fill="#343A40"/>
<path d="M455.88 165.33C454.007 165.33 452.599 164.182 452.53 162.609H453.993C454.075 163.457 454.882 164.072 455.88 164.072C457.083 164.072 457.944 163.197 457.944 162.021C457.944 160.818 457.056 159.943 455.811 159.93C455.018 159.93 454.417 160.189 454.075 160.805H452.653L453.296 155.295H458.901V156.58H454.54L454.212 159.355H454.307C454.718 158.959 455.415 158.686 456.167 158.686C458.026 158.686 459.407 160.066 459.407 161.98C459.407 163.936 457.944 165.33 455.88 165.33ZM470.768 154.119V161.297H469.47V160.709H467.077V159.889H469.47V154.119H470.768ZM460.556 158.631C462.921 158.645 465.929 158.617 468.567 158.33L468.636 159.164C467.48 159.321 466.284 159.417 465.108 159.479V161.324H463.823V159.533C462.716 159.561 461.663 159.567 460.706 159.561L460.556 158.631ZM470.768 161.707V164.346H463.714V165.289H471.138V166.232H462.442V163.484H469.483V162.609H462.388V161.707H470.768ZM464.534 154.324C466.352 154.324 467.583 155.049 467.597 156.17C467.583 157.318 466.352 158.002 464.534 158.002C462.675 158.002 461.458 157.318 461.472 156.17C461.458 155.049 462.675 154.324 464.534 154.324ZM464.534 155.199C463.399 155.199 462.688 155.582 462.688 156.17C462.688 156.758 463.399 157.127 464.534 157.127C465.641 157.127 466.366 156.758 466.366 156.17C466.366 155.582 465.641 155.199 464.534 155.199Z" fill="#343A40"/>
<rect y="140" width="640" height="1" fill="#DEE2E5"/>
<rect x="163" y="79.1406" width="30.4386" height="60.8772" fill="#CED4DA"/>
<rect x="233" y="50.2246" width="30.4386" height="89.7939" fill="#CED4DA"/>
<rect x="304" width="30.4386" height="140.018" fill="#CED4DA"/>
<path d="M375 39.5703H405.439V140.018H375V39.5703Z" fill="#CED4DA"/>
<rect x="446" y="16.7422" width="30.4386" height="123.276" fill="#00CBEA"/>
</svg>
