<svg width="261" height="120" viewBox="0 0 261 120" fill="none" xmlns="http://www.w3.org/2000/svg">
<circle cx="60" cy="60" r="60" fill="#816CEC"/>
<path d="M168.094 25.5078V33.1953H166.98V25.5078H168.094ZM168.41 34.8711V35.7734H161.227V32.4688H162.352V34.8711H168.41ZM163.207 27.125C163.195 28.6602 164.18 30.0664 165.797 30.6289L165.223 31.5195C164.01 31.0684 163.113 30.1777 162.645 29.0352C162.182 30.2539 161.273 31.2324 160.043 31.707L159.445 30.8281C161.098 30.2188 162.07 28.707 162.07 27.125V26.082H163.207V27.125ZM179.332 30.6172V31.5195H169.758V30.6172H172.055V29.1992C171.246 28.8711 170.789 28.3438 170.789 27.6523C170.789 26.4102 172.23 25.6836 174.539 25.6836C176.836 25.6836 178.289 26.4102 178.289 27.6523C178.289 28.3438 177.826 28.877 177.012 29.1992V30.6172H179.332ZM174.539 32.2344C176.801 32.2344 178.16 32.9023 178.16 34.0977C178.16 35.3164 176.801 35.9727 174.539 35.9727C172.254 35.9727 170.895 35.3164 170.895 34.0977C170.895 32.9023 172.254 32.2344 174.539 32.2344ZM174.539 33.0898C172.934 33.0898 172.02 33.4531 172.02 34.0977C172.02 34.7539 172.934 35.1289 174.539 35.1172C176.121 35.1289 177.047 34.7539 177.047 34.0977C177.047 33.4531 176.121 33.0898 174.539 33.0898ZM174.539 26.5391C172.91 26.5391 171.926 26.9492 171.938 27.6523C171.926 28.3555 172.91 28.7539 174.539 28.7539C176.168 28.7539 177.141 28.3555 177.141 27.6523C177.141 26.9492 176.168 26.5391 174.539 26.5391ZM173.18 30.6172H175.91V29.4922C175.5 29.5625 175.037 29.5977 174.539 29.5977C174.047 29.5977 173.59 29.5625 173.18 29.5039V30.6172ZM185.59 26.5625C185.578 29.6562 184.629 32.4102 180.797 34.2969L180.188 33.4648C182.086 32.5332 183.217 31.4023 183.844 30.0664L180.41 30.3945L180.246 29.4336L184.184 29.1641C184.342 28.6309 184.436 28.0625 184.477 27.4648H180.797V26.5625H185.59ZM188.309 25.4961V29.6914H189.938V30.6055H188.309V35.9844H187.195V25.4961H188.309ZM199.008 30.4766V31.3906H191.695V26.4336H198.914V27.3477H192.797V30.4766H199.008ZM200.109 33.6875V34.6133H190.5V33.6875H200.109Z" fill="#00CBEA"/>
<rect x="150" y="28" width="3" height="3" rx="1.5" fill="#00CBEA"/>
<path d="M161.707 50.4844V51.7969H166.664V50.4844H167.754V54.8672H160.605V50.4844H161.707ZM161.707 53.9531H166.664V52.6641H161.707V53.9531ZM167.777 44.9531V45.75C167.777 46.5527 167.777 47.4551 167.508 48.7266H168.996V49.6289H159.387V48.7266H166.418C166.664 47.5195 166.676 46.6348 166.676 45.8672H160.594V44.9531H167.777ZM172.605 45.2812C173.561 45.2812 174.352 45.832 174.82 46.7812H177.41V44.4961H178.512V55.0195H177.41V50.9883H174.891C174.439 52.043 173.613 52.6523 172.605 52.6523C171.035 52.6523 169.934 51.2227 169.945 48.9609C169.934 46.7109 171.035 45.2812 172.605 45.2812ZM172.605 46.2773C171.656 46.2773 171 47.3086 171 48.9609C171 50.625 171.656 51.6562 172.605 51.6562C173.555 51.6562 174.211 50.625 174.211 48.9609C174.211 47.3086 173.555 46.2773 172.605 46.2773ZM175.137 47.6953C175.213 48.082 175.266 48.5039 175.266 48.9609C175.266 49.3594 175.23 49.7285 175.16 50.0742H177.41V47.6953H175.137ZM183.809 46.7344C183.809 47.9648 184.828 49.125 186.422 49.5703L185.895 50.4375C184.682 50.0918 183.762 49.3418 183.281 48.375C182.824 49.459 181.91 50.3145 180.656 50.707L180.129 49.8516C181.723 49.3359 182.707 48.082 182.707 46.7344V46.6055H180.422V45.7148H182.707V44.4492H183.82V45.7148H186.094V46.6055H183.809V46.7344ZM188.883 44.4961V50.8594H187.77V48.3516H185.766V47.4375H187.77V44.4961H188.883ZM185.367 51.0938C187.559 51.0938 188.918 51.7969 188.918 53.0273C188.918 54.2695 187.559 54.9844 185.367 54.9727C183.164 54.9844 181.805 54.2695 181.816 53.0273C181.805 51.7969 183.164 51.0938 185.367 51.0938ZM185.367 51.9609C183.832 51.9609 182.918 52.3477 182.918 53.0273C182.918 53.707 183.832 54.1172 185.367 54.1172C186.914 54.1172 187.816 53.707 187.816 53.0273C187.816 52.3477 186.914 51.9609 185.367 51.9609ZM198.855 45.1523V46.0781C198.855 47.0742 198.855 48.1523 198.562 49.6523H200.074V50.5664H195.82V55.0078H194.695V50.5664H190.5V49.6523H197.438C197.754 48.1582 197.754 47.0566 197.754 46.0781V46.0664H191.672V45.1523H198.855ZM201.504 50.7656C201.516 48.5625 202.137 46.7227 203.238 45.1523H204.387C203.578 46.3125 202.805 48.6797 202.805 50.7656C202.805 52.8633 203.578 55.2188 204.387 56.3906H203.238C202.137 54.8203 201.516 52.9805 201.504 50.7656ZM210.516 45.2227C210.516 46.5352 212.203 47.8008 214.195 48.0938L213.762 48.9727C212.098 48.6973 210.627 47.8359 209.953 46.6523C209.285 47.8594 207.803 48.7207 206.133 48.9961L205.711 48.1172C207.703 47.8125 209.379 46.582 209.379 45.2227V44.7656H210.516V45.2227ZM214.758 49.7812V50.6836H210.586V52.7109H209.484V50.6836H205.148V49.7812H214.758ZM213.691 53.8711V54.7734H206.344V51.7266H207.457V53.8711H213.691ZM224.285 44.5078V52.5117H223.172V50.3438H221.484V49.4531H223.172V48.1523H221.484V47.2383H223.172V44.5078H224.285ZM221.449 45.7266V46.6289H215.543V45.7266H218.004V44.4961H219.105V45.7266H221.449ZM218.543 47.1328C219.961 47.1328 220.957 47.9531 220.969 49.1484C220.957 50.3555 219.961 51.1758 218.543 51.1758C217.125 51.1758 216.129 50.3555 216.129 49.1484C216.129 47.9531 217.125 47.1328 218.543 47.1328ZM218.543 48C217.723 48.0117 217.172 48.457 217.172 49.1484C217.172 49.8633 217.723 50.3086 218.543 50.3086C219.352 50.3086 219.914 49.8633 219.926 49.1484C219.914 48.457 219.352 48.0117 218.543 48ZM224.52 53.8711V54.7734H217.43V51.8086H218.555V53.8711H224.52ZM234.293 45.0234V45.8203C234.293 46.6465 234.293 47.584 234.023 48.8555H235.512V49.7695H225.902V48.8555H232.898C233.18 47.6309 233.191 46.7344 233.191 45.9375H227.109V45.0234H234.293ZM234.305 51.1055V54.8672H227.074V51.1055H234.305ZM228.164 51.9844V53.9648H233.203V51.9844H228.164ZM245.883 52.793V53.7422H236.273V52.793H240.492V50.5547H237.117V49.6758H238.688V46.3711H237.094V45.4688H245.004V46.3711H243.398V49.6758H244.969V50.5547H241.594V52.793H245.883ZM239.789 49.6758H242.309V46.3711H239.789V49.6758ZM254.895 44.4961V47.2148H256.418V48.1641H254.895V50.8242H253.781V44.4961H254.895ZM254.895 51.375V54.8672H248.191V51.375H254.895ZM249.281 52.2539V53.9648H253.793V52.2539H249.281ZM252.914 45.5625V46.4531H246.656V45.5625H249.234V44.4141H250.348V45.5625H252.914ZM249.785 46.9102C251.297 46.9102 252.328 47.6602 252.328 48.7852C252.328 49.9219 251.297 50.6602 249.785 50.6719C248.25 50.6602 247.23 49.9219 247.23 48.7852C247.23 47.6602 248.25 46.9102 249.785 46.9102ZM249.785 47.7656C248.895 47.7539 248.297 48.1523 248.309 48.7852C248.297 49.4414 248.895 49.8281 249.785 49.8281C250.676 49.8281 251.273 49.4414 251.285 48.7852C251.273 48.1523 250.676 47.7539 249.785 47.7656ZM259.898 50.7656C259.887 52.9805 259.266 54.8203 258.164 56.3906H257.016C257.824 55.2188 258.598 52.8633 258.598 50.7656C258.598 48.6797 257.824 46.3125 257.016 45.1523H258.164C259.266 46.7227 259.887 48.5625 259.898 50.7656Z" fill="#02CA66"/>
<rect x="150" y="47" width="3" height="3" rx="1.5" fill="#02CA66"/>
<path d="M168.141 63.5078V71.5117H167.027V69.3438H165.34V68.4531H167.027V67.1523H165.34V66.2383H167.027V63.5078H168.141ZM165.305 64.7266V65.6289H159.398V64.7266H161.859V63.4961H162.961V64.7266H165.305ZM162.398 66.1328C163.816 66.1328 164.812 66.9531 164.824 68.1484C164.812 69.3555 163.816 70.1758 162.398 70.1758C160.98 70.1758 159.984 69.3555 159.984 68.1484C159.984 66.9531 160.98 66.1328 162.398 66.1328ZM162.398 67C161.578 67.0117 161.027 67.457 161.027 68.1484C161.027 68.8633 161.578 69.3086 162.398 69.3086C163.207 69.3086 163.77 68.8633 163.781 68.1484C163.77 67.457 163.207 67.0117 162.398 67ZM168.375 72.8711V73.7734H161.285V70.8086H162.41V72.8711H168.375ZM178.148 64.0234V64.8203C178.148 65.6465 178.148 66.584 177.879 67.8555H179.367V68.7695H169.758V67.8555H176.754C177.035 66.6309 177.047 65.7344 177.047 64.9375H170.965V64.0234H178.148ZM178.16 70.1055V73.8672H170.93V70.1055H178.16ZM172.02 70.9844V72.9648H177.059V70.9844H172.02ZM183.035 64.1055C183.908 64.0996 184.652 64.4277 185.145 64.9727H187.77V63.4961H188.883V69.6953H187.77V68.2773H185.133C184.646 68.8164 183.902 69.1387 183.035 69.1328C181.453 69.1445 180.281 68.0898 180.281 66.625C180.281 65.1484 181.453 64.0938 183.035 64.1055ZM183.035 65.0664C182.051 65.0547 181.348 65.6875 181.348 66.625C181.348 67.5391 182.051 68.1953 183.035 68.1836C183.996 68.1953 184.699 67.5391 184.699 66.625C184.699 65.6875 183.996 65.0547 183.035 65.0664ZM185.367 69.9297C187.547 69.9297 188.918 70.668 188.918 71.957C188.918 73.2344 187.547 73.9844 185.367 73.9727C183.176 73.9844 181.805 73.2344 181.816 71.957C181.805 70.668 183.176 69.9297 185.367 69.9297ZM185.367 70.7852C183.832 70.7852 182.895 71.207 182.906 71.957C182.895 72.6836 183.832 73.0938 185.367 73.0938C186.914 73.0938 187.828 72.6836 187.828 71.957C187.828 71.207 186.914 70.7852 185.367 70.7852ZM185.648 65.8633C185.725 66.0977 185.766 66.3555 185.766 66.625C185.766 66.8828 185.725 67.1348 185.66 67.3633H187.77V65.8633H185.648ZM195.879 64.4219C195.867 65.8164 197.578 67.1289 199.641 67.3984L199.207 68.3125C197.49 68.0371 195.979 67.1465 195.305 65.9102C194.613 67.1523 193.107 68.0371 191.402 68.3125L190.957 67.3984C193.02 67.1289 194.707 65.8281 194.719 64.4219V63.8477H195.879V64.4219ZM200.074 69.3438V70.2578H195.809V73.9961H194.719V70.2578H190.5V69.3438H200.074ZM210.445 68.4414V69.3438H200.871V68.4414H210.445ZM205.652 70.1523C207.914 70.1523 209.273 70.8555 209.273 72.0742C209.273 73.293 207.914 73.9844 205.652 73.9727C203.379 73.9844 202.008 73.293 202.008 72.0742C202.008 70.8555 203.379 70.1523 205.652 70.1523ZM205.652 71.0195C204.047 71.0312 203.133 71.3945 203.133 72.0742C203.133 72.7422 204.047 73.0938 205.652 73.0938C207.234 73.0938 208.16 72.7422 208.16 72.0742C208.16 71.3945 207.234 71.0312 205.652 71.0195ZM209.59 64.0117V64.9258H206.402C206.525 65.9453 208.014 66.8125 209.953 67.0117L209.555 67.8906C207.738 67.6797 206.232 66.9121 205.664 65.8047C205.078 66.9121 203.578 67.6797 201.762 67.8906L201.375 67.0117C203.279 66.8125 204.779 65.9512 204.914 64.9258H201.75V64.0117H209.59Z" fill="#816CEC"/>
<rect x="150" y="67" width="3" height="3" rx="1.5" fill="#816CEC"/>
<path d="M165.352 83.4453V84.3477H164.355V87.6406C164.854 87.5996 165.34 87.5527 165.809 87.5L165.879 88.332C163.758 88.6719 161.32 88.7188 159.516 88.7188L159.387 87.8047C159.791 87.8047 160.225 87.7988 160.676 87.793V84.3477H159.68V83.4453H165.352ZM167.637 82.5078V85.6133H169.16V86.5508H167.637V90.2305H166.523V82.5078H167.637ZM168.082 91.8711V92.7734H160.98V89.4922H162.094V91.8711H168.082ZM161.754 87.7578C162.252 87.752 162.756 87.7344 163.266 87.6992V84.3477H161.754V87.7578ZM178.793 82.4961V92.9961H177.727V87.5234H176.426V92.4805H175.371V82.6953H176.426V86.6094H177.727V82.4961H178.793ZM174.188 83.6797V90.2305H170.109V83.6797H174.188ZM171.164 84.5586V89.3398H173.145V84.5586H171.164ZM180.762 88.7656C180.773 86.5625 181.395 84.7227 182.496 83.1523H183.645C182.836 84.3125 182.062 86.6797 182.062 88.7656C182.062 90.8633 182.836 93.2188 183.645 94.3906H182.496C181.395 92.8203 180.773 90.9805 180.762 88.7656ZM193.172 82.4961V87.8398H192.059V86.832H189.398V85.9648H192.059V84.8281H189.527C188.877 86.457 187.295 87.5293 184.969 88.0742L184.582 87.1602C187.102 86.6035 188.467 85.4375 188.648 83.8906H185.133V82.9766H189.867C189.867 83.3164 189.838 83.6387 189.785 83.9492H192.059V82.4961H193.172ZM193.172 88.2852V90.9453H187.43V92H193.488V92.8906H186.328V90.1016H192.059V89.1641H186.305V88.2852H193.172ZM203.801 82.4961V92.9961H202.734V82.4961H203.801ZM201.668 82.7188V92.4688H200.613V87.125H198.984V86.2109H200.613V82.7188H201.668ZM197.953 85.4258C197.953 87.2188 198.68 89.0117 200.156 89.8672L199.488 90.6875C198.486 90.0898 197.795 89.0293 197.438 87.7578C197.057 89.1289 196.342 90.2949 195.316 90.9336L194.637 90.1016C196.125 89.1992 196.887 87.2891 196.887 85.4258V84.582H194.953V83.6797H199.758V84.582H197.953V85.4258ZM208.043 88.7656C208.031 90.9805 207.41 92.8203 206.309 94.3906H205.16C205.969 93.2188 206.742 90.8633 206.742 88.7656C206.742 86.6797 205.969 84.3125 205.16 83.1523H206.309C207.41 84.7227 208.031 86.5625 208.043 88.7656ZM218.461 82.4961V92.9961H217.395V87.5703H216.035V92.457H215.016V82.707H216.035V86.6562H217.395V82.4961H218.461ZM213.738 83.7617V84.6641H210.914V89.5273C212.203 89.5156 213.176 89.457 214.301 89.2461L214.383 90.1602C213.117 90.418 212.039 90.4648 210.504 90.4766H209.801V83.7617H213.738ZM228.773 82.4961V89.1172H227.719V86.1875H226.5V88.7539H225.457V82.6953H226.5V85.2734H227.719V82.4961H228.773ZM225.07 83.6914V84.5703H219.762V83.6914H221.883V82.5781H222.984V83.6914H225.07ZM222.422 85.0625C223.758 85.0625 224.695 85.7773 224.695 86.8672C224.695 87.957 223.758 88.6719 222.422 88.6719C221.109 88.6719 220.172 87.957 220.172 86.8672C220.172 85.7773 221.109 85.0625 222.422 85.0625ZM222.422 85.8828C221.684 85.8828 221.168 86.2695 221.168 86.8672C221.168 87.4648 221.684 87.8633 222.422 87.8633C223.184 87.8633 223.688 87.4648 223.688 86.8672C223.688 86.2695 223.184 85.8828 222.422 85.8828ZM225.258 89.2695C227.484 89.2695 228.82 89.9375 228.832 91.1328C228.82 92.3047 227.484 92.9844 225.258 92.9727C223.031 92.9844 221.695 92.3047 221.707 91.1328C221.695 89.9375 223.031 89.2695 225.258 89.2695ZM225.258 90.125C223.699 90.125 222.797 90.4766 222.809 91.1328C222.797 91.7656 223.699 92.1289 225.258 92.1172C226.828 92.1289 227.707 91.7656 227.719 91.1328C227.707 90.4766 226.828 90.125 225.258 90.125Z" fill="#FCA31D"/>
<rect x="150" y="86" width="3" height="3" rx="1.5" fill="#FCA31D"/>
<path fill-rule="evenodd" clip-rule="evenodd" d="M60.5 0.00203994V62L91.6932 110.956C82.4965 116.688 71.635 120 60 120C26.8629 120 0 93.1371 0 60C0 26.8629 26.8629 0 60 0C60.1668 0 60.3335 0.000680856 60.5 0.00203994Z" fill="#00CBEA"/>
<path fill-rule="evenodd" clip-rule="evenodd" d="M60.5 0C93.4069 0.268598 120 27.0277 120 59.998C120 71.2558 116.899 81.7894 111.506 90.7916L60.5 61.998V0Z" fill="#02CA66"/>
</svg>
