<svg width="275" height="160" viewBox="0 0 275 160" fill="none" xmlns="http://www.w3.org/2000/svg">
<path fill-rule="evenodd" clip-rule="evenodd" d="M10.001 136C10.0003 135.833 10 135.667 10 135.5C10 65.0837 67.0837 8 137.5 8C207.916 8 265 65.0837 265 135.5C265 135.667 265 135.833 264.999 136H228.999C229 135.833 229 135.667 229 135.5C229 84.9659 188.034 44 137.5 44C86.9659 44 46 84.9659 46 135.5C46 135.667 46.0004 135.833 46.0013 136H10.001Z" fill="url(#paint0_linear_1654_8071)"/>
<path d="M90.375 91.4961V101.996H89.3086V96.6172H87.9609V101.457H86.918V91.707H87.9609V95.7031H89.3086V91.4961H90.375ZM82.9922 92.7383V98.3398C83.9648 98.334 85.0254 98.2578 86.2148 98.0234L86.332 98.9961C84.8906 99.2539 83.6836 99.3242 82.5586 99.3242H81.8789V92.7383H82.9922ZM96.3047 92.1406V93.7344H98.9297V92.1406H100.031V93.1602H102.328V91.4961H103.441V97.8359H102.328V96.2188H100.031V97.1094H95.1914V92.1406H96.3047ZM96.3047 96.2188H98.9297V94.6133H96.3047V96.2188ZM99.9258 98.0234C102.129 98.0352 103.477 98.75 103.477 100.016C103.477 101.258 102.129 101.984 99.9258 101.973C97.7227 101.984 96.3633 101.258 96.375 100.016C96.3633 98.75 97.7227 98.0352 99.9258 98.0234ZM99.9258 98.8789C98.3906 98.8906 97.4766 99.2891 97.4766 100.016C97.4766 100.719 98.3906 101.117 99.9258 101.117C101.461 101.117 102.375 100.719 102.375 100.016C102.375 99.2891 101.461 98.8906 99.9258 98.8789ZM100.031 95.3047H102.328V94.0508H100.031V95.3047ZM113.789 91.5078V99.4648H112.676V98.457H110.566V97.6719H112.676V91.5078H113.789ZM114.047 100.871V101.773H106.465V98.6914H107.566V100.871H114.047ZM105.012 96.3008C106.957 96.2891 109.57 96.2656 111.809 95.9844L111.879 96.7812C110.982 96.9277 110.039 97.0273 109.113 97.0859V99.1367H108V97.1445C106.98 97.1914 106.002 97.1973 105.152 97.1914L105.012 96.3008ZM108.445 91.9062C109.98 91.9062 111.047 92.6445 111.047 93.7578C111.047 94.8711 109.98 95.5859 108.445 95.5859C106.887 95.5859 105.832 94.8711 105.832 93.7578C105.832 92.6445 106.887 91.9062 108.445 91.9062ZM108.445 92.7383C107.508 92.7266 106.875 93.125 106.887 93.7578C106.875 94.3789 107.508 94.7656 108.445 94.7656C109.348 94.7656 109.98 94.3789 109.992 93.7578C109.98 93.125 109.348 92.7266 108.445 92.7383ZM118.852 92.2461C120.516 92.2344 121.699 93.2656 121.711 94.7422C121.699 96.2188 120.516 97.25 118.852 97.25C117.199 97.25 115.98 96.2188 115.992 94.7422C115.98 93.2656 117.199 92.2344 118.852 92.2461ZM118.852 93.207C117.832 93.207 117.082 93.8164 117.094 94.7422C117.082 95.668 117.832 96.2773 118.852 96.2773C119.871 96.2773 120.621 95.668 120.621 94.7422C120.621 93.8164 119.871 93.207 118.852 93.207ZM124.113 91.4961V102.02H123V91.4961H124.113ZM115.488 98.832C117.398 98.832 120.047 98.8086 122.344 98.4805L122.426 99.2891C120.047 99.7461 117.504 99.7578 115.629 99.7578L115.488 98.832ZM137.484 91.5078V97.7188H136.371V96.4414H133.723V95.5273H136.371V94.25H133.828C133.154 95.9375 131.578 97.127 129.305 97.7773L128.859 96.9102C131.344 96.1953 132.797 94.8652 132.996 93.1719H129.398V92.2578H134.203C134.203 92.6445 134.162 93.0195 134.098 93.3711H136.371V91.5078H137.484ZM134.027 97.8359C136.148 97.8359 137.543 98.6094 137.555 99.8867C137.543 101.164 136.148 101.949 134.027 101.949C131.871 101.949 130.488 101.164 130.488 99.8867C130.488 98.6094 131.871 97.8359 134.027 97.8359ZM134.027 98.7148C132.527 98.7148 131.59 99.1367 131.59 99.8867C131.59 100.625 132.527 101.059 134.027 101.059C135.504 101.059 136.43 100.625 136.441 99.8867C136.43 99.1367 135.504 98.7148 134.027 98.7148ZM142.008 92.1055C142.881 92.0996 143.625 92.4277 144.117 92.9727H146.742V91.4961H147.855V97.6953H146.742V96.2773H144.105C143.619 96.8164 142.875 97.1387 142.008 97.1328C140.426 97.1445 139.254 96.0898 139.254 94.625C139.254 93.1484 140.426 92.0938 142.008 92.1055ZM142.008 93.0664C141.023 93.0547 140.32 93.6875 140.32 94.625C140.32 95.5391 141.023 96.1953 142.008 96.1836C142.969 96.1953 143.672 95.5391 143.672 94.625C143.672 93.6875 142.969 93.0547 142.008 93.0664ZM144.34 97.9297C146.52 97.9297 147.891 98.668 147.891 99.957C147.891 101.234 146.52 101.984 144.34 101.973C142.148 101.984 140.777 101.234 140.789 99.957C140.777 98.668 142.148 97.9297 144.34 97.9297ZM144.34 98.7852C142.805 98.7852 141.867 99.207 141.879 99.957C141.867 100.684 142.805 101.094 144.34 101.094C145.887 101.094 146.801 100.684 146.801 99.957C146.801 99.207 145.887 98.7852 144.34 98.7852ZM144.621 93.8633C144.697 94.0977 144.738 94.3555 144.738 94.625C144.738 94.8828 144.697 95.1348 144.633 95.3633H146.742V93.8633H144.621ZM156.164 93.3594C156.164 94.6836 157.113 95.9844 158.695 96.5234L158.121 97.3906C156.943 96.9805 156.07 96.1426 155.613 95.1055C155.156 96.2598 154.236 97.1855 152.988 97.625L152.414 96.7461C154.031 96.1953 155.027 94.7891 155.027 93.3711V93.0781H152.754V92.1758H158.414V93.0781H156.164V93.3594ZM161.156 98.3047V101.996H160.043V99.207H154.043V98.3047H161.156ZM161.156 91.4961V97.7773H160.043V95.082H158.098V94.168H160.043V91.4961H161.156ZM171.527 91.4961V97.7422H170.414V95.082H168.457V94.168H170.414V91.4961H171.527ZM168.012 98.0352C170.215 98.0352 171.562 98.7617 171.562 100.016C171.562 101.27 170.215 101.984 168.012 101.996C165.809 101.984 164.449 101.27 164.461 100.016C164.449 98.7617 165.809 98.0352 168.012 98.0352ZM168.012 98.9023C166.477 98.9023 165.562 99.3008 165.562 100.016C165.562 100.719 166.477 101.129 168.012 101.117C169.547 101.129 170.461 100.719 170.461 100.016C170.461 99.3008 169.547 98.9023 168.012 98.9023ZM166.535 93.3477C166.535 94.6836 167.484 95.9727 169.066 96.5117L168.492 97.3906C167.314 96.9805 166.447 96.1426 165.996 95.1055C165.533 96.2832 164.613 97.2266 163.359 97.6836L162.773 96.793C164.402 96.2305 165.398 94.8125 165.398 93.3594V93.125H163.125V92.2227H168.785V93.125H166.535V93.3477ZM176.871 93.0664C176.871 94.543 177.82 95.8555 179.414 96.3711L178.805 97.2383C177.65 96.8223 176.801 96.0137 176.344 94.9648C175.887 96.166 174.973 97.0977 173.707 97.5547L173.109 96.6641C174.785 96.0898 175.758 94.6953 175.77 93.1133V92.082H176.871V93.0664ZM181.898 91.4961V97.6953H180.785V94.543H178.57V93.6289H180.785V91.4961H181.898ZM178.383 97.9883C180.586 97.9883 181.934 98.7148 181.934 99.9922C181.934 101.258 180.586 101.984 178.383 101.973C176.18 101.984 174.82 101.258 174.832 99.9922C174.82 98.7148 176.18 97.9883 178.383 97.9883ZM178.383 98.8555C176.848 98.8555 175.934 99.2656 175.934 99.9922C175.934 100.695 176.848 101.094 178.383 101.094C179.918 101.094 180.832 100.695 180.832 99.9922C180.832 99.2656 179.918 98.8555 178.383 98.8555ZM193.09 96.9805V97.8711H183.516V96.9805H193.09ZM192.012 100.871V101.773H184.723V98.7266H185.848V100.871H192.012ZM188.297 91.8477C190.57 91.8359 192.047 92.6328 192.047 93.9453C192.047 95.2695 190.57 96.0664 188.297 96.0781C186.012 96.0664 184.547 95.2695 184.547 93.9453C184.547 92.6328 186.012 91.8359 188.297 91.8477ZM188.297 92.7383C186.691 92.7383 185.684 93.1953 185.695 93.9453C185.684 94.7188 186.691 95.1641 188.297 95.1641C189.902 95.1641 190.898 94.7188 190.898 93.9453C190.898 93.1953 189.902 92.7383 188.297 92.7383Z" fill="#343A40"/>
<path d="M25.8545 153.115V154.283H21.2842V158.13H19.8877V154.283H15.3682V153.115H25.8545ZM20.5859 147.06C23.0234 147.072 24.7246 148.062 24.7246 149.637C24.7246 151.198 23.0234 152.176 20.5859 152.176C18.1357 152.176 16.46 151.198 16.4727 149.637C16.46 148.062 18.1357 147.072 20.5859 147.06ZM20.5859 148.202C18.9609 148.202 17.9072 148.735 17.9199 149.637C17.9072 150.525 18.9609 151.059 20.5859 151.059C22.2109 151.059 23.2646 150.525 23.2646 149.637C23.2646 148.735 22.2109 148.202 20.5859 148.202ZM32.5957 147.605C32.5957 149.053 34.208 150.513 36.6582 150.83L36.0996 151.973C34.1509 151.681 32.6021 150.722 31.8594 149.421C31.104 150.722 29.5615 151.681 27.6318 151.973L27.0732 150.83C29.498 150.513 31.1104 149.053 31.1104 147.605V147.021H32.5957V147.605ZM37.0771 152.963V154.131H32.5195V158.13H31.123V154.131H26.6162V152.963H37.0771Z" fill="#01BAD7"/>
<path d="M239.126 147.161C240.865 147.148 242.135 148.139 242.135 149.573C242.135 150.982 240.865 151.985 239.126 151.973C237.399 151.985 236.143 150.982 236.143 149.573C236.143 148.139 237.399 147.148 239.126 147.161ZM239.126 148.304C238.187 148.291 237.501 148.786 237.514 149.573C237.501 150.348 238.187 150.817 239.126 150.817C240.104 150.817 240.789 150.348 240.789 149.573C240.789 148.786 240.104 148.291 239.126 148.304ZM244.979 146.666V158.117H243.582V146.666H244.979ZM235.394 152.76C237.463 152.76 240.357 152.722 242.833 152.354L242.935 153.395C241.944 153.585 240.916 153.706 239.913 153.775V157.774H238.491V153.864C237.431 153.909 236.435 153.915 235.571 153.928L235.394 152.76ZM256.227 146.653V153.598H254.817V151.224H253.18V150.056H254.817V146.653H256.227ZM256.227 154.118V157.99H248.597V154.118H256.227ZM250.006 155.235V156.848H254.843V155.235H250.006ZM253.37 147.72V148.862H246.642V147.72H249.308V146.564H250.704V147.72H253.37ZM250.006 149.307C251.605 149.307 252.723 150.157 252.735 151.363C252.723 152.607 251.605 153.42 250.006 153.42C248.419 153.42 247.289 152.607 247.289 151.363C247.289 150.157 248.419 149.307 250.006 149.307ZM250.006 150.373C249.181 150.373 248.635 150.754 248.635 151.363C248.635 151.998 249.181 152.366 250.006 152.366C250.831 152.366 251.377 151.998 251.377 151.363C251.377 150.754 250.831 150.373 250.006 150.373Z" fill="#F47272"/>
<path d="M119.524 116.518V117.865H114.251V122.304H112.64V117.865H107.425V116.518H119.524ZM113.445 109.53C116.258 109.545 118.221 110.688 118.221 112.504C118.221 114.306 116.258 115.434 113.445 115.434C110.618 115.434 108.685 114.306 108.699 112.504C108.685 110.688 110.618 109.545 113.445 109.53ZM113.445 110.849C111.57 110.849 110.354 111.464 110.369 112.504C110.354 113.529 111.57 114.145 113.445 114.145C115.32 114.145 116.536 113.529 116.536 112.504C116.536 111.464 115.32 110.849 113.445 110.849ZM127.303 110.16C127.303 111.83 129.163 113.515 131.99 113.881L131.346 115.199C129.097 114.862 127.31 113.756 126.453 112.255C125.582 113.756 123.802 114.862 121.575 115.199L120.931 113.881C123.729 113.515 125.589 111.83 125.589 110.16V109.486H127.303V110.16ZM132.474 116.342V117.689H127.215V122.304H125.604V117.689H120.403V116.342H132.474Z" fill="#00B4CD"/>
<path d="M142.021 111.496V117.133H140.908V111.496H142.021ZM136.244 117.637V118.82H140.92V117.637H142.021V121.867H135.154V117.637H136.244ZM136.244 120.953H140.92V119.699H136.244V120.953ZM136.326 111.977C137.932 111.977 139.115 112.973 139.115 114.414C139.115 115.855 137.932 116.852 136.326 116.84C134.721 116.852 133.525 115.855 133.525 114.414C133.525 112.973 134.721 111.977 136.326 111.977ZM136.326 112.914C135.33 112.902 134.615 113.523 134.615 114.414C134.615 115.316 135.33 115.926 136.326 115.926C137.311 115.926 138.025 115.316 138.025 114.414C138.025 113.523 137.311 112.902 136.326 112.914ZM152.404 111.496V121.996H151.291V111.496H152.404ZM145.432 112.516V118.363C146.961 118.352 148.572 118.229 150.26 117.883L150.412 118.82C148.549 119.195 146.861 119.324 145.209 119.324H144.33V112.516H145.432ZM162.236 111.496V115.562H163.924V116.477H162.236V122.02H161.123V111.496H162.236ZM159.412 112.504V113.406H155.615V118.48C157.379 118.475 158.703 118.398 160.197 118.129L160.338 119.066C158.697 119.359 157.303 119.418 155.346 119.406H154.502V112.504H159.412ZM165.623 121.082C165.166 121.082 164.779 120.707 164.791 120.25C164.779 119.793 165.166 119.418 165.623 119.418C166.068 119.418 166.455 119.793 166.455 120.25C166.455 120.707 166.068 121.082 165.623 121.082Z" fill="#343A40"/>
<g filter="url(#filter0_d_1654_8071)">
<mask id="path-6-inside-1_1654_8071" fill="white">
<path fill-rule="evenodd" clip-rule="evenodd" d="M10.001 136C10.0003 135.833 10 135.667 10 135.5C10 65.0837 67.0837 8 137.5 8C207.916 8 265 65.0837 265 135.5C265 135.667 265 135.833 264.999 136H228.999C229 135.833 229 135.667 229 135.5C229 84.9659 188.034 44 137.5 44C86.9659 44 46 84.9659 46 135.5C46 135.667 46.0004 135.833 46.0013 136H10.001Z"/>
</mask>
<path d="M10.001 136L8.00097 136.008L8.00862 138H10.001V136ZM264.999 136V138H266.991L266.999 136.008L264.999 136ZM228.999 136L226.999 135.989L226.988 138H228.999V136ZM46.0013 136V138H48.0121L48.0013 135.989L46.0013 136ZM8 135.5C8 135.669 8.00032 135.839 8.00097 136.008L12.0009 135.992C12.0003 135.828 12 135.664 12 135.5H8ZM137.5 6C65.9791 6 8 63.9791 8 135.5H12C12 66.1883 68.1883 10 137.5 10V6ZM267 135.5C267 63.9791 209.021 6 137.5 6V10C206.812 10 263 66.1883 263 135.5H267ZM266.999 136.008C267 135.839 267 135.669 267 135.5H263C263 135.664 263 135.828 262.999 135.992L266.999 136.008ZM228.999 138H264.999V134H228.999V138ZM230.999 136.011C231 135.841 231 135.67 231 135.5H227C227 135.663 227 135.826 226.999 135.989L230.999 136.011ZM231 135.5C231 83.8614 189.139 42 137.5 42V46C186.929 46 227 86.0705 227 135.5H231ZM137.5 42C85.8614 42 44 83.8614 44 135.5H48C48 86.0705 88.0705 46 137.5 46V42ZM44 135.5C44 135.67 44.0005 135.841 44.0014 136.011L48.0013 135.989C48.0004 135.826 48 135.663 48 135.5H44ZM10.001 138H46.0013V134H10.001V138Z" fill="white" mask="url(#path-6-inside-1_1654_8071)"/>
<path d="M81.1205 50.6431L92.2021 54.1624L79.8691 62.2026L81.1205 50.6431Z" fill="white"/>
</g>
<defs>
<filter id="filter0_d_1654_8071" x="0" y="0" width="275" height="148" filterUnits="userSpaceOnUse" color-interpolation-filters="sRGB">
<feFlood flood-opacity="0" result="BackgroundImageFix"/>
<feColorMatrix in="SourceAlpha" type="matrix" values="0 0 0 0 0 0 0 0 0 0 0 0 0 0 0 0 0 0 127 0" result="hardAlpha"/>
<feOffset dy="2"/>
<feGaussianBlur stdDeviation="5"/>
<feComposite in2="hardAlpha" operator="out"/>
<feColorMatrix type="matrix" values="0 0 0 0 0 0 0 0 0 0 0 0 0 0 0 0 0 0 0.1 0"/>
<feBlend mode="normal" in2="BackgroundImageFix" result="effect1_dropShadow_1654_8071"/>
<feBlend mode="normal" in="SourceGraphic" in2="effect1_dropShadow_1654_8071" result="shape"/>
</filter>
<linearGradient id="paint0_linear_1654_8071" x1="10" y1="123" x2="273.5" y2="123" gradientUnits="userSpaceOnUse">
<stop stop-color="#00CBEA"/>
<stop offset="0.490156" stop-color="#FFD15B"/>
<stop offset="1" stop-color="#F47272"/>
</linearGradient>
</defs>
</svg>
