<svg width="107" height="26" viewBox="0 0 107 26" fill="none" xmlns="http://www.w3.org/2000/svg">
<path d="M25.5701 15.4663C27.3937 15.622 27.8595 16.7427 27.658 18.342C27.7025 18.3394 27.7483 18.3368 27.7927 18.3343C27.8372 18.2262 27.8961 18.122 27.9249 18.01C28.0976 17.3538 28.3121 16.7234 28.7072 16.1521C29.3979 15.151 31.1208 15.2488 31.6585 16.3438C31.9999 17.0399 32.0509 17.7746 31.9607 18.5105C31.8809 19.1616 31.6938 19.7985 31.5617 20.4071C30.8958 20.3235 30.328 20.2141 29.7564 20.1884C28.6836 20.142 28.1538 20.6516 28.1433 21.7092C28.1342 22.5931 28.2742 23.4616 28.5594 24.3006C28.6378 24.5309 28.5751 24.6196 28.3684 24.711C27.5586 25.0674 26.7004 25.115 25.8383 25.088C25.332 25.0726 24.8179 25.0069 24.3247 24.8911C23.4626 24.6878 22.9825 24.0844 22.9092 23.2416C22.8477 22.5314 22.9132 21.8108 22.9249 21.0955C22.9262 20.9822 22.9459 20.8703 22.9629 20.6914C22.8752 20.7686 22.836 20.7982 22.802 20.8343C20.8737 22.9148 18.4326 24.0831 15.6827 24.6994C14.262 25.0172 12.8204 25.1369 11.3683 25.1395C8.43659 25.1446 5.50361 25.1433 2.57192 25.1395C1.34483 25.1395 0.42909 24.5167 0.112505 23.4552C0.0340132 23.1927 0.00392461 22.9071 0.00392461 22.633C0 15.932 0 9.23236 0 2.53138C0 1.03884 0.97461 0.0107938 2.48689 0.00822047C5.95232 0.00178712 9.42036 -0.025233 12.8832 0.0738406C15.5218 0.149754 18.0205 0.858709 20.2784 2.25217C23.2847 4.10626 25.0612 6.77611 25.6421 10.2154C25.9246 11.8906 25.9089 13.5659 25.5884 15.236C25.5767 15.2977 25.578 15.3621 25.5701 15.4663ZM7.90546 12.5687C7.90546 14.2079 7.90546 15.8471 7.90546 17.4876C7.90546 17.8466 8.02451 18.0074 8.33325 18.0036C9.87954 17.9881 11.4285 18.0087 12.9708 17.9225C14.1168 17.8582 15.1817 17.4516 16.1157 16.7774C17.3899 15.86 17.9891 14.5798 18.0846 13.0602C18.1945 11.2846 17.7667 9.69685 16.2976 8.51697C15.2863 7.70508 14.0998 7.27791 12.8151 7.20714C11.3814 7.12737 9.94103 7.15053 8.50462 7.1338C8.01535 7.12865 7.90546 7.24059 7.90546 7.71537C7.90546 9.33401 7.90546 10.9514 7.90546 12.57V12.5687Z" fill="#00CBEA"/>
<path d="M49.4062 6.26562V9.65625H51.375V11.1094H49.4062V14.5469H47.6719V6.26562H49.4062ZM49.4062 15.2812V20.4062H47.6719V16.6562H40V15.2812H49.4062ZM45.1875 7.25V8.65625H40.5781V12.2656C43.2344 12.2578 44.7109 12.1797 46.3906 11.8281L46.5781 13.2031C44.7344 13.6094 43.0781 13.6719 40 13.6719H38.8594V7.25H45.1875ZM63.9375 6.26562V20.4062H62.2188V12.7812H59.5625V11.375H62.2188V6.26562H63.9375ZM59.3438 7.48438V8.90625H54.4844V11.4375H58.7812V12.8125H54.4844V15.7188C56.6328 15.7109 58.2422 15.6406 60.0625 15.3438L60.2344 16.75C58.1719 17.0625 56.375 17.1406 53.8438 17.1562H52.7344V7.48438H59.3438ZM70.5 7.25C72.7344 7.23438 74.375 8.65625 74.3906 10.6562C74.375 12.6719 72.7344 14.0781 70.5 14.0781C68.2812 14.0781 66.625 12.6719 66.625 10.6562C66.625 8.65625 68.2812 7.23438 70.5 7.25ZM70.5 8.75C69.2656 8.75 68.3438 9.48438 68.3438 10.6562C68.3438 11.8438 69.2656 12.5625 70.5 12.5625C71.75 12.5625 72.6875 11.8438 72.6875 10.6562C72.6875 9.48438 71.75 8.75 70.5 8.75ZM77.6875 6.26562V20.4062H75.9531V6.26562H77.6875ZM65.9844 16.0312C68.5312 16.0312 72.0625 16 75.1094 15.5625L75.25 16.8281C72.0781 17.4375 68.6875 17.4531 66.2031 17.4531L65.9844 16.0312ZM88.0781 7.10938V8.5H85.1094C85.1328 10.1562 86.3516 11.7422 88.5781 12.375L87.7031 13.7344C86.0703 13.25 84.8906 12.2266 84.25 10.9219C83.6172 12.3281 82.4062 13.4375 80.7188 13.9688L79.8438 12.6094C82.1016 11.9453 83.3203 10.25 83.3594 8.5H80.3125V7.10938H88.0781ZM91.5156 6.26562V13.9219H89.7656V6.26562H91.5156ZM83.8906 14.5469V16H89.7812V14.5469H91.5156V20.2188H82.1719V14.5469H83.8906ZM83.8906 18.8125H89.7812V17.3438H83.8906V18.8125ZM98.625 9.65625C98.6094 12.1719 99.875 14.7344 102.062 15.7812L101 17.1719C99.4688 16.3984 98.3672 14.9062 97.7656 13.1094C97.1484 15.0312 95.9922 16.625 94.375 17.4375L93.3125 16.0469C95.5781 14.9688 96.875 12.2656 96.8906 9.65625V7.40625H98.625V9.65625ZM104.641 6.26562V11.7969H106.812V13.2812H104.641V20.3906H102.906V6.26562H104.641Z" fill="#00CBEA"/>
</svg>
