<svg width="101" height="25" viewBox="0 0 101 25" fill="none" xmlns="http://www.w3.org/2000/svg">
<path d="M46.98 5V8.15H48.78V9.68H46.98V12.8H45.09V5H46.98ZM36.93 12.08V5.93H42.93V7.43H38.79V10.58C41.19 10.58 42.525 10.505 44.01 10.19L44.22 11.66C42.525 12.035 40.995 12.095 38.04 12.08H36.93ZM38.01 14.96V13.49H46.98V18.35H45.09V14.96H38.01ZM60.6039 5V18.38H58.7739V11.24H56.4039V9.74H58.7739V5H60.6039ZM49.9839 15.35V6.14H56.1939V7.64H51.8439V9.86H55.7139V11.33H51.8439V13.82C53.6889 13.82 55.1739 13.76 56.8239 13.49L57.0039 14.99C55.0539 15.29 53.3139 15.35 51.0339 15.35H49.9839ZM66.6377 5.9C68.7527 5.9 70.3277 7.265 70.3277 9.17C70.3277 11.09 68.7527 12.455 66.6377 12.44C64.5377 12.455 62.9327 11.09 62.9477 9.17C62.9327 7.265 64.5377 5.9 66.6377 5.9ZM62.3777 14.15C64.7627 14.135 68.0627 14.105 70.8977 13.7L71.0477 15.05C68.0927 15.635 64.9277 15.65 62.5877 15.65L62.3777 14.15ZM64.8077 9.17C64.7927 10.235 65.5877 10.835 66.6377 10.85C67.7027 10.835 68.5127 10.235 68.5277 9.17C68.5127 8.135 67.7027 7.52 66.6377 7.52C65.5877 7.52 64.7927 8.135 64.8077 9.17ZM71.6777 18.38V5H73.5377V18.38H71.6777ZM83.1716 5.75V7.25H80.4866C80.5916 8.675 81.6116 10.055 83.6816 10.61L82.7516 12.08C81.2216 11.645 80.1566 10.73 79.5566 9.56C78.9416 10.82 77.8466 11.825 76.2716 12.32L75.3416 10.85C77.4566 10.235 78.4766 8.765 78.5666 7.25H75.8216V5.75H83.1716ZM77.5316 18.2V12.8H79.3616V14.06H84.5816V12.8H86.4416V18.2H77.5316ZM79.3616 16.7H84.5816V15.5H79.3616V16.7ZM84.5816 12.26V5H86.4416V12.26H84.5816ZM93.1655 8.03C93.1505 10.43 94.1705 12.83 96.3155 13.85L95.1755 15.35C93.7655 14.645 92.7905 13.34 92.2355 11.735C91.6505 13.46 90.6305 14.87 89.1155 15.62L87.9755 14.09C90.2255 13.055 91.2755 10.505 91.2755 8.03V6.05H93.1655V8.03ZM96.8855 18.35V5H98.7755V10.16H100.725V11.72H98.7755V18.35H96.8855Z" fill="white"/>
<g clip-path="url(#clip0_874_18743)">
<path d="M23.972 15.01C25.6817 15.1611 26.1183 16.2489 25.9294 17.8012C25.9711 17.7987 26.0141 17.7962 26.0558 17.7937C26.0975 17.6888 26.1527 17.5877 26.1796 17.479C26.3415 16.8421 26.5427 16.2301 26.913 15.6756C27.5606 14.704 29.1758 14.7989 29.6799 15.8617C30 16.5374 30.0478 17.2505 29.9632 17.9648C29.8884 18.5968 29.713 19.2149 29.5891 19.8057C28.9649 19.7245 28.4326 19.6183 27.8967 19.5934C26.891 19.5484 26.3943 20.0429 26.3845 21.0695C26.3759 21.9275 26.5071 22.7705 26.7745 23.5848C26.848 23.8083 26.7892 23.8945 26.5954 23.9831C25.8362 24.3291 25.0317 24.3753 24.2235 24.3491C23.7488 24.3341 23.2668 24.2704 22.8045 24.158C21.9962 23.9607 21.5461 23.3749 21.4775 22.5569C21.4198 21.8676 21.4811 21.1682 21.4922 20.4738C21.4934 20.3639 21.5118 20.2553 21.5277 20.0817C21.4456 20.1566 21.4088 20.1853 21.3769 20.2203C19.5691 22.2397 17.2806 23.3737 14.7026 23.9719C13.3707 24.2804 12.0191 24.3965 10.6578 24.399C7.90933 24.404 5.15964 24.4028 2.41119 24.399C1.26078 24.399 0.402273 23.7946 0.105474 22.7642C0.0318875 22.5095 0.00367933 22.2322 0.00367933 21.9662C0 15.4621 0 8.9592 0 2.45507C0 1.00637 0.913699 0.00852361 2.33147 0.00602587C5.58031 -0.000218499 8.83161 -0.0264448 12.078 0.0697184C14.5517 0.143402 16.8942 0.831531 19.0111 2.18406C21.8294 3.98369 23.495 6.5751 24.0395 9.91334C24.3044 11.5394 24.2897 13.1654 23.9892 14.7864C23.9782 14.8464 23.9794 14.9088 23.972 15.01ZM7.41139 12.1975C7.41139 13.7886 7.41139 15.3797 7.41139 16.972C7.41139 17.3204 7.523 17.4765 7.81244 17.4728C9.26209 17.4578 10.7142 17.4778 12.1602 17.3941C13.2345 17.3316 14.2329 16.937 15.1085 16.2826C16.3031 15.3921 16.8648 14.1495 16.9543 12.6746C17.0574 10.9512 16.6563 9.41004 15.279 8.26483C14.331 7.47679 13.2186 7.06216 12.0142 6.99347C10.67 6.91604 9.31973 6.93852 7.9731 6.92229C7.51441 6.91729 7.41139 7.02594 7.41139 7.48678C7.41139 9.05786 7.41139 10.6277 7.41139 12.1988V12.1975Z" fill="#02CA66"/>
<g filter="url(#filter0_d_874_18743)">
<path d="M21.3781 20.2217C21.41 20.1867 21.4468 20.158 21.529 20.0831C23.5109 17.5916 23.972 15.0114 23.972 15.0114C23.9794 14.9102 23.9782 14.8478 23.9904 14.7879C24.2909 13.1668 24.3056 11.5408 24.0407 9.91475C23.4962 6.57651 21.8319 3.9851 19.0123 2.18547C16.8955 0.834191 14.553 0.144813 12.078 0.0711292C8.83161 -0.0250341 5.58031 0.00244116 2.33147 0.00743665C0.913699 0.0099344 0 1.00778 0 2.45648C0 8.96061 0 15.4635 0.00490577 21.9676C0.00490577 22.2349 0.0331139 22.5109 0.1067 22.7657C0.403499 23.796 1.26201 24.3992 2.41241 24.4004C5.16087 24.4029 7.91055 24.4042 10.659 24.4004C12.0204 24.3979 13.3719 24.283 14.7038 23.9733C17.2818 23.3751 19.5703 22.2424 21.3781 20.2217ZM16.9543 12.6748C16.866 14.1484 16.3031 15.3923 15.1085 16.2828C14.2316 16.9359 13.2333 17.3318 12.1602 17.3942C10.7142 17.4779 9.26209 17.4579 7.81244 17.4729C7.523 17.4754 7.41139 17.3206 7.41139 16.9721C7.41016 15.3811 7.41139 13.79 7.41139 12.1977C7.41139 10.6266 7.41139 9.05677 7.41139 7.48569C7.41139 7.0261 7.51564 6.9162 7.9731 6.9212C9.32096 6.93743 10.67 6.91495 12.0142 6.99238C13.2186 7.06232 14.3298 7.4757 15.279 8.26374C16.6551 9.40771 17.0574 10.9488 16.9543 12.6735V12.6748Z" fill="white"/>
</g>
</g>
<defs>
<filter id="filter0_d_874_18743" x="-10" y="-6" width="44.2285" height="44.4028" filterUnits="userSpaceOnUse" color-interpolation-filters="sRGB">
<feFlood flood-opacity="0" result="BackgroundImageFix"/>
<feColorMatrix in="SourceAlpha" type="matrix" values="0 0 0 0 0 0 0 0 0 0 0 0 0 0 0 0 0 0 127 0" result="hardAlpha"/>
<feOffset dy="4"/>
<feGaussianBlur stdDeviation="5"/>
<feComposite in2="hardAlpha" operator="out"/>
<feColorMatrix type="matrix" values="0 0 0 0 0 0 0 0 0 0 0 0 0 0 0 0 0 0 0.05 0"/>
<feBlend mode="normal" in2="BackgroundImageFix" result="effect1_dropShadow_874_18743"/>
<feBlend mode="normal" in="SourceGraphic" in2="effect1_dropShadow_874_18743" result="shape"/>
</filter>
<clipPath id="clip0_874_18743">
<rect width="30" height="24.403" fill="white"/>
</clipPath>
</defs>
</svg>
